<svg xmlns="http://www.w3.org/2000/svg" width="89.45" height="91.395" viewBox="0 0 89.45 91.395"><defs><style>.a{fill:#e8e8e9;}.b{fill:#ef3829;}</style></defs><g transform="translate(0 0)"><g transform="translate(56.258 5.933)"><path class="a" d="M22.8,2.894c.247-.247.247-.247.494-.247a.242.242,0,0,1,.247-.247Z" transform="translate(-22.8 -2.4)"/></g><g transform="translate(80.711 30.386)"><path class="a" d="M32.7,12.794l.494-.494a.242.242,0,0,0-.247.247A.242.242,0,0,1,32.7,12.794Z" transform="translate(-32.7 -12.3)"/></g><path class="a" d="M81.956,11.678l-6.175,6.175a1.887,1.887,0,0,1-1.235.494l-4.94-.988c-.494,0-.988-.494-1.235-1.235l-.988-4.94c0-.494,0-.988.494-1.235l4.2-4.2A2.918,2.918,0,0,0,70.594.81,17.03,17.03,0,0,0,56.021,5.5a17.707,17.707,0,0,0-3.952,17.784,1.516,1.516,0,0,1-.247,1.482l-49.4,49.4a5.889,5.889,0,0,0-.247,8.4l1.482,1.482a5.889,5.889,0,0,0,8.4-.247l49.4-49.647a1.164,1.164,0,0,1,1.482-.247,17.163,17.163,0,0,0,17.537-3.952,17.145,17.145,0,0,0,3.952-17.29C83.932,11.431,82.7,10.937,81.956,11.678Z" transform="translate(0.732 0.924)"/><path d="M8.364,87.441a7.844,7.844,0,0,1-4.94-1.976L1.942,83.983a7.309,7.309,0,0,1,.247-10.127l49.4-49.4a18.973,18.973,0,0,1,4.2-19.266A18.2,18.2,0,0,1,71.349.25,4.027,4.027,0,0,1,74.56,2.967a4.276,4.276,0,0,1-.988,4.2l-4.2,4.2.988,5.187,5.187,1.235,6.175-6.175a2.369,2.369,0,0,1,2.47-.741A2.824,2.824,0,0,1,86.169,12.6a18.331,18.331,0,0,1-4.2,18.525,18.235,18.235,0,0,1-18.772,4.2L13.551,85.218A7.109,7.109,0,0,1,8.364,87.441ZM68.632,2.473A16.581,16.581,0,0,0,57.517,6.919a15.694,15.694,0,0,0-3.458,16.549,3.43,3.43,0,0,1-.494,2.717l-49.4,49.4a4.7,4.7,0,0,0-.247,6.669L5.4,83.736a4.7,4.7,0,0,0,6.669-.247l49.4-49.647a2.787,2.787,0,0,1,2.717-.741,15.978,15.978,0,0,0,16.3-3.7,15.442,15.442,0,0,0,3.7-16.055l-.247-.247H83.7l-5.928,5.928a2.369,2.369,0,0,1-2.47.741l-4.94-.988a2.055,2.055,0,0,1-2.47-1.482l-.988-4.94a2.369,2.369,0,0,1,.741-2.47l4.2-4.2a2.351,2.351,0,0,0,.494-1.729A1.352,1.352,0,0,0,71.1,2.967,4.453,4.453,0,0,0,68.632,2.473Z" transform="translate(-0.023 0.002)"/></g><g transform="translate(5.525 7.546)"><path class="a" d="M53.949,49.315,20.357,15.723a3.41,3.41,0,0,1-.741-.988l-.988-3.7a6.549,6.549,0,0,0-1.235-1.482L8.5,4.114a2.964,2.964,0,0,0-3.7.247L3.561,5.6a2.964,2.964,0,0,0-.247,3.7L9,17.946a3.631,3.631,0,0,0,1.482,1.235l3.7,1.235c.494.247.741.494,1.235.741L49.009,55a2.843,2.843,0,0,0,4.2,0l1.235-1.235A3.723,3.723,0,0,0,53.949,49.315Z" transform="translate(-1.487 -2.27)"/><path d="M51.512,57.756a4.557,4.557,0,0,1-2.964-1.235L14.956,22.682c-.247-.247-.494-.247-.741-.494l-3.7-1.235a3.483,3.483,0,0,1-1.976-1.482L2.853,10.826a4.506,4.506,0,0,1,.741-5.434L4.829,4.157a4.126,4.126,0,0,1,4.94-.494L18.661,9.1A3.942,3.942,0,0,1,20.39,11.32l1.235,3.7c0,.247.247.494.494.741L55.711,49.358a3.952,3.952,0,0,1,0,5.681l-1.235,1.235a3.521,3.521,0,0,1-2.964,1.482ZM7.793,5.639a1.887,1.887,0,0,0-1.235.494l-1.235.988a1.587,1.587,0,0,0-.247,2.223l5.681,8.645q.371.741.741.741l3.7,1.235a6.191,6.191,0,0,1,1.729.988L50.277,54.792a1.791,1.791,0,0,0,2.47,0l1.235-1.235a1.559,1.559,0,0,0,0-2.223L20.39,17.495a2.5,2.5,0,0,1-.988-1.729l-1.235-3.458c0-.247-.494-.741-.741-.988L8.534,5.886A.907.907,0,0,0,7.793,5.639Z" transform="translate(-2.26 -3.053)"/></g><g transform="translate(51.061 52.77)"><path class="b" d="M27.683,38l-4.446-.988a1.062,1.062,0,0,1-.988-.988l-.988-2.717a1.516,1.516,0,0,1,.247-1.482l9.386-9.386a1.164,1.164,0,0,1,1.482-.247l2.223.741a2.372,2.372,0,0,1,1.729,2.223l.494,3.211c0,.247.247.494.494.741L55.1,46.9a5.753,5.753,0,0,1,.247,7.9l-.247.247-1.235,1.235a5.753,5.753,0,0,1-7.9.247l-.247-.247L28.177,38.5C28.177,38,27.93,38,27.683,38Z" transform="translate(-20.016 -20.375)"/><path d="M50.593,59.987A6.748,6.748,0,0,1,45.9,58.011l-.247-.247L28.363,39.98l.247-1.235-.247,1.235-4.446-.988a2.393,2.393,0,0,1-1.976-1.729l-.988-2.717a2.627,2.627,0,0,1,.494-2.964L30.833,22.2a3.246,3.246,0,0,1,2.964-.741l2.223.741a4.027,4.027,0,0,1,2.717,3.211l.494,3.211L57.015,46.4a6.935,6.935,0,0,1,.247,9.633L55.78,57.517a6.528,6.528,0,0,1-5.187,2.47ZM32.562,24.172h0l-9.633,9.386v.247l.988,2.717,4.446.988c.494,0,.988.494,1.482.741L47.382,56.035a4.782,4.782,0,0,0,3.211,1.482,3.521,3.521,0,0,0,2.964-1.482L54.792,54.8a4.622,4.622,0,0,0,0-6.422L37.008,30.594a2.135,2.135,0,0,1-.741-1.482L35.773,25.9a1.641,1.641,0,0,0-.988-1.235l-2.223-.494Z" transform="translate(-20.696 -21.363)"/></g></svg>