<svg xmlns="http://www.w3.org/2000/svg" width="88.92" height="71.882" viewBox="0 0 88.92 71.882"><defs><style>.a{fill:#f7f7f7;}.b{fill:#fff;}.c{fill:#ef3829;}</style></defs><g transform="translate(0 0)"><path class="a" d="M86.95,38.294a11.857,11.857,0,0,1-4.2,9.139,14.7,14.7,0,0,1-10.374,3.458h-57.3A14.762,14.762,0,0,1,.5,36.318,14.412,14.412,0,0,1,4.7,26.191a14.56,14.56,0,0,1,10.374-4.2A21.884,21.884,0,0,1,37.55.5,24.085,24.085,0,0,1,56.816,11.371h0c8.645-1.482,14.326,2.223,15.561,11.609h0A15.249,15.249,0,0,1,86.95,38.294Z" transform="translate(0.735 0.737)"/><path d="M74.1,22.727c0-.494-.247-.741-.247-.988v-.247c0-.247,0-.494-.247-.494-.988-3.458-2.47-6.175-4.94-7.9-2.717-1.976-6.422-2.717-10.868-2.223A24.905,24.905,0,0,0,38.038,0,22.687,22.687,0,0,0,14.82,21.492,15.3,15.3,0,0,0,4.693,25.938,15.714,15.714,0,0,0,0,37.053,15.919,15.919,0,0,0,15.808,52.861H73.853a16.188,16.188,0,0,0,10.374-3.7A13.157,13.157,0,0,0,88.92,39.029,16.193,16.193,0,0,0,74.1,22.727ZM82.745,47.18a13.816,13.816,0,0,1-9.633,3.211h-57.3A13.706,13.706,0,0,1,2.223,36.806,13.5,13.5,0,0,1,6.175,27.42a13.636,13.636,0,0,1,9.633-3.952h.247c1.976.494,3.952.741,6.175,1.235a1.265,1.265,0,0,0,.494-2.47c-1.729-.247-3.7-.494-5.681-.741A20.462,20.462,0,0,1,23.218,8.154,21.185,21.185,0,0,1,37.791,2.473h.494a21.674,21.674,0,0,1,17.537,9.633c-.741.494-1.235.988-1.976,1.482-1.235.988,0,2.964,1.235,1.976.741-.494,1.235-1.235,1.976-1.729a6.577,6.577,0,0,1,2.964-.741h.247c2.717,0,5.187.494,6.916,1.976,1.976,1.482,3.211,3.7,3.952,6.916a12.236,12.236,0,0,1-.494,4.2c-.494,1.482,1.976,2.223,2.223.741a3.133,3.133,0,0,0,.247-1.482A13.618,13.618,0,0,1,85.956,39.276,8.158,8.158,0,0,1,82.745,47.18Z" transform="translate(0 0.002)"/></g><g transform="translate(29.146 29.892)"><circle class="b" cx="19.76" cy="19.76" r="19.76" transform="translate(1.235 1.235)"/><path d="M32.795,54.09A20.995,20.995,0,1,1,53.79,33.095,20.977,20.977,0,0,1,32.795,54.09Zm0-39.52A18.525,18.525,0,1,0,51.32,33.095,18.66,18.66,0,0,0,32.795,14.57Z" transform="translate(-11.8 -12.1)"/></g><g transform="translate(37.05 36.808)"><path class="c" d="M28.091,17.123H26.362V15.147c0-.247,0-.247-.247-.247l-3.952,3.458a.463.463,0,0,0,0,.741l3.952,3.458a.242.242,0,0,0,.247-.247V19.84h1.729a9.287,9.287,0,0,1,3.458,18.031c-6.422,2.223-13.091-2.223-13.091-8.4v-.247a9.329,9.329,0,0,1,2.964-6.669c.247-.247.247-.247,0-.494h0l-1.729-1.976h0c0-.247-.247-.247-.247,0A12.166,12.166,0,0,0,15,29.473a12.917,12.917,0,0,0,13.091,12.6A12.867,12.867,0,0,0,41.182,29.72,12.916,12.916,0,0,0,28.091,17.123Z" transform="translate(-15 -14.9)"/></g></svg>