<svg xmlns="http://www.w3.org/2000/svg" width="90.896" height="91.39" viewBox="0 0 90.896 91.39"><defs><style>.a{fill:#f7f7f7;}.b{fill:#ef3829;}.c{fill:#afafaf;}</style></defs><ellipse class="a" cx="44.213" cy="44.46" rx="44.213" ry="44.46" transform="translate(1.235 1.235)"/><path d="M45.448,91.39A45.7,45.7,0,1,1,90.9,45.695,45.539,45.539,0,0,1,45.448,91.39Zm0-88.92a43.226,43.226,0,0,0,0,86.45,43.226,43.226,0,0,0,0-86.45Z"/><g transform="translate(37.544 30.875)"><path class="b" d="M22.222,55.337a6.748,6.748,0,0,1-4.693-1.976A6.52,6.52,0,0,1,15.8,48.668l3.211-32.6A3.063,3.063,0,0,1,22.222,13.1h.247a3.063,3.063,0,0,1,3.211,2.964l2.964,32.357a6.672,6.672,0,0,1-1.729,5.187A6.52,6.52,0,0,1,22.222,55.337Z" transform="translate(-14.318 -11.618)"/><path d="M23.351,57.454h0a8.625,8.625,0,0,1-5.928-2.47A7.825,7.825,0,0,1,15.2,49.3l3.211-32.6a4.557,4.557,0,0,1,1.235-2.964A4.557,4.557,0,0,1,22.61,12.5h0A4.6,4.6,0,0,1,27.3,16.7l3.211,32.6a6.727,6.727,0,0,1-2.223,5.928A6.218,6.218,0,0,1,23.351,57.454Zm-.247-2.47A6.056,6.056,0,0,0,27.056,53.5a5.609,5.609,0,0,0,1.482-3.952l-3.211-32.6a2.125,2.125,0,0,0-1.976-1.976h0a2.648,2.648,0,0,0-1.482.494,1.887,1.887,0,0,0-.494,1.235L18.164,49.3a5.027,5.027,0,0,0,1.482,3.7C20.14,54.49,21.622,54.984,23.1,54.984Z" transform="translate(-15.2 -12.5)"/></g><g transform="translate(8.151 8.151)"><path class="c" d="M72.707,40.844h0a5.286,5.286,0,0,1-5.187-4.2A27.813,27.813,0,0,0,40.35,13.427,28.46,28.46,0,0,0,13.18,36.645a4.776,4.776,0,0,1-4.693,4.2H8.24A4.91,4.91,0,0,1,3.3,36.151v-.988A37.661,37.661,0,0,1,40.35,3.3,37.886,37.886,0,0,1,77.4,35.163a4.993,4.993,0,0,1-4.2,5.681Z" transform="translate(-3.3 -3.3)"/></g></svg>