<svg xmlns="http://www.w3.org/2000/svg" width="88.623" height="68.419" viewBox="0 0 88.623 68.419"><defs><style>.a{fill:#e9eaeb;}.b{fill:#222;}.c{fill:#ef3829;}</style></defs><g transform="translate(13.029 35.568)"><path class="a" d="M20.373,45.281H16.915c-3.211,0-4.446-2.223-5.681-5.681L5.8,18.852A3.9,3.9,0,0,1,9.752,14.9h3.7a4.328,4.328,0,0,1,4.2,4.2l7.41,18.525a5.45,5.45,0,0,1-2.964,7.41C21.608,45.034,21.114,45.281,20.373,45.281Z" transform="translate(-4.565 -13.665)"/><path class="b" d="M21.108,47.251H17.65c-4.2,0-5.681-3.458-6.916-6.422L5.3,19.587A5.217,5.217,0,0,1,10.487,14.4h3.7a5.274,5.274,0,0,1,5.434,5.187l7.41,18.278a6.563,6.563,0,0,1-.247,5.681A6.393,6.393,0,0,1,23.084,47C22.59,47,21.849,47.251,21.108,47.251ZM7.77,19.34,13.2,40.088c1.235,3.458,2.47,4.693,4.446,4.693h3.458a3.133,3.133,0,0,0,1.482-.247,3.506,3.506,0,0,0,2.223-1.976,4.816,4.816,0,0,0,0-3.7L17.156,19.834a2.854,2.854,0,0,0-2.964-2.964h-3.7A2.693,2.693,0,0,0,7.77,19.34Z" transform="translate(-5.3 -14.4)"/></g><g transform="translate(61.688 22.23)"><circle class="a" cx="6.669" cy="6.669" r="6.669" transform="translate(1.235 0.988)"/><path class="b" d="M32.9,24.808A7.8,7.8,0,0,1,25,16.9a7.9,7.9,0,0,1,15.808,0A7.8,7.8,0,0,1,32.9,24.808Zm0-13.585a5.434,5.434,0,1,0,5.434,5.434A5.482,5.482,0,0,0,32.9,11.223Z" transform="translate(-25 -9)"/></g><g transform="translate(0 9.108)"><path class="a" d="M9.008,12.6,44.576,4.451A10.844,10.844,0,0,1,57.667,15.072V32.856A10.8,10.8,0,0,1,44.329,43.477L8.514,33.844A10.931,10.931,0,0,1,.61,25.2a13.339,13.339,0,0,1,0-4.446A10.561,10.561,0,0,1,9.008,12.6Z" transform="translate(0.563 -2.938)"/><path class="b" d="M47.387,45.461a12.4,12.4,0,0,1-2.964-.494L8.855,35.581A11.293,11.293,0,0,1,.21,25.948a14.954,14.954,0,0,1,0-4.693,11.942,11.942,0,0,1,9.139-9.139L44.917,3.965A12.5,12.5,0,0,1,55.044,6.188a11.473,11.473,0,0,1,4.446,9.386V33.358A12.171,12.171,0,0,1,54.8,42.991,11.656,11.656,0,0,1,47.387,45.461ZM9.843,14.339a9.233,9.233,0,0,0-7.163,7.41A21.247,21.247,0,0,0,2.433,25.7a9.229,9.229,0,0,0,6.916,7.657l35.568,9.386a9.044,9.044,0,0,0,8.151-1.729,9.252,9.252,0,0,0,3.7-7.657V15.574a9.584,9.584,0,0,0-3.7-7.657,9.136,9.136,0,0,0-7.9-1.729Z" transform="translate(-0.025 -3.688)"/></g><g transform="translate(47.115)"><path class="c" d="M34.173,58.051H24.54a4.955,4.955,0,0,1-4.94-4.94V5.44A4.955,4.955,0,0,1,24.54.5h9.633a4.955,4.955,0,0,1,4.94,4.94V53.111A4.955,4.955,0,0,1,34.173,58.051Z" transform="translate(-18.365 0.735)"/><path class="b" d="M34.908,60.021H25.275A6.115,6.115,0,0,1,19.1,53.846V6.175A6.115,6.115,0,0,1,25.275,0h9.633a6.115,6.115,0,0,1,6.175,6.175V53.846A6.115,6.115,0,0,1,34.908,60.021ZM25.275,2.47a3.8,3.8,0,0,0-3.7,3.7V53.846a3.8,3.8,0,0,0,3.7,3.7h9.633a3.8,3.8,0,0,0,3.7-3.7V6.175a3.638,3.638,0,0,0-3.7-3.7Z" transform="translate(-19.1)"/></g><g transform="translate(76.593 7.989)"><path class="b" d="M33.173,47.363a1.873,1.873,0,0,1-.988-.494,1.194,1.194,0,0,1,0-1.729,26.127,26.127,0,0,0,8.4-20.007,27.155,27.155,0,0,0-9.139-19.76A1.521,1.521,0,0,1,31.2,3.644,1.521,1.521,0,0,1,32.926,3.4,29.632,29.632,0,0,1,43.053,24.886a28.62,28.62,0,0,1-9.386,21.983C33.914,47.116,33.42,47.363,33.173,47.363Z" transform="translate(-31.034 -3.234)"/></g><g transform="translate(30.072 49.4)"><circle class="b" cx="1.482" cy="1.482" r="1.482"/></g></svg>