<svg xmlns="http://www.w3.org/2000/svg" width="66.196" height="88.92" viewBox="0 0 66.196 88.92"><defs><style>.a{fill:#ef3829;}.b{fill:#f7f7f7;}</style></defs><path class="a" d="M46.936.5H4.2A3.5,3.5,0,0,0,.5,4.2v79.04a3.8,3.8,0,0,0,3.7,3.7H60.768a3.8,3.8,0,0,0,3.7-3.7V18.037A6.9,6.9,0,0,0,62.5,13.1L52.37,2.723A7.663,7.663,0,0,0,46.936.5Z" transform="translate(0.735 0.735)"/><path d="M61.256,88.92H4.94A4.955,4.955,0,0,1,0,83.98V4.94A4.955,4.955,0,0,1,4.94,0H47.671A8.625,8.625,0,0,1,53.6,2.47L63.726,12.844a8.625,8.625,0,0,1,2.47,5.928V83.98A4.955,4.955,0,0,1,61.256,88.92ZM4.94,2.47A2.334,2.334,0,0,0,2.47,4.94V83.98a2.475,2.475,0,0,0,2.47,2.47H61.5a2.475,2.475,0,0,0,2.47-2.47V18.772a5.785,5.785,0,0,0-1.729-4.2L52.117,4.2A5.952,5.952,0,0,0,47.671,2.47Z"/><g transform="translate(11.115 51.376)"><path class="b" d="M42.444,44.418H9.84a4.955,4.955,0,0,1-4.94-4.94V26.14A4.955,4.955,0,0,1,9.84,21.2H42.2a4.955,4.955,0,0,1,4.94,4.94V39.478A4.6,4.6,0,0,1,42.444,44.418Z" transform="translate(-3.912 -20.212)"/><path d="M43.279,46.241H10.428A6.01,6.01,0,0,1,4.5,40.313V26.728A6.01,6.01,0,0,1,10.428,20.8H43.279a6.01,6.01,0,0,1,5.928,5.928V40.313A6.01,6.01,0,0,1,43.279,46.241ZM10.428,23.27a3.8,3.8,0,0,0-3.7,3.7V40.56a3.8,3.8,0,0,0,3.7,3.7H43.279a3.8,3.8,0,0,0,3.7-3.7V26.975a3.8,3.8,0,0,0-3.7-3.7Z" transform="translate(-4.5 -20.8)"/></g><g transform="translate(22.724 52.611)"><rect width="2.47" height="23.218"/></g><g transform="translate(42.237 52.611)"><rect width="2.47" height="23.218"/></g><g transform="translate(12.103 62.985)"><rect width="11.609" height="2.47"/></g><g transform="translate(43.472 62.985)"><rect width="11.115" height="2.47"/></g></svg>