<svg xmlns="http://www.w3.org/2000/svg" width="88.858" height="62.985" viewBox="0 0 88.858 62.985"><defs><style>.a{fill:#f7f7f7;}.b{fill:#ef3829;}.c{fill:#222;}</style></defs><path class="a" d="M7.2,2.9H72.9L76.36,4.135V7.593L68.209,31.3l-4.693,4.446H21.526Z" transform="translate(10.584 4.263)"/><path d="M87.191,7.41a5.027,5.027,0,0,0-3.7-1.482H19.266a1.167,1.167,0,0,0-1.235,1.235A1.167,1.167,0,0,0,19.266,8.4H83.733a2.8,2.8,0,0,1,1.976.741,3.43,3.43,0,0,1,.494,2.717L78.793,32.6a10.336,10.336,0,0,1-2.717,4.446,4.607,4.607,0,0,1-2.47,1.235H33.1L17.784,3.211A5.065,5.065,0,0,0,13.091,0H1.235A1.167,1.167,0,0,0,0,1.235,1.167,1.167,0,0,0,1.235,2.47H13.091A2.974,2.974,0,0,1,15.561,4.2L31.122,40.508h0l2.964,7.163a10.006,10.006,0,0,0,1.976,3.211,5.4,5.4,0,0,0,3.458,1.235H74.347a1.167,1.167,0,0,0,1.235-1.235c0-.741,0-1.482-.741-1.482H40.014a2.97,2.97,0,0,1-1.976-.494,5.411,5.411,0,0,1-1.482-2.47L34.333,41h39.52a7.443,7.443,0,0,0,4.2-1.976,12.257,12.257,0,0,0,3.211-5.434l7.41-20.748A5.575,5.575,0,0,0,87.191,7.41Z"/><g transform="translate(35.815 53.105)"><circle class="b" cx="3.705" cy="3.705" r="3.705" transform="translate(1.235 1.235)"/><path class="c" d="M19.44,31.38a4.94,4.94,0,1,1,4.94-4.94A4.955,4.955,0,0,1,19.44,31.38Zm0-7.41a2.334,2.334,0,0,0-2.47,2.47,2.334,2.334,0,0,0,2.47,2.47,2.334,2.334,0,0,0,2.47-2.47A2.334,2.334,0,0,0,19.44,23.97Z" transform="translate(-14.5 -21.5)"/></g><g transform="translate(65.455 53.105)"><circle class="b" cx="3.705" cy="3.705" r="3.705" transform="translate(1.235 1.235)"/><path class="c" d="M31.44,31.38a4.94,4.94,0,1,1,4.94-4.94A4.955,4.955,0,0,1,31.44,31.38Zm0-7.41a2.334,2.334,0,0,0-2.47,2.47,2.47,2.47,0,1,0,4.94,0A2.334,2.334,0,0,0,31.44,23.97Z" transform="translate(-26.5 -21.5)"/></g></svg>