<svg xmlns="http://www.w3.org/2000/svg" width="86.757" height="88.92" viewBox="0 0 86.757 88.92"><defs><style>.a{fill:#fff;}.b{fill:#ef3829;}.c{fill:#222;}</style></defs><path class="a" d="M41.836,87.017H7.71A7.23,7.23,0,0,1,.5,79.807V7.71A7.23,7.23,0,0,1,7.71.5H41.836a7.23,7.23,0,0,1,7.21,7.21v72.1A7.392,7.392,0,0,1,41.836,87.017Z" transform="translate(0.702 0.702)"/><path d="M42.537,88.92H8.411A8.515,8.515,0,0,1,0,80.509V8.411A8.515,8.515,0,0,1,8.411,0H42.537a8.515,8.515,0,0,1,8.411,8.411v72.1A8.515,8.515,0,0,1,42.537,88.92ZM8.411,2.4A5.95,5.95,0,0,0,2.4,8.411v72.1a5.95,5.95,0,0,0,6.008,6.008H42.537a5.95,5.95,0,0,0,6.008-6.008V8.411A5.95,5.95,0,0,0,42.537,2.4Z"/><g transform="translate(0 73.78)"><path class="b" d="M.5,31.2v6.008a6.67,6.67,0,0,0,6.489,6.729H42.316a6.67,6.67,0,0,0,6.489-6.729V31.2Z" transform="translate(0.702 -29.998)"/><path class="c" d="M43.018,45.84H7.69A7.956,7.956,0,0,1,0,37.91V30.7H50.949v7.21A8,8,0,0,1,43.018,45.84ZM2.4,33.1V37.91A5.389,5.389,0,0,0,7.69,43.437H43.018a5.389,5.389,0,0,0,5.287-5.527V33.1Z" transform="translate(0 -30.7)"/></g><g transform="translate(15.861 7.351)"><g transform="translate(0 0.1)"><path d="M17.9,5.5H7.8A1.135,1.135,0,0,1,6.6,4.3,1.135,1.135,0,0,1,7.8,3.1H17.9a1.135,1.135,0,0,1,1.2,1.2A1.135,1.135,0,0,1,17.9,5.5Z" transform="translate(-6.6 -3.1)"/></g><g transform="translate(16.823)"><path d="M14.8,5.561c-.24,0-.721-.24-.961-.24a.839.839,0,0,1-.24-.481V3.879c0-.24.24-.24.24-.481a1.475,1.475,0,0,1,1.442-.24c.24,0,.24.24.481.24a.839.839,0,0,1,.24.481V4.84c0,.24-.24.24-.24.481h-.481A.744.744,0,0,1,14.8,5.561Z" transform="translate(-13.6 -3.059)"/></g></g><g transform="translate(41.095 40.855)"><ellipse class="a" cx="8.652" cy="8.652" rx="8.652" ry="8.652"/></g><g transform="translate(35.087 11.295)"><path class="b" d="M49.847,41.729H61.623a2.777,2.777,0,0,0,2.884-2.884h0a2.777,2.777,0,0,0-2.884-2.884H49.847a2.777,2.777,0,0,0-2.884,2.884h0A2.777,2.777,0,0,0,49.847,41.729ZM33.986,36.683a7.455,7.455,0,0,1,2.163,5.287,7.885,7.885,0,0,1-2.163,5.287A5.684,5.684,0,0,1,28.7,49.42a6.917,6.917,0,0,1-5.047-2.163,7.455,7.455,0,0,1-2.163-5.287,7.066,7.066,0,0,1,2.163-5.287A8.01,8.01,0,0,1,28.7,34.52a11.271,11.271,0,0,1,5.287,2.163m-14.9-4.566a13.925,13.925,0,0,0,0,19.707,13.838,13.838,0,0,0,9.853,4.326,13.838,13.838,0,0,0,9.853-4.326,13.612,13.612,0,0,0,4.086-9.853,14.586,14.586,0,0,0-4.086-10.094,13.838,13.838,0,0,0-9.853-4.326,13.177,13.177,0,0,0-9.853,4.566m22.59-5.287h0a3.046,3.046,0,0,0,4.326,0L58.018,14.813a2.766,2.766,0,0,0,0-4.086h0a2.766,2.766,0,0,0-4.086,0L41.916,22.744A2.612,2.612,0,0,0,41.676,26.829Zm-12.5-4.086h.24A2.777,2.777,0,0,0,32.3,19.86V8.084A2.777,2.777,0,0,0,29.419,5.2h-.24A2.777,2.777,0,0,0,26.3,8.084V19.86A2.922,2.922,0,0,0,29.179,22.744Z" transform="translate(-14.039 -3.998)"/><path d="M29.5,58.052a15.165,15.165,0,0,1-10.574-4.566A14.513,14.513,0,0,1,14.6,42.912,15.678,15.678,0,0,1,18.926,32.1,15.165,15.165,0,0,1,29.5,27.531,15.165,15.165,0,0,1,40.074,32.1,15.678,15.678,0,0,1,44.4,42.912a14.132,14.132,0,0,1-4.326,10.574A13.955,13.955,0,0,1,29.5,58.052Zm0-28.358a12.576,12.576,0,0,0-8.892,3.845A12.9,12.9,0,0,0,17,42.671a11.956,11.956,0,0,0,3.6,8.892A13.015,13.015,0,0,0,29.5,55.408a12.163,12.163,0,0,0,8.892-3.845A12.341,12.341,0,0,0,42,42.671a12.127,12.127,0,0,0-3.6-9.132A13.015,13.015,0,0,0,29.5,29.694Zm.481,21.87h-.961a9.4,9.4,0,0,1-5.768-2.4,9.137,9.137,0,0,1-2.4-6.248,10.123,10.123,0,0,1,2.4-6.248,7.811,7.811,0,0,1,5.768-2.4,10.123,10.123,0,0,1,6.248,2.4,9.137,9.137,0,0,1,2.4,6.248,8.746,8.746,0,0,1-2.4,6.008A6.382,6.382,0,0,1,29.981,51.563Zm-.721-14.9a6.271,6.271,0,0,0-4.086,1.682,7.054,7.054,0,0,0-1.682,4.566,7.587,7.587,0,0,0,1.682,4.566A5.628,5.628,0,0,0,29.26,49.16a4.547,4.547,0,0,0,4.326-1.682,7.561,7.561,0,0,0,1.923-4.566,7.587,7.587,0,0,0-1.682-4.566h0A6.742,6.742,0,0,0,29.26,36.663Zm32.924,6.969H50.408a4.086,4.086,0,0,1,0-8.171H62.184a4.086,4.086,0,1,1,0,8.171ZM50.408,37.865a1.682,1.682,0,0,0,0,3.365H62.184a1.682,1.682,0,1,0,0-3.365ZM44.4,29.694a4.434,4.434,0,0,1-2.884-1.2h0a3.925,3.925,0,0,1,0-5.768L53.532,10.708a4.386,4.386,0,0,1,5.768,0,4.207,4.207,0,0,1,0,6.008L47.284,28.732A4.618,4.618,0,0,1,44.4,29.694ZM42.958,26.81h0a1.886,1.886,0,0,0,2.644,0L57.618,14.794a1.605,1.605,0,0,0,0-2.4,1.7,1.7,0,0,0-2.644,0L42.958,24.407A1.6,1.6,0,0,0,42.958,26.81ZM29.981,24.647h-.24a4.211,4.211,0,0,1-4.086-4.086V8.786A4.211,4.211,0,0,1,29.74,4.7h.24a4.211,4.211,0,0,1,4.086,4.086V20.561A4.051,4.051,0,0,1,29.981,24.647ZM29.74,7.1a1.643,1.643,0,0,0-1.682,1.682V20.561a1.643,1.643,0,0,0,1.682,1.682h.24a1.643,1.643,0,0,0,1.682-1.682V8.786A1.643,1.643,0,0,0,29.981,7.1h-.24Z" transform="translate(-14.6 -4.7)"/></g></svg>