<svg xmlns="http://www.w3.org/2000/svg" width="88.982" height="88.982" viewBox="0 0 88.982 88.982"><defs><style>.a{fill:#e8e8e9;}.b{fill:#ef3829;}</style></defs><g transform="translate(0 48.721)"><path class="a" d="M26.114,37.81,37.229,26.7A3.842,3.842,0,0,0,31.8,21.262L20.68,32.376a6.112,6.112,0,0,0-5.187,1.729L2.4,47.2a6.288,6.288,0,0,0,8.892,8.892L24.385,43A6.112,6.112,0,0,0,26.114,37.81Z" transform="translate(0.808 -19.039)"/><path d="M7.657,59.961a7.663,7.663,0,0,1-5.434-2.223,7.455,7.455,0,0,1,0-10.621L15.314,34.026A8.243,8.243,0,0,1,20.995,31.8L31.616,21.182a5.065,5.065,0,0,1,7.163,7.163L28.158,38.966a6.95,6.95,0,0,1-2.223,5.681L12.844,57.738A7.532,7.532,0,0,1,7.657,59.961ZM20.748,34.026a5.446,5.446,0,0,0-3.7,1.482L3.952,48.6a5.065,5.065,0,0,0,7.163,7.163L24.206,42.671a4.979,4.979,0,0,0,1.482-4.446v-.494L37.05,26.369a2.62,2.62,0,1,0-3.7-3.7L21.983,34.026H20.748Z" transform="translate(0 -19.7)"/></g><g transform="translate(24.391 0)"><path class="b" d="M63.368,9.6a31.089,31.089,0,1,0,0,43.966A31.157,31.157,0,0,0,63.368,9.6ZM25.577,47.146a22.181,22.181,0,1,1,31.369,0A22.213,22.213,0,0,1,25.577,47.146Z" transform="translate(-9.213 0.833)"/><path d="M42.047,64.5A32.279,32.279,0,1,1,65.018,9.423h0A32.234,32.234,0,0,1,42.047,64.5Zm0-62A30.747,30.747,0,0,0,20.8,11.152a29.965,29.965,0,0,0,0,42.237,29.47,29.47,0,0,0,21.242,8.645,30.512,30.512,0,0,0,21.242-8.645,29.965,29.965,0,0,0,0-42.237A30.747,30.747,0,0,0,42.047,2.507Zm0,53.1A23.2,23.2,0,0,1,25.5,48.7h0a23.258,23.258,0,1,1,16.549,6.916Zm0-44.213a20.157,20.157,0,0,0-14.82,6.175,20.871,20.871,0,0,0,0,29.64h0A20.959,20.959,0,1,0,42.047,11.4Z" transform="translate(-9.875 0.025)"/></g></svg>