<svg xmlns="http://www.w3.org/2000/svg" width="69.694" height="88.92" viewBox="0 0 69.694 88.92"><defs><style>.a{fill:#fff;}.b{fill:#ef3829;}.c{fill:#222;}</style></defs><path class="a" d="M41.836,87.017H7.71A7.23,7.23,0,0,1,.5,79.807V7.71A7.23,7.23,0,0,1,7.71.5H41.836a7.23,7.23,0,0,1,7.21,7.21v72.1A7.392,7.392,0,0,1,41.836,87.017Z" transform="translate(0.702 0.702)"/><path d="M42.537,88.92H8.411A8.515,8.515,0,0,1,0,80.509V8.411A8.515,8.515,0,0,1,8.411,0H42.537a8.515,8.515,0,0,1,8.411,8.411v72.1A8.515,8.515,0,0,1,42.537,88.92ZM8.411,2.4A5.95,5.95,0,0,0,2.4,8.411v72.1a5.95,5.95,0,0,0,6.008,6.008H42.537a5.95,5.95,0,0,0,6.008-6.008V8.411A5.95,5.95,0,0,0,42.537,2.4Z"/><g transform="translate(0 73.78)"><path class="b" d="M.5,31.2v6.008a6.67,6.67,0,0,0,6.489,6.729H42.316a6.67,6.67,0,0,0,6.489-6.729V31.2Z" transform="translate(0.702 -29.998)"/><path class="c" d="M43.018,45.84H7.69A7.956,7.956,0,0,1,0,37.91V30.7H50.949v7.21A8,8,0,0,1,43.018,45.84ZM2.4,33.1V37.91A5.389,5.389,0,0,0,7.69,43.437H43.018a5.389,5.389,0,0,0,5.287-5.527V33.1Z" transform="translate(0 -30.7)"/></g><g transform="translate(15.861 7.351)"><g transform="translate(0 0.1)"><path d="M17.9,5.5H7.8A1.135,1.135,0,0,1,6.6,4.3,1.135,1.135,0,0,1,7.8,3.1H17.9a1.135,1.135,0,0,1,1.2,1.2A1.135,1.135,0,0,1,17.9,5.5Z" transform="translate(-6.6 -3.1)"/></g><g transform="translate(16.823)"><path d="M14.8,5.561c-.24,0-.721-.24-.961-.24-.24-.24-.24-.481-.24-.961s0-.721.24-.961.961-.481,1.2-.24c.24,0,.24.24.481.24A1.249,1.249,0,0,1,16,4.36a1.249,1.249,0,0,1-.481.961.839.839,0,0,1-.481.24Z" transform="translate(-13.6 -3.059)"/></g></g><g transform="translate(29.56 30.281)"><path class="b" d="M31.308,13.2A18.619,18.619,0,0,0,12.8,32.186c0,16.1,15.861,18.265,17.3,35.087,0,.961.481,1.2,1.442,1.2a1.346,1.346,0,0,0,1.442-1.2c1.2-16.582,17.3-18.505,17.3-35.087A19.182,19.182,0,0,0,31.308,13.2Zm0,24.753a6.008,6.008,0,1,1,6.008-6.008A5.95,5.95,0,0,1,31.308,37.953Z" transform="translate(-11.601 -11.758)"/><path d="M32.487,70.518h-.24a2.338,2.338,0,0,1-2.644-2.4c-.721-7.69-4.806-12.257-8.652-16.823C16.626,46.486,12.3,41.679,12.3,32.787A20.214,20.214,0,0,1,32.007,12.6h0A21.014,21.014,0,0,1,52.434,32.787c0,8.892-4.566,13.939-8.892,18.745-4.086,4.566-7.931,8.892-8.652,16.582A2.271,2.271,0,0,1,32.487,70.518Zm-.481-55.275A17.341,17.341,0,0,0,14.7,33.028c0,7.69,3.845,12.257,8.171,16.823,4.326,4.806,8.652,9.613,9.373,18.265h.481c.24,0,.24,0,.24-.24.721-8.411,5.047-13.218,9.132-18.024,4.326-4.566,8.171-9.132,8.171-17.063A18.8,18.8,0,0,0,32.007,15.244Zm0,24.753a7.21,7.21,0,1,1,7.21-7.21A7.081,7.081,0,0,1,32.007,40Zm0-12.016a4.806,4.806,0,1,0,4.806,4.806A4.672,4.672,0,0,0,32.007,27.981Z" transform="translate(-12.3 -12.6)"/></g></svg>