<svg xmlns="http://www.w3.org/2000/svg" width="88.831" height="59.435" viewBox="0 0 88.831 59.435"><defs><style>.a{fill:#ef3829;}</style></defs><g transform="translate(35.726 43.132)"><circle class="a" cx="6.916" cy="6.916" r="6.916" transform="translate(1.235 1.235)"/><path d="M22.651,33.8A8.151,8.151,0,1,1,30.8,25.651,8.223,8.223,0,0,1,22.651,33.8Zm0-13.832A5.928,5.928,0,1,0,28.579,25.9,5.851,5.851,0,0,0,22.651,19.97Z" transform="translate(-14.5 -17.5)"/></g><g transform="translate(22.477 28.992)"><path d="M50.543,24.434a2.668,2.668,0,0,1-1.729-.741,25.343,25.343,0,0,0-35.815,0,2.106,2.106,0,0,1-3.211,0c-.741-.988-.988-2.47,0-3.211a30.266,30.266,0,0,1,42.484,0,2.106,2.106,0,0,1,0,3.211C51.778,24.434,51.284,24.434,50.543,24.434Z" transform="translate(-9.136 -11.775)"/></g><g transform="translate(10.779 14.789)"><path d="M69.114,23.5a2.668,2.668,0,0,1-1.729-.741,41.742,41.742,0,0,0-59.033,0,2.106,2.106,0,0,1-3.211,0,2.106,2.106,0,0,1,0-3.211,46.363,46.363,0,0,1,65.455,0,2.106,2.106,0,0,1,0,3.211A1.76,1.76,0,0,1,69.114,23.5Z" transform="translate(-4.4 -6.025)"/></g><g transform="translate(0 0)"><path d="M86.644,21.928a2.668,2.668,0,0,1-1.729-.741c-22.23-22.23-58.539-22.23-81.016,0a2.336,2.336,0,0,1-3.211.247c-.741-.741-.988-2.47,0-3.211a61.943,61.943,0,0,1,87.438-.247,2.106,2.106,0,0,1,0,3.211A1.479,1.479,0,0,1,86.644,21.928Z" transform="translate(-0.036 -0.037)"/></g></svg>