<svg xmlns="http://www.w3.org/2000/svg" width="88.92" height="88.92" viewBox="0 0 88.92 88.92"><defs><style>.a{fill:#f7f7f7;}.b{fill:#ef3829;}</style></defs><circle class="a" cx="43.225" cy="43.225" r="43.225" transform="translate(1.235 1.235)"/><path d="M44.46,88.92A44.46,44.46,0,1,1,88.92,44.46,44.591,44.591,0,0,1,44.46,88.92Zm0-86.45A41.99,41.99,0,1,0,86.45,44.46,41.955,41.955,0,0,0,44.46,2.47Z"/><g transform="translate(31.616 18.031)"><path class="b" d="M35.524,32.988a24.149,24.149,0,0,0-8.4-4.446,21.837,21.837,0,0,1-4.446-2.47c-.988-.741-1.235-1.729-1.235-3.211a5.227,5.227,0,0,1,.988-3.458c.741-.988,1.976-1.235,3.458-1.235a4.145,4.145,0,0,1,3.458,1.482,3.981,3.981,0,0,1,.988,1.729,3.131,3.131,0,0,0,2.964,2.47h3.458c.494-.247.741-.741,1.235-.988a11.482,11.482,0,0,0-2.47-6.669,10.453,10.453,0,0,0-7.163-3.458V8.041A2.111,2.111,0,0,0,26.879,7.3H25.644a1.358,1.358,0,0,0-1.235.741v4.693A11.466,11.466,0,0,0,17,15.945a9.7,9.7,0,0,0-2.717,6.916A9.486,9.486,0,0,0,17,30.024c1.729,1.729,4.693,3.211,8.4,4.446,1.976.741,3.458,1.482,4.2,2.47A4.886,4.886,0,0,1,30.831,40.4,4.267,4.267,0,0,1,29.6,43.609a5.113,5.113,0,0,1-3.7,1.235,6.232,6.232,0,0,1-4.2-1.482,5.584,5.584,0,0,1-1.482-3.211c-.494-.741-.741-1.235-1.729-1.482H13.788A2.466,2.466,0,0,0,12.8,39.9a11.191,11.191,0,0,0,2.964,7.163,12.106,12.106,0,0,0,7.9,3.211v4.2a3.981,3.981,0,0,0,1.729.988h1.235c.494,0,.741-.247,1.235-.494V50.525a12.775,12.775,0,0,0,7.657-3.211c1.976-1.729,2.717-4.2,2.717-7.163A9.882,9.882,0,0,0,35.524,32.988Z" transform="translate(-12.8 -7.3)"/></g></svg>