<svg xmlns="http://www.w3.org/2000/svg" width="39.026" height="89.661" viewBox="0 0 39.026 89.661"><defs><style>.a{fill:#e9eaeb;}.b{fill:#ef3829;}</style></defs><path class="a" d="M31.128,87.691H6.428A6.01,6.01,0,0,1,.5,81.763V6.428A6.01,6.01,0,0,1,6.428.5h24.7a6.01,6.01,0,0,1,5.928,5.928V81.516A6.066,6.066,0,0,1,31.128,87.691Z" transform="translate(0.735 0.735)"/><path d="M31.863,89.661H7.163A7.168,7.168,0,0,1,0,82.5V7.163A7.168,7.168,0,0,1,7.163,0h24.7a7.168,7.168,0,0,1,7.163,7.163V82.251A7.225,7.225,0,0,1,31.863,89.661ZM7.163,2.47A4.858,4.858,0,0,0,2.47,7.163V82.251a4.69,4.69,0,0,0,4.693,4.693h24.7a4.69,4.69,0,0,0,4.693-4.693V7.163A4.69,4.69,0,0,0,31.863,2.47Z"/><g transform="translate(7.904 10.127)"><path class="b" d="M8.887,13.986H7.9a3.965,3.965,0,0,1-4.2-3.952V8.8A3.965,3.965,0,0,1,7.652,4.6H8.887a3.965,3.965,0,0,1,4.2,3.952V9.787a4.02,4.02,0,0,1-4.2,4.2Z" transform="translate(-2.465 -3.365)"/><path d="M9.622,15.956H8.634A5.274,5.274,0,0,1,3.2,10.769V9.534A5.274,5.274,0,0,1,8.387,4.1H9.622a5.439,5.439,0,0,1,5.434,5.187v1.235A5.186,5.186,0,0,1,9.622,15.956ZM8.387,6.57A2.8,2.8,0,0,0,5.67,9.534v1.235a2.8,2.8,0,0,0,2.964,2.717h.988a2.854,2.854,0,0,0,2.964-2.964V9.287A2.8,2.8,0,0,0,9.622,6.57Z" transform="translate(-3.2 -4.1)"/></g><g transform="translate(8.645 32.11)"><path d="M10.416,17.94H5.97A2.334,2.334,0,0,1,3.5,15.47,2.334,2.334,0,0,1,5.97,13h4.693a2.334,2.334,0,0,1,2.47,2.47A2.539,2.539,0,0,1,10.416,17.94Z" transform="translate(-3.5 -13)"/><g transform="translate(12.35)"><path d="M15.663,17.94H10.97A2.334,2.334,0,0,1,8.5,15.47,2.334,2.334,0,0,1,10.97,13h4.693a2.334,2.334,0,0,1,2.47,2.47A2.475,2.475,0,0,1,15.663,17.94Z" transform="translate(-8.5 -13)"/></g></g><g transform="translate(8.645 43.719)"><path d="M10.416,22.64H5.97A2.334,2.334,0,0,1,3.5,20.17,2.334,2.334,0,0,1,5.97,17.7h4.693a2.334,2.334,0,0,1,2.47,2.47A2.539,2.539,0,0,1,10.416,22.64Z" transform="translate(-3.5 -17.7)"/><g transform="translate(12.35)"><path d="M15.663,22.64H10.97A2.334,2.334,0,0,1,8.5,20.17a2.334,2.334,0,0,1,2.47-2.47h4.693a2.334,2.334,0,0,1,2.47,2.47A2.475,2.475,0,0,1,15.663,22.64Z" transform="translate(-8.5 -17.7)"/></g></g></svg>