<svg xmlns="http://www.w3.org/2000/svg" width="61.75" height="88.426" viewBox="0 0 61.75 88.426"><defs><style>.a{fill:#ef3829;}</style></defs><path class="a" d="M.5,77.811a8.752,8.752,0,0,0,8.645,8.645h34.58a8.591,8.591,0,0,0,8.645-8.645h0A25.932,25.932,0,0,0,26.435,51.876C12.109,52.123.5,63.732.5,77.811M46.195,34.339H57.063a2.741,2.741,0,0,0,2.717-2.717h0A2.741,2.741,0,0,0,57.063,28.9H46.195a2.741,2.741,0,0,0-2.717,2.717h0A2.592,2.592,0,0,0,46.195,34.339Zm-14.82-4.446a7.343,7.343,0,0,1,1.976,4.94,7.844,7.844,0,0,1-1.976,4.94,5.37,5.37,0,0,1-4.94,1.976,6.748,6.748,0,0,1-4.693-1.976,7.163,7.163,0,0,1,0-9.88,6.748,6.748,0,0,1,4.693-1.976,6.342,6.342,0,0,1,4.94,1.976M17.543,25.447a13.258,13.258,0,0,0-3.7,9.386,12.684,12.684,0,0,0,3.7,9.139,12.925,12.925,0,0,0,9.139,3.952,12.5,12.5,0,0,0,9.139-3.952,12.684,12.684,0,0,0,3.7-9.139,13.258,13.258,0,0,0-3.7-9.386,12.925,12.925,0,0,0-9.139-3.952,12.925,12.925,0,0,0-9.139,3.952m20.995-4.94h0a2.568,2.568,0,0,0,3.952,0L53.6,9.392a3,3,0,0,0,0-3.952h0a3,3,0,0,0-3.952,0L38.538,16.555A2.568,2.568,0,0,0,38.538,20.507ZM26.929,16.8h.247a2.741,2.741,0,0,0,2.717-2.717V3.217A2.741,2.741,0,0,0,27.176.5h-.247a2.741,2.741,0,0,0-2.717,2.717V14.085A2.741,2.741,0,0,0,26.929,16.8Z" transform="translate(0.735 0.735)"/><path d="M44.46,88.426H9.88A10.006,10.006,0,0,1,0,78.546c0-14.721,12.177-26.9,27.145-27.17A27.207,27.207,0,0,1,54.34,78.546,9.784,9.784,0,0,1,44.46,88.426ZM27.17,53.846c-13.61.247-24.7,11.313-24.7,24.7a7.5,7.5,0,0,0,7.41,7.41H44.46a7.338,7.338,0,0,0,7.41-7.41A24.741,24.741,0,0,0,27.17,53.846Zm.247-3.952a14.079,14.079,0,0,1-10-4.322,13.754,13.754,0,0,1-4.075-10,14.47,14.47,0,0,1,4.075-10.25,14.079,14.079,0,0,1,10-4.322,14.079,14.079,0,0,1,10,4.322A14.513,14.513,0,0,1,41.5,35.568a13.754,13.754,0,0,1-4.075,10A13.589,13.589,0,0,1,27.417,49.894Zm0-26.429a11.813,11.813,0,0,0-8.274,3.581,12.068,12.068,0,0,0-3.334,8.521,11.526,11.526,0,0,0,3.334,8.274,11.71,11.71,0,0,0,8.274,3.581,11.378,11.378,0,0,0,8.225-3.532,11.524,11.524,0,0,0,3.384-8.324,12.068,12.068,0,0,0-3.334-8.521A11.813,11.813,0,0,0,27.417,23.465Zm.494,20.3c-.3,0-.593-.025-.889-.049H27A7.787,7.787,0,0,1,21.612,41.4a8.352,8.352,0,0,1,0-11.609,7.944,7.944,0,0,1,5.557-2.346,7.7,7.7,0,0,1,5.854,2.371,8.584,8.584,0,0,1,2.3,5.78,8.989,8.989,0,0,1-2.272,5.73A6.617,6.617,0,0,1,27.911,43.768ZM27.17,29.887a5.535,5.535,0,0,0-3.828,1.605,5.975,5.975,0,0,0,0,8.151,5.535,5.535,0,0,0,3.828,1.605,4.25,4.25,0,0,0,4-1.531,6.681,6.681,0,0,0,1.68-4.15,6.137,6.137,0,0,0-1.605-4.075l-.074-.074A5.236,5.236,0,0,0,27.17,29.887ZM57.8,36.309H46.93a3.814,3.814,0,0,1-3.952-3.952A3.964,3.964,0,0,1,46.93,28.4H57.8a3.952,3.952,0,1,1,0,7.9ZM46.93,30.875a1.5,1.5,0,0,0-1.482,1.482,1.372,1.372,0,0,0,1.482,1.482H57.8a1.482,1.482,0,0,0,0-2.964Zm-5.582-7.459a4.24,4.24,0,0,1-2.89-1.235,3.623,3.623,0,0,1-1.334-2.593,4.087,4.087,0,0,1,1.284-3.162L49.523,5.31a4.289,4.289,0,0,1,5.706,0,4.289,4.289,0,0,1,0,5.706L44.114,22.131a3.419,3.419,0,0,1-2.544,1.284A.653.653,0,0,0,41.348,23.416ZM52.512,6.644a2.147,2.147,0,0,0-1.358.494L40.137,18.154a1.738,1.738,0,0,0-.568,1.26,1.22,1.22,0,0,0,.469.864l.1.1a1.648,1.648,0,0,0,1.26.568,1.225,1.225,0,0,0,.865-.469L53.475,9.262a1.768,1.768,0,0,0-.1-2.3A1.137,1.137,0,0,0,52.512,6.644Zm-24.6,12.128h-.247a3.964,3.964,0,0,1-3.952-3.952V3.952A3.964,3.964,0,0,1,27.664,0a4.024,4.024,0,0,1,4.2,3.952V14.82A3.964,3.964,0,0,1,27.911,18.772Zm0-16.3a1.587,1.587,0,0,0-1.729,1.482V14.82A1.486,1.486,0,0,0,27.664,16.3h.247a1.5,1.5,0,0,0,1.482-1.482V3.952A1.52,1.52,0,0,0,27.911,2.47Z"/></svg>