<?xml version="1.0" encoding="UTF-8" ?>
<!DOCTYPE svg PUBLIC "-//W3C//DTD SVG 1.1//EN" "http://www.w3.org/Graphics/SVG/1.1/DTD/svg11.dtd">
<svg width="91pt" height="91pt" viewBox="0 0 91 91" version="1.1" xmlns="http://www.w3.org/2000/svg">
<g id="#f9f9f9ff">
<path fill="#f9f9f9" opacity="1.00" d=" M 22.70 7.44 C 24.27 4.34 27.68 2.42 31.13 2.49 C 48.57 2.39 66.02 2.57 83.46 2.41 C 80.87 5.33 79.58 9.16 79.70 13.06 C 79.64 35.39 79.72 57.72 79.66 80.05 C 79.66 83.03 78.38 86.16 75.77 87.77 C 72.99 89.51 69.31 89.02 66.56 87.45 C 63.22 85.61 63.96 80.01 59.82 79.19 C 47.10 78.90 34.37 79.16 21.65 79.07 C 21.66 73.32 21.64 67.58 21.67 61.83 C 27.89 61.51 34.10 58.92 38.08 54.01 C 44.47 46.67 44.75 34.89 38.74 27.25 C 34.82 21.93 28.36 18.89 21.81 18.67 C 21.71 14.94 21.04 10.93 22.70 7.44 Z" />
<path fill="#f9f9f9" opacity="1.00" d=" M 16.51 21.67 C 22.15 20.09 28.49 21.25 33.13 24.84 C 38.11 28.57 41.02 34.85 40.61 41.06 C 40.30 47.79 36.07 54.14 29.99 57.04 C 23.88 60.12 16.10 59.47 10.58 55.42 C 4.84 51.38 1.70 44.00 2.87 37.07 C 3.88 29.84 9.48 23.57 16.51 21.67 M 20.37 24.98 C 20.33 25.79 20.26 27.40 20.22 28.21 C 18.51 29.15 16.79 30.10 15.09 31.06 C 13.43 34.52 14.20 38.59 17.54 40.71 C 20.00 41.83 24.12 41.65 24.57 45.05 C 25.19 47.44 22.62 48.42 20.82 48.95 C 19.24 47.65 18.00 46.03 16.68 44.50 C 15.44 44.39 14.21 44.35 12.97 44.37 C 12.39 48.65 16.61 50.82 19.89 52.24 C 19.97 52.94 20.11 54.34 20.18 55.04 C 20.79 55.01 22.01 54.96 22.62 54.94 C 22.64 54.31 22.68 53.07 22.70 52.44 C 24.90 51.38 27.00 50.13 29.03 48.76 C 29.01 46.59 29.01 44.43 29.03 42.26 C 26.50 40.14 23.62 38.44 20.35 37.79 C 19.63 37.00 18.91 36.20 18.19 35.41 C 18.22 34.93 18.29 33.96 18.32 33.48 C 19.22 32.90 20.14 32.36 21.09 31.86 C 23.36 31.88 24.39 34.10 25.64 35.61 C 26.79 35.60 27.95 35.57 29.11 35.55 C 28.95 34.27 28.99 32.94 28.56 31.72 C 27.03 30.32 25.15 29.39 23.39 28.32 C 23.43 26.32 22.64 24.65 20.37 24.98 Z" />
</g>
<g id="#000000ff">
<path fill="#000000" opacity="1.00" d=" M 30.44 0.00 L 91.00 0.00 L 91.00 2.01 C 88.65 2.85 85.96 3.30 84.20 5.25 C 82.48 7.79 82.11 10.94 82.11 13.93 C 82.10 35.99 82.16 58.04 82.09 80.09 C 82.23 84.85 79.30 89.50 74.71 91.00 L 14.33 91.00 C 9.44 89.38 7.12 84.40 6.73 79.59 C 10.86 79.13 15.03 79.26 19.18 79.28 C 19.19 73.42 19.15 67.55 19.21 61.68 C 13.57 60.72 8.12 58.00 4.66 53.34 C -1.36 45.85 -1.27 34.28 4.83 26.86 C 8.32 22.31 13.72 19.67 19.30 18.75 C 19.24 14.44 18.50 9.72 20.80 5.81 C 22.72 2.33 26.57 0.33 30.44 0.00 M 22.70 7.44 C 21.04 10.93 21.71 14.94 21.81 18.67 C 28.36 18.89 34.82 21.93 38.74 27.25 C 44.75 34.89 44.47 46.67 38.08 54.01 C 34.10 58.92 27.89 61.51 21.67 61.83 C 21.64 67.58 21.66 73.32 21.65 79.07 C 34.37 79.16 47.10 78.90 59.82 79.19 C 63.96 80.01 63.22 85.61 66.56 87.45 C 69.31 89.02 72.99 89.51 75.77 87.77 C 78.38 86.16 79.66 83.03 79.66 80.05 C 79.72 57.72 79.64 35.39 79.70 13.06 C 79.58 9.16 80.87 5.33 83.46 2.41 C 66.02 2.57 48.57 2.39 31.13 2.49 C 27.68 2.42 24.27 4.34 22.70 7.44 M 16.51 21.67 C 9.48 23.57 3.88 29.84 2.87 37.07 C 1.70 44.00 4.84 51.38 10.58 55.42 C 16.10 59.47 23.88 60.12 29.99 57.04 C 36.07 54.14 40.30 47.79 40.61 41.06 C 41.02 34.85 38.11 28.57 33.13 24.84 C 28.49 21.25 22.15 20.09 16.51 21.67 M 9.45 81.77 C 10.34 85.30 12.93 88.81 16.89 88.82 C 32.54 89.15 48.21 88.75 63.86 89.01 C 62.25 86.82 61.19 84.31 59.91 81.93 C 43.11 81.49 26.27 81.82 9.45 81.77 Z" />
</g>
<g id="#ef3829ff">
<path fill="#ef3829" opacity="1.00" d=" M 20.37 24.98 C 22.64 24.65 23.43 26.32 23.39 28.32 C 25.15 29.39 27.03 30.32 28.56 31.72 C 28.99 32.94 28.95 34.27 29.11 35.55 C 27.95 35.57 26.79 35.60 25.64 35.61 C 24.39 34.10 23.36 31.88 21.09 31.86 C 20.14 32.36 19.22 32.90 18.32 33.48 C 18.29 33.96 18.22 34.93 18.19 35.41 C 18.91 36.20 19.63 37.00 20.35 37.79 C 23.62 38.44 26.50 40.14 29.03 42.26 C 29.01 44.43 29.01 46.59 29.03 48.76 C 27.00 50.13 24.90 51.38 22.70 52.44 C 22.68 53.07 22.64 54.31 22.62 54.94 C 22.01 54.96 20.79 55.01 20.18 55.04 C 20.11 54.34 19.97 52.94 19.89 52.24 C 16.61 50.82 12.39 48.65 12.97 44.37 C 14.21 44.35 15.44 44.39 16.68 44.50 C 18.00 46.03 19.24 47.65 20.82 48.95 C 22.62 48.42 25.19 47.44 24.57 45.05 C 24.12 41.65 20.00 41.83 17.54 40.71 C 14.20 38.59 13.43 34.52 15.09 31.06 C 16.79 30.10 18.51 29.15 20.22 28.21 C 20.26 27.40 20.33 25.79 20.37 24.98 Z" />
<path fill="#ef3829" opacity="1.00" d=" M 9.45 81.77 C 26.27 81.82 43.11 81.49 59.91 81.93 C 61.19 84.31 62.25 86.82 63.86 89.01 C 48.21 88.75 32.54 89.15 16.89 88.82 C 12.93 88.81 10.34 85.30 9.45 81.77 Z" />
</g>
</svg>
