<svg xmlns="http://www.w3.org/2000/svg" width="88.919" height="53.352" viewBox="0 0 88.919 53.352"><defs><style>.a{fill:#ef3829;}.b{fill:#f7f7f7;}.c{fill:#bcc0c4;}</style></defs><g transform="translate(46.189 4.671)"><path class="a" d="M20.435,33.9H34.761v8.645a1.293,1.293,0,0,0,1.976.988L59.214,24.021a1.194,1.194,0,0,0,0-1.729L36.737,2.779c-.741-.741-1.976,0-1.976.988v8.4H20.435A1.167,1.167,0,0,0,19.2,13.4V32.913A1.13,1.13,0,0,0,20.435,33.9Z" transform="translate(-17.965 -1.028)"/><path d="M36.484,45.632a1.485,1.485,0,0,1-.988-.247,2.315,2.315,0,0,1-1.235-2.223v-7.41H21.17a2.475,2.475,0,0,1-2.47-2.47V14.016a2.475,2.475,0,0,1,2.47-2.47H34.261V4.383A2.374,2.374,0,0,1,35.743,2.16a2.272,2.272,0,0,1,2.47.247L60.69,21.92a2.388,2.388,0,0,1,0,3.458L38.213,44.891A2.242,2.242,0,0,1,36.484,45.632ZM21.17,33.529H36.731v9.88L59.208,23.9,36.731,4.63v9.386H21.17Z" transform="translate(-18.7 -1.891)"/></g><path class="b" d="M25.441,0A25.441,25.441,0,1,1,0,25.441,25.441,25.441,0,0,1,25.441,0Z" transform="translate(0.988 1.235)"/><path d="M26.429,53.352A26.677,26.677,0,0,1,26.429,0,26.513,26.513,0,0,1,52.858,26.676,26.355,26.355,0,0,1,26.429,53.352Zm0-50.882A24.207,24.207,0,1,0,50.882,26.676,24.62,24.62,0,0,0,26.429,2.47Z"/><g transform="translate(24.873 40.214)"><g transform="translate(0 0)"><path class="c" d="M-7.748-15.3h0a1.688,1.688,0,0,1,1.729,1.729h0a1.688,1.688,0,0,1-1.729,1.729h0a1.688,1.688,0,0,1-1.729-1.729h0C-9.724-14.559-8.736-15.3-7.748-15.3Z" transform="translate(10.712 16.535)"/><path d="M-7.036-9.872A2.854,2.854,0,0,1-10-12.836,2.854,2.854,0,0,1-7.036-15.8a2.854,2.854,0,0,1,2.964,2.964A3,3,0,0,1-7.036-9.872Zm0-3.458a.531.531,0,0,0-.494.494.5.5,0,1,0,.988,0A.531.531,0,0,0-7.036-13.33Z" transform="translate(10 15.8)"/></g></g><g transform="translate(24.873 5.056)"><g transform="translate(0)"><path class="c" d="M-7.748-2.2h0A1.688,1.688,0,0,1-6.019-.471h0A1.688,1.688,0,0,1-7.748,1.258h0A1.688,1.688,0,0,1-9.477-.471h0C-9.724-1.459-8.736-2.2-7.748-2.2Z" transform="translate(10.712 3.435)"/><path d="M-7.036,3.228A2.854,2.854,0,0,1-10,.264,2.854,2.854,0,0,1-7.036-2.7,2.854,2.854,0,0,1-4.072.264,3.187,3.187,0,0,1-7.036,3.228Zm0-3.458A.531.531,0,0,0-7.53.264a.5.5,0,1,0,.988,0A.531.531,0,0,0-7.036-.23Z" transform="translate(10 2.7)"/></g></g><g transform="translate(40.397 24.228)"><path class="c" d="M-13.671-9.4h0a1.688,1.688,0,0,1,1.729,1.729h0a1.688,1.688,0,0,1-1.729,1.729h0A1.688,1.688,0,0,1-15.4-7.671h0A1.688,1.688,0,0,1-13.671-9.4Z" transform="translate(16.635 10.635)"/><path d="M-12.936-3.972A2.854,2.854,0,0,1-15.9-6.936,2.854,2.854,0,0,1-12.936-9.9,2.854,2.854,0,0,1-9.972-6.936,2.854,2.854,0,0,1-12.936-3.972Zm0-3.458a.531.531,0,0,0-.494.494.5.5,0,1,0,.988,0C-12.2-7.183-12.442-7.43-12.936-7.43Z" transform="translate(15.9 9.9)"/></g><g transform="translate(5.476 24.228)"><path class="c" d="M-.424-9.4h0A1.688,1.688,0,0,1,1.3-7.671h0A1.856,1.856,0,0,1-.424-5.942h0A1.909,1.909,0,0,1-2.4-7.671h0A1.909,1.909,0,0,1-.424-9.4Z" transform="translate(3.388 10.635)"/><path d="M.164-3.972A2.854,2.854,0,0,1-2.8-6.936,2.854,2.854,0,0,1,.164-9.9,2.854,2.854,0,0,1,3.128-6.936,3.179,3.179,0,0,1,.164-3.972Zm0-3.458a.531.531,0,0,0-.494.494c0,.741,1.235.741.988,0A.531.531,0,0,0,.164-7.43Z" transform="translate(2.8 9.9)"/></g><g transform="translate(13.195 12.807)"><path d="M-5.39-5.18h0a.926.926,0,0,1,1.482,0L13.629,12.6a.926.926,0,0,1,0,1.482h0a.926.926,0,0,1-1.482,0L-5.39-3.7A1.575,1.575,0,0,1-5.39-5.18Z" transform="translate(5.575 5.55)"/></g><g transform="translate(22.2 21.724)"><path class="a" d="M10.693,10.058c3.7-2.47,7.41,1.482,5.187,5.187,0,.247-.247.247-.494.494-3.7,2.47-7.41-1.482-5.187-5.187A.531.531,0,0,1,10.693,10.058Z" transform="translate(-8.194 -8.069)"/><path d="M13.711,18.193a4.877,4.877,0,0,1-3.458-1.482,4.734,4.734,0,0,1-.247-6.175l.741-.741a4.457,4.457,0,0,1,6.175.494,5.1,5.1,0,0,1,.494,6.422l-.741.741A6.577,6.577,0,0,1,13.711,18.193Zm0-6.916a6.283,6.283,0,0,0-1.729.494h0l-.247.247c-.988,1.482-.494,2.717.247,3.211a2.552,2.552,0,0,0,3.211.247c.988-1.482.741-2.717,0-3.458A1.494,1.494,0,0,0,13.711,11.277Z" transform="translate(-8.988 -8.795)"/></g></svg>