<svg xmlns="http://www.w3.org/2000/svg" width="69.654" height="91.39" viewBox="0 0 69.654 91.39"><defs><style>.a{fill:#fff;}.b{fill:#ef3829;}.c{fill:#222;}.d{fill:#f7f7f7;}</style></defs><path class="a" d="M42.984,89.42H7.91A7.431,7.431,0,0,1,.5,82.01V7.91A7.431,7.431,0,0,1,7.91.5H42.984a7.431,7.431,0,0,1,7.41,7.41v74.1A7.6,7.6,0,0,1,42.984,89.42Z" transform="translate(0.735 0.735)"/><path d="M43.719,91.39H8.645A8.752,8.752,0,0,1,0,82.745V8.645A8.752,8.752,0,0,1,8.645,0H43.719a8.752,8.752,0,0,1,8.645,8.645v74.1A8.752,8.752,0,0,1,43.719,91.39ZM8.645,2.47A6.115,6.115,0,0,0,2.47,8.645v74.1A6.115,6.115,0,0,0,8.645,88.92H43.719a6.115,6.115,0,0,0,6.175-6.175V8.645A6.115,6.115,0,0,0,43.719,2.47Z"/><g transform="translate(0 75.829)"><path class="b" d="M.5,31.2v6.175a6.855,6.855,0,0,0,6.669,6.916H43.478a6.855,6.855,0,0,0,6.669-6.916V31.2Z" transform="translate(0.735 -29.965)"/><path class="c" d="M44.213,46.261H7.9A8.177,8.177,0,0,1,0,38.11V30.7H52.364v7.41A8.223,8.223,0,0,1,44.213,46.261ZM2.47,33.17v4.94A5.539,5.539,0,0,0,7.9,43.791H44.213a5.539,5.539,0,0,0,5.434-5.681V33.17Z" transform="translate(0 -30.7)"/></g><g transform="translate(16.302 7.472)"><g transform="translate(0 0.185)"><path d="M18.209,5.57H7.835A1.167,1.167,0,0,1,6.6,4.335,1.167,1.167,0,0,1,7.835,3.1H18.209a1.167,1.167,0,0,1,1.235,1.235A1.167,1.167,0,0,1,18.209,5.57Z" transform="translate(-6.6 -3.1)"/></g><g transform="translate(17.29)"><path d="M14.835,5.68h-.494c-.247,0-.247-.247-.494-.247-.247-.247-.247-.494-.247-.988s0-.741.247-.988a.862.862,0,0,1,.494-.247c.247-.247.494-.247.988,0,.247,0,.247.247.494.247a.862.862,0,0,1,.247.494v.494c0,.247-.247.741-.247.988C15.329,5.433,15.082,5.68,14.835,5.68Z" transform="translate(-13.6 -3.025)"/></g></g><g transform="translate(27.664 24.7)"><g transform="translate(1.235 1.235)"><circle class="d" cx="19.76" cy="19.76" r="19.76"/></g><path d="M32.195,10A20.995,20.995,0,1,0,53.19,30.995,20.977,20.977,0,0,0,32.195,10ZM48.5,21.856a48.5,48.5,0,0,1-3.7,5.681,39.962,39.962,0,0,0-2.47-4.446A27.639,27.639,0,0,0,30.466,12.717c.741,0,1.482-.247,2.223-.247A18.491,18.491,0,0,1,48.5,21.856ZM26.514,36.182c-5.928-9.139-3.952-19.019-3.458-21.242A13.238,13.238,0,0,1,25.773,13.7c1.729.247,9.139,2.47,14.326,10.374a40.429,40.429,0,0,1,2.964,5.434,26.363,26.363,0,0,1-6.175,5.434,21.568,21.568,0,0,1-8.645,3.211A6.658,6.658,0,0,1,26.514,36.182ZM20.092,17.163c-.494,4.446-.741,12.6,4.446,20.5.247.247.494.741.741.988a41.842,41.842,0,0,1-9.88,0,19.34,19.34,0,0,1-1.729-7.657A18.38,18.38,0,0,1,20.092,17.163ZM16.881,41.122h3.458a29.256,29.256,0,0,0,6.422-.494,29.687,29.687,0,0,0,9.139,8.4,18.694,18.694,0,0,1-3.7.247A17.09,17.09,0,0,1,16.881,41.122ZM39.6,48.038c-1.235-.247-5.187-1.729-9.88-7.657a25.163,25.163,0,0,0,8.4-3.458,28.17,28.17,0,0,0,5.681-4.94C46.274,38.9,45.78,43.1,45.78,43.592A17.9,17.9,0,0,1,39.6,48.038Zm8.645-7.657a37.739,37.739,0,0,0-2.47-10.374,48.381,48.381,0,0,0,3.952-5.434,18.554,18.554,0,0,1,1.235,6.422A17.393,17.393,0,0,1,48.25,40.381Z" transform="translate(-11.2 -10)"/></g></svg>