<svg xmlns="http://www.w3.org/2000/svg" width="71.136" height="88.92" viewBox="0 0 71.136 88.92"><defs><style>.a{fill:#fff;}.b{fill:#ef3829;}.c{fill:#f7f7f7;}</style></defs><path class="a" d="M40.514,86.95H7.91A7.431,7.431,0,0,1,.5,79.54V7.91A7.431,7.431,0,0,1,7.91.5h32.6a7.431,7.431,0,0,1,7.41,7.41V79.54A7.431,7.431,0,0,1,40.514,86.95Z" transform="translate(0.735 0.735)"/><path d="M41.5,88.92H8.4a8.329,8.329,0,0,1-8.4-8.4V8.4A8.329,8.329,0,0,1,8.4,0H41.5a8.329,8.329,0,0,1,8.4,8.4V80.522A8.329,8.329,0,0,1,41.5,88.92ZM8.4,2.47A5.707,5.707,0,0,0,2.47,8.4V80.522A5.707,5.707,0,0,0,8.4,86.45H41.5a6.01,6.01,0,0,0,5.928-5.928V8.4A5.851,5.851,0,0,0,41.5,2.47Z"/><g transform="translate(0 73.853)"><path class="b" d="M.5,30.4v5.928A6.593,6.593,0,0,0,6.922,43H41.5a6.593,6.593,0,0,0,6.422-6.669V30.4Z" transform="translate(0.735 -29.165)"/><path d="M42.237,44.967H7.657A7.751,7.751,0,0,1,0,37.063V29.9H49.894v7.163A7.751,7.751,0,0,1,42.237,44.967ZM2.47,32.37v4.693A5.274,5.274,0,0,0,7.657,42.5h34.58a5.274,5.274,0,0,0,5.187-5.434V32.37Z" transform="translate(0 -29.9)"/></g><g transform="translate(15.808 7.78)"><g transform="translate(0 0.124)"><path d="M17.268,5.67H7.635A1.167,1.167,0,0,1,6.4,4.435,1.167,1.167,0,0,1,7.635,3.2h9.633A1.167,1.167,0,0,1,18.5,4.435,1.167,1.167,0,0,1,17.268,5.67Z" transform="translate(-6.4 -3.2)"/></g><g transform="translate(15.808)"><path d="M14.035,5.743a1.485,1.485,0,0,1-.988-.247C12.8,5.249,12.8,5,12.8,4.508c0-.247.247-.741.247-.988a1.194,1.194,0,0,1,1.729,0c.247.247.247.494.247.988a1.485,1.485,0,0,1-.247.988C14.529,5.5,14.282,5.743,14.035,5.743Z" transform="translate(-12.8 -3.15)"/></g></g><g transform="translate(28.158 21.736)"><circle class="c" cx="20.254" cy="20.254" r="20.254" transform="translate(1.235 1.235)"/><path d="M32.889,51.778A21.489,21.489,0,1,1,54.378,30.289,21.5,21.5,0,0,1,32.889,51.778Zm0-40.755A19.019,19.019,0,1,0,51.908,30.042,19.027,19.027,0,0,0,32.889,11.023Z" transform="translate(-11.4 -8.8)"/><g transform="translate(7.657 12.35)"><path class="b" d="M17.464,24.668v6.669H14.5V13.8h6.669a6.038,6.038,0,0,1,4.446,1.482,5.373,5.373,0,0,1,1.729,3.952,4.606,4.606,0,0,1-1.729,3.952,6.9,6.9,0,0,1-4.446,1.482h-3.7Zm0-2.223h3.7a2.864,2.864,0,0,0,2.47-.988,3.448,3.448,0,0,0,.741-2.223,3.019,3.019,0,0,0-.741-2.223,3.773,3.773,0,0,0-2.47-.988h-3.7v6.422Z" transform="translate(-14.5 -13.8)"/><path class="b" d="M30.48,26.891a2.242,2.242,0,0,0-.741-1.729,5.575,5.575,0,0,0-2.717-1.235,12.514,12.514,0,0,1-4.446-1.976,3.983,3.983,0,0,1-1.482-3.211,4.006,4.006,0,0,1,1.729-3.458A6.446,6.446,0,0,1,27.269,13.8a6.038,6.038,0,0,1,4.446,1.482,5.253,5.253,0,0,1,1.729,3.7H30.727a2.408,2.408,0,0,0-.988-2.223,4.173,4.173,0,0,0-2.47-.741,3.019,3.019,0,0,0-2.223.741,2.5,2.5,0,0,0-.988,1.729,1.865,1.865,0,0,0,.988,1.729,11.808,11.808,0,0,0,2.964,1.235,9.711,9.711,0,0,1,4.2,2.223,4.485,4.485,0,0,1,1.482,3.458A3.738,3.738,0,0,1,31.962,30.6a8.832,8.832,0,0,1-4.693.988A7.6,7.6,0,0,1,22.576,30.1,4.8,4.8,0,0,1,20.6,26.15h2.717a3.171,3.171,0,0,0,.988,2.47,3.536,3.536,0,0,0,2.717.741,4.173,4.173,0,0,0,2.47-.741A1.865,1.865,0,0,0,30.48,26.891Z" transform="translate(-5.533 -13.8)"/></g></g></svg>