<svg xmlns="http://www.w3.org/2000/svg" width="88.92" height="72.11" viewBox="0 0 88.92 72.11"><defs><style>.a{fill:#f7f7f7;}.b{fill:#ef3829;}.c{fill:#fff;}</style></defs><g transform="translate(23.144)"><g transform="translate(9.501)"><path class="a" d="M13.9,8.542A8.111,8.111,0,0,1,21.939.5H68.957s-7.8-.487-7.8,9.014V62.381s-.244,7.552-7.552,7.552c-5.116,0-6.821-3.411-7.308-5.847a2.623,2.623,0,0,0-2.436-1.949H13.9Z" transform="translate(-12.682 0.716)"/><path d="M54.328,72.11c-4.385,0-7.308-2.436-8.527-6.578-.244-.487-.487-.974-1.218-.974H13.4V9.257A9.253,9.253,0,0,1,22.657,0H69.675V2.436h-.487a5.329,5.329,0,0,0-3.9,1.705C63.829,5.36,63.1,7.552,63.1,10.475V63.34C63.1,66.264,61.149,72.11,54.328,72.11ZM15.836,62.122h28.99a3.436,3.436,0,0,1,3.411,2.68,5.749,5.749,0,0,0,6.09,4.872c6.09,0,6.334-5.6,6.334-6.334V10.475c0-3.411.974-6.09,2.68-7.8H22.657A6.809,6.809,0,0,0,15.836,9.5Z" transform="translate(-13.4)"/></g><g transform="translate(0 61.878)"><path class="b" d="M59.21,33.7c-5.116,0-6.821-3.411-7.308-5.847A2.623,2.623,0,0,0,49.466,25.9H19.5l-9.5.244s.244,7.552,7.552,7.552Z" transform="translate(-8.782 -24.682)"/><path d="M59.929,35.632H18.27c-6.821,0-8.77-5.847-8.77-8.77a1.465,1.465,0,0,1,.244-.974,1.266,1.266,0,0,1,.974-.487H50.428a3.436,3.436,0,0,1,3.411,2.68,5.749,5.749,0,0,0,6.09,4.872,1.151,1.151,0,0,1,1.218,1.218A1.364,1.364,0,0,1,59.929,35.632ZM11.936,28.08c.487,1.949,1.705,5.116,6.09,5.116H53.595A9.578,9.578,0,0,1,51.4,29.054c-.244-.487-.487-.974-1.218-.974Z" transform="translate(-9.5 -25.4)"/></g></g><g transform="translate(0 1.644)"><path class="c" d="M3.18,8.473,1.474,6.767A4.378,4.378,0,0,1,.5,4.575a2.645,2.645,0,0,1,.974-2.193l.244-.244a3.088,3.088,0,0,1,4.385,0L7.808,4.087Z" transform="translate(0.718 0.115)"/><path d="M3.9,10.968,1.462,8.288A3.473,3.473,0,0,1,0,5.365,5.131,5.131,0,0,1,1.218,2.2l.244-.244a4.265,4.265,0,0,1,6.09,0l2.68,2.923Zm.731-7.8A2.106,2.106,0,0,0,3.167,3.9l-.244.244a1.861,1.861,0,0,0-.487,1.218,1.34,1.34,0,0,0,.731,1.218l.974.974,2.68-2.68L5.847,3.659C5.36,3.416,5.116,3.172,4.629,3.172Z" transform="translate(0 -0.675)"/><g transform="translate(2.375 2.68)"><path class="b" d="M1.708,8.606,41.417,48.559a.239.239,0,0,1,.244.244l9.988,4.872c.731.487,1.462-.487,1.218-1.218l-4.872-9.988a.239.239,0,0,0-.244-.244L7.8,2.515c-.244-.487-.731-.487-1.218,0L1.708,7.388A1.106,1.106,0,0,0,1.708,8.606Z" transform="translate(-0.185 -1.236)"/><path d="M52.683,55.431a1.465,1.465,0,0,1-.974-.244L41.72,50.315a.524.524,0,0,1-.487-.487L1.523,10.119a2.217,2.217,0,0,1,0-2.923L6.4,2.323a2.223,2.223,0,0,1,2.923,0L49.028,42.276l.487.487,4.872,9.988a1.94,1.94,0,0,1-.487,2.436A2.956,2.956,0,0,1,52.683,55.431ZM3.472,8.657,42.938,48.367l9.014,4.385-4.629-9.014L8.1,4.028Z" transform="translate(-0.975 -1.775)"/></g><g transform="translate(2.436 8.953)"><path d="M15.617,24.692a1.465,1.465,0,0,1-.974-.244L1.487,11.049A2.059,2.059,0,0,1,1,9.588,1.861,1.861,0,0,1,1.487,8.37L5.141,4.715A1.206,1.206,0,0,1,6.847,6.421L3.68,9.588,16.591,22.5a1.177,1.177,0,0,1,0,1.705A.973.973,0,0,1,15.617,24.692Z" transform="translate(-1 -4.35)"/></g></g><g transform="translate(56.032 55.544)"><path d="M42.977,25.236H24.218a1.218,1.218,0,0,1,0-2.436H42.977a1.218,1.218,0,0,1,0,2.436Z" transform="translate(-23 -22.8)"/></g></svg>