<svg xmlns="http://www.w3.org/2000/svg" width="88.921" height="49.455" viewBox="0 0 88.921 49.455"><defs><style>.a{fill:#f7f7f7;}.b{fill:#ef3829;}.c{fill:#dedede;}</style></defs><g transform="translate(12.912)"><path class="a" d="M74.5,42.646H10.672A4.887,4.887,0,0,1,5.8,37.773V5.372A4.887,4.887,0,0,1,10.672.5H74.5a4.887,4.887,0,0,1,4.872,4.872v32.4A4.887,4.887,0,0,1,74.5,42.646Z" transform="translate(-4.582 0.718)"/><path d="M75.218,44.582H11.39a6.031,6.031,0,0,1-6.09-6.09V6.09A6.031,6.031,0,0,1,11.39,0H75.218a6.031,6.031,0,0,1,6.09,6.09v32.4A6.031,6.031,0,0,1,75.218,44.582ZM11.39,2.436A3.588,3.588,0,0,0,7.736,6.09v32.4a3.747,3.747,0,0,0,3.654,3.654H75.218a3.747,3.747,0,0,0,3.654-3.654V6.09a3.747,3.747,0,0,0-3.654-3.654Z" transform="translate(-5.3)"/></g><g transform="translate(25.58 8.039)"><path class="b" d="M55.095,30.111H15.872A4.887,4.887,0,0,1,11,25.238V8.672A4.887,4.887,0,0,1,15.872,3.8H55.095a4.887,4.887,0,0,1,4.872,4.872V25.238A4.887,4.887,0,0,1,55.095,30.111Z" transform="translate(-9.782 -2.582)"/><path d="M55.813,32.047H16.59a6.031,6.031,0,0,1-6.09-6.09V9.39A6.031,6.031,0,0,1,16.59,3.3H55.813A6.031,6.031,0,0,1,61.9,9.39V25.956A6.031,6.031,0,0,1,55.813,32.047ZM16.59,5.736A3.747,3.747,0,0,0,12.936,9.39V25.956a3.747,3.747,0,0,0,3.654,3.654H55.813a3.747,3.747,0,0,0,3.654-3.654V9.39a3.747,3.747,0,0,0-3.654-3.654Z" transform="translate(-10.5 -3.3)"/></g><g transform="translate(42.389 13.642)"><ellipse class="a" cx="7.552" cy="7.552" rx="7.552" ry="7.552" transform="translate(1.218 1.218)"/><path d="M26.17,23.384a8.734,8.734,0,0,1-8.77-8.77A8.944,8.944,0,0,1,26.17,5.6a8.734,8.734,0,0,1,8.77,8.77A8.944,8.944,0,0,1,26.17,23.384Zm0-15.348a6.334,6.334,0,1,0,0,12.668A6.45,6.45,0,0,0,32.5,14.37,6.142,6.142,0,0,0,26.17,8.036Z" transform="translate(-17.4 -5.6)"/></g><g transform="translate(0 3.959)"><g transform="translate(1.462 1.157)"><path class="c" d="M10.1,2.1c5.116,0,9.5,1.705,9.5,4.141V33.283c0,2.193-4.385,4.141-9.5,4.141S.6,35.719.6,33.283V6.241C.6,4.049,4.741,2.1,10.1,2.1Z" transform="translate(-0.6 -2.1)"/></g><g transform="translate(0 5.542)"><path d="M10.963,16.081C5.36,16.081,0,14.132,0,10.478V3.9H2.68v6.821c0,.974,3.167,2.68,8.039,2.68S19,11.452,19,10.478V3.9h2.68v6.821C21.682,13.888,16.322,16.081,10.963,16.081Z" transform="translate(0 -3.9)"/></g><g transform="translate(0 12.12)"><path d="M10.963,18.781C5.36,18.781,0,16.832,0,13.178V6.6H2.68v6.821c0,.974,3.167,2.68,8.039,2.68s8.039-1.705,8.039-2.68V6.6h2.68v6.821C21.682,16.832,16.322,18.781,10.963,18.781Z" transform="translate(0 -6.6)"/></g><g transform="translate(0 18.698)"><path d="M10.963,21.724C5.6,21.724,0,20.019,0,16.365V9.3H2.68v6.821c0,.974,3.167,2.68,8.039,2.68s8.039-1.705,8.039-2.68V9.3h2.68v6.821C21.682,19.775,16.322,21.724,10.963,21.724Z" transform="translate(0 -9.3)"/></g><g transform="translate(0 18.698)"><path d="M10.963,28.3C5.6,28.3,0,26.6,0,22.942V9.3H2.68V22.942c0,.974,3.167,2.68,8.039,2.68s8.039-1.705,8.039-2.68V9.3h2.68V22.942C21.682,26.6,16.322,28.3,10.963,28.3Z" transform="translate(0 -9.3)"/></g><path d="M10.963,12.527C5.36,12.527,0,10.578,0,6.924c0-7.065,21.438-7.065,21.438,0C21.682,10.578,16.322,12.527,10.963,12.527Zm0-8.283c-4.872,0-8.039,1.705-8.039,2.68S6.09,9.6,10.963,9.6,19,7.9,19,6.924,15.835,4.244,10.963,4.244Z" transform="translate(0 -1.625)"/></g><g transform="translate(13.643 25.397)"><g transform="translate(1.462 1.157)"><path class="a" d="M15.7,10.9c5.116,0,9.5,1.705,9.5,4.141V28.684c0,2.193-4.385,4.141-9.5,4.141S6.2,30.633,6.2,28.44V14.8C6.444,12.605,10.585,10.9,15.7,10.9Z" transform="translate(-6.2 -10.9)"/></g><g transform="translate(0 5.055)"><path d="M16.563,24.681c-5.36,0-10.963-1.705-10.963-5.36V12.5H8.523v6.821c0,.974,3.167,2.68,8.039,2.68S24.6,20.3,24.6,19.321V12.5h2.68v6.821C27.525,22.975,21.922,24.681,16.563,24.681Z" transform="translate(-5.6 -12.5)"/></g><g transform="translate(0 11.876)"><path d="M16.563,27.481c-5.36,0-10.963-1.705-10.963-5.36V15.3H8.523v6.821c0,.974,3.167,2.68,8.039,2.68S24.6,23.1,24.6,22.121V15.3h2.68v6.821C27.525,25.775,21.922,27.481,16.563,27.481Z" transform="translate(-5.6 -15.3)"/></g><path d="M16.563,21.083c-5.36,0-10.963-1.705-10.963-5.36,0-7.065,21.438-7.065,21.438,0C27.525,19.134,21.922,21.083,16.563,21.083Zm0-8.283c-4.872,0-8.039,1.705-8.039,2.68s3.167,2.68,8.039,2.68S24.6,16.454,24.6,15.48C24.6,14.749,21.679,12.8,16.563,12.8Z" transform="translate(-5.6 -10.425)"/></g></svg>