<svg xmlns="http://www.w3.org/2000/svg" width="71.383" height="88.179" viewBox="0 0 71.383 88.179"><defs><style>.a{fill:#ef3829;}</style></defs><g transform="translate(4.94)"><path class="a" d="M31.254.5A28.99,28.99,0,0,0,2.6,29.893c0,25.194,24.7,28.4,26.923,54.34,0,1.482.988,1.976,2.223,1.976a2.017,2.017,0,0,0,2.223-1.976c1.976-25.688,26.923-28.9,26.923-54.34A30.345,30.345,0,0,0,31.254.5Zm0,38.038a9.386,9.386,0,1,1,9.386-9.386A9.382,9.382,0,0,1,31.254,38.538Z" transform="translate(-1.12 0.735)"/><path d="M32.875,88.179h-.247a3.119,3.119,0,0,1-3.458-3.211c-.988-12.35-7.41-19.513-13.832-26.429C8.916,51.376,2,43.719,2,30.381A30.63,30.63,0,0,1,32.134,0h0A32.029,32.029,0,0,1,63.256,30.381c0,13.585-6.916,21.242-13.585,28.652-6.422,7.163-12.6,13.832-13.585,25.935A3.113,3.113,0,0,1,32.875,88.179ZM32.134,2.47A27.831,27.831,0,0,0,4.717,30.628c0,12.35,6.175,19.266,12.6,26.429S30.4,71.877,31.64,84.968c0,.494,0,.741.988.741.494,0,.988-.247.988-.741.988-12.844,7.657-20.254,14.079-27.417,6.669-7.41,12.844-14.326,12.844-26.923C60.292,15.314,47.695,2.964,32.134,2.47Zm0,38.038A10.621,10.621,0,1,1,42.755,29.887,10.542,10.542,0,0,1,32.134,40.508Zm0-18.525a8.151,8.151,0,1,0,8.151,8.151A8.065,8.065,0,0,0,32.134,21.983Z" transform="translate(-2)"/></g><g transform="translate(0 85.709)"><path d="M70.148,37.17H1.235a1.235,1.235,0,0,1,0-2.47H70.148a1.235,1.235,0,0,1,0,2.47Z" transform="translate(0 -34.7)"/></g></svg>