<?xml version="1.0" encoding="UTF-8" ?>
<!DOCTYPE svg PUBLIC "-//W3C//DTD SVG 1.1//EN" "http://www.w3.org/Graphics/SVG/1.1/DTD/svg11.dtd">
<svg width="122pt" height="89pt" viewBox="0 0 122 89" version="1.1" xmlns="http://www.w3.org/2000/svg">
<g id="#ffffffff">
<path fill="#ffffff" opacity="1.00" d=" M 43.51 8.08 C 43.44 5.11 46.09 2.45 49.06 2.51 C 60.05 2.41 71.04 2.48 82.03 2.48 C 85.19 2.21 88.35 4.72 88.37 7.98 C 88.56 12.55 88.36 17.13 88.45 21.70 C 82.33 22.65 76.45 25.78 72.97 31.01 C 67.68 38.43 67.95 49.24 73.66 56.37 C 77.18 61.08 82.72 63.82 88.44 64.74 C 88.43 67.78 88.43 70.82 88.43 73.87 C 73.44 73.87 58.46 73.87 43.47 73.87 C 43.50 51.94 43.41 30.01 43.51 8.08 M 56.49 8.17 C 56.74 8.68 57.22 9.70 57.46 10.21 C 61.46 10.64 65.52 10.47 69.52 10.11 C 69.21 9.60 68.59 8.59 68.27 8.08 C 64.36 7.74 60.41 7.89 56.49 8.17 M 72.85 8.68 C 72.23 9.78 72.65 10.83 74.04 10.28 C 76.16 9.90 73.65 5.31 72.85 8.68 Z" />
</g>
<g id="#000000ff">
<path fill="#000000" opacity="1.00" d=" M 48.40 0.00 L 83.77 0.00 C 87.25 0.79 90.47 3.49 90.76 7.23 C 91.11 12.00 90.82 16.79 90.89 21.57 C 96.93 22.03 102.97 24.42 106.90 29.18 C 113.90 36.96 113.77 49.95 106.60 57.58 C 102.67 62.14 96.77 64.38 90.89 64.87 C 90.77 70.62 91.21 76.38 90.90 82.13 C 90.65 85.51 87.81 87.89 84.82 89.00 L 46.96 89.00 C 43.73 87.75 40.71 84.89 41.01 81.15 C 41.00 57.06 40.98 32.97 41.02 8.89 C 40.68 4.49 44.12 0.61 48.40 0.00 M 43.51 8.08 C 43.41 30.01 43.50 51.94 43.47 73.87 C 58.46 73.87 73.44 73.87 88.43 73.87 C 88.43 70.82 88.43 67.78 88.44 64.74 C 82.72 63.82 77.18 61.08 73.66 56.37 C 67.95 49.24 67.68 38.43 72.97 31.01 C 76.45 25.78 82.33 22.65 88.45 21.70 C 88.36 17.13 88.56 12.55 88.37 7.98 C 88.35 4.72 85.19 2.21 82.03 2.48 C 71.04 2.48 60.05 2.41 49.06 2.51 C 46.09 2.45 43.44 5.11 43.51 8.08 M 85.47 24.68 C 78.49 26.58 72.93 32.79 71.88 39.96 C 70.57 47.39 74.26 55.33 80.74 59.19 C 86.98 63.12 95.50 62.86 101.50 58.57 C 107.98 54.19 111.14 45.56 108.99 38.03 C 106.57 28.08 95.27 21.63 85.47 24.68 M 43.34 76.36 C 43.55 78.81 43.17 81.43 44.15 83.75 C 45.21 85.94 47.78 86.53 50.01 86.46 C 59.99 86.52 69.97 86.42 79.94 86.50 C 82.49 86.43 85.68 86.74 87.35 84.36 C 88.89 82.01 88.26 79.01 88.56 76.36 C 73.49 76.32 58.41 76.32 43.34 76.36 Z" />
<path fill="#000000" opacity="1.00" d=" M 72.85 8.68 C 73.65 5.31 76.16 9.90 74.04 10.28 C 72.65 10.83 72.23 9.78 72.85 8.68 Z" />
<path fill="#000000" opacity="1.00" d=" M 15.76 8.97 C 19.28 9.21 23.35 8.20 26.35 10.58 C 29.27 13.29 28.19 19.28 24.17 20.38 C 22.54 21.10 20.72 20.97 18.97 21.07 L 18.00 21.10 C 18.00 23.73 18.00 26.37 18.00 29.00 C 17.50 29.00 16.49 29.00 15.99 29.00 C 15.95 22.32 16.18 15.64 15.76 8.97 M 18.51 10.11 C 17.84 13.34 17.84 16.67 18.51 19.89 L 18.59 19.07 C 21.24 19.06 25.33 18.65 25.34 15.14 C 25.83 11.30 21.30 10.94 18.59 10.95 L 18.51 10.11 Z" />
<path fill="#000000" opacity="1.00" d=" M 15.76 33.97 C 19.30 34.22 23.36 33.17 26.39 35.55 C 29.23 38.17 27.87 43.05 24.39 44.38 C 27.15 47.04 28.11 50.85 29.44 54.32 C 25.11 54.78 25.55 49.84 23.70 47.26 C 22.97 45.32 20.81 45.14 19.05 44.99 C 18.79 44.96 18.26 44.89 18.00 44.86 C 18.00 47.91 18.00 50.95 18.00 54.00 C 17.50 54.00 16.49 54.00 15.99 54.00 C 15.95 47.32 16.18 40.64 15.76 33.97 M 18.51 36.04 C 17.63 37.93 17.17 41.69 18.83 43.01 C 20.23 42.97 21.64 42.89 23.04 42.76 C 24.19 42.62 24.92 41.94 25.23 40.72 C 28.03 40.59 25.26 34.72 23.05 36.35 C 21.65 36.18 20.25 36.09 18.84 36.08 L 18.51 36.04 Z" />
</g>
<g id="#070707ff">
<path fill="#070707" opacity="1.00" d=" M 56.49 8.17 C 60.41 7.89 64.36 7.74 68.27 8.08 C 68.59 8.59 69.21 9.60 69.52 10.11 C 65.52 10.47 61.46 10.64 57.46 10.21 C 57.22 9.70 56.74 8.68 56.49 8.17 Z" />
</g>
<g id="#ffb868ff">
<path fill="#ffb868" opacity="1.00" d=" M 15.00 29.01 C 15.29 22.34 14.22 15.53 15.76 8.97 C 16.18 15.64 15.95 22.32 15.99 29.00 L 15.00 29.01 Z" />
<path fill="#ffb868" opacity="1.00" d=" M 15.00 54.01 C 15.29 47.34 14.23 40.54 15.76 33.97 C 16.18 40.64 15.95 47.32 15.99 54.00 L 15.00 54.01 Z" />
</g>
<g id="#66b6f6ff">
<path fill="#66b6f6" opacity="1.00" d=" M 18.51 10.11 L 18.59 10.95 C 18.86 13.64 18.86 16.37 18.59 19.07 L 18.51 19.89 C 17.84 16.67 17.84 13.34 18.51 10.11 Z" />
</g>
<g id="#66b6ffff">
<path fill="#66b6ff" opacity="1.00" d=" M 18.00 21.10 L 18.97 21.07 C 18.99 23.71 19.00 26.36 19.00 29.00 L 18.00 29.00 C 18.00 26.37 18.00 23.73 18.00 21.10 Z" />
</g>
<g id="#f7f7f7ff">
<path fill="#f7f7f7" opacity="1.00" d=" M 85.47 24.68 C 95.27 21.63 106.57 28.08 108.99 38.03 C 111.14 45.56 107.98 54.19 101.50 58.57 C 95.50 62.86 86.98 63.12 80.74 59.19 C 74.26 55.33 70.57 47.39 71.88 39.96 C 72.93 32.79 78.49 26.58 85.47 24.68 M 77.81 33.04 C 77.81 38.94 77.79 44.84 77.83 50.73 C 78.56 50.71 80.04 50.65 80.77 50.62 C 80.77 48.46 80.76 46.29 80.76 44.12 C 83.60 43.81 86.99 44.37 89.23 42.18 C 92.04 39.55 90.44 34.19 86.69 33.39 C 83.77 32.84 80.77 33.10 77.81 33.04 M 93.62 33.02 C 93.60 38.90 93.61 44.78 93.61 50.65 C 94.59 50.66 95.58 50.67 96.57 50.68 C 96.57 48.05 96.57 45.41 96.58 42.78 C 98.50 43.00 100.46 43.02 102.32 43.59 C 103.35 46.38 102.24 50.73 106.37 51.05 C 105.87 47.77 105.94 44.15 103.57 41.54 C 105.27 39.68 106.37 36.75 104.31 34.69 C 101.39 32.19 97.14 33.34 93.62 33.02 Z" />
<path fill="#f7f7f7" opacity="1.00" d=" M 81.06 35.15 C 83.61 35.33 88.47 34.98 87.86 38.90 C 87.35 42.25 83.53 41.67 81.06 41.91 C 81.03 39.65 81.03 37.40 81.06 35.15 Z" />
<path fill="#f7f7f7" opacity="1.00" d=" M 96.37 35.33 C 98.53 35.76 102.59 34.94 102.73 38.13 C 102.93 41.62 98.61 40.81 96.32 41.19 C 96.33 39.24 96.34 37.28 96.37 35.33 Z" />
</g>
<g id="#ef3829ff">
<path fill="#ef3829" opacity="1.00" d=" M 77.81 33.04 C 80.77 33.10 83.77 32.84 86.69 33.39 C 90.44 34.19 92.04 39.55 89.23 42.18 C 86.99 44.37 83.60 43.81 80.76 44.12 C 80.76 46.29 80.77 48.46 80.77 50.62 C 80.04 50.65 78.56 50.71 77.83 50.73 C 77.79 44.84 77.81 38.94 77.81 33.04 M 81.06 35.15 C 81.03 37.40 81.03 39.65 81.06 41.91 C 83.53 41.67 87.35 42.25 87.86 38.90 C 88.47 34.98 83.61 35.33 81.06 35.15 Z" />
<path fill="#ef3829" opacity="1.00" d=" M 93.62 33.02 C 97.14 33.34 101.39 32.19 104.31 34.69 C 106.37 36.75 105.27 39.68 103.57 41.54 C 105.94 44.15 105.87 47.77 106.37 51.05 C 102.24 50.73 103.35 46.38 102.32 43.59 C 100.46 43.02 98.50 43.00 96.58 42.78 C 96.57 45.41 96.57 48.05 96.57 50.68 C 95.58 50.67 94.59 50.66 93.61 50.65 C 93.61 44.78 93.60 38.90 93.62 33.02 M 96.37 35.33 C 96.34 37.28 96.33 39.24 96.32 41.19 C 98.61 40.81 102.93 41.62 102.73 38.13 C 102.59 34.94 98.53 35.76 96.37 35.33 Z" />
<path fill="#ef3829" opacity="1.00" d=" M 43.34 76.36 C 58.41 76.32 73.49 76.32 88.56 76.36 C 88.26 79.01 88.89 82.01 87.35 84.36 C 85.68 86.74 82.49 86.43 79.94 86.50 C 69.97 86.42 59.99 86.52 50.01 86.46 C 47.78 86.53 45.21 85.94 44.15 83.75 C 43.17 81.43 43.55 78.81 43.34 76.36 Z" />
</g>
<g id="#66b6faff">
<path fill="#66b6fa" opacity="1.00" d=" M 18.51 36.04 L 18.84 36.08 C 19.17 38.38 19.17 40.71 18.83 43.01 C 17.17 41.69 17.63 37.93 18.51 36.04 Z" />
<path fill="#66b6fa" opacity="1.00" d=" M 18.05 70.17 L 18.38 70.15 C 19.67 71.99 19.67 74.93 18.35 76.76 L 18.04 76.74 C 17.90 74.56 17.90 72.36 18.05 70.17 Z" />
</g>
<g id="#662b11ff">
<path fill="#662b11" opacity="1.00" d=" M 23.05 36.35 C 25.26 34.72 28.03 40.59 25.23 40.72 C 25.17 39.67 24.84 38.74 24.23 37.93 C 23.93 37.53 23.34 36.74 23.05 36.35 Z" />
</g>
<g id="#f3e0a6ff">
<path fill="#f3e0a6" opacity="1.00" d=" M 24.23 37.93 C 24.84 38.74 25.17 39.67 25.23 40.72 C 24.92 41.94 24.19 42.62 23.04 42.76 C 23.22 41.11 23.64 39.49 24.23 37.93 Z" />
</g>
<g id="#66b6fbff">
<path fill="#66b6fb" opacity="1.00" d=" M 18.00 44.86 C 18.26 44.89 18.79 44.96 19.05 44.99 C 19.01 48.00 18.99 51.00 18.99 54.01 L 18.00 54.00 C 18.00 50.95 18.00 47.91 18.00 44.86 Z" />
</g>
<g id="#ffba6aff">
<path fill="#ffba6a" opacity="1.00" d=" M 15.76 79.03 C 14.53 72.46 14.50 65.54 15.76 58.97 C 16.13 65.65 16.12 72.35 15.76 79.03 Z" />
</g>
<g id="#010000ff">
<path fill="#010000" opacity="1.00" d=" M 15.76 58.97 C 19.22 59.03 22.69 58.89 26.15 59.17 C 26.18 59.60 26.22 60.46 26.24 60.88 C 23.62 61.17 20.99 61.14 18.36 61.24 L 18.04 61.26 C 17.89 63.40 17.89 65.56 18.02 67.71 L 18.35 67.72 C 20.63 67.84 22.91 67.88 25.18 68.14 C 25.17 68.56 25.17 69.42 25.16 69.84 C 22.91 69.99 20.64 70.01 18.38 70.15 L 18.05 70.17 C 17.90 72.36 17.90 74.56 18.04 76.74 L 18.35 76.76 C 20.99 76.85 23.64 76.83 26.28 77.10 C 26.26 77.53 26.22 78.39 26.20 78.82 C 22.73 79.11 19.24 78.97 15.76 79.03 C 16.12 72.35 16.13 65.65 15.76 58.97 Z" />
</g>
<g id="#0050a3ff">
<path fill="#0050a3" opacity="1.00" d=" M 26.15 59.17 C 27.66 59.67 27.69 60.24 26.24 60.88 C 26.22 60.46 26.18 59.60 26.15 59.17 Z" />
</g>
<g id="#66b6f5ff">
<path fill="#66b6f5" opacity="1.00" d=" M 18.04 61.26 L 18.36 61.24 C 19.69 63.02 19.71 65.96 18.35 67.72 L 18.02 67.71 C 17.89 65.56 17.89 63.40 18.04 61.26 Z" />
</g>
<g id="#0066b6ff">
<path fill="#0066b6" opacity="1.00" d=" M 25.18 68.14 C 26.65 68.72 26.65 69.29 25.16 69.84 C 25.17 69.42 25.17 68.56 25.18 68.14 Z" />
</g>
<g id="#001d7bff">
<path fill="#001d7b" opacity="1.00" d=" M 26.28 77.10 C 27.72 77.73 27.70 78.31 26.20 78.82 C 26.22 78.39 26.26 77.53 26.28 77.10 Z" />
</g>
</svg>
