<svg xmlns="http://www.w3.org/2000/svg" width="88.92" height="73.853" viewBox="0 0 88.92 73.853"><defs><style>.a{fill:#fff;}.b{fill:#ef3829;}.c{fill:#e9eaeb;}</style></defs><g transform="translate(7.41 7.41)"><path class="a" d="M74.636,60.063H11.4a7.751,7.751,0,0,1-7.9-7.657v-41a7.751,7.751,0,0,1,7.657-7.9H74.389a7.751,7.751,0,0,1,7.9,7.657v41A7.457,7.457,0,0,1,74.636,60.063Z" transform="translate(-2.265 -2.265)"/><path d="M12.139,62.033a9.746,9.746,0,0,1-6.175-2.47A8.316,8.316,0,0,1,3,53.141v-41A8.747,8.747,0,0,1,5.47,5.717,8.969,8.969,0,0,1,11.892,3H75.371a8.747,8.747,0,0,1,6.422,2.47,8.028,8.028,0,0,1,2.717,6.175V52.894a9.118,9.118,0,0,1-9.139,9.139Zm-.247-56.81A6.748,6.748,0,0,0,7.2,7.2,6.52,6.52,0,0,0,5.47,11.892V53.141a6.748,6.748,0,0,0,6.669,6.669H75.124a6.9,6.9,0,0,0,6.916-6.916V11.645a6.748,6.748,0,0,0-6.669-6.669H11.892Z" transform="translate(-3 -3)"/></g><g transform="translate(44.954 16.302)"><path class="b" d="M24.034,7H44.782a5.482,5.482,0,0,1,5.434,5.434h0a5.482,5.482,0,0,1-5.434,5.434H24.034A5.482,5.482,0,0,1,18.6,12.434h0A5.326,5.326,0,0,1,24.034,7Z" transform="translate(-17.612 -6.012)"/><path d="M45.37,19.444H24.622A6.377,6.377,0,0,1,18.2,13.022,6.539,6.539,0,0,1,24.622,6.6H45.37a6.377,6.377,0,0,1,6.422,6.422A6.539,6.539,0,0,1,45.37,19.444ZM24.622,8.823a4.328,4.328,0,0,0-4.2,4.2,4.328,4.328,0,0,0,4.2,4.2H45.37a4.328,4.328,0,0,0,4.2-4.2,4.328,4.328,0,0,0-4.2-4.2Z" transform="translate(-18.2 -6.6)"/></g><g transform="translate(14.559)"><path class="c" d="M25.813,5.834A5.482,5.482,0,0,0,20.379.4H11.734A5.482,5.482,0,0,0,6.3,5.834V52.023a5.482,5.482,0,0,0,5.434,5.434h8.645a5.482,5.482,0,0,0,5.434-5.434Z" transform="translate(-5.298 0.588)"/><path d="M20.976,59.28H12.331a6.377,6.377,0,0,1-6.422-6.422V6.422A6.227,6.227,0,0,1,12.331,0h8.645A6.377,6.377,0,0,1,27.4,6.422V52.611A6.29,6.29,0,0,1,20.976,59.28ZM12.331,2.47a4.163,4.163,0,0,0-4.2,4.2V52.858a4.328,4.328,0,0,0,4.2,4.2h8.645a4.328,4.328,0,0,0,4.2-4.2V6.669a4.02,4.02,0,0,0-4.2-4.2Z" transform="translate(-5.894)"/></g><g transform="translate(0 49.4)"><path d="M21.242,44.453H6.175A6.115,6.115,0,0,1,0,38.278v-12.1A6.115,6.115,0,0,1,6.175,20H7.41v2.47H6.175a3.638,3.638,0,0,0-3.7,3.7v12.1a3.855,3.855,0,0,0,3.7,3.952H21.242a3.638,3.638,0,0,0,3.7-3.705V37.29h2.47v1.235A6.066,6.066,0,0,1,21.242,44.453Z" transform="translate(0 -20)"/></g><g transform="translate(47.671 35.568)"><path d="M26.463,16.87H20.535a1.235,1.235,0,1,1,0-2.47h5.928a1.235,1.235,0,1,1,0,2.47Z" transform="translate(-19.3 -14.4)"/><g transform="translate(9.88)"><path d="M30.463,16.87H24.535a1.235,1.235,0,0,1,0-2.47h5.928A1.167,1.167,0,0,1,31.7,15.635,1.323,1.323,0,0,1,30.463,16.87Z" transform="translate(-23.3 -14.4)"/></g><g transform="translate(19.513)"><path d="M34.363,16.87H28.435a1.235,1.235,0,1,1,0-2.47h5.928a1.235,1.235,0,1,1,0,2.47Z" transform="translate(-27.2 -14.4)"/></g></g><g transform="translate(47.671 42.484)"><path d="M26.463,19.67H20.535a1.235,1.235,0,1,1,0-2.47h5.928a1.235,1.235,0,1,1,0,2.47Z" transform="translate(-19.3 -17.2)"/><g transform="translate(9.88)"><path d="M30.463,19.67H24.535a1.235,1.235,0,0,1,0-2.47h5.928A1.167,1.167,0,0,1,31.7,18.435,1.323,1.323,0,0,1,30.463,19.67Z" transform="translate(-23.3 -17.2)"/></g><g transform="translate(19.513)"><path d="M34.363,19.67H28.435a1.235,1.235,0,1,1,0-2.47h5.928a1.235,1.235,0,1,1,0,2.47Z" transform="translate(-27.2 -17.2)"/></g></g><g transform="translate(47.671 49.153)"><path d="M26.463,22.37H20.535a1.235,1.235,0,1,1,0-2.47h5.928a1.235,1.235,0,1,1,0,2.47Z" transform="translate(-19.3 -19.9)"/><g transform="translate(9.88)"><path d="M30.463,22.37H24.535a1.235,1.235,0,0,1,0-2.47h5.928A1.167,1.167,0,0,1,31.7,21.135,1.323,1.323,0,0,1,30.463,22.37Z" transform="translate(-23.3 -19.9)"/></g><g transform="translate(19.513)"><path d="M34.363,22.37H28.435a1.235,1.235,0,1,1,0-2.47h5.928a1.235,1.235,0,1,1,0,2.47Z" transform="translate(-27.2 -19.9)"/></g></g></svg>