<svg xmlns="http://www.w3.org/2000/svg" width="88.61" height="95.342" viewBox="0 0 88.61 95.342"><defs><style>.a{fill:#f7f7f7;}.b{fill:#ef3829;}.c{fill:#222;}.d{fill:#fff;}</style></defs><g transform="translate(0)"><g transform="translate(12.535)"><path class="a" d="M24.766,50.641h0A19.291,19.291,0,0,1,5.5,31.375V19.766A19.291,19.291,0,0,1,24.766.5h0A19.24,19.24,0,0,1,43.785,19.766V31.375A19.24,19.24,0,0,1,24.766,50.641Z" transform="translate(-4.265 0.735)"/><path d="M25.5,52.611A20.609,20.609,0,0,1,5,32.11V20.5a20.5,20.5,0,1,1,41,0V32.11C45.755,43.225,36.616,52.611,25.5,52.611Zm0-50.141A17.973,17.973,0,0,0,7.47,20.5V32.11a18.031,18.031,0,0,0,36.062,0V20.5A18.3,18.3,0,0,0,25.5,2.47Z" transform="translate(-5)"/></g><g transform="translate(0 55.575)"><path class="b" d="M59.74,56.692a6.33,6.33,0,0,0,6.422-7.657,33.617,33.617,0,0,0-65.455,0,6.33,6.33,0,0,0,6.422,7.657H59.74Z" transform="translate(0.96 -21.618)"/><path class="c" d="M60.625,58.809H7.767a7.494,7.494,0,0,1-6.175-2.964A7.492,7.492,0,0,1,.11,49.423a35.039,35.039,0,0,1,68.172,0A7.677,7.677,0,0,1,66.8,55.845,7.494,7.494,0,0,1,60.625,58.809ZM34.2,25.217A32.511,32.511,0,0,0,2.58,50.164a5.163,5.163,0,0,0,.988,4.2,5.276,5.276,0,0,0,4.2,1.976H60.625a5.276,5.276,0,0,0,4.2-1.976,5.163,5.163,0,0,0,.988-4.2A32.045,32.045,0,0,0,34.2,25.217Z" transform="translate(0.075 -22.5)"/></g></g><g transform="translate(45.633 52.364)"><circle class="d" cx="20.254" cy="20.254" r="20.254" transform="translate(1.235 1.235)"/><path d="M39.889,64.178A21.489,21.489,0,1,1,61.378,42.689,21.5,21.5,0,0,1,39.889,64.178Zm0-40.508A19.019,19.019,0,1,0,58.908,42.689,19.027,19.027,0,0,0,39.889,23.67Z" transform="translate(-18.4 -21.2)"/><g transform="translate(16.376 9.065)"><g transform="translate(0 9.623)"><g transform="translate(0 0)"><path class="b" d="M8,24.773H8c0-.741.247-1.235.741-1.235a15.742,15.742,0,0,1,1.729-.494c.494-.247.741-.494.741-.988V14.893c0-.494-.247-.988-.741-.988l-1.729-.494A3.283,3.283,0,0,1,8,11.682v-.247A1.167,1.167,0,0,1,9.235,10.2h5.434A1.167,1.167,0,0,1,15.9,11.435V21.562c0,.494.247.988.741.988a6.283,6.283,0,0,0,1.729.494c.494.247.741.494.741.988v.247a1.167,1.167,0,0,1-1.235,1.235H8.988C8.494,25.761,8,25.267,8,24.773Z" transform="translate(-8 -10.2)"/></g></g><g transform="translate(2.312 0)"><g transform="translate(0)"><circle class="b" cx="3.211" cy="3.211" r="3.211"/></g></g></g></g></svg>