<svg xmlns="http://www.w3.org/2000/svg" width="88.92" height="68.418" viewBox="0 0 88.92 68.418"><defs><style>.a{fill:#e6e6e7;}.b{fill:#e8e8e9;}.c{fill:#ef3829;}</style></defs><g transform="translate(37.297 51.87)"><rect class="a" width="12.103" height="13.091" transform="translate(0.988 1.235)"/><path d="M28.438,36.561h-12.1A1.167,1.167,0,0,1,15.1,35.326V22.235A1.167,1.167,0,0,1,16.335,21h12.1a1.167,1.167,0,0,1,1.235,1.235V35.326A1.323,1.323,0,0,1,28.438,36.561Zm-11.115-2.47H27.2V23.47h-9.88Z" transform="translate(-15.1 -21)"/></g><path class="b" d="M84.974,54.84H2.476A1.909,1.909,0,0,1,.5,53.111V2.476A1.909,1.909,0,0,1,2.229.5H84.974A1.909,1.909,0,0,1,86.95,2.229V52.37C86.95,53.852,86.209,54.84,84.974,54.84Z" transform="translate(0.735 0.735)"/><path d="M2.964,56.563A3,3,0,0,1,0,53.6V3.211A3.984,3.984,0,0,1,.741.988,3.131,3.131,0,0,1,2.964,0H85.956A3,3,0,0,1,88.92,2.964V53.1c0,2.223-1.235,3.458-3.211,3.458ZM85.956,2.47H3.211a.907.907,0,0,0-.741.247V53.6a.655.655,0,0,0,.741.741H85.956c.247,0,.741,0,.741-1.235V3.211Q86.326,2.47,85.956,2.47Z"/><g transform="translate(14.079 65.949)"><line x1="58.292" transform="translate(1.235 1.235)"/><path d="M65.227,29.17H6.935a1.235,1.235,0,1,1,0-2.47H65.227a1.235,1.235,0,1,1,0,2.47Z" transform="translate(-5.7 -26.7)"/></g><g transform="translate(78.052 48.165)"><circle class="c" cx="1.976" cy="1.976" r="1.976"/></g></svg>