<svg xmlns="http://www.w3.org/2000/svg" width="90.461" height="81.263" viewBox="0 0 90.461 81.263"><defs><style>.a{fill:#fff;}.b{fill:#ef3829;}.c{fill:#222;}</style></defs><g transform="translate(33.22 5.622)"><g transform="translate(0.56)"><path class="a" d="M40.757,74.658l-21.489-7.41a7.532,7.532,0,0,1-4.693-9.633L31.865,7.968A7.532,7.532,0,0,1,41.5,3.275l21.489,7.41a7.532,7.532,0,0,1,4.693,9.633L50.39,69.965A7.439,7.439,0,0,1,40.757,74.658Z" transform="translate(-13.034 -1.487)"/><path d="M44.116,77.176a12.4,12.4,0,0,1-2.964-.494l-21.489-7.41A8.8,8.8,0,0,1,14.229,57.91L31.519,8.263A8.711,8.711,0,0,1,42.881,2.829l21.489,7.41A8.711,8.711,0,0,1,69.8,21.6L52.514,71.248A9.225,9.225,0,0,1,44.116,77.176ZM39.67,4.8A6.161,6.161,0,0,0,33.742,9L16.452,58.651a6.775,6.775,0,0,0,.247,4.94A6.009,6.009,0,0,0,20.4,66.8l21.489,7.41a6.241,6.241,0,0,0,8.151-3.952l17.29-49.647a6.775,6.775,0,0,0-.247-4.94,6.009,6.009,0,0,0-3.705-3.211L41.893,5.052C41.152,5.052,40.411,4.8,39.67,4.8Z" transform="translate(-13.676 -2.276)"/></g><g transform="translate(0 52.423)"><path class="b" d="M15.912,24.1l-1.729,4.446a5.233,5.233,0,0,0,3.211,6.669l26.182,9.139a5.233,5.233,0,0,0,6.669-3.211L51.727,36.7Z" transform="translate(-12.823 -22.618)"/><path class="c" d="M45.931,46.718a4.815,4.815,0,0,1-1.976-.247L17.773,37.332c-3.211-1.235-5.187-4.94-3.952-8.151L15.8,23.5,54.082,36.838l-2.223,5.434a6.009,6.009,0,0,1-3.211,3.7A5.63,5.63,0,0,1,45.931,46.718ZM17.279,26.711l-1.235,3.211a4.031,4.031,0,0,0,2.47,5.187L44.7,44.248A4.131,4.131,0,0,0,47.66,44a3.506,3.506,0,0,0,1.976-2.223l1.235-3.211Z" transform="translate(-13.45 -23.5)"/></g><g transform="translate(30.66 7.623)"><path d="M34.6,10.4h-.494L26.7,7.678A1.1,1.1,0,0,1,25.955,6.2a1.1,1.1,0,0,1,1.482-.741l7.41,2.717a1.1,1.1,0,0,1,.741,1.482C35.588,10.148,35.094,10.4,34.6,10.4Z" transform="translate(-25.863 -5.363)"/><g transform="translate(12.196 4.168)"><path d="M32.035,9.643a1.485,1.485,0,0,1-.988-.247A.862.862,0,0,1,30.8,8.9V7.914c0-.247.247-.247.247-.494a1.194,1.194,0,0,1,1.729,0,1.283,1.283,0,0,1,.494.988V8.9c0,.247-.247.247-.247.494a.862.862,0,0,1-.494.247Z" transform="translate(-30.8 -7.05)"/></g></g></g><path class="a" d="M57.31,22.73C57.31,10.627,44.713.5,28.9.5S.5,10.38.5,22.73c0,12.1,12.6,22.23,28.4,22.23,1.729,0,3.458-.247,5.187-.247a108.868,108.868,0,0,0,13.091,8.645c1.976.988,2.47.247,1.482-1.729a26.573,26.573,0,0,1-3.211-10.621A21.381,21.381,0,0,0,57.31,22.73Z" transform="translate(0.735 0.735)"/><path class="c" d="M49.4,55.822a11.206,11.206,0,0,1-1.976-.494,90.722,90.722,0,0,1-13.091-8.4H29.64C13.338,46.93,0,36.556,0,23.465S13.091,0,29.64,0c16.3,0,29.64,10.621,29.64,23.465h0A23.9,23.9,0,0,1,47.671,42.237a21.982,21.982,0,0,0,2.964,9.386c.247.741,1.235,2.47.247,3.7A3.511,3.511,0,0,1,49.4,55.822ZM34.827,44.213h.494l.247.247a88.314,88.314,0,0,0,12.844,8.4v-.247A25.15,25.15,0,0,1,45.2,41.5v-.741l.741-.247A20.268,20.268,0,0,0,56.81,23.465C56.81,11.856,44.46,2.47,29.64,2.47c-15.067,0-27.17,9.386-27.17,20.995S14.573,44.46,29.64,44.46a7.615,7.615,0,0,0,2.47-.247Z"/><g transform="translate(12.504 10.621)"><g transform="translate(0.093)"><path class="b" d="M36.228,28.018H7.329A1.688,1.688,0,0,1,5.6,26.289V6.529A1.688,1.688,0,0,1,7.329,4.8h28.9a1.688,1.688,0,0,1,1.729,1.729v19.76A1.688,1.688,0,0,1,36.228,28.018Z" transform="translate(-4.365 -3.565)"/><path class="c" d="M36.963,29.988H8.064A3,3,0,0,1,5.1,27.024V7.264A3,3,0,0,1,8.064,4.3h28.9a3,3,0,0,1,2.964,2.964v19.76A2.854,2.854,0,0,1,36.963,29.988ZM8.064,6.523a.531.531,0,0,0-.494.494v19.76a.531.531,0,0,0,.494.494h28.9a.531.531,0,0,0,.494-.494V7.017a.531.531,0,0,0-.494-.494Z" transform="translate(-5.1 -4.3)"/></g><g transform="translate(0 3.608)"><path class="b" d="M5.6,6.3l12.35,6.175a8.439,8.439,0,0,0,6.916,0L37.216,6.3" transform="translate(-4.272 -4.968)"/><path class="c" d="M22.2,15.244a7.248,7.248,0,0,1-3.952-.988L5.9,8.081a1.276,1.276,0,0,1-.741-1.729,1.417,1.417,0,0,1,1.729-.494l12.35,6.175a6.293,6.293,0,0,0,5.928,0l12.35-6.175a1.637,1.637,0,0,1,1.729.494,1.637,1.637,0,0,1-.494,1.729L26.4,14.256A8.727,8.727,0,0,1,22.2,15.244Z" transform="translate(-5.063 -5.761)"/></g></g></svg>