<svg xmlns="http://www.w3.org/2000/svg" width="84.721" height="89.661" viewBox="0 0 84.721 89.661"><defs><style>.a{fill:#f7f7f7;}.b{fill:#ef3829;}</style></defs><g transform="translate(0 0)"><path class="a" d="M38.785,1.241,5.44,14.826A8.089,8.089,0,0,0,.5,22.236V60.274a8.008,8.008,0,0,0,4.2,7.163L37.8,86.456a8.028,8.028,0,0,0,8.151,0L79.293,67.437a8.518,8.518,0,0,0,4.2-7.163V22.483a8.089,8.089,0,0,0-4.94-7.41L44.96,1.241A6.8,6.8,0,0,0,38.785,1.241Z" transform="translate(0.735 0.735)"/><path d="M42.484,89.661a10.216,10.216,0,0,1-4.693-1.235L4.693,69.407A9.532,9.532,0,0,1,0,61.256V23.218a9.448,9.448,0,0,1,5.681-8.645L38.779.741a9.026,9.026,0,0,1,7.163,0l33.1,13.832a9.448,9.448,0,0,1,5.681,8.645V61.256a9.237,9.237,0,0,1-4.693,8.151L46.683,88.426A7.655,7.655,0,0,1,42.484,89.661Zm-2.47-86.7L6.669,16.8a6.819,6.819,0,0,0-4.2,6.422V61.256a6.652,6.652,0,0,0,3.458,5.928L39.026,86.2a6.918,6.918,0,0,0,6.916,0L79.287,67.184a6.652,6.652,0,0,0,3.458-5.928V23.218a7.077,7.077,0,0,0-4.2-6.422L45.2,2.964a6.329,6.329,0,0,0-5.187,0Z" transform="translate(0 0)"/><g transform="translate(2.284 17.057)"><g transform="translate(0 0.109)"><rect width="2.47" height="43.719" transform="translate(0 2.254) rotate(-65.878)"/></g><g transform="translate(39.883)"><rect width="43.966" height="2.47" transform="translate(0 17.943) rotate(-24.086)"/></g><g transform="translate(39.002 19.171)"><rect width="53.352" height="2.47" transform="translate(0 53.352) rotate(-89.832)"/></g></g></g><g transform="translate(16.796 4.693)"><path class="b" d="M8,6.6,46.779,24.877V43.155a2.02,2.02,0,0,0,2.964,1.729l5.187-2.717a1.654,1.654,0,0,0,.988-1.729V20.678L18.127,2.4Z" transform="translate(-5.036 -1.165)"/><path d="M50.766,47.1a4.579,4.579,0,0,1-1.729-.494,3.427,3.427,0,0,1-1.729-2.964V26.353L6.8,7.334,20.138,1.9,59.164,20.425v20.5a3.037,3.037,0,0,1-1.729,2.717l-5.187,2.964A3.511,3.511,0,0,1,50.766,47.1ZM12.728,7.581l37.05,17.29V43.89c0,.494.247.741.494.741,0,0,.494.247.741,0l5.434-2.717c.247,0,.247-.494.247-.741V22.154L19.891,4.617Z" transform="translate(-6.8 -1.9)"/></g></svg>