<svg xmlns="http://www.w3.org/2000/svg" width="91.575" height="78.052" viewBox="0 0 91.575 78.052"><defs><style>.a{fill:#fff;}.b{fill:#ef3829;}.c{fill:#e8e8e9;}</style></defs><g transform="translate(29.331)"><path class="a" d="M57.254.5H16.993A4.69,4.69,0,0,0,12.3,5.193v66.2a4.69,4.69,0,0,0,4.693,4.693H67.381a4.69,4.69,0,0,0,4.693-4.693V12.356L60.959,1.982A5.027,5.027,0,0,0,57.254.5Z" transform="translate(-11.065 0.735)"/><path d="M68.116,78.052H17.728A6.01,6.01,0,0,1,11.8,72.124V5.928A6.01,6.01,0,0,1,17.728,0H57.989a7.1,7.1,0,0,1,4.446,1.729L74.044,12.6V72.124A6.01,6.01,0,0,1,68.116,78.052ZM17.728,2.47A3.377,3.377,0,0,0,14.27,5.928v66.2a3.377,3.377,0,0,0,3.458,3.458H68.116a3.377,3.377,0,0,0,3.458-3.458V13.585L60.953,3.7A4.09,4.09,0,0,0,57.989,2.47Z" transform="translate(-11.8)"/><g transform="translate(48.412 2.964)"><path class="b" d="M43.009,11.821H33.623A2.214,2.214,0,0,1,31.4,9.6V1.2Z" transform="translate(-31.4 -1.2)"/></g></g><g transform="translate(0 15.561)"><g transform="translate(18.216 1.729)"><circle class="a" cx="20.501" cy="20.501" r="20.501"/></g><g transform="translate(0 32.727)"><path class="c" d="M17.827,31.856l7.41-7.41a2.62,2.62,0,0,0-3.7-3.7l-7.41,7.41a4.3,4.3,0,0,0-3.7,1.235L1.772,38.278a4.034,4.034,0,0,0,0,5.928,4.034,4.034,0,0,0,5.928,0l8.892-8.892A3.17,3.17,0,0,0,17.827,31.856Z" transform="translate(0.883 -18.889)"/><path d="M5.544,47.584a4.915,4.915,0,0,1-3.952-1.729,5.517,5.517,0,0,1,0-7.9l8.892-8.892a4.715,4.715,0,0,1,3.952-1.482L21.6,20.662A3.842,3.842,0,0,1,27.033,26.1l-6.916,6.916a5.609,5.609,0,0,1-1.482,3.952L9.743,45.855A5.785,5.785,0,0,1,5.544,47.584Zm8.892-17.537a3.017,3.017,0,0,0-2.223.988L3.321,39.927a2.839,2.839,0,0,0,0,4.2,2.839,2.839,0,0,0,4.2,0l8.892-8.892a2.506,2.506,0,0,0,.741-2.47V32.27l7.9-7.9a1.4,1.4,0,0,0-1.976-1.976l-7.9,7.9h-.494C14.683,30.047,14.683,30.047,14.436,30.047Z" transform="translate(0.075 -19.55)"/></g><g transform="translate(16.672)"><path class="b" d="M42.878,12.938a20.959,20.959,0,1,0,0,29.64A21.02,21.02,0,0,0,42.878,12.938ZM17.437,38.132A15.02,15.02,0,0,1,38.679,16.89,15.02,15.02,0,0,1,17.437,38.132Z" transform="translate(-6.014 -5.528)"/><path d="M28.72,50.513a21.246,21.246,0,0,1-15.561-6.422A22.106,22.106,0,0,1,28.72,6.3a21.246,21.246,0,0,1,15.561,6.422h0A22.074,22.074,0,0,1,50.7,28.283a21.246,21.246,0,0,1-6.422,15.561A20.932,20.932,0,0,1,28.72,50.513Zm0-41.743a19.427,19.427,0,0,0-13.832,5.681,19.828,19.828,0,0,0,0,27.911A19.562,19.562,0,0,0,42.552,14.7h0A18.693,18.693,0,0,0,28.72,8.77Zm0,35.815a15.291,15.291,0,0,1-11.362-4.693h0a16.1,16.1,0,0,1,0-22.971A16.29,16.29,0,0,1,28.72,12.228a15.857,15.857,0,0,1,11.362,4.693,16.1,16.1,0,0,1,0,22.971A15.681,15.681,0,0,1,28.72,44.585Zm-9.633-6.422a13.833,13.833,0,1,0,.247-19.513,13.505,13.505,0,0,0-.247,19.513Z" transform="translate(-6.675 -6.3)"/></g></g></svg>