<svg xmlns="http://www.w3.org/2000/svg" width="88.711" height="72.371" viewBox="0 0 88.711 72.371"><defs><style>.a{fill:#ef3829;}</style></defs><g transform="translate(68.913)"><path class="a" d="M36.651,61.262H30.97a2.334,2.334,0,0,1-2.47-2.47V2.97A2.334,2.334,0,0,1,30.97.5h5.681a2.334,2.334,0,0,1,2.47,2.47V59.039A2.437,2.437,0,0,1,36.651,61.262Z" transform="translate(-27.018 0.735)"/><path d="M37.533,63.232H31.358A3.377,3.377,0,0,1,27.9,59.774V3.458A3.377,3.377,0,0,1,31.358,0h6.175a3.377,3.377,0,0,1,3.458,3.458V59.774A3.377,3.377,0,0,1,37.533,63.232ZM31.6,2.223A1.167,1.167,0,0,0,30.37,3.458V59.774A1.167,1.167,0,0,0,31.6,61.009H37.78a1.167,1.167,0,0,0,1.235-1.235V3.458A1.167,1.167,0,0,0,37.78,2.223Z" transform="translate(-27.9)"/></g><g transform="translate(48.659 19.76)"><path class="a" d="M28.351,49.649H22.67a2.334,2.334,0,0,1-2.47-2.47V10.87A2.334,2.334,0,0,1,22.67,8.4h5.681a2.334,2.334,0,0,1,2.47,2.47V47.179A2.334,2.334,0,0,1,28.351,49.649Z" transform="translate(-18.965 -7.412)"/><path d="M29.333,51.472H23.158A3.377,3.377,0,0,1,19.7,48.014V11.458A3.377,3.377,0,0,1,23.158,8h6.175a3.533,3.533,0,0,1,3.458,3.458V48.014A3.533,3.533,0,0,1,29.333,51.472ZM23.158,10.223a1.167,1.167,0,0,0-1.235,1.235V48.014a1.167,1.167,0,0,0,1.235,1.235h6.175a1.167,1.167,0,0,0,1.235-1.235V11.458a1.167,1.167,0,0,0-1.235-1.235Z" transform="translate(-19.7 -8)"/></g><g transform="translate(27.417 14.82)"><path class="a" d="M19.751,52.442H14.07a2.334,2.334,0,0,1-2.47-2.47v-41A2.334,2.334,0,0,1,14.07,6.5h5.681a2.334,2.334,0,0,1,2.47,2.47V50.219A2.281,2.281,0,0,1,19.751,52.442Z" transform="translate(-10.365 -5.265)"/><path d="M20.733,54.412H14.558A3.377,3.377,0,0,1,11.1,50.954V9.458A3.377,3.377,0,0,1,14.558,6h6.175a3.377,3.377,0,0,1,3.458,3.458v41.5A3.377,3.377,0,0,1,20.733,54.412ZM14.558,8.223a1.167,1.167,0,0,0-1.235,1.235v41.5a1.167,1.167,0,0,0,1.235,1.235h6.175a1.167,1.167,0,0,0,1.235-1.235V9.458a1.167,1.167,0,0,0-1.235-1.235Z" transform="translate(-11.1 -6)"/></g><g transform="translate(5.434 24.453)"><path class="a" d="M10.851,46.856H5.17a2.334,2.334,0,0,1-2.47-2.47V12.77A2.334,2.334,0,0,1,5.17,10.3h5.681a2.334,2.334,0,0,1,2.47,2.47V44.386A2.334,2.334,0,0,1,10.851,46.856Z" transform="translate(-1.465 -9.312)"/><path d="M11.833,48.679H5.658A3.377,3.377,0,0,1,2.2,45.221V13.358A3.377,3.377,0,0,1,5.658,9.9h6.175a3.377,3.377,0,0,1,3.458,3.458V45.221A3.377,3.377,0,0,1,11.833,48.679ZM5.658,12.123a1.167,1.167,0,0,0-1.235,1.235V45.221a1.167,1.167,0,0,0,1.235,1.235h6.175a1.167,1.167,0,0,0,1.235-1.235V13.358a1.167,1.167,0,0,0-1.235-1.235Z" transform="translate(-2.2 -9.9)"/></g><g transform="translate(0 67.925)"><path d="M86.7,31.946H2.223a2.223,2.223,0,0,1,0-4.446H86.45a2.214,2.214,0,0,1,2.223,2.223A1.891,1.891,0,0,1,86.7,31.946Z" transform="translate(0 -27.5)"/></g></svg>