<svg xmlns="http://www.w3.org/2000/svg" width="83.931" height="91.401" viewBox="0 0 83.931 91.401"><defs><style>.a{fill:#f7f7f7;}.b{fill:#ef3829;}</style></defs><g transform="translate(12.177 0)"><path class="a" d="M5.43,10.913a10.4,10.4,0,0,1,10.4-10.4H75.85S65.92-.177,65.92,12.148V79.776s-.2,9.658-9.658,9.658c-6.422,0-8.6-4.446-9.312-7.311a3.059,3.059,0,0,0-2.964-2.346H5.43Z" transform="translate(-4.195 0.756)"/><path d="M57.022,91.4c-7.336,0-9.732-5.162-10.5-8.25a1.821,1.821,0,0,0-1.778-1.408H4.93V11.665A11.659,11.659,0,0,1,16.564.007H75.942a6.374,6.374,0,0,1,.741,0l-.1,2.47h-.568A8.39,8.39,0,0,0,70.731,4.6c-1.877,1.754-2.84,4.545-2.84,8.274V80.5C67.841,84.283,65.47,91.4,57.022,91.4ZM7.4,79.269H44.746a4.325,4.325,0,0,1,4.174,3.285c.741,2.915,2.742,6.373,8.1,6.373,8.126,0,8.423-8.1,8.423-8.447v-67.6c0-4.446,1.235-7.83,3.631-10.1.1-.1.222-.2.321-.3H16.564A9.2,9.2,0,0,0,7.4,11.665Z" transform="translate(-4.93 0.004)"/></g><g transform="translate(0 79.273)"><path class="b" d="M63.534,42.248c-6.422,0-8.6-4.446-9.312-7.311a3.059,3.059,0,0,0-2.964-2.346H.5s.2,9.658,9.658,9.658Z" transform="translate(0.735 -31.355)"/><path d="M64.269,44.218H10.893C2.445,44.218.074,37.1,0,33.35a1.34,1.34,0,0,1,.346-.889,1.174,1.174,0,0,1,.889-.371H51.993a4.325,4.325,0,0,1,4.174,3.285c.741,2.915,2.742,6.373,8.1,6.373A1.223,1.223,0,0,1,65.5,42.983,1.239,1.239,0,0,1,64.269,44.218ZM2.618,34.56c.4,2.371,2.025,7.188,8.274,7.188H57.057a11.492,11.492,0,0,1-3.31-5.78,1.821,1.821,0,0,0-1.778-1.408Z" transform="translate(0 -32.09)"/></g></svg>