<svg xmlns="http://www.w3.org/2000/svg" width="88.92" height="64.632" viewBox="0 0 88.92 64.632"><defs><style>.a{fill:#f7f7f7;}.b{fill:#e8e8e9;}.c{fill:#ef3829;}.d{fill:#fff;}</style></defs><path class="a" d="M.5,3.719A3.278,3.278,0,0,1,3.719.5H53.988a3.278,3.278,0,0,1,3.219,3.219v42.1a3.278,3.278,0,0,1-3.219,3.219H3.719A3.278,3.278,0,0,1,.5,45.816Z" transform="translate(0.738 0.738)"/><path d="M54.726,51.012H4.457A4.439,4.439,0,0,1,0,46.554V4.457A4.439,4.439,0,0,1,4.457,0H54.726a4.439,4.439,0,0,1,4.457,4.457v42.1A4.439,4.439,0,0,1,54.726,51.012ZM4.457,2.476A2.13,2.13,0,0,0,2.476,4.457v42.1a1.953,1.953,0,0,0,1.981,1.981H54.726a1.953,1.953,0,0,0,1.981-1.981V4.457a1.953,1.953,0,0,0-1.981-1.981H4.457Z"/><g transform="translate(13.62 46.802)"><path class="b" d="M13.334,33.272A6.717,6.717,0,0,1,6.4,26.586,6.873,6.873,0,0,1,13.334,19.9a6.668,6.668,0,0,1,6.934,6.438A7.086,7.086,0,0,1,13.334,33.272Z" transform="translate(-4.171 -17.424)"/><path d="M14.662,23.11a4.761,4.761,0,0,1,4.953,4.7,4.922,4.922,0,0,1-4.953,4.7,4.761,4.761,0,0,1-4.953-4.7,4.922,4.922,0,0,1,4.953-4.7m0-4.21A9.091,9.091,0,0,0,5.5,27.815a9.166,9.166,0,0,0,18.325,0A9.091,9.091,0,0,0,14.662,18.9Z" transform="translate(-5.5 -18.9)"/></g><g transform="translate(56.212 17.334)"><path class="c" d="M48.806,19.881c-.743,0-1.238-.5-1.733-1.238L39.4,8.986A5.04,5.04,0,0,0,35.681,7.5H26.519A3.278,3.278,0,0,0,23.3,10.719V35.482A3.278,3.278,0,0,0,26.519,38.7h24.02a3.278,3.278,0,0,0,3.219-3.219V24.834A6.362,6.362,0,0,0,48.806,19.881Z" transform="translate(-21.814 -6.262)"/><path d="M51.177,40.678H27.157A4.439,4.439,0,0,1,22.7,36.22V11.457A4.439,4.439,0,0,1,27.157,7H36.32a6.765,6.765,0,0,1,4.7,1.981L48.7,18.639a1.327,1.327,0,0,0,.991.743,6.849,6.849,0,0,1,5.7,6.191v10.9A4.026,4.026,0,0,1,51.177,40.678ZM27.4,9.476a1.953,1.953,0,0,0-1.981,1.981V36.22A1.953,1.953,0,0,0,27.4,38.2h24.02a1.953,1.953,0,0,0,1.981-1.981V25.572a4.466,4.466,0,0,0-3.714-3.714h0a3.579,3.579,0,0,1-2.476-1.733l-7.677-9.658a7.023,7.023,0,0,0-3.219-.991Z" transform="translate(-22.7 -7)"/></g><g transform="translate(62.403 22.534)"><path class="d" d="M33.972,19.705h-5.7A2.481,2.481,0,0,1,25.8,17.229V12.276A2.481,2.481,0,0,1,28.276,9.8h2.476a2.252,2.252,0,0,1,1.981.991L36.2,15.248a2.652,2.652,0,0,1-.248,3.467l-.5.5A2.093,2.093,0,0,1,33.972,19.705Z" transform="translate(-24.314 -8.067)"/><path d="M34.858,21.977h-5.7A3.911,3.911,0,0,1,25.2,18.015V13.062A3.911,3.911,0,0,1,29.162,9.1h2.476a3.53,3.53,0,0,1,2.972,1.486l3.467,4.457a4.116,4.116,0,0,1-.248,5.2l-.5.5A3.048,3.048,0,0,1,34.858,21.977Zm-5.7-9.905a1.17,1.17,0,0,0-1.238,1.238v4.953A1.17,1.17,0,0,0,29.162,19.5h5.7a1.877,1.877,0,0,0,.991-.5l.5-.5a1.2,1.2,0,0,0,0-1.733l-3.467-4.457a1.287,1.287,0,0,0-.991-.5H29.162Z" transform="translate(-25.2 -9.1)"/></g><g transform="translate(63.641 46.802)"><path class="b" d="M33.534,33.272A6.717,6.717,0,0,1,26.6,26.586,6.873,6.873,0,0,1,33.534,19.9a6.717,6.717,0,0,1,6.934,6.686A7.045,7.045,0,0,1,33.534,33.272Z" transform="translate(-24.371 -17.424)"/><path d="M34.862,23.11a4.761,4.761,0,0,1,4.953,4.7,4.922,4.922,0,0,1-4.953,4.7,4.761,4.761,0,0,1-4.953-4.7,4.922,4.922,0,0,1,4.953-4.7m0-4.21A9.091,9.091,0,0,0,25.7,27.815a9.166,9.166,0,0,0,18.325,0A9.091,9.091,0,0,0,34.862,18.9Z" transform="translate(-25.7 -18.9)"/></g></svg>