<svg xmlns="http://www.w3.org/2000/svg" width="88.912" height="59.033" viewBox="0 0 88.912 59.033"><defs><style>.a{fill:#fff;}.b{fill:#ef3829;}</style></defs><g transform="translate(7.707)"><path class="a" d="M68.3.49a6.1,6.1,0,0,1,6.4,6.126V46.827H3.61V6.616C3.61,3.158,5.734.49,9.464.49Z" transform="translate(-2.4 0.72)"/><path d="M76.627,48.733H3.12V7.336C3.12,3.013,6.035,0,10.184,0H69.02A7.3,7.3,0,0,1,76.6,7.336v41.4Zm-71.111-2.4H74.207v-39A4.89,4.89,0,0,0,69.02,2.421H10.184C6.751,2.4,5.516,4.94,5.516,7.336Z" transform="translate(-3.12)"/></g><g transform="translate(0 45.3)"><path class="b" d="M2.963,18.83A2.463,2.463,0,0,0,.592,21.992,11.366,11.366,0,0,0,11.46,30.143h65.9c3.828,0,7.212-4.273,9.262-7.558a2.465,2.465,0,0,0-2.1-3.754Z" transform="translate(0.718 -17.62)"/><path d="M78.077,32.073H12.153a12.59,12.59,0,0,1-12-9.015,3.627,3.627,0,0,1,.593-3.236A3.639,3.639,0,0,1,3.681,18.34H85.24a3.666,3.666,0,0,1,3.211,1.877,3.579,3.579,0,0,1-.1,3.68C86.055,27.652,82.4,32.073,78.077,32.073ZM3.681,20.761a1.287,1.287,0,0,0-1.013.519,1.208,1.208,0,0,0-.2,1.112,10.182,10.182,0,0,0,9.707,7.286h65.9c3.384,0,6.62-4.4,8.25-7.015a1.182,1.182,0,0,0,.025-1.26,1.219,1.219,0,0,0-1.111-.642Z" transform="translate(0 -18.34)"/></g><g transform="translate(41.275 50.857)"><path d="M21.872,23.011H17.92a1.21,1.21,0,0,1,0-2.421h3.927a1.21,1.21,0,0,1,.025,2.421Z" transform="translate(-16.71 -20.59)"/></g></svg>