<svg xmlns="http://www.w3.org/2000/svg" width="91.39" height="81.016" viewBox="0 0 91.39 81.016"><defs><style>.a{fill:#f7f7f7;}.b{fill:#fff;}.c{fill:#ef3829;}</style></defs><path class="a" d="M65.818.5H42.6a5.027,5.027,0,0,0-3.7,1.482l-36.8,36.8a5.229,5.229,0,0,0,0,7.657L33.214,77.564a5.229,5.229,0,0,0,7.657,0L78.415,40.02a5.446,5.446,0,0,0,1.482-3.7V14.085a4.915,4.915,0,0,0-1.729-3.952L69.523,1.982A5.027,5.027,0,0,0,65.818.5Z" transform="translate(0.625 0.735)"/><path d="M37.544,81.016a6.748,6.748,0,0,1-4.693-1.976L1.976,47.918a6.561,6.561,0,0,1,0-9.386L38.532,1.976A6.748,6.748,0,0,1,43.225,0H66.443a7.1,7.1,0,0,1,4.446,1.729L79.534,9.88a6.748,6.748,0,0,1,1.976,4.693V36.556a6.748,6.748,0,0,1-1.976,4.693L42.237,79.04A6.748,6.748,0,0,1,37.544,81.016ZM43.225,2.47A4.557,4.557,0,0,0,40.261,3.7L3.7,40.261A5.132,5.132,0,0,0,2.47,43.225,4.557,4.557,0,0,0,3.7,46.189L34.827,77.311a4.036,4.036,0,0,0,5.928,0L78.3,39.767A4.09,4.09,0,0,0,79.534,36.8V14.82A4.09,4.09,0,0,0,78.3,11.856L69.654,3.7A6.582,6.582,0,0,0,66.443,2.47Z"/><g transform="translate(59.033 7.595)"><path class="b" d="M30.785,14.925,25.351,9.491a3.432,3.432,0,0,1,0-4.693l.494-.247a3.432,3.432,0,0,1,4.693,0l5.187,5.434a3.432,3.432,0,0,1,0,4.693l-.494.494A3.393,3.393,0,0,1,30.785,14.925Z" transform="translate(-23.128 -2.267)"/><path d="M33.78,17.957a5.2,5.2,0,0,1-3.211-1.235l-5.434-5.434A4.7,4.7,0,0,1,23.9,8.077a5.2,5.2,0,0,1,1.235-3.211l.494-.494a4.624,4.624,0,0,1,6.422,0l5.434,5.434a4.624,4.624,0,0,1,0,6.422l-.494.494A5.2,5.2,0,0,1,33.78,17.957ZM28.84,5.607a3.511,3.511,0,0,0-1.482.494l-.494.494a1.815,1.815,0,0,0-.494,1.482,3.511,3.511,0,0,0,.494,1.482L32.3,14.993a1.938,1.938,0,0,0,2.717,0l.494-.494a1.938,1.938,0,0,0,0-2.717L30.075,6.348A1.358,1.358,0,0,0,28.84,5.607Z" transform="translate(-23.9 -3.075)"/></g><g transform="translate(65.455 0.741)"><path d="M41.814,26.729l-.494-2.47a10.867,10.867,0,1,0-12.6-14.079L26.5,9.439a13.3,13.3,0,0,1,25.935,4.2A13.672,13.672,0,0,1,41.814,26.729Z" transform="translate(-26.5 -0.3)"/></g><g transform="translate(31.863 27.911)"><path class="c" d="M12.9,16.24a5.354,5.354,0,0,1,1.235-3.458,5.027,5.027,0,0,1,3.7-1.482,6.067,6.067,0,0,1,3.7,1.235,4.3,4.3,0,0,1,1.235,3.458v1.235a5.354,5.354,0,0,1-1.235,3.458,4.851,4.851,0,0,1-3.7,1.235,6.067,6.067,0,0,1-3.7-1.235c-.988-.741-1.235-1.976-1.235-3.458Zm3.211,1.235a2.648,2.648,0,0,0,.494,1.482,1.494,1.494,0,0,0,1.482.741,2.135,2.135,0,0,0,1.482-.741,3.511,3.511,0,0,0,.494-1.482V16.24a2.648,2.648,0,0,0-.494-1.482,1.494,1.494,0,0,0-1.482-.741,1.76,1.76,0,0,0-1.482.741,3.511,3.511,0,0,0-.494,1.482Zm7.9,11.609a5.9,5.9,0,0,1,1.235-3.458,5.027,5.027,0,0,1,3.7-1.482,6.067,6.067,0,0,1,3.7,1.235,4.3,4.3,0,0,1,1.235,3.458v1.482a5.354,5.354,0,0,1-1.235,3.458,4.851,4.851,0,0,1-3.7,1.235,6.067,6.067,0,0,1-3.7-1.235,4.3,4.3,0,0,1-1.235-3.458Zm2.964,1.235a2.648,2.648,0,0,0,.494,1.482,1.494,1.494,0,0,0,1.482.741,2.088,2.088,0,0,0,1.482-.494,3.511,3.511,0,0,0,.494-1.482V29.331a2.648,2.648,0,0,0-.494-1.482,1.494,1.494,0,0,0-1.482-.741,1.494,1.494,0,0,0-1.482.741,3.511,3.511,0,0,0-.494,1.482Z" transform="translate(-12.9 -11.3)"/><g transform="translate(4.349 2.867)"><path class="c" d="M15.252,30.836h0a1.637,1.637,0,0,1-.494-1.729l9.88-16.055a1.637,1.637,0,0,1,1.729-.494h0a1.637,1.637,0,0,1,.494,1.729l-9.88,16.055A1.061,1.061,0,0,1,15.252,30.836Z" transform="translate(-14.661 -12.461)"/></g></g></svg>