<svg xmlns="http://www.w3.org/2000/svg" width="89.414" height="88.92" viewBox="0 0 89.414 88.92"><defs><style>.a{fill:#e6e9ea;}.b{fill:#fff;}.c{fill:#ef3829;}</style></defs><g transform="translate(9.948)"><path class="a" d="M15.426,23.224a.907.907,0,0,1-.741-.247c-3.458-1.729-6.422-2.964-8.892-4.2-.741-.247-.988-.741-1.235-1.482a1.527,1.527,0,0,1,.494-1.729A43.359,43.359,0,0,1,34.692.5h0a2.178,2.178,0,0,1,2.223,1.976v9.633a2.1,2.1,0,0,1-1.729,1.976A30.235,30.235,0,0,0,16.908,22.73a3.511,3.511,0,0,1-1.482.494Z" transform="translate(-3.39 0.735)"/><path d="M35.329,2.47a.655.655,0,0,1,.741.741v9.633c0,.247-.247.741-.494.741a29.829,29.829,0,0,0-19.019,8.892c0,.247-.247.247-.494.247h-.247c-3.458-1.729-6.175-3.211-8.892-4.446a.531.531,0,0,1-.494-.494.765.765,0,0,1,.247-.494A41.869,41.869,0,0,1,35.329,2.47h0m0-2.47h-.247A45.043,45.043,0,0,0,4.7,15.561,3.2,3.2,0,0,0,5.936,20.5c2.964,1.482,5.681,2.964,8.645,4.446a3.133,3.133,0,0,0,1.482.247,3.171,3.171,0,0,0,2.47-.988,29.416,29.416,0,0,1,17.29-8.4,2.966,2.966,0,0,0,2.717-2.964V3.211A3.27,3.27,0,0,0,35.329,0Z" transform="translate(-4.027)"/></g><g transform="translate(46.189 0.247)"><path class="b" d="M40.195,24.312a2.135,2.135,0,0,1-1.482-.741,31.928,31.928,0,0,0-18.031-9.88A1.878,1.878,0,0,1,19.2,11.715V2.576A2.125,2.125,0,0,1,21.176.6a43.233,43.233,0,0,1,27.17,13.832,1.938,1.938,0,0,1,0,2.717l-6.669,6.669a1.815,1.815,0,0,1-1.482.494Z" transform="translate(-17.965 0.635)"/><path d="M21.911,2.57h0A43.281,43.281,0,0,1,48.34,15.908a.751.751,0,0,1,0,.988l-6.669,6.669c-.247.247-.247.247-.494.247a.765.765,0,0,1-.494-.247A31.453,31.453,0,0,0,21.911,13.438c-.247,0-.494-.247-.494-.741V3.311c-.247-.494,0-.741.494-.741m0-2.47A3.27,3.27,0,0,0,18.7,3.311v9.633a3.18,3.18,0,0,0,2.717,3.211,28.6,28.6,0,0,1,17.29,9.386,3.171,3.171,0,0,0,2.47.988,3.017,3.017,0,0,0,2.223-.988l6.669-6.669a3.131,3.131,0,0,0,0-4.446A44.763,44.763,0,0,0,22.4.347.765.765,0,0,0,21.911.1Z" transform="translate(-18.7 -0.1)"/></g><g transform="translate(0 21.242)"><path class="b" d="M40.267,74.455C18.037,72.726.5,53.707.5,31.23A42.75,42.75,0,0,1,6.181,9.988,2.079,2.079,0,0,1,7.91,9a.907.907,0,0,1,.741.247c2.717,1.235,5.434,2.47,8.892,4.2a2.466,2.466,0,0,1,.988,1.235,1.633,1.633,0,0,1-.247,1.482A29.834,29.834,0,0,0,41.008,61.117a1.909,1.909,0,0,1,1.729,1.976v9.633a3.511,3.511,0,0,1-.494,1.482c-.741,0-1.235.247-1.976.247Z" transform="translate(0.735 -8.012)"/><path d="M8.4,11.07h.247c2.717,1.235,5.434,2.47,8.645,4.2.247,0,.247.247.247.494v.494A31.2,31.2,0,0,0,41.5,62.94c.247,0,.494.247.494.741v9.633a.789.789,0,0,1-.741.741h0C19.513,72.079,2.47,53.554,2.47,31.818A42.374,42.374,0,0,1,7.9,11.317c0-.247.247-.247.494-.247m0-2.47a3.1,3.1,0,0,0-2.717,1.482A43.224,43.224,0,0,0,0,31.818a44.486,44.486,0,0,0,41,44.46h.247a3.27,3.27,0,0,0,3.211-3.211V63.434a3.419,3.419,0,0,0-2.717-3.211A28.388,28.388,0,0,1,19.76,17.492a3.236,3.236,0,0,0-1.235-4.446c-2.964-1.482-5.928-2.964-8.892-4.2A1.851,1.851,0,0,0,8.4,8.6Z" transform="translate(0 -8.6)"/></g><g transform="translate(46.189 19.76)"><path class="c" d="M21.176,74.943A2.125,2.125,0,0,1,19.2,72.967V63.334a2.152,2.152,0,0,1,1.482-1.976A30.233,30.233,0,0,0,46.37,31.718a32.275,32.275,0,0,0-3.211-13.585,1.966,1.966,0,0,1,.494-2.223l6.916-6.916A2.088,2.088,0,0,1,52.051,8.5a1.865,1.865,0,0,1,1.729.988A42.439,42.439,0,0,1,60.2,31.965,44.144,44.144,0,0,1,21.176,74.943Z" transform="translate(-17.965 -7.265)"/><path d="M52.539,10.47s.494,0,.494.247a42.563,42.563,0,0,1,6.175,21.736A41.98,41.98,0,0,1,21.911,74.2a.789.789,0,0,1-.741-.741V63.822c0-.247.247-.741.494-.741C36.731,61.352,48.34,48.014,48.34,32.7a30.431,30.431,0,0,0-3.458-14.079.907.907,0,0,1,.247-.741l6.916-6.916a.531.531,0,0,1,.494-.494m0-2.47a2.682,2.682,0,0,0-2.223.988L43.4,15.9a3.45,3.45,0,0,0-.741,3.7A29.286,29.286,0,0,1,45.87,32.7,28.732,28.732,0,0,1,21.417,61.1,3.213,3.213,0,0,0,18.7,64.316v9.633a3.27,3.27,0,0,0,3.211,3.211H22.4a44.618,44.618,0,0,0,39.52-44.213A45.181,45.181,0,0,0,55.5,9.976C54.515,8.741,53.527,8,52.539,8Z" transform="translate(-18.7 -8)"/></g></svg>