<?xml version="1.0" encoding="UTF-8" ?>
<!DOCTYPE svg PUBLIC "-//W3C//DTD SVG 1.1//EN" "http://www.w3.org/Graphics/SVG/1.1/DTD/svg11.dtd">
<svg width="122pt" height="89pt" viewBox="0 0 122 89" version="1.1" xmlns="http://www.w3.org/2000/svg">
<g id="#ffffffff">
<path fill="#ffffff" opacity="1.00" d=" M 43.51 8.12 C 43.42 5.10 46.12 2.42 49.14 2.50 C 60.10 2.42 71.06 2.48 82.02 2.48 C 85.17 2.20 88.33 4.70 88.36 7.95 C 88.56 12.54 88.37 17.13 88.44 21.72 C 82.57 22.61 76.92 25.51 73.41 30.39 C 67.85 37.63 67.76 48.49 73.24 55.81 C 76.74 60.81 82.47 63.82 88.44 64.72 C 88.43 67.77 88.43 70.82 88.43 73.87 C 73.44 73.86 58.46 73.87 43.47 73.86 C 43.50 51.95 43.41 30.04 43.51 8.12 M 57.23 8.13 C 57.06 8.65 56.73 9.68 56.56 10.20 C 60.78 10.51 65.03 10.56 69.25 10.15 C 69.05 9.64 68.65 8.62 68.45 8.11 C 64.73 7.79 60.95 7.79 57.23 8.13 M 72.50 10.55 C 74.08 10.39 75.51 9.90 74.71 7.98 C 72.65 7.07 72.69 9.21 72.50 10.55 Z" />
</g>
<g id="#000000ff">
<path fill="#000000" opacity="1.00" d=" M 48.58 0.00 L 83.58 0.00 C 87.19 0.66 90.50 3.50 90.77 7.32 C 91.10 12.06 90.82 16.83 90.89 21.58 C 96.67 22.03 102.46 24.19 106.38 28.61 C 113.50 35.97 114.00 48.55 107.53 56.48 C 103.61 61.66 97.28 64.42 90.89 64.85 C 90.76 70.60 91.21 76.36 90.90 82.10 C 90.65 85.54 87.75 88.02 84.64 89.00 L 47.07 89.00 C 43.74 87.83 40.69 84.88 41.01 81.09 C 41.00 57.04 40.98 32.99 41.02 8.94 C 40.65 4.48 44.18 0.47 48.58 0.00 M 43.51 8.12 C 43.41 30.04 43.50 51.95 43.47 73.86 C 58.46 73.87 73.44 73.86 88.43 73.87 C 88.43 70.82 88.43 67.77 88.44 64.72 C 82.47 63.82 76.74 60.81 73.24 55.81 C 67.76 48.49 67.85 37.63 73.41 30.39 C 76.92 25.51 82.57 22.61 88.44 21.72 C 88.37 17.13 88.56 12.54 88.36 7.95 C 88.33 4.70 85.17 2.20 82.02 2.48 C 71.06 2.48 60.10 2.42 49.14 2.50 C 46.12 2.42 43.42 5.10 43.51 8.12 M 85.42 24.69 C 78.46 26.61 72.92 32.81 71.88 39.97 C 70.57 47.41 74.27 55.36 80.76 59.20 C 87.21 63.26 96.09 62.81 102.11 58.13 C 108.42 53.49 111.23 44.73 108.78 37.29 C 106.02 27.70 94.97 21.71 85.42 24.69 M 43.39 76.35 C 43.26 80.05 43.08 85.89 48.04 86.33 C 58.67 86.69 69.32 86.33 79.95 86.50 C 82.30 86.40 85.12 86.79 86.90 84.88 C 89.10 82.63 88.22 79.17 88.50 76.35 C 73.47 76.32 58.43 76.32 43.39 76.35 Z" />
<path fill="#000000" opacity="1.00" d=" M 72.50 10.55 C 72.69 9.21 72.65 7.07 74.71 7.98 C 75.51 9.90 74.08 10.39 72.50 10.55 Z" />
<path fill="#000000" opacity="1.00" d=" M 15.83 9.88 C 18.94 10.21 22.28 9.44 25.20 10.84 C 26.98 11.56 27.54 13.57 28.44 15.08 C 27.83 16.85 27.63 18.91 26.17 20.25 C 24.20 21.95 21.46 22.06 18.99 22.05 L 18.00 22.08 C 18.00 24.72 18.00 27.36 18.00 30.00 C 17.50 30.00 16.50 30.00 16.00 30.00 C 15.91 23.29 16.19 16.58 15.83 9.88 M 18.33 11.33 C 17.85 14.42 17.85 17.58 18.34 20.67 L 18.62 19.80 C 20.38 19.75 22.42 20.20 23.90 18.97 C 25.81 17.58 25.94 14.30 23.96 12.94 C 22.40 11.82 20.40 12.24 18.61 12.21 L 18.33 11.33 Z" />
<path fill="#000000" opacity="1.00" d=" M 13.17 38.27 C 14.98 33.59 21.53 33.24 25.65 34.90 C 31.36 39.96 30.57 51.81 22.50 54.01 C 19.18 54.32 15.24 53.72 13.21 50.77 C 11.83 48.36 11.07 45.29 11.87 42.58 C 12.51 41.21 12.97 39.77 13.17 38.27 M 17.38 36.72 C 12.30 40.10 12.52 50.18 18.89 51.97 C 20.86 52.00 22.94 51.79 24.56 50.53 C 24.57 50.53 24.59 50.51 24.60 50.50 C 27.30 47.71 27.22 43.26 26.18 39.77 C 25.07 36.12 20.51 35.40 17.38 36.72 Z" />
<path fill="#000000" opacity="1.00" d=" M 18.30 59.34 C 20.74 58.39 26.01 59.20 25.18 62.72 L 24.68 62.51 C 22.83 61.70 20.90 60.72 18.83 61.32 C 17.16 61.52 16.16 64.32 17.59 65.37 C 20.08 67.76 24.42 67.94 25.99 71.23 C 25.94 72.71 25.91 74.19 25.90 75.68 C 25.44 76.70 24.71 77.49 23.70 78.04 C 23.21 78.23 22.23 78.62 21.74 78.82 C 19.48 79.26 16.79 79.11 15.01 77.48 C 15.05 77.03 15.13 76.14 15.17 75.69 L 15.59 75.80 C 18.22 76.90 22.13 77.77 23.72 74.65 C 24.49 70.51 19.34 70.06 16.88 68.18 C 13.25 66.17 14.26 60.18 18.30 59.34 Z" />
</g>
<g id="#070707ff">
<path fill="#070707" opacity="1.00" d=" M 57.23 8.13 C 60.95 7.79 64.73 7.79 68.45 8.11 C 68.65 8.62 69.05 9.64 69.25 10.15 C 65.03 10.56 60.78 10.51 56.56 10.20 C 56.73 9.68 57.06 8.65 57.23 8.13 Z" />
</g>
<g id="#ffb868ff">
<path fill="#ffb868" opacity="1.00" d=" M 14.96 16.06 C 14.98 13.98 14.78 11.77 15.83 9.88 C 16.19 16.58 15.91 23.29 16.00 30.00 L 15.00 30.01 C 15.00 25.36 15.02 20.71 14.96 16.06 Z" />
</g>
<g id="#66b6f6ff">
<path fill="#66b6f6" opacity="1.00" d=" M 18.33 11.33 L 18.61 12.21 C 19.15 14.70 19.15 17.30 18.62 19.80 L 18.34 20.67 C 17.85 17.58 17.85 14.42 18.33 11.33 Z" />
</g>
<g id="#66b6ffff">
<path fill="#66b6ff" opacity="1.00" d=" M 18.00 22.08 L 18.99 22.05 C 19.00 24.70 19.00 27.36 19.00 30.01 L 18.00 30.00 C 18.00 27.36 18.00 24.72 18.00 22.08 Z" />
</g>
<g id="#f7f7f7ff">
<path fill="#f7f7f7" opacity="1.00" d=" M 85.42 24.69 C 94.97 21.71 106.02 27.70 108.78 37.29 C 111.23 44.73 108.42 53.49 102.11 58.13 C 96.09 62.81 87.21 63.26 80.76 59.20 C 74.27 55.36 70.57 47.41 71.88 39.97 C 72.92 32.81 78.46 26.61 85.42 24.69 M 76.82 34.06 C 76.81 39.89 76.82 45.72 76.80 51.55 C 77.79 51.58 78.78 51.60 79.77 51.63 C 79.77 49.43 79.78 47.23 79.78 45.03 C 82.61 44.81 85.98 45.40 88.20 43.20 C 91.07 40.59 89.46 35.20 85.72 34.37 C 82.79 33.81 79.78 34.10 76.82 34.06 M 92.47 40.01 C 93.63 44.25 99.45 43.19 101.63 46.37 C 102.56 49.28 98.16 50.42 96.19 49.17 C 94.92 47.72 93.75 46.06 91.54 46.27 C 92.37 51.82 99.49 53.38 103.65 50.57 C 105.67 48.87 105.31 45.35 103.28 43.81 C 100.98 42.06 98.05 41.52 95.61 40.01 C 94.33 37.30 98.14 35.36 100.25 36.74 C 101.74 37.88 102.89 39.64 105.04 39.49 C 104.27 37.58 103.53 35.26 101.35 34.55 C 97.67 32.87 91.50 35.27 92.47 40.01 Z" />
<path fill="#f7f7f7" opacity="1.00" d=" M 79.78 36.22 C 82.37 36.27 87.12 35.95 86.66 39.83 C 86.48 43.42 82.26 42.66 79.78 42.83 C 79.78 40.62 79.78 38.42 79.78 36.22 Z" />
</g>
<g id="#ef3829ff">
<path fill="#ef3829" opacity="1.00" d=" M 76.82 34.06 C 79.78 34.10 82.79 33.81 85.72 34.37 C 89.46 35.20 91.07 40.59 88.20 43.20 C 85.98 45.40 82.61 44.81 79.78 45.03 C 79.78 47.23 79.77 49.43 79.77 51.63 C 78.78 51.60 77.79 51.58 76.80 51.55 C 76.82 45.72 76.81 39.89 76.82 34.06 M 79.78 36.22 C 79.78 38.42 79.78 40.62 79.78 42.83 C 82.26 42.66 86.48 43.42 86.66 39.83 C 87.12 35.95 82.37 36.27 79.78 36.22 Z" />
<path fill="#ef3829" opacity="1.00" d=" M 92.47 40.01 C 91.50 35.27 97.67 32.87 101.35 34.55 C 103.53 35.26 104.27 37.58 105.04 39.49 C 102.89 39.64 101.74 37.88 100.25 36.74 C 98.14 35.36 94.33 37.30 95.61 40.01 C 98.05 41.52 100.98 42.06 103.28 43.81 C 105.31 45.35 105.67 48.87 103.65 50.57 C 99.49 53.38 92.37 51.82 91.54 46.27 C 93.75 46.06 94.92 47.72 96.19 49.17 C 98.16 50.42 102.56 49.28 101.63 46.37 C 99.45 43.19 93.63 44.25 92.47 40.01 Z" />
<path fill="#ef3829" opacity="1.00" d=" M 11.87 42.58 C 10.89 41.34 11.40 38.41 13.17 38.27 C 12.97 39.77 12.51 41.21 11.87 42.58 Z" />
<path fill="#ef3829" opacity="1.00" d=" M 43.39 76.35 C 58.43 76.32 73.47 76.32 88.50 76.35 C 88.22 79.17 89.10 82.63 86.90 84.88 C 85.12 86.79 82.30 86.40 79.95 86.50 C 69.32 86.33 58.67 86.69 48.04 86.33 C 43.08 85.89 43.26 80.05 43.39 76.35 Z" />
</g>
<g id="#68a0d0ff">
<path fill="#68a0d0" opacity="1.00" d=" M 25.65 34.90 C 30.42 37.11 30.68 43.48 29.50 47.90 C 28.74 51.25 25.78 53.45 22.50 54.01 C 30.57 51.81 31.36 39.96 25.65 34.90 Z" />
</g>
<g id="#5593c7ff">
<path fill="#5593c7" opacity="1.00" d=" M 18.89 51.97 C 12.52 50.18 12.30 40.10 17.38 36.72 C 13.71 41.01 13.54 48.94 18.89 51.97 Z" />
</g>
<g id="#db903aff">
<path fill="#db903a" opacity="1.00" d=" M 24.56 50.53 C 24.57 50.53 24.59 50.51 24.60 50.50 C 24.59 50.51 24.57 50.53 24.56 50.53 Z" />
</g>
<g id="#679cd2ff">
<path fill="#679cd2" opacity="1.00" d=" M 17.59 65.37 C 16.16 64.32 17.16 61.52 18.83 61.32 C 18.97 62.69 18.64 64.40 17.59 65.37 Z" />
</g>
<g id="#903a00ff">
<path fill="#903a00" opacity="1.00" d=" M 24.68 62.51 L 25.18 62.72 C 25.05 62.67 24.80 62.56 24.68 62.51 Z" />
</g>
<g id="#54a7e9ff">
<path fill="#54a7e9" opacity="1.00" d=" M 25.99 71.23 C 27.90 71.19 27.79 75.67 25.90 75.68 C 25.91 74.19 25.94 72.71 25.99 71.23 Z" />
</g>
<g id="#a95722ff">
<path fill="#a95722" opacity="1.00" d=" M 15.01 77.48 C 13.29 78.35 13.16 74.57 14.97 75.15 L 15.17 75.69 C 15.13 76.14 15.05 77.03 15.01 77.48 Z" />
</g>
<g id="#3a90b6ff">
<path fill="#3a90b6" opacity="1.00" d=" M 14.97 75.15 C 15.13 75.32 15.43 75.64 15.59 75.80 L 15.17 75.69 L 14.97 75.15 Z" />
</g>
<g id="#78a1c7ff">
<path fill="#78a1c7" opacity="1.00" d=" M 21.74 78.82 C 22.23 78.62 23.21 78.23 23.70 78.04 L 23.50 78.93 L 22.50 79.33 L 21.74 78.82 Z" />
</g>
</svg>
