<svg xmlns="http://www.w3.org/2000/svg" width="88.92" height="77.697" viewBox="0 0 88.92 77.697"><defs><style>.a{fill:#f7f7f7;}.b{fill:#fff;}.c{fill:#212021;}.d{fill:#c44139;}</style></defs><path class="a" d="M88.92,28.96A44.46,44.46,0,0,1,0,28.96C0,4.406,88.92,4.406,88.92,28.96Z" transform="translate(0 4.278)"/><g transform="translate(13.222)"><path class="b" d="M273.1,192.513c.013-.038.013-.076.025-.113h0C273.113,192.438,273.113,192.476,273.1,192.513Z" transform="translate(-238.706 -168.171)"/><path class="b" d="M273.3,192.3c.05.013.1.025.139.038-.038-.013-.088-.025-.139-.038Z" transform="translate(-238.88 -168.083)"/><path class="c" d="M59.855,41.83A101.563,101.563,0,0,0,58.268,24.8,28.954,28.954,0,0,0,47.676,6.566,28.2,28.2,0,0,0,24.351.5,28.376,28.376,0,0,0,3.344,15.873a27.781,27.781,0,0,0-2.8,18.7,36.33,36.33,0,0,1,.6,10.441,1.64,1.64,0,0,0,1.385,1.914,1.65,1.65,0,0,0,1.914-1.537,33.418,33.418,0,0,0-.441-10.327A25.965,25.965,0,0,1,33.394,3.72,25.609,25.609,0,0,1,51.568,15.936a26.665,26.665,0,0,1,3.5,9.673A90.038,90.038,0,0,1,56.48,38.468a86.283,86.283,0,0,1-1.1,17.368,1.675,1.675,0,0,0,1.436,2,1.653,1.653,0,0,0,1.826-1.423A94.273,94.273,0,0,0,59.855,41.83Z" transform="translate(-0.007 -0.019)"/><path class="d" d="M181.626,171.807a8.588,8.588,0,0,0-17.015,2.33c.327,2.191.831,4.358,1.008,6.574a53.794,53.794,0,0,1-.945,15.693,1.711,1.711,0,0,0,1.31,2.2,1.681,1.681,0,0,0,1.94-1.511,56.708,56.708,0,0,0,1.033-7.141,55.539,55.539,0,0,0-.995-15.945,4.926,4.926,0,0,1,.667-3.615,5.294,5.294,0,0,1,7.872-1.348,10.206,10.206,0,0,1,1.234,1.423,9.117,9.117,0,0,1,.491,1.348,67,67,0,0,1-.113,27.771,67,67,0,0,1-4.622,13.9c.655.038,1.31.05,1.965.05q.831,0,1.662-.038a70.494,70.494,0,0,0,5.768-25.164A73.471,73.471,0,0,0,181.626,171.807Zm-3.426-3.64c.013-.038.013-.076.025-.113h0C178.213,168.092,178.213,168.13,178.2,168.168Zm.025-.126h0c.05.013.1.025.139.038C178.327,168.067,178.276,168.054,178.226,168.042Z" transform="translate(-143.806 -143.825)"/><path class="d" d="M42.551,93.953a.944.944,0,0,0,.088-.642c0-.2,0-.416.013-.617.025-.34.063-.68.088-1.02.013-.076.013-.164.025-.239v-.126a38.651,38.651,0,0,0-.68-9.257,19.373,19.373,0,0,1-.315-7.418Q43.923,63,55.158,59.243a18.188,18.188,0,0,1,6.889-.768,1.586,1.586,0,0,0,1.814-1.549,1.619,1.619,0,0,0-1.65-1.751,22.742,22.742,0,0,0-6.2.416A22.4,22.4,0,0,0,38.483,80.83c.29,1.9.73,3.778.869,5.705A39.8,39.8,0,0,1,35.8,106.422c.806.831,1.662,1.637,2.544,2.393a44.283,44.283,0,0,0,2.544-6.448A36.217,36.217,0,0,0,42.551,93.953Z" transform="translate(-31.292 -48.188)"/><path class="d" d="M313.523,93.424a25.4,25.4,0,0,0-2.884-8.766,22.309,22.309,0,0,0-8.438-8.426,1.667,1.667,0,0,0-2.519.844,1.705,1.705,0,0,0,.945,2.091,18.681,18.681,0,0,1,9.106,12.242,68.693,68.693,0,0,1,1.637,12.632,81.24,81.24,0,0,1-2.242,23.325c-.516,2.066-1.108,4.118-1.776,6.133a35.686,35.686,0,0,0,4.093-1.914,82.738,82.738,0,0,0,3.35-22.846A91.843,91.843,0,0,0,313.523,93.424Z" transform="translate(-261.862 -66.399)"/><path class="c" d="M187.538,221.06a1.488,1.488,0,0,0-.957-1.4,1.194,1.194,0,0,0-1.272-.1.574.574,0,0,0-.39.227,1.456,1.456,0,0,0-.667,1.612,62.3,62.3,0,0,1,.932,17.834,58.882,58.882,0,0,1-3.955,16.4c-.642,1.625-1.36,3.212-2.128,4.761a33.283,33.283,0,0,0,3.375.667,62.679,62.679,0,0,0,6.2-23.879A61.358,61.358,0,0,0,187.538,221.06Z" transform="translate(-156.544 -191.793)"/><path class="c" d="M87.451,275.735A44.317,44.317,0,0,0,87,267.46a1.592,1.592,0,0,0-1.952-1.385,1.647,1.647,0,0,0-1.322,1.914,47.844,47.844,0,0,1,.428,6.146,48.567,48.567,0,0,1-.945,9.244A47.073,47.073,0,0,1,79,295.42c.907.642,1.839,1.234,2.809,1.788A51.714,51.714,0,0,0,85.1,289.3,50.26,50.26,0,0,0,87.451,275.735Z" transform="translate(-69.051 -232.538)"/><path class="c" d="M304.586,387.09a1.612,1.612,0,0,0-1.574-1.7A1.7,1.7,0,0,0,301.3,386.9c-.113.869-.227,1.738-.365,2.607a72.877,72.877,0,0,1-4.534,16.625c1.31-.2,2.607-.466,3.879-.794a77.335,77.335,0,0,0,3.526-12.72A45.254,45.254,0,0,0,304.586,387.09Z" transform="translate(-259.071 -336.853)"/><path class="c" d="M132.3,477.954a1.738,1.738,0,0,0-1.31-1.725,1.655,1.655,0,0,0-1.94,1.121,51.951,51.951,0,0,1-2.355,5.189h0a33.053,33.053,0,0,0,3.1,1.247c.63-1.222,1.209-2.468,1.763-3.74A9.944,9.944,0,0,0,132.3,477.954Z" transform="translate(-110.744 -416.219)"/><path class="c" d="M124.957,109.981a15.451,15.451,0,0,0-12.834,11.94,1.744,1.744,0,0,0,.264,1.549,1.587,1.587,0,0,0,1.675.6,1.691,1.691,0,0,0,1.31-1.436,12.176,12.176,0,0,1,15.327-9.03,13.653,13.653,0,0,1,5.2,3.048.55.55,0,0,1,.34-.038.237.237,0,0,1,.1.025.3.3,0,0,0-.1-.025.66.66,0,0,0-.34.038c.189.214.39.428.579.642a11.908,11.908,0,0,1,2.506,4.786,63.738,63.738,0,0,1,1.3,8.312c.227,2.355.34,4.723.378,7.1a1.533,1.533,0,0,0,.957,1.436,1.577,1.577,0,0,0,1.713-.214,1.731,1.731,0,0,0,.63-1.5,78.354,78.354,0,0,0-1.511-14.849A15.423,15.423,0,0,0,124.957,109.981Zm11.662,6.788c-.05-.025-.1-.063-.164-.088C136.507,116.706,136.557,116.744,136.62,116.769Z" transform="translate(-97.943 -95.978)"/></g></svg>