<svg xmlns="http://www.w3.org/2000/svg" width="74.594" height="91.694" viewBox="0 0 74.594 91.694"><defs><style>.a{fill:none;}.b{fill:#fff;}.c{fill:#ef3829;}</style></defs><g transform="translate(10.868 0)"><g transform="translate(10.868 11.172)"><path class="a" d="M24.361,4.4A15.5,15.5,0,0,0,8.8,19.961V33.3H39.675V19.961A15.445,15.445,0,0,0,24.361,4.4Z" transform="translate(-8.8 -4.4)"/></g><path class="b" d="M14.533,25.336a15.319,15.319,0,0,1,16.8-15.314c8.151.741,14.079,8.151,14.079,16.3V35.71a3.27,3.27,0,0,0,3.211,3.211H51.83a3.27,3.27,0,0,0,3.211-3.211V26.571c0-13.338-10.127-25.194-23.465-25.935A24.805,24.805,0,0,0,4.9,25.336V35.463a3.27,3.27,0,0,0,3.211,3.211h3.211a3.27,3.27,0,0,0,3.211-3.211Z" transform="translate(-3.665 1.151)"/><path d="M52.565,41.183H49.354a4.428,4.428,0,0,1-4.446-4.446V27.351c0-7.657-5.681-14.326-12.844-15.067a14.652,14.652,0,0,0-10.868,3.7A14.066,14.066,0,0,0,16.5,26.363V36.49a4.428,4.428,0,0,1-4.446,4.446H8.846A4.428,4.428,0,0,1,4.4,36.49V26.363A26.184,26.184,0,0,1,12.8,7.1,26.551,26.551,0,0,1,32.558-.066c13.832.988,24.7,12.844,24.7,27.17v9.139C57.011,39.207,55.035,41.183,52.565,41.183ZM30.829,9.814h1.482c8.4.741,15.067,8.4,15.067,17.537v9.386a2.125,2.125,0,0,0,1.976,1.976h3.211a2.125,2.125,0,0,0,1.976-1.976V27.6c0-13.091-9.88-23.959-22.23-24.7A23.222,23.222,0,0,0,14.527,9.073a24.119,24.119,0,0,0-7.41,17.29V36.49a2.125,2.125,0,0,0,1.976,1.976H12.3A2.125,2.125,0,0,0,14.28,36.49V26.363a16.836,16.836,0,0,1,5.434-12.35A16.357,16.357,0,0,1,30.829,9.814Z" transform="translate(-4.4 0.123)"/></g><g transform="translate(0 33.896)"><path class="c" d="M67.684,69.428H5.44A4.955,4.955,0,0,1,.5,64.488V19.04A4.955,4.955,0,0,1,5.44,14.1H67.684a4.955,4.955,0,0,1,4.94,4.94V64.488A4.955,4.955,0,0,1,67.684,69.428Z" transform="translate(0.735 -12.865)"/><path d="M68.419,71.4H6.175A6.115,6.115,0,0,1,0,65.223V19.775A6.115,6.115,0,0,1,6.175,13.6H68.419a6.115,6.115,0,0,1,6.175,6.175V65.223A6.274,6.274,0,0,1,68.419,71.4ZM6.175,16.07a3.8,3.8,0,0,0-3.7,3.7V65.223a3.8,3.8,0,0,0,3.7,3.7H68.419a3.8,3.8,0,0,0,3.7-3.7V19.775a3.8,3.8,0,0,0-3.7-3.7Z" transform="translate(0 -13.6)"/></g><g transform="translate(29.887 50.198)"><g transform="translate(1.235 1.482)"><path class="b" d="M18.775,40.313A3.27,3.27,0,0,1,15.564,37.1V32.409A6.2,6.2,0,0,1,12.6,26.975a6.175,6.175,0,1,1,12.35,0,6.788,6.788,0,0,1-2.964,5.434V37.1A3.27,3.27,0,0,1,18.775,40.313Z" transform="translate(-12.6 -20.8)"/></g><path d="M19.51,22.67a4.955,4.955,0,0,1,4.94,4.94A5.238,5.238,0,0,1,21.486,32.3v5.681A2.125,2.125,0,0,1,19.51,39.96a2.125,2.125,0,0,1-1.976-1.976V32.3A4.973,4.973,0,0,1,14.57,27.61a4.664,4.664,0,0,1,4.94-4.94m0-2.47a7.41,7.41,0,0,0-4.446,13.338v4.2a4.446,4.446,0,0,0,8.892,0v-4.2A7.41,7.41,0,0,0,19.51,20.2Z" transform="translate(-12.1 -20.2)"/></g></svg>