<svg xmlns="http://www.w3.org/2000/svg" width="80.275" height="91.39" viewBox="0 0 80.275 91.39"><defs><style>.a{fill:#fff;}.b{fill:#ef3829;}.c{fill:#222;}.d{fill:#f7f7f7;}</style></defs><path class="a" d="M42.984,89.42H7.91A7.431,7.431,0,0,1,.5,82.01V7.91A7.431,7.431,0,0,1,7.91.5H42.984a7.431,7.431,0,0,1,7.41,7.41v74.1A7.6,7.6,0,0,1,42.984,89.42Z" transform="translate(0.735 0.735)"/><path d="M43.719,91.39H8.645A8.752,8.752,0,0,1,0,82.745V8.645A8.752,8.752,0,0,1,8.645,0H43.719a8.752,8.752,0,0,1,8.645,8.645v74.1A8.752,8.752,0,0,1,43.719,91.39ZM8.645,2.47A6.115,6.115,0,0,0,2.47,8.645v74.1A6.115,6.115,0,0,0,8.645,88.92H43.719a6.115,6.115,0,0,0,6.175-6.175V8.645A6.115,6.115,0,0,0,43.719,2.47Z"/><g transform="translate(0 75.829)"><path class="b" d="M.5,31.2v6.175a6.855,6.855,0,0,0,6.669,6.916H43.478a6.855,6.855,0,0,0,6.669-6.916V31.2Z" transform="translate(0.735 -29.965)"/><path class="c" d="M44.213,46.261H7.9A8.177,8.177,0,0,1,0,38.11V30.7H52.364v7.41A8.223,8.223,0,0,1,44.213,46.261ZM2.47,33.17v4.94A5.539,5.539,0,0,0,7.9,43.791H44.213a5.539,5.539,0,0,0,5.434-5.681V33.17Z" transform="translate(0 -30.7)"/></g><g transform="translate(16.302 7.555)"><g transform="translate(0 0.102)"><path d="M18.209,5.57H7.835A1.167,1.167,0,0,1,6.6,4.335,1.167,1.167,0,0,1,7.835,3.1H18.209a1.167,1.167,0,0,1,1.235,1.235A1.167,1.167,0,0,1,18.209,5.57Z" transform="translate(-6.6 -3.1)"/></g><g transform="translate(17.29)"><path d="M14.835,5.631h-.494c-.247,0-.247-.247-.494-.247A.862.862,0,0,1,13.6,4.89V3.9c0-.247.247-.247.247-.494.247-.247.988-.494,1.235-.247.247,0,.247.247.494.247.247.247.247.494.247.988V4.89c0,.247-.247.247-.247.494h-.247A.765.765,0,0,1,14.835,5.631Z" transform="translate(-13.6 -3.059)"/></g></g><g transform="translate(32.357 19.513)"><path class="d" d="M55.837,8.4H16.811A3.27,3.27,0,0,0,13.6,11.611v22.23a3.27,3.27,0,0,0,3.211,3.211h2.223v6.669h0c0,2.223,2.964,3.211,4.693,1.729l8.4-8.4H55.837a3.27,3.27,0,0,0,3.211-3.211V11.611A3.113,3.113,0,0,0,55.837,8.4Z" transform="translate(-12.365 -7.165)"/><path d="M22.486,48.161A3.133,3.133,0,0,1,21,47.914a3.715,3.715,0,0,1-2.47-3.458V39.022h-.988A4.428,4.428,0,0,1,13.1,34.576V12.346A4.428,4.428,0,0,1,17.546,7.9H56.572a4.428,4.428,0,0,1,4.446,4.446v22.23a4.428,4.428,0,0,1-4.446,4.446H33.354L25.2,47.173A3.95,3.95,0,0,1,22.486,48.161ZM17.546,10.37a2.125,2.125,0,0,0-1.976,1.976v22.23a2.125,2.125,0,0,0,1.976,1.976H21v7.9a1.54,1.54,0,0,0,.741,1.235,1.521,1.521,0,0,0,1.729-.247l8.892-8.892H56.572a2.125,2.125,0,0,0,1.976-1.976V12.346a2.125,2.125,0,0,0-1.976-1.976H17.546Z" transform="translate(-13.1 -7.9)"/><g transform="translate(16.549 12.597)"><circle cx="1.976" cy="1.976" r="1.976"/><g transform="translate(6.669)"><circle cx="1.976" cy="1.976" r="1.976"/></g><g transform="translate(13.338)"><circle cx="1.976" cy="1.976" r="1.976"/></g></g></g></svg>