<svg xmlns="http://www.w3.org/2000/svg" width="86.45" height="88.92" viewBox="0 0 86.45 88.92"><defs><style>.a{fill:#e9eaeb;}.b{fill:#fff;}.c{fill:#ef3829;}.d{fill:#222;}</style></defs><g transform="translate(26.923 63.726)"><path class="a" d="M21.921,49.171H16.24a4.955,4.955,0,0,1-4.94-4.94V31.14a4.955,4.955,0,0,1,4.94-4.94h5.681a4.955,4.955,0,0,1,4.94,4.94V44.231A4.955,4.955,0,0,1,21.921,49.171Z" transform="translate(-10.312 -25.212)"/><path d="M22.756,50.994H16.828A6.01,6.01,0,0,1,10.9,45.066V31.728A6.01,6.01,0,0,1,16.828,25.8h5.928a6.01,6.01,0,0,1,5.928,5.928V45.066A6.01,6.01,0,0,1,22.756,50.994ZM16.581,28.023a3.8,3.8,0,0,0-3.7,3.7V45.066a3.8,3.8,0,0,0,3.7,3.7h5.928a3.8,3.8,0,0,0,3.7-3.7V31.728a3.8,3.8,0,0,0-3.7-3.7Z" transform="translate(-10.9 -25.8)"/></g><g transform="translate(0 13.338)"><path class="a" d="M64.62,60.093H5.34A4.955,4.955,0,0,1,.4,55.153V18.35A12.386,12.386,0,0,1,12.75,6H57.21A12.23,12.23,0,0,1,69.56,18.35V55.4A4.91,4.91,0,0,1,64.62,60.093Z" transform="translate(0.588 -4.518)"/><path d="M65.455,62.21H5.928A6.01,6.01,0,0,1,0,56.282V18.738A13.283,13.283,0,0,1,13.338,5.4H58.292A13.283,13.283,0,0,1,71.63,18.738V56.282A6.409,6.409,0,0,1,65.455,62.21ZM13.338,8.117A10.964,10.964,0,0,0,2.47,18.985v37.3a3.8,3.8,0,0,0,3.7,3.7H65.7a3.8,3.8,0,0,0,3.7-3.7V18.738A10.964,10.964,0,0,0,58.539,7.87h-45.2Z" transform="translate(0 -5.4)"/></g><g transform="translate(38.532 19.266)"><path class="b" d="M36.5,50.143H20.94A4.955,4.955,0,0,1,16,45.2V20.75A12.386,12.386,0,0,1,28.35,8.4h.741a12.386,12.386,0,0,1,12.35,12.35V45.2A4.955,4.955,0,0,1,36.5,50.143Z" transform="translate(-15.012 -6.918)"/><path d="M37.089,52.013H21.528A6.01,6.01,0,0,1,15.6,46.085V21.138A13.283,13.283,0,0,1,28.938,7.8h1.235A13.283,13.283,0,0,1,43.511,21.138V46.085A6.28,6.28,0,0,1,37.089,52.013Zm-8.4-41.743A10.964,10.964,0,0,0,17.823,21.138V46.085a3.8,3.8,0,0,0,3.7,3.7H37.089a3.8,3.8,0,0,0,3.7-3.7V21.138A10.964,10.964,0,0,0,29.926,10.27H28.691Z" transform="translate(-15.6 -7.8)"/></g><g transform="translate(8.398)"><path class="c" d="M19.461,33.351V3.711A3.27,3.27,0,0,0,16.25.5h-7.9a4.446,4.446,0,0,0,0,8.892h4.94V33.1a5.373,5.373,0,0,0-1.729,3.952,4.94,4.94,0,1,0,9.88,0A5.039,5.039,0,0,0,19.461,33.351Z" transform="translate(-2.665 0.735)"/><path d="M16.985,43.966a6.115,6.115,0,0,1-6.175-6.175,7.1,7.1,0,0,1,1.729-4.446V11.362H9.081A5.59,5.59,0,0,1,3.4,5.681,5.59,5.59,0,0,1,9.081,0h8.151a4.428,4.428,0,0,1,4.446,4.446V33.592a5.952,5.952,0,0,1,1.729,4.446A6.461,6.461,0,0,1,16.985,43.966Zm-7.9-41.5A3.328,3.328,0,0,0,5.623,5.681,3.27,3.27,0,0,0,8.834,8.892h6.175V34.58l-.494.247a3.521,3.521,0,0,0-1.482,2.964,3.8,3.8,0,0,0,3.7,3.7,3.8,3.8,0,0,0,3.7-3.7,3.521,3.521,0,0,0-1.482-2.964V4.446A1.909,1.909,0,0,0,17.232,2.47H9.081Z" transform="translate(-3.4)"/></g><g transform="translate(47.424 27.664)"><path class="c" d="M53.539,37.982H22.17a2.475,2.475,0,0,1-2.47-2.47V14.27a2.475,2.475,0,0,1,2.47-2.47H53.539a2.475,2.475,0,0,1,2.47,2.47V35.512A2.475,2.475,0,0,1,53.539,37.982Z" transform="translate(-18.465 -10.318)"/><path class="d" d="M54.521,40.1H22.9a3.8,3.8,0,0,1-3.7-3.705V14.9a3.8,3.8,0,0,1,3.7-3.7H54.521a3.8,3.8,0,0,1,3.7,3.7V36.394A3.983,3.983,0,0,1,54.521,40.1ZM22.9,13.67A1.167,1.167,0,0,0,21.67,14.9V36.394A1.167,1.167,0,0,0,22.9,37.629H54.521a1.167,1.167,0,0,0,1.235-1.235V14.9a1.167,1.167,0,0,0-1.235-1.235Z" transform="translate(-19.2 -11.2)"/><g transform="translate(0.15 4.349)"><path class="c" d="M19.7,13.5l13.832,6.916a8.894,8.894,0,0,0,7.9,0L55.268,13.5" transform="translate(-18.615 -12.168)"/><path class="d" d="M38.13,23.185a9.688,9.688,0,0,1-4.446-.988L19.852,15.281a1.417,1.417,0,0,1-.494-1.729,1.417,1.417,0,0,1,1.729-.494l13.832,6.916a7.868,7.868,0,0,0,6.669,0L55.42,13.058a1.637,1.637,0,0,1,1.729.494,1.637,1.637,0,0,1-.494,1.729L42.823,22.2A11.455,11.455,0,0,1,38.13,23.185Z" transform="translate(-19.261 -12.961)"/></g></g></svg>