<svg xmlns="http://www.w3.org/2000/svg" width="85.796" height="88.92" viewBox="0 0 85.796 88.92"><defs><style>.a{fill:#e9eaeb;}.b{fill:#fff;}.c{fill:#ef3829;}</style></defs><g transform="translate(0.24)"><path class="a" d="M83.612,69.643V37.2a6.886,6.886,0,0,0-2.4-5.287L48.765,3.073a10.557,10.557,0,0,0-13.7,0L3.1,31.912A6.886,6.886,0,0,0,.7,37.2V69.643Z" transform="translate(0.742 0.772)"/><path d="M85.655,71.617H.1V37.971a8.091,8.091,0,0,1,2.884-6.248l32.2-28.839a11.377,11.377,0,0,1,15.14,0L82.771,31.963a7.435,7.435,0,0,1,2.884,6.248ZM2.5,69.213H83.252V37.971a5.628,5.628,0,0,0-1.923-4.326L48.645,4.566a9.426,9.426,0,0,0-12.016,0L4.666,33.645A5.459,5.459,0,0,0,2.5,37.971Z" transform="translate(-0.1)"/></g><g transform="translate(12.257 12.016)"><path class="b" d="M11.848,5.5H58.471a6.362,6.362,0,0,1,6.248,6.248V54.767a6.362,6.362,0,0,1-6.248,6.248H11.848A6.362,6.362,0,0,1,5.6,54.767V11.748A6.362,6.362,0,0,1,11.848,5.5Z" transform="translate(-4.398 -4.298)"/><path d="M59.173,62.678H12.55a7.488,7.488,0,0,1-7.45-7.45V12.45A7.488,7.488,0,0,1,12.55,5H59.173a7.488,7.488,0,0,1,7.45,7.45V55.468A7.285,7.285,0,0,1,59.173,62.678ZM12.55,7.4A5.243,5.243,0,0,0,7.5,12.45V55.468a5.076,5.076,0,0,0,5.047,5.047H59.173a5.076,5.076,0,0,0,5.047-5.047V12.45A5.243,5.243,0,0,0,59.173,7.4Z" transform="translate(-5.1 -5)"/></g><g transform="translate(0 39.894)"><path class="c" d="M81.97,17.1c-3.6,3.124-24.273,19.947-26.916,21.629a30.9,30.9,0,0,1-12.977,2.884A30.108,30.108,0,0,1,29.1,38.729c-2.163-1.2-22.831-18.5-26.916-21.629H.5V58.436a5.334,5.334,0,0,0,5.287,5.287H78.605a5.334,5.334,0,0,0,5.287-5.287V17.1Z" transform="translate(0.702 -15.898)"/><path d="M79.307,65.626H6.489A6.791,6.791,0,0,1,0,59.137V16.6H3.365l.24.24c1.442,1.2,5.527,4.326,9.853,8.171C19.947,30.3,29.079,37.749,30.281,38.47a30.343,30.343,0,0,0,12.257,2.644,31.487,31.487,0,0,0,12.5-2.644c2.644-1.682,23.071-18.5,26.916-21.629l.24-.24h3.6V59.137A6.791,6.791,0,0,1,79.307,65.626ZM2.4,19V59.137a4.211,4.211,0,0,0,4.086,4.086H79.307a4.211,4.211,0,0,0,4.086-4.086V19h-.24C79.307,22.127,59.12,38.95,56.476,40.392a32.552,32.552,0,0,1-13.7,2.884A31.464,31.464,0,0,1,29.32,40.392c-1.442-.721-7.931-6.248-17.3-13.7C7.931,23.329,4.326,20.445,2.4,19Z" transform="translate(0 -16.6)"/></g><g transform="translate(30.761 27.397)"><path d="M33.949,14.524A12.387,12.387,0,0,0,25.3,11.4,13.416,13.416,0,0,0,16.4,14.524a10.144,10.144,0,0,0-3.6,7.69,9.788,9.788,0,0,0,3.6,7.69,12.387,12.387,0,0,0,8.652,3.124h0a16.4,16.4,0,0,0,5.527-1.2c.24-.24.24-.24,0-.961l-.481-.721c-.24-.481-.481-.481-.721-.481a9.155,9.155,0,0,1-4.086.961h0a9.139,9.139,0,0,1-7.21-3.124,7.456,7.456,0,0,1-2.163-4.326,8.557,8.557,0,0,1,2.644-6.969A9.658,9.658,0,0,1,25.3,13.8a10.47,10.47,0,0,1,6.969,2.644,6.245,6.245,0,0,1,2.163,3.845,6.065,6.065,0,0,1-.721,5.047c-.481.721-.961,1.2-1.442,1.2-.24,0-.24-.721-.24-1.682h0v-2.4a5.582,5.582,0,0,0-2.163-4.566,7.626,7.626,0,0,0-4.806-1.442,8.12,8.12,0,0,0-4.806,1.442,5.582,5.582,0,0,0-2.163,4.566,4.83,4.83,0,0,0,.961,3.124,5.875,5.875,0,0,0,2.644,2.163,7.676,7.676,0,0,0,3.365.721h.481a6.4,6.4,0,0,0,2.884-.721c.24,0,.24,0,.24-.24s0-.24-.24-.481L27.7,25.579h0a.883.883,0,0,0-.721-.24,5.656,5.656,0,0,1-1.923.481h-.24a5.656,5.656,0,0,1-1.923-.481,3.4,3.4,0,0,1,.481-6.489,3.048,3.048,0,0,1,1.442-.24h.961a4.588,4.588,0,0,1,1.923.721,3.443,3.443,0,0,1,1.2,2.644v2.644a4.975,4.975,0,0,0,1.2,3.6,2.938,2.938,0,0,0,2.163.721h.24a4.237,4.237,0,0,0,3.6-2.163,8.944,8.944,0,0,0,1.682-4.806A11.312,11.312,0,0,0,33.949,14.524Z" transform="translate(-12.8 -11.4)"/></g></svg>