<svg xmlns="http://www.w3.org/2000/svg" width="88.936" height="68.209" viewBox="0 0 88.936 68.209"><defs><style>.a{fill:#ef3829;}.b{fill:#222;}.c{fill:#b7202e;}</style></defs><g transform="translate(0 0)"><path class="a" d="M1.537,14.339,26.731,30.888a4.01,4.01,0,0,1,1.235,2.223L25.99,63a3.406,3.406,0,0,0,5.928,1.976L86.258,6.188A3.435,3.435,0,0,0,83.294.507L3.76,8.411C.8,8.658-.686,12.363,1.537,14.339Z" transform="translate(0.779 0.765)"/><path class="b" d="M30.19,68.194a3.133,3.133,0,0,1-1.482-.247A4.842,4.842,0,0,1,25.5,64l1.976-30.134a1.358,1.358,0,0,0-.741-1.235L1.538,15.83A4.223,4.223,0,0,1,.3,10.89,4.228,4.228,0,0,1,4.255,7.926L84.036.022a4.141,4.141,0,0,1,4.446,2.47,4.969,4.969,0,0,1-.741,5.187L33.4,66.465A4.222,4.222,0,0,1,30.19,68.194ZM3.02,14.1,27.967,30.65A5.9,5.9,0,0,1,29.7,33.861L27.72,64A2.119,2.119,0,0,0,29.2,65.724a1.992,1.992,0,0,0,2.223-.741L85.765,6.2a2.224,2.224,0,0,0,.247-2.47,2.594,2.594,0,0,0-2.223-1.235L4.5,10.4a1.878,1.878,0,0,0-1.976,1.482A2.519,2.519,0,0,0,3.02,14.1Z" transform="translate(0.038 0.015)"/></g><g transform="translate(20.603 2.411)"><path class="c" d="M73.275,1.5,16.465,25.459h0l-4.94,1.976L8.808,38.8c-.988,3.7,2.223,7.163,5.928,7.657l1.976-16.8h0Z" transform="translate(-7.828 -0.168)"/><path class="b" d="M15.458,48.482h0A8.6,8.6,0,0,1,9.53,45.024a6.287,6.287,0,0,1-.988-5.434l2.717-11.362A.655.655,0,0,1,12,27.487L73.5,1.058a1.188,1.188,0,0,1,1.482.494,1.188,1.188,0,0,1-.494,1.482L18.422,31.192,16.446,47.247c0,.247-.247.494-.494.741A.531.531,0,0,1,15.458,48.482ZM13.235,29.216l-2.47,10.621a5.087,5.087,0,0,0,.741,3.7,6.743,6.743,0,0,0,2.964,2.223L16.2,30.451c0-.494.247-.741.741-.988L39.17,18.348Z" transform="translate(-8.303 -0.961)"/></g></svg>