<svg xmlns="http://www.w3.org/2000/svg" width="81.017" height="88.92" viewBox="0 0 81.017 88.92"><defs><style>.a{fill:#f7f7f7;}.b{fill:#fff;}.c{fill:#ef3829;}.d{fill:#222;}</style></defs><g transform="translate(6.422)"><path class="a" d="M70.037,86.95H8.287A5.217,5.217,0,0,1,3.1,81.763V5.687A5.217,5.217,0,0,1,8.287.5h61.75a5.217,5.217,0,0,1,5.187,5.187V82.01A5.172,5.172,0,0,1,70.037,86.95Z" transform="translate(-1.865 0.735)"/><path d="M70.772,88.92H9.022A6.539,6.539,0,0,1,2.6,82.5V6.422A6.539,6.539,0,0,1,9.022,0h61.75a6.539,6.539,0,0,1,6.422,6.422V82.745A6.5,6.5,0,0,1,70.772,88.92ZM9.022,2.47A3.9,3.9,0,0,0,5.07,6.422V82.745A3.9,3.9,0,0,0,9.022,86.7h61.75a3.9,3.9,0,0,0,3.952-3.952V6.422A3.9,3.9,0,0,0,70.772,2.47H9.022Z" transform="translate(-2.6)"/></g><g transform="translate(28.962 21.242)"><g transform="translate(5.371)"><path class="b" d="M23.292,32.318h0A8.855,8.855,0,0,1,14.4,23.426V17.992A8.855,8.855,0,0,1,23.292,9.1h0a8.855,8.855,0,0,1,8.892,8.892v5.434A9.015,9.015,0,0,1,23.292,32.318Z" transform="translate(-13.165 -7.865)"/><path d="M24.027,34.288A10.172,10.172,0,0,1,13.9,24.161V18.727A10.172,10.172,0,0,1,24.027,8.6,10.338,10.338,0,0,1,34.154,18.727v5.434A10.338,10.338,0,0,1,24.027,34.288Zm0-23.465A7.7,7.7,0,0,0,16.37,18.48v5.434a7.657,7.657,0,0,0,15.314,0V18.48A7.7,7.7,0,0,0,24.027,10.823Z" transform="translate(-13.9 -8.6)"/></g><g transform="translate(0 25.935)"><path class="c" d="M37.7,35.161a4.225,4.225,0,0,0,3.952-5.928,15.84,15.84,0,0,0-29.146,0,4.256,4.256,0,0,0,3.952,5.928Z" transform="translate(-11.088 -18.365)"/><path class="d" d="M38.338,37.131H17.343a5.621,5.621,0,0,1-4.693-2.47,5.514,5.514,0,0,1-.494-5.187,16.858,16.858,0,0,1,31.122,0,5.528,5.528,0,0,1-4.94,7.657ZM27.717,21.57a14.258,14.258,0,0,0-13.338,8.892,3.178,3.178,0,0,0,.247,2.964,2.717,2.717,0,0,0,2.47,1.482H38.091a2.717,2.717,0,0,0,2.47-1.482,3.178,3.178,0,0,0,.247-2.964A13.689,13.689,0,0,0,27.717,21.57Z" transform="translate(-11.726 -19.1)"/></g></g><g transform="translate(0 19.76)"><path class="b" d="M10.38,14.922H2.97A2.475,2.475,0,0,1,.5,12.452V10.97A2.334,2.334,0,0,1,2.97,8.5h7.41a2.334,2.334,0,0,1,2.47,2.47V12.2A2.539,2.539,0,0,1,10.38,14.922Z" transform="translate(0.735 -7.265)"/><path d="M11.115,16.892H3.7a3.8,3.8,0,0,1-3.7-3.7V11.7A3.8,3.8,0,0,1,3.7,8h7.41a3.8,3.8,0,0,1,3.7,3.7V12.94A3.567,3.567,0,0,1,11.115,16.892ZM3.7,10.47A1.167,1.167,0,0,0,2.47,11.7V12.94A1.167,1.167,0,0,0,3.7,14.175h7.41A1.167,1.167,0,0,0,12.35,12.94V11.7a1.167,1.167,0,0,0-1.235-1.235Z" transform="translate(0 -8)"/><g transform="translate(0 13.585)"><path class="b" d="M10.38,20.175H2.97A2.656,2.656,0,0,1,.5,17.7V16.47A2.334,2.334,0,0,1,2.97,14h7.41a2.334,2.334,0,0,1,2.47,2.47V17.7A2.334,2.334,0,0,1,10.38,20.175Z" transform="translate(0.735 -12.765)"/><path d="M11.115,22.145H3.7A3.638,3.638,0,0,1,0,18.44V17.2a3.8,3.8,0,0,1,3.7-3.7h7.41a3.8,3.8,0,0,1,3.7,3.7V18.44C15.067,20.663,13.338,22.145,11.115,22.145ZM3.7,15.97A1.167,1.167,0,0,0,2.47,17.2V18.44A1.167,1.167,0,0,0,3.7,19.675h7.41A1.167,1.167,0,0,0,12.35,18.44V17.2a1.167,1.167,0,0,0-1.235-1.235Z" transform="translate(0 -13.5)"/></g><g transform="translate(0 27.17)"><path class="b" d="M10.38,25.675H2.97A2.656,2.656,0,0,1,.5,23.2V21.97A2.475,2.475,0,0,1,2.97,19.5h7.41a2.475,2.475,0,0,1,2.47,2.47V23.2A2.334,2.334,0,0,1,10.38,25.675Z" transform="translate(0.735 -18.265)"/><path d="M11.115,27.645H3.7A3.8,3.8,0,0,1,0,23.94V22.7A3.638,3.638,0,0,1,3.7,19h7.41a3.8,3.8,0,0,1,3.7,3.7V23.94A3.5,3.5,0,0,1,11.115,27.645ZM3.7,21.47A1.167,1.167,0,0,0,2.47,22.7V23.94A1.167,1.167,0,0,0,3.7,25.175h7.41A1.167,1.167,0,0,0,12.35,23.94V22.7a1.167,1.167,0,0,0-1.235-1.235Z" transform="translate(0 -19)"/></g><g transform="translate(0 40.755)"><path class="b" d="M10.38,31.175H2.97A2.656,2.656,0,0,1,.5,28.7V27.47A2.475,2.475,0,0,1,2.97,25h7.41a2.475,2.475,0,0,1,2.47,2.47V28.7A2.475,2.475,0,0,1,10.38,31.175Z" transform="translate(0.735 -23.765)"/><path d="M11.115,33.145H3.7A3.8,3.8,0,0,1,0,29.44V28.2a3.8,3.8,0,0,1,3.7-3.7h7.41a3.8,3.8,0,0,1,3.7,3.7V29.44A3.5,3.5,0,0,1,11.115,33.145ZM3.7,26.723A1.167,1.167,0,0,0,2.47,27.958v1.235c0,.988.494,1.482,1.235,1.482h7.41A1.167,1.167,0,0,0,12.35,29.44V28.2a1.167,1.167,0,0,0-1.235-1.235H3.7Z" transform="translate(0 -24.5)"/></g></g></svg>