<svg xmlns="http://www.w3.org/2000/svg" width="88.92" height="88.92" viewBox="0 0 88.92 88.92"><defs><style>.a{fill:#f7f7f7;}.b{fill:#222;}.c{fill:#ef3829;}</style></defs><circle class="a" cx="43.225" cy="43.225" r="43.225" transform="translate(1.235 1.235)"/><path class="b" d="M44.46,88.92A44.46,44.46,0,1,1,88.92,44.46,44.591,44.591,0,0,1,44.46,88.92Zm0-86.45A41.99,41.99,0,1,0,86.45,44.46,41.955,41.955,0,0,0,44.46,2.47Z"/><g transform="translate(33.172 38.942)"><g transform="translate(0 0)"><path class="c" d="M-3.6,26.593V26.1a2.16,2.16,0,0,1,1.482-2.223A29.959,29.959,0,0,0,1.34,22.641a2.372,2.372,0,0,0,1.729-2.223V5.6A2.5,2.5,0,0,0,1.587,3.375l-3.7-1.235A2.16,2.16,0,0,1-3.6-.083V-.577A2.214,2.214,0,0,1-1.377-2.8H9.985A2.214,2.214,0,0,1,12.208-.577V20.418a2.5,2.5,0,0,0,1.482,2.223c1.482.494,2.717.988,3.7,1.235A2.372,2.372,0,0,1,19.124,26.1v.494A2.214,2.214,0,0,1,16.9,28.816H-1.13A2.281,2.281,0,0,1-3.6,26.593Z" transform="translate(3.6 2.8)"/></g></g><g transform="translate(37.954 18.451)"><g transform="translate(0 0)"><circle class="c" cx="6.669" cy="6.669" r="6.669"/></g></g></svg>