<svg xmlns="http://www.w3.org/2000/svg" width="71.136" height="88.92" viewBox="0 0 71.136 88.92"><defs><style>.a{fill:#fff;}.b{fill:#ef3829;}.c{fill:#f7f7f7;}</style></defs><path class="a" d="M40.514,86.95H7.91A7.431,7.431,0,0,1,.5,79.54V7.91A7.431,7.431,0,0,1,7.91.5h32.6a7.431,7.431,0,0,1,7.41,7.41V79.54A7.431,7.431,0,0,1,40.514,86.95Z" transform="translate(0.735 0.735)"/><path d="M41.5,88.92H8.4a8.329,8.329,0,0,1-8.4-8.4V8.4A8.329,8.329,0,0,1,8.4,0H41.5a8.329,8.329,0,0,1,8.4,8.4V80.522A8.329,8.329,0,0,1,41.5,88.92ZM8.4,2.47A5.707,5.707,0,0,0,2.47,8.4V80.522A5.707,5.707,0,0,0,8.4,86.45H41.5a6.01,6.01,0,0,0,5.928-5.928V8.4A5.851,5.851,0,0,0,41.5,2.47Z"/><g transform="translate(0 73.853)"><path class="b" d="M.5,30.4v5.928A6.593,6.593,0,0,0,6.922,43H41.5a6.593,6.593,0,0,0,6.422-6.669V30.4Z" transform="translate(0.735 -29.165)"/><path d="M42.237,44.967H7.657A7.751,7.751,0,0,1,0,37.063V29.9H49.894v7.163A7.751,7.751,0,0,1,42.237,44.967ZM2.47,32.37v4.693A5.274,5.274,0,0,0,7.657,42.5h34.58a5.274,5.274,0,0,0,5.187-5.434V32.37Z" transform="translate(0 -29.9)"/></g><g transform="translate(15.808 7.78)"><g transform="translate(0 0.124)"><path d="M17.268,5.67H7.635A1.167,1.167,0,0,1,6.4,4.435,1.167,1.167,0,0,1,7.635,3.2h9.633A1.167,1.167,0,0,1,18.5,4.435,1.167,1.167,0,0,1,17.268,5.67Z" transform="translate(-6.4 -3.2)"/></g><g transform="translate(15.808)"><path d="M14.035,5.743a1.485,1.485,0,0,1-.988-.247C12.8,5.249,12.8,5,12.8,4.508c0-.247.247-.741.247-.988a1.194,1.194,0,0,1,1.729,0c.247.247.247.494.247.988a1.485,1.485,0,0,1-.247.988C14.529,5.5,14.282,5.743,14.035,5.743Z" transform="translate(-12.8 -3.15)"/></g></g><g transform="translate(28.158 21.736)"><ellipse class="c" cx="20.254" cy="20.254" rx="20.254" ry="20.254" transform="translate(1.235 1.235)"/><path d="M32.889,51.778A21.489,21.489,0,1,1,54.378,30.289,21.5,21.5,0,0,1,32.889,51.778Zm0-40.755A19.019,19.019,0,1,0,51.908,30.042,19.027,19.027,0,0,0,32.889,11.023Z" transform="translate(-11.4 -8.8)"/><g transform="translate(8.645 11.362)"><path class="b" d="M17.864,24.268v6.669H14.9V13.4h6.669a6.038,6.038,0,0,1,4.446,1.482,5.373,5.373,0,0,1,1.729,3.952,4.606,4.606,0,0,1-1.729,3.952,6.9,6.9,0,0,1-4.446,1.482Zm0-2.223h3.7a2.864,2.864,0,0,0,2.47-.988,3.679,3.679,0,0,0,.988-2.223,3.019,3.019,0,0,0-.741-2.223,3.773,3.773,0,0,0-2.47-.988h-3.7v6.422Z" transform="translate(-14.9 -13.4)"/><path class="b" d="M24.264,23.774v7.163H21.3V13.4h5.928a7.334,7.334,0,0,1,4.446,1.235,4.66,4.66,0,0,1,1.482,3.7,3.019,3.019,0,0,1-.741,2.223,5.945,5.945,0,0,1-1.976,1.482,3.6,3.6,0,0,1,2.223,1.482,4.437,4.437,0,0,1,.741,2.717v1.482a3.133,3.133,0,0,0,.247,1.482c.247.494.247.988.741,1.235v.247H31.427a1.887,1.887,0,0,1-.494-1.235c0-.494-.247-1.235-.247-1.729V26.244a3.019,3.019,0,0,0-.741-2.223,3.019,3.019,0,0,0-2.223-.741H24.264Zm0-2.47h2.964a3.278,3.278,0,0,0,2.47-.741,2.8,2.8,0,0,0,.741-1.976,2.431,2.431,0,0,0-.741-1.976,3.278,3.278,0,0,0-2.47-.741H24.017V21.3Z" transform="translate(-5.492 -13.4)"/></g></g></svg>