<svg xmlns="http://www.w3.org/2000/svg" width="88.92" height="85.215" viewBox="0 0 88.92 85.215"><defs><style>.a{fill:#fff;}.b{fill:#ef3829;}.c{fill:#e8e8e9;}</style></defs><g transform="translate(0 6.175)"><path class="a" d="M86.95,60.7V9.075c0-3.211-2.47-6.175-5.434-6.175H5.934C2.97,2.9.5,5.617.5,9.075V73.542c0,3.211,2.47,6.175,5.434,6.175H73.365L85.221,65.638A7.55,7.55,0,0,0,86.95,60.7Z" transform="translate(0.735 -1.912)"/><path d="M74.841,81.54H6.669A6.918,6.918,0,0,1,0,74.377V9.663A6.918,6.918,0,0,1,6.669,2.5H82.251A6.918,6.918,0,0,1,88.92,9.663V61.286a8.632,8.632,0,0,1-1.976,5.434ZM6.669,4.723c-2.47,0-4.2,2.223-4.2,4.94V74.13c0,2.717,1.976,4.94,4.2,4.94H73.606L84.968,65.238a5.609,5.609,0,0,0,1.482-3.952V9.663c0-2.717-1.976-4.94-4.2-4.94Z" transform="translate(0 -2.5)"/><g transform="translate(73.606 63.479)"><path class="b" d="M29.8,41.291V30.67a2.475,2.475,0,0,1,2.47-2.47H41.9Z" transform="translate(-29.8 -28.2)"/></g><g transform="translate(1.235 0.988)"><path class="b" d="M86.95,18.461V9.075c0-3.211-2.47-6.175-5.434-6.175H5.934C2.97,2.9.5,5.617.5,9.075v9.633" transform="translate(-0.5 -2.9)"/></g><path d="M74.841,81.54H6.669A6.918,6.918,0,0,1,0,74.377V9.663A6.918,6.918,0,0,1,6.669,2.5H82.251A6.918,6.918,0,0,1,88.92,9.663V61.286a8.632,8.632,0,0,1-1.976,5.434ZM6.669,4.723c-2.47,0-4.2,2.223-4.2,4.94V74.13c0,2.717,1.976,4.94,4.2,4.94H73.606L84.968,65.238a5.609,5.609,0,0,0,1.482-3.952V9.663c0-2.717-1.976-4.94-4.2-4.94Z" transform="translate(0 -2.5)"/></g><g transform="translate(16.302)"><g transform="translate(47.671)"><path class="a" d="M26.4,10.133V2.97A2.475,2.475,0,0,1,28.87.5H30.1a2.475,2.475,0,0,1,2.47,2.47v7.163A2.475,2.475,0,0,1,30.1,12.6H28.87A2.656,2.656,0,0,1,26.4,10.133Z" transform="translate(-25.165 0.735)"/><path d="M30.84,14.573H29.6a3.8,3.8,0,0,1-3.7-3.7V3.458A3.961,3.961,0,0,1,29.6,0H30.84a3.8,3.8,0,0,1,3.7,3.7v7.41A3.764,3.764,0,0,1,30.84,14.573ZM29.6,2.47A1.167,1.167,0,0,0,28.37,3.7v7.41A1.167,1.167,0,0,0,29.6,12.35H30.84a1.167,1.167,0,0,0,1.235-1.235V3.7A1.167,1.167,0,0,0,30.84,2.47Z" transform="translate(-25.9)"/></g><path class="a" d="M7.1,10.133V2.97A2.334,2.334,0,0,1,9.57.5H10.8a2.475,2.475,0,0,1,2.47,2.47v7.163A2.334,2.334,0,0,1,10.8,12.6H9.57A2.475,2.475,0,0,1,7.1,10.133Z" transform="translate(-5.865 0.735)"/><path d="M11.54,14.573H10.3a3.8,3.8,0,0,1-3.7-3.7V3.458A3.764,3.764,0,0,1,10.3,0H11.54A3.589,3.589,0,0,1,15,3.7v7.41A3.533,3.533,0,0,1,11.54,14.573ZM10.3,2.47A1.167,1.167,0,0,0,9.07,3.7v7.41A1.167,1.167,0,0,0,10.3,12.35H11.54a1.167,1.167,0,0,0,1.235-1.235V3.7A1.167,1.167,0,0,0,11.54,2.47Z" transform="translate(-6.6)"/></g><g transform="translate(23.712 37.05)"><path class="c" d="M12.57,15.5h4.2a2.475,2.475,0,0,1,2.47,2.47v4.2a2.475,2.475,0,0,1-2.47,2.47h-4.2a2.475,2.475,0,0,1-2.47-2.47v-4.2A2.656,2.656,0,0,1,12.57,15.5Z" transform="translate(-8.865 -14.265)"/><path d="M17.5,26.609H13.3a3.8,3.8,0,0,1-3.7-3.7V18.7A3.8,3.8,0,0,1,13.3,15h4.2a3.8,3.8,0,0,1,3.7,3.7v4.2A3.8,3.8,0,0,1,17.5,26.609ZM13.3,17.47A1.167,1.167,0,0,0,12.07,18.7v4.2A1.167,1.167,0,0,0,13.3,24.139h4.2A1.167,1.167,0,0,0,18.739,22.9V18.7A1.167,1.167,0,0,0,17.5,17.47Z" transform="translate(-9.6 -15)"/><g transform="translate(14.82)"><path class="c" d="M18.689,15.5h4.2a2.475,2.475,0,0,1,2.47,2.47v4.2a2.475,2.475,0,0,1-2.47,2.47h-4.2a2.475,2.475,0,0,1-2.47-2.47v-4.2A2.326,2.326,0,0,1,18.689,15.5Z" transform="translate(-14.737 -14.265)"/><path d="M23.5,26.609H19.3a3.8,3.8,0,0,1-3.7-3.7V18.7A3.8,3.8,0,0,1,19.3,15h4.2a3.8,3.8,0,0,1,3.7,3.7v4.2A3.638,3.638,0,0,1,23.5,26.609ZM19.552,17.47A1.167,1.167,0,0,0,18.317,18.7v4.2a1.167,1.167,0,0,0,1.235,1.235h4.2A1.167,1.167,0,0,0,24.986,22.9V18.7a1.167,1.167,0,0,0-1.235-1.235Z" transform="translate(-15.6 -15)"/></g><g transform="translate(29.887)"><path class="c" d="M24.67,15.5h4.2a2.475,2.475,0,0,1,2.47,2.47v4.2a2.475,2.475,0,0,1-2.47,2.47h-4.2a2.475,2.475,0,0,1-2.47-2.47v-4.2A2.475,2.475,0,0,1,24.67,15.5Z" transform="translate(-20.965 -14.265)"/><path d="M29.6,26.609H25.4a3.8,3.8,0,0,1-3.7-3.7V18.7A3.8,3.8,0,0,1,25.4,15h4.2a3.8,3.8,0,0,1,3.7,3.7v4.2A3.8,3.8,0,0,1,29.6,26.609Zm-4.2-9.139A1.167,1.167,0,0,0,24.17,18.7v4.2a1.167,1.167,0,0,0,1.235,1.235h4.2A1.167,1.167,0,0,0,30.839,22.9V18.7A1.167,1.167,0,0,0,29.6,17.47Z" transform="translate(-21.7 -15)"/></g><g transform="translate(0 13.585)"><path class="c" d="M12.57,21h4.2a2.475,2.475,0,0,1,2.47,2.47v4.2a2.475,2.475,0,0,1-2.47,2.47h-4.2a2.475,2.475,0,0,1-2.47-2.47v-4.2A2.656,2.656,0,0,1,12.57,21Z" transform="translate(-8.865 -19.765)"/><path d="M17.5,32.109H13.3a3.8,3.8,0,0,1-3.7-3.7V24.2a3.8,3.8,0,0,1,3.7-3.7h4.2a3.8,3.8,0,0,1,3.7,3.7v4.2A3.8,3.8,0,0,1,17.5,32.109ZM13.3,22.97A1.167,1.167,0,0,0,12.07,24.2v4.2A1.167,1.167,0,0,0,13.3,29.639h4.2A1.167,1.167,0,0,0,18.739,28.4V24.2A1.167,1.167,0,0,0,17.5,22.97Z" transform="translate(-9.6 -20.5)"/></g><g transform="translate(14.82 13.585)"><path class="c" d="M18.689,21h4.2a2.475,2.475,0,0,1,2.47,2.47v4.2a2.475,2.475,0,0,1-2.47,2.47h-4.2a2.475,2.475,0,0,1-2.47-2.47v-4.2A2.326,2.326,0,0,1,18.689,21Z" transform="translate(-14.737 -19.765)"/><path d="M23.5,32.109H19.3a3.8,3.8,0,0,1-3.7-3.7V24.2a3.8,3.8,0,0,1,3.7-3.7h4.2a3.8,3.8,0,0,1,3.7,3.7v4.2A3.638,3.638,0,0,1,23.5,32.109ZM19.552,22.97A1.167,1.167,0,0,0,18.317,24.2v4.2a1.167,1.167,0,0,0,1.235,1.235h4.2A1.167,1.167,0,0,0,24.986,28.4V24.2a1.167,1.167,0,0,0-1.235-1.235Z" transform="translate(-15.6 -20.5)"/></g><g transform="translate(29.887 13.585)"><path class="c" d="M24.67,21h4.2a2.475,2.475,0,0,1,2.47,2.47v4.2a2.475,2.475,0,0,1-2.47,2.47h-4.2a2.475,2.475,0,0,1-2.47-2.47v-4.2A2.475,2.475,0,0,1,24.67,21Z" transform="translate(-20.965 -19.765)"/><path d="M29.6,32.109H25.4a3.8,3.8,0,0,1-3.7-3.7V24.2a3.8,3.8,0,0,1,3.7-3.7h4.2a3.8,3.8,0,0,1,3.7,3.7v4.2A3.8,3.8,0,0,1,29.6,32.109Zm-4.2-9.139A1.167,1.167,0,0,0,24.17,24.2v4.2a1.167,1.167,0,0,0,1.235,1.235h4.2A1.167,1.167,0,0,0,30.839,28.4V24.2A1.167,1.167,0,0,0,29.6,22.97Z" transform="translate(-21.7 -20.5)"/></g></g></svg>