<svg xmlns="http://www.w3.org/2000/svg" width="91.4" height="91.266" viewBox="0 0 91.4 91.266"><defs><style>.a{fill:#fff;}.b{fill:#ef3829;}</style></defs><g transform="translate(0 0)"><g transform="translate(76.58)"><path class="a" d="M39.01,12.356l2.964-2.964A5.19,5.19,0,0,0,43.7,5.934a4.485,4.485,0,0,0-1.482-3.458l-.494-.494a5.069,5.069,0,0,0-7.163,0L31.6,5.193Z" transform="translate(-30.118 0.611)"/><path d="M39.892,14.746,31,5.854,34.7,1.9a6.261,6.261,0,0,1,8.892,0l.494.494A5.959,5.959,0,0,1,45.82,6.6a6.185,6.185,0,0,1-1.976,4.446ZM34.458,5.607l5.681,5.681,1.976-1.976A3.966,3.966,0,0,0,43.35,6.6a5.179,5.179,0,0,0-.988-2.717l-.494-.494a3.877,3.877,0,0,0-5.434,0Z" transform="translate(-31 -0.05)"/></g><g transform="translate(0 3.581)"><path class="b" d="M85.04,12.547,19.585,78.5a.862.862,0,0,1-.494.247L2.542,86.894A1.523,1.523,0,0,1,.566,84.918l8.4-16.3a.242.242,0,0,1,.247-.247L74.913,2.42a1.5,1.5,0,0,1,1.976,0l8.151,8.151A1.5,1.5,0,0,1,85.04,12.547Z" transform="translate(0.679 -0.692)"/><path d="M2.723,89.185a3.285,3.285,0,0,1-1.976-.741A2.627,2.627,0,0,1,.253,85.48L8.4,68.931c.247-.247.247-.494.494-.741L74.6,2.241A2.8,2.8,0,0,1,76.576,1.5h0a2.8,2.8,0,0,1,1.976.741L86.7,10.392a2.686,2.686,0,0,1,0,3.7L21,80.046c-.247.247-.494.247-.741.494L3.711,88.691A1.873,1.873,0,0,1,2.723,89.185ZM75.588,3.229l.988.988-65.7,65.7-8.4,16.549.247.247,16.549-8.151,65.7-65.949v-.247l-8.4-8.4Z" transform="translate(0.004 -1.5)"/></g></g><g transform="translate(65.341 17.537)"><path d="M27.809,37.654a1.485,1.485,0,0,1-.988-.247,1.194,1.194,0,0,1,0-1.729L47.815,14.683l-4.94-5.434A1.223,1.223,0,0,1,44.6,7.52L50.779,13.7a1.194,1.194,0,0,1,0,1.729L28.8,37.407C28.549,37.407,28.056,37.654,27.809,37.654Z" transform="translate(-26.45 -7.15)"/></g></svg>