<svg xmlns="http://www.w3.org/2000/svg" width="88.92" height="36.062" viewBox="0 0 88.92 36.062"><defs><style>.a{fill:#e9eaeb;}.b{fill:#ef3829;}.c{fill:#fff;}</style></defs><path class="a" d="M82.01,34.092H5.44A4.955,4.955,0,0,1,.5,29.152V5.44A4.955,4.955,0,0,1,5.44.5H82.01a4.955,4.955,0,0,1,4.94,4.94V29.152A4.955,4.955,0,0,1,82.01,34.092Z" transform="translate(0.735 0.735)"/><path d="M82.745,36.062H6.175A6.115,6.115,0,0,1,0,29.887V6.175A6.115,6.115,0,0,1,6.175,0h76.57A6.115,6.115,0,0,1,88.92,6.175V30.134A6.066,6.066,0,0,1,82.745,36.062ZM6.175,2.47a3.8,3.8,0,0,0-3.7,3.7V30.134a3.8,3.8,0,0,0,3.7,3.7h76.57a3.8,3.8,0,0,0,3.7-3.7V6.175a3.8,3.8,0,0,0-3.7-3.7Z"/><g transform="translate(8.645 11.856)"><circle class="b" cx="4.94" cy="4.94" r="4.94" transform="translate(1.235 1.235)"/><path d="M9.675,17.15A6.115,6.115,0,0,1,3.5,10.975,6.115,6.115,0,0,1,9.675,4.8a6.115,6.115,0,0,1,6.175,6.175A6.274,6.274,0,0,1,9.675,17.15Zm0-9.88a3.8,3.8,0,0,0-3.7,3.7,3.638,3.638,0,0,0,3.7,3.7,3.638,3.638,0,0,0,3.7-3.7A3.8,3.8,0,0,0,9.675,7.27Z" transform="translate(-3.5 -4.8)"/></g><g transform="translate(24.206 12.844)"><path class="c" d="M35.494,13.6H14.252A3.9,3.9,0,0,1,10.3,9.652h0A3.9,3.9,0,0,1,14.252,5.7H35.494a3.9,3.9,0,0,1,3.952,3.952h0A3.759,3.759,0,0,1,35.494,13.6Z" transform="translate(-9.065 -4.465)"/><path d="M36.229,15.574H14.987A5.065,5.065,0,0,1,9.8,10.387,5.065,5.065,0,0,1,14.987,5.2H36.229a5.065,5.065,0,0,1,5.187,5.187A5.065,5.065,0,0,1,36.229,15.574ZM14.987,7.67a2.717,2.717,0,1,0,0,5.434H36.229a2.717,2.717,0,1,0,0-5.434Z" transform="translate(-9.8 -5.2)"/></g><g transform="translate(60.515 14.079)"><circle cx="3.952" cy="3.952" r="3.952"/></g><g transform="translate(71.136 14.079)"><circle cx="3.952" cy="3.952" r="3.952"/></g></svg>