<svg xmlns="http://www.w3.org/2000/svg" width="98.8" height="67.925" viewBox="0 0 98.8 67.925"><defs><style>.a{fill:#f7f7f7;}.b{fill:#ef3829;}.c{fill:#e8e8e9;}.d{fill:#fff;}</style></defs><g transform="translate(25.392)"><g transform="translate(4.397 24.008)"><path class="a" d="M66.839,51.667H13.191A3.637,3.637,0,0,1,9.56,48.036V13.851a3.637,3.637,0,0,1,3.631-3.631H66.815a3.637,3.637,0,0,1,3.631,3.631V48.036A3.6,3.6,0,0,1,66.839,51.667Z" transform="translate(-8.325 -8.985)"/><path d="M67.574,53.637H13.926A4.86,4.86,0,0,1,9.06,48.771V14.586A4.86,4.86,0,0,1,13.926,9.72H67.55a4.86,4.86,0,0,1,4.866,4.866V48.771A4.854,4.854,0,0,1,67.574,53.637ZM13.926,12.19a2.4,2.4,0,0,0-2.4,2.4V48.771a2.4,2.4,0,0,0,2.4,2.4H67.55a2.4,2.4,0,0,0,2.4-2.4V14.586a2.4,2.4,0,0,0-2.4-2.4H13.926Z" transform="translate(-9.06 -9.72)"/></g><g transform="translate(14.202)"><path class="b" d="M16.074.5H53.346A2.48,2.48,0,0,1,55.89,3.044V7.589a2.48,2.48,0,0,1-2.544,2.544H16.074A2.48,2.48,0,0,1,13.53,7.589V3.044A2.5,2.5,0,0,1,16.074.5Z" transform="translate(-12.295 0.735)"/><path d="M54.081,12.1H16.809A3.733,3.733,0,0,1,13.03,8.324V3.779A3.733,3.733,0,0,1,16.809,0H54.081A3.733,3.733,0,0,1,57.86,3.779V8.324A3.733,3.733,0,0,1,54.081,12.1ZM16.809,2.47A1.258,1.258,0,0,0,15.5,3.779V8.324a1.258,1.258,0,0,0,1.309,1.309H54.081A1.258,1.258,0,0,0,55.39,8.324V3.779A1.258,1.258,0,0,0,54.081,2.47Z" transform="translate(-13.03)"/></g><g transform="translate(0.025 8.349)"><path class="a" d="M75.987,20.627H10.334A2.48,2.48,0,0,1,7.79,18.082V16.428a2.953,2.953,0,0,1,.914-2l12.918-10a2.206,2.206,0,0,1,1.63-.543H63.069a2.859,2.859,0,0,1,1.63.543l12.918,10a2.953,2.953,0,0,1,.914,2v1.63A2.627,2.627,0,0,1,75.987,20.627Z" transform="translate(-6.555 -2.645)"/><path d="M76.722,22.6H11.069A3.733,3.733,0,0,1,7.29,18.817V17.163A4.166,4.166,0,0,1,8.55,14.3L21.567,4.2a3.365,3.365,0,0,1,2.4-.815H63.779a4.225,4.225,0,0,1,2.322.741L79.093,14.174a4.253,4.253,0,0,1,1.383,2.989v1.63A3.811,3.811,0,0,1,76.722,22.6ZM23.987,5.875a1.333,1.333,0,0,0-.766.173L10.2,16.15a1.693,1.693,0,0,0-.42,1.013v1.63A1.258,1.258,0,0,0,11.094,20.1H76.722a1.368,1.368,0,0,0,1.309-1.309v-1.63a1.691,1.691,0,0,0-.543-1.136L64.693,6.146a1.735,1.735,0,0,0-.889-.3H23.987Z" transform="translate(-7.29 -3.38)"/></g><g transform="translate(44.04 45.646)"><path class="c" d="M25.61,37.7V21.524a2.48,2.48,0,0,1,2.544-2.544h9.09a2.48,2.48,0,0,1,2.544,2.544V37.7" transform="translate(-24.375 -17.745)"/><path d="M41.758,38.438h-2.47V22.259a1.258,1.258,0,0,0-1.309-1.309h-9.09a1.258,1.258,0,0,0-1.309,1.309V38.438H25.11V22.259a3.733,3.733,0,0,1,3.779-3.779h9.09a3.733,3.733,0,0,1,3.779,3.779Z" transform="translate(-25.11 -18.48)"/></g><g transform="translate(21.316 45.646)"><path class="d" d="M18.954,18.98H30.761a2.48,2.48,0,0,1,2.544,2.544v7.262a2.48,2.48,0,0,1-2.544,2.544H18.954a2.48,2.48,0,0,1-2.544-2.544V21.524A2.571,2.571,0,0,1,18.954,18.98Z" transform="translate(-15.175 -17.745)"/><path d="M31.5,33.3H19.689a3.733,3.733,0,0,1-3.779-3.779V22.259a3.828,3.828,0,0,1,3.779-3.779H31.5a3.733,3.733,0,0,1,3.779,3.779v7.262A3.733,3.733,0,0,1,31.5,33.3ZM19.689,20.95a1.368,1.368,0,0,0-1.309,1.309v7.262a1.258,1.258,0,0,0,1.309,1.309H31.5A1.258,1.258,0,0,0,32.8,29.521V22.259A1.258,1.258,0,0,0,31.5,20.95Z" transform="translate(-15.91 -18.48)"/></g><g transform="translate(0 23.811)"><path class="b" d="M7.79,10.14v8.373a7.1,7.1,0,0,0,14.178,0,7.1,7.1,0,0,0,14.178,0,7.1,7.1,0,0,0,14.178,0,7.1,7.1,0,0,0,14.178,0,7.1,7.1,0,0,0,14.178,0V10.14H7.79Z" transform="translate(-6.53 -8.905)"/><path d="M72.364,27.2a8.2,8.2,0,0,1-7.089-4,8.406,8.406,0,0,1-7.089,4,8.2,8.2,0,0,1-7.089-4,8.416,8.416,0,0,1-7.114,4,8.2,8.2,0,0,1-7.089-4,8.416,8.416,0,0,1-7.114,4,8.2,8.2,0,0,1-7.089-4A8.316,8.316,0,0,1,7.28,19.347V9.64H80.688v9.608A8.423,8.423,0,0,1,72.364,27.2Zm-5.854-8.077a5.861,5.861,0,0,0,11.708.049V12.11H9.775v7.138a5.864,5.864,0,0,0,11.708-.074l2.47-.049a5.861,5.861,0,0,0,11.708.049l2.47-.049a5.861,5.861,0,0,0,11.708.049l2.47-.049a5.861,5.861,0,0,0,11.708.049Z" transform="translate(-7.28 -9.64)"/></g></g><g transform="translate(0 12.597)"><g transform="translate(0)"><path class="b" d="M18.235,5.6A17.873,17.873,0,0,0,.5,23.606C.5,39.044,15.666,41.044,17.074,57.05c0,.864.568,1.136,1.433,1.136a1.317,1.317,0,0,0,1.433-1.136c1.136-15.734,16.574-17.735,16.574-33.444A18.749,18.749,0,0,0,18.235,5.6Zm0,23.44a5.73,5.73,0,1,1,5.73-5.73A5.735,5.735,0,0,1,18.235,29.04Z" transform="translate(0.735 -4.365)"/><path d="M19.365,60.181h-.272a2.29,2.29,0,0,1-2.519-2.371C15.932,50.449,12.2,46.3,8.275,41.9,4.2,37.383,0,32.665,0,24.341A19.139,19.139,0,0,1,18.945,5.1h.049A20.048,20.048,0,0,1,38.508,24.292c0,8.546-4.3,13.289-8.423,17.883-3.927,4.347-7.632,8.447-8.151,15.709A2.625,2.625,0,0,1,19.365,60.181Zm-.321-2.47h.2c.79-8.126,4.94-12.72,8.991-17.191,4-4.446,7.805-8.62,7.805-16.178A17.535,17.535,0,0,0,18.97,7.57,16.682,16.682,0,0,0,2.47,24.341c0,7.385,3.7,11.535,7.632,15.931,4.051,4.5,8.2,9.139,8.941,17.438Zm-.074-26.7a6.953,6.953,0,1,1,6.965-6.941A6.968,6.968,0,0,1,18.97,31.01Zm0-11.436a4.483,4.483,0,1,0,4.5,4.5A4.5,4.5,0,0,0,18.97,19.574Z" transform="translate(0 -5.1)"/></g></g></svg>