<svg xmlns="http://www.w3.org/2000/svg" width="49.894" height="88.92" viewBox="0 0 49.894 88.92"><defs><style>.a{fill:#fff;}.b{fill:#ef3829;}</style></defs><path class="a" d="M40.514,86.95H7.91A7.431,7.431,0,0,1,.5,79.54V7.91A7.431,7.431,0,0,1,7.91.5h32.6a7.431,7.431,0,0,1,7.41,7.41V79.54A7.431,7.431,0,0,1,40.514,86.95Z" transform="translate(0.735 0.735)"/><path d="M41.5,88.92H8.4a8.329,8.329,0,0,1-8.4-8.4V8.4A8.329,8.329,0,0,1,8.4,0H41.5a8.329,8.329,0,0,1,8.4,8.4V80.522A8.329,8.329,0,0,1,41.5,88.92ZM8.4,2.47A5.707,5.707,0,0,0,2.47,8.4V80.522A5.707,5.707,0,0,0,8.4,86.45H41.5a6.01,6.01,0,0,0,5.928-5.928V8.4A5.851,5.851,0,0,0,41.5,2.47Z"/><g transform="translate(0 73.853)"><path class="b" d="M.5,30.4v5.928A6.593,6.593,0,0,0,6.922,43H41.5a6.593,6.593,0,0,0,6.422-6.669V30.4Z" transform="translate(0.735 -29.165)"/><path d="M42.237,44.967H7.657A7.751,7.751,0,0,1,0,37.063V29.9H49.894v7.163A7.751,7.751,0,0,1,42.237,44.967ZM2.47,32.37v4.693A5.274,5.274,0,0,0,7.657,42.5h34.58a5.274,5.274,0,0,0,5.187-5.434V32.37Z" transform="translate(0 -29.9)"/></g><g transform="translate(15.808 7.78)"><g transform="translate(0 0.124)"><path d="M17.268,5.67H7.635A1.167,1.167,0,0,1,6.4,4.435,1.167,1.167,0,0,1,7.635,3.2h9.633A1.167,1.167,0,0,1,18.5,4.435,1.167,1.167,0,0,1,17.268,5.67Z" transform="translate(-6.4 -3.2)"/></g><g transform="translate(15.808)"><path d="M14.035,5.743a1.485,1.485,0,0,1-.988-.247C12.8,5.249,12.8,5,12.8,4.509c0-.247.247-.741.247-.988a1.194,1.194,0,0,1,1.729,0c.247.247.247.494.247.988a1.485,1.485,0,0,1-.247.988C14.529,5.5,14.282,5.743,14.035,5.743Z" transform="translate(-12.8 -3.15)"/></g></g><g transform="translate(17.611 27.343)"><g transform="translate(0 13.575)"><path class="b" d="M-9.9,17.019v-.247a1.668,1.668,0,0,1,.988-1.482l2.223-.741A1.668,1.668,0,0,0-5.7,13.067V3.434a1.668,1.668,0,0,0-.988-1.482l-2.223-.741A1.354,1.354,0,0,1-9.9-.271V-.518A1.31,1.31,0,0,1-8.418-2h7.41A1.424,1.424,0,0,1,.474-.518V13.067a1.668,1.668,0,0,0,.988,1.482,23.316,23.316,0,0,1,2.223.741,1.354,1.354,0,0,1,.988,1.482v.247A1.594,1.594,0,0,1,3.191,18.5H-8.665C-9.406,18.5-9.9,18.007-9.9,17.019Z" transform="translate(9.9 2)"/></g><g transform="translate(3.053)"><ellipse class="b" cx="4.446" cy="4.446" rx="4.446" ry="4.446"/></g></g></svg>