<svg xmlns="http://www.w3.org/2000/svg" width="88.92" height="88.92" viewBox="0 0 88.92 88.92"><defs><style>.a{fill:#f7f7f7;}.b{fill:#222;}.c{fill:#ef3829;}</style></defs><circle class="a" cx="43.225" cy="43.225" r="43.225" transform="translate(1.235 1.235)"/><path class="b" d="M44.46,88.92A44.46,44.46,0,1,1,88.92,44.46,44.591,44.591,0,0,1,44.46,88.92Zm0-86.45A41.99,41.99,0,1,0,86.45,44.46,41.955,41.955,0,0,0,44.46,2.47Z"/><g transform="translate(30.648 20.441)"><g transform="translate(8.376 38.664)"><circle class="c" cx="4.693" cy="4.693" r="4.693" transform="translate(0 0)"/></g><g transform="translate(0 0)"><path class="c" d="M4.951,24.585c0-4.2,6.669-8.892,9.386-11.609a5.441,5.441,0,0,0-.247-7.657c-.247-.247-.494-.247-.494-.494a5.815,5.815,0,0,0-5.681,0,6.788,6.788,0,0,0-2.47,3.952c0,1.976-.247,2.717-2.223,2.717H-.236c-1.976,0-2.964-.741-2.964-2.717A15.1,15.1,0,0,1,2.481-1.35a12.617,12.617,0,0,1,15.561-.494,13.859,13.859,0,0,1,3.7,19.266c-.494.494-.988,1.235-1.482,1.729-1.976,1.976-6.669,5.187-7.163,7.163v1.235a1.594,1.594,0,0,1-1.482,1.482H6.68c-.988.247-1.482-.494-1.729-1.235Z" transform="translate(3.2 4.29)"/></g></g></svg>