<svg xmlns="http://www.w3.org/2000/svg" width="88.92" height="88.92" viewBox="0 0 88.92 88.92"><defs><style>.a{fill:#f7f7f7;}.b{fill:#222;}.c{fill:#ef3829;}</style></defs><circle class="a" cx="43.225" cy="43.225" r="43.225" transform="translate(1.235 1.235)"/><path class="b" d="M44.46,88.92A44.46,44.46,0,1,1,88.92,44.46,44.5,44.5,0,0,1,44.46,88.92Zm0-86.475A42.015,42.015,0,1,0,86.475,44.46,42.06,42.06,0,0,0,44.46,2.445Z"/><g transform="translate(39.149 17.982)"><path class="c" d="M21.827,41.983H20.494A4.638,4.638,0,0,1,15.85,37.34V11.924A4.638,4.638,0,0,1,20.494,7.28h1.334a4.638,4.638,0,0,1,4.644,4.644V37.34A4.638,4.638,0,0,1,21.827,41.983Zm0,18.253H20.494a4.638,4.638,0,0,1-4.644-4.644v-.025a4.638,4.638,0,0,1,4.644-4.644h1.334a4.638,4.638,0,0,1,4.644,4.644v.025A4.638,4.638,0,0,1,21.827,60.237Z" transform="translate(-15.85 -7.28)"/></g></svg>