<svg xmlns="http://www.w3.org/2000/svg" width="88.92" height="78.546" viewBox="0 0 88.92 78.546"><defs><style>.a{fill:#fff;}.b{fill:#e8e8e9;}.c{fill:#222;}.d{fill:#ef3829;}</style></defs><g transform="translate(49.4 4.94)"><path class="a" d="M50.14,68.7H27.91a7.431,7.431,0,0,1-7.41-7.41V9.91A7.431,7.431,0,0,1,27.91,2.5H50.14a7.431,7.431,0,0,1,7.41,7.41V61.286A7.431,7.431,0,0,1,50.14,68.7Z" transform="translate(-19.265 -1.265)"/><path d="M51.122,70.666H28.4a8.329,8.329,0,0,1-8.4-8.4V10.4A8.329,8.329,0,0,1,28.4,2H51.122a8.329,8.329,0,0,1,8.4,8.4v51.87A8.329,8.329,0,0,1,51.122,70.666ZM28.4,4.47A6.01,6.01,0,0,0,22.47,10.4v51.87A6.01,6.01,0,0,0,28.4,68.2H51.122a6.01,6.01,0,0,0,5.928-5.928V10.4A6.01,6.01,0,0,0,51.122,4.47Z" transform="translate(-20 -2)"/><g transform="translate(0 56.563)"><path class="b" d="M20.5,25.4v4.446a5.172,5.172,0,0,0,4.94,5.187H52.363a5.013,5.013,0,0,0,4.94-5.187V25.4Z" transform="translate(-19.265 -24.165)"/><path class="c" d="M53.345,37H26.175A6.328,6.328,0,0,1,20,30.581V24.9H59.52v5.681A6.328,6.328,0,0,1,53.345,37ZM22.47,27.37v3.458a3.9,3.9,0,0,0,3.952,3.952H53.345A3.9,3.9,0,0,0,57.3,30.828V27.37Z" transform="translate(-20 -24.9)"/></g><g transform="translate(12.35 5.681)"><path d="M33.892,6.77H26.235A1.167,1.167,0,0,1,25,5.535,1.167,1.167,0,0,1,26.235,4.3h7.657a1.167,1.167,0,0,1,1.235,1.235A1.586,1.586,0,0,1,33.892,6.77Z" transform="translate(-25 -4.3)"/><g transform="translate(12.844 0.124)"><path d="M31.188,6.7a2.488,2.488,0,0,1-.741-.247.907.907,0,0,1-.247-.741,1.485,1.485,0,0,1,.247-.988,1.194,1.194,0,0,1,1.729,0,.862.862,0,0,1,.247.494V6.2c-.247-.247-.247,0-.494,0C31.682,6.449,31.435,6.7,31.188,6.7Z" transform="translate(-30.2 -4.35)"/></g></g></g><g transform="translate(0 4.94)"><path class="a" d="M30.14,68.7H7.91A7.431,7.431,0,0,1,.5,61.286V9.91A7.431,7.431,0,0,1,7.91,2.5H30.14a7.431,7.431,0,0,1,7.41,7.41V61.286A7.431,7.431,0,0,1,30.14,68.7Z" transform="translate(0.735 -1.265)"/><path d="M31.122,70.666H8.4a8.329,8.329,0,0,1-8.4-8.4V10.4A8.329,8.329,0,0,1,8.4,2H31.122a8.329,8.329,0,0,1,8.4,8.4v51.87A8.329,8.329,0,0,1,31.122,70.666ZM8.4,4.47A6.01,6.01,0,0,0,2.47,10.4v51.87A6.01,6.01,0,0,0,8.4,68.2H31.122a6.01,6.01,0,0,0,5.928-5.928V10.4A6.01,6.01,0,0,0,31.122,4.47Z" transform="translate(0 -2)"/><g transform="translate(0 56.563)"><path class="b" d="M.5,25.4v4.446a5.172,5.172,0,0,0,4.94,5.187H32.363a5.013,5.013,0,0,0,4.94-5.187V25.4Z" transform="translate(0.735 -24.165)"/><path class="c" d="M33.345,37H6.175A6.328,6.328,0,0,1,0,30.581V24.9H39.52v5.681A6.328,6.328,0,0,1,33.345,37ZM2.47,27.37v3.458A3.9,3.9,0,0,0,6.422,34.78H33.345A3.9,3.9,0,0,0,37.3,30.828V27.37Z" transform="translate(0 -24.9)"/></g><g transform="translate(12.103 5.496)"><g transform="translate(0 0.185)"><path d="M14.039,6.77h-7.9A1.323,1.323,0,0,1,4.9,5.535,1.167,1.167,0,0,1,6.135,4.3h7.657a1.167,1.167,0,0,1,1.235,1.235C15.027,6.029,14.533,6.77,14.039,6.77Z" transform="translate(-4.9 -4.3)"/></g><g transform="translate(12.844)"><path d="M11.335,6.88h-.494c-.247,0-.247-.247-.494-.247a.862.862,0,0,1-.247-.494V5.645a1.485,1.485,0,0,1,.247-.988.862.862,0,0,1,.494-.247.751.751,0,0,1,.988,0c.247,0,.247.247.494.247a.862.862,0,0,1,.247.494v.988c-.247,0-.247.247-.494.247a.862.862,0,0,1-.494.247A.242.242,0,0,1,11.335,6.88Z" transform="translate(-10.1 -4.225)"/></g></g></g><g transform="translate(21.983 0)"><path class="a" d="M44.474,76.576H16.81a7.431,7.431,0,0,1-7.41-7.41V7.91A7.431,7.431,0,0,1,16.81.5H44.721a7.431,7.431,0,0,1,7.41,7.41V69.166A7.645,7.645,0,0,1,44.474,76.576Z" transform="translate(-8.165 0.735)"/><path d="M45.456,78.546H17.3a8.329,8.329,0,0,1-8.4-8.4V8.4A8.329,8.329,0,0,1,17.3,0H45.456a8.329,8.329,0,0,1,8.4,8.4v61.75A8.329,8.329,0,0,1,45.456,78.546ZM17.3,2.47A6.01,6.01,0,0,0,11.37,8.4v61.75A6.01,6.01,0,0,0,17.3,76.076H45.456a6.01,6.01,0,0,0,5.928-5.928V8.4A6.01,6.01,0,0,0,45.456,2.47H17.3Z" transform="translate(-8.9 0)"/><g transform="translate(0 64.961)"><path class="d" d="M9.4,26.8v5.187a5.968,5.968,0,0,0,5.681,5.928H46.2a5.8,5.8,0,0,0,5.681-5.928V26.8Z" transform="translate(-8.165 -25.565)"/><path class="c" d="M46.938,39.885H15.816A6.961,6.961,0,0,1,8.9,32.722V26.3H53.854v6.422A6.961,6.961,0,0,1,46.938,39.885ZM11.123,28.77v3.952a4.69,4.69,0,0,0,4.693,4.693H46.938a4.858,4.858,0,0,0,4.693-4.693V28.77Z" transform="translate(-8.9 -26.3)"/></g><g transform="translate(13.832 6.32)"><g transform="translate(0 0.102)"><path d="M24.627,5.07H15.735A1.167,1.167,0,0,1,14.5,3.835,1.167,1.167,0,0,1,15.735,2.6h8.892a1.167,1.167,0,0,1,1.235,1.235A1.167,1.167,0,0,1,24.627,5.07Z" transform="translate(-14.5 -2.6)"/></g><g transform="translate(14.82)"><path d="M21.735,5.131h-.494c-.247,0-.247-.247-.494-.247A.862.862,0,0,1,20.5,4.39V3.4c0-.247.247-.247.247-.494a.862.862,0,0,1,.494-.247,1.086,1.086,0,0,1,1.235.247.862.862,0,0,1,.247.494V4.39c0,.247-.247.247-.247.494a.862.862,0,0,1-.494.247Z" transform="translate(-20.5 -2.559)"/></g></g></g></svg>