<svg xmlns="http://www.w3.org/2000/svg" width="90.896" height="93.86" viewBox="0 0 90.896 93.86"><defs><style>.a{fill:#ef3829;}</style></defs><path class="a" d="M46.195,92.037H44.713C20.26,92.037,1.241,73.759.5,49.553A41.932,41.932,0,0,1,15.073,18.184a4.173,4.173,0,0,1,1.235-.494,2.135,2.135,0,0,1,1.482.741L23.965,25.1l.247.247a2.4,2.4,0,0,1-.247,2.964,28.416,28.416,0,0,0-9.633,20.995v.741a27.361,27.361,0,0,0,9.139,20.5,30.884,30.884,0,0,0,21.489,8.4A36.657,36.657,0,0,0,56.322,76.97c11.362-4.2,19.266-15.561,19.266-28.4,0-15.808-13.585-28.9-30.381-28.9H40.761v6.669a1.451,1.451,0,0,1-.494,1.235,1.887,1.887,0,0,1-1.235.494h-.494c-.247,0-.247-.247-.494-.247L24.459,16.7a5.049,5.049,0,0,1-1.235-2.223,3.335,3.335,0,0,1,1.235-2.47L37.8.894A1.873,1.873,0,0,1,38.785.4c.741,0,1.482.494,1.482,1.729V7.316h4.446c24.453,0,43.472,18.278,44.213,42.484-.741,23.465-20.007,42.237-42.731,42.237Z" transform="translate(0.735 0.588)"/><path d="M39.52,2.47c.247,0,.247.247.247.494V9.386h5.681c23.465,0,42.237,17.784,42.978,41.5-.741,22.23-19.513,40.508-41.5,40.508H45.448c-23.465,0-42.237-17.784-42.978-41.5A39.391,39.391,0,0,1,16.549,19.76c.247-.247.247-.247.494-.247s.494,0,.494.247h0l5.928,6.669v.247c.247.494.247.741-.247,1.235-5.928,5.681-9.88,13.338-9.88,21.983v.741c0,17.043,14.573,30.134,31.616,30.134a39.494,39.494,0,0,0,11.609-1.976c12.35-4.446,20.007-16.549,20.007-29.64C76.57,32.11,62,19.019,44.954,19.019H39.273v7.9a.531.531,0,0,1-.494.494h-.247L25.441,16.3c-.988-.988-.988-1.729,0-2.717L39.52,2.47h0m0-2.47a4.579,4.579,0,0,0-1.729.494h-.247L24.453,11.856l-.247.247a3.86,3.86,0,0,0-1.482,2.964,3.86,3.86,0,0,0,1.482,2.964h0L37.3,29.146a1.283,1.283,0,0,0,.988.494h.741A2.8,2.8,0,0,0,41,28.9a3.448,3.448,0,0,0,.741-2.223V21.242h3.211c16.055,0,29.146,12.35,29.146,27.664,0,12.35-7.41,23.465-18.278,27.17a32.535,32.535,0,0,1-10.868,1.976c-16.055,0-29.146-12.35-29.146-27.664v-.741a27.231,27.231,0,0,1,9.139-20.254l.247-.247c1.729-1.976.988-3.458.247-4.446l-.247-.247v-.247l-5.681-5.928a3.753,3.753,0,0,0-2.47-1.235,3.291,3.291,0,0,0-2.223.741A42.475,42.475,0,0,0,0,49.894C.741,75.088,20.5,93.86,45.448,93.86H46.93c23.465,0,43.225-19.266,43.966-42.978v-.247C90.155,25.688,70.642,6.916,45.448,6.916H42.237V2.964A2.8,2.8,0,0,0,39.52,0Z"/><g transform="translate(22.971 41.743)"><path d="M13.252,30.785h5.681a1.851,1.851,0,0,1,1.235.247,1.283,1.283,0,0,1,.494.988,1.485,1.485,0,0,1-.247.988,1.283,1.283,0,0,1-.988.494h-8.4A1.714,1.714,0,0,1,9.3,32.02a1.485,1.485,0,0,1,.247-.988c.247-.247.494-.741.741-.988L13,27.327a7.881,7.881,0,0,1,1.729-1.482c.494-.494.988-.741,1.482-1.235s.741-.988.988-1.235a2.686,2.686,0,0,0,.247-1.235,1.851,1.851,0,0,0-.247-1.235,1.928,1.928,0,0,0-.988-.988c-.494-.247-.988-.741-1.482-.741a2.594,2.594,0,0,0-2.223,1.235l-.494.988c-.247.494-.247.988-.494,1.235a1.283,1.283,0,0,1-.988.494,1.485,1.485,0,0,1-.988-.247c-.247-.247-.247-.988-.247-1.235a3.133,3.133,0,0,1,.247-1.482,5.167,5.167,0,0,1,.988-1.482,3.981,3.981,0,0,1,1.729-.988,7.307,7.307,0,0,1,2.47-.494,10.615,10.615,0,0,1,2.964.494,5.167,5.167,0,0,1,1.482.988,5.167,5.167,0,0,1,.988,1.482,3.662,3.662,0,0,1,.247,1.729,4.173,4.173,0,0,1-.741,2.47,10.743,10.743,0,0,1-1.482,1.729c-.494.494-1.235.988-2.47,1.976A18.08,18.08,0,0,0,13.5,30.291C13.5,30.044,13.252,30.291,13.252,30.785Z" transform="translate(-9.3 -16.459)"/><path d="M22.057,32.067V30.091H16.376a2.088,2.088,0,0,1-1.482-.494,1.887,1.887,0,0,1-.494-1.235v-.494c0-.247.247-.247.247-.494s.247-.247.247-.494.247-.247.494-.494l5.928-7.9c.494-.494.741-.988.988-1.235S22.8,17,23.292,17c1.235,0,1.729.741,1.729,1.976v8.645h.494A3.133,3.133,0,0,1,27,27.868a1.235,1.235,0,0,1,0,1.976,1.851,1.851,0,0,1-1.235.247h-.741v1.976a1.887,1.887,0,0,1-.494,1.235,1.235,1.235,0,0,1-1.976,0C22.057,33.055,22.057,32.808,22.057,32.067Zm-4.94-4.446H21.81V21.2Z" transform="translate(-1.803 -16.753)"/><path d="M25.481,19.37,22.27,32.214c0,.494-.247.741-.247.988a.862.862,0,0,1-.247.494.907.907,0,0,1-.741.247c-.741,0-1.235-.247-1.235-.988a3.305,3.305,0,0,1,.247-1.235l3.211-12.844c.247-.741.247-1.235.494-1.482s.494-.494.741-.494.741,0,.741.247a.907.907,0,0,1,.247.741C25.728,18.382,25.481,18.876,25.481,19.37Z" transform="translate(6.135 -16.9)"/><path d="M24.729,17.2h7.41c.741,0,1.235,0,1.482.247a1.283,1.283,0,0,1,.494.988,4.173,4.173,0,0,1-.494,1.235A10.457,10.457,0,0,0,32.386,21.4,17.335,17.335,0,0,0,30.9,23.622a24.083,24.083,0,0,0-1.482,3.458c-.247.494-.247.988-.494,1.482,0,.494-.247.988-.247,1.482s-.247.988-.247,1.482a4.022,4.022,0,0,1-.741,1.482,1.887,1.887,0,0,1-1.235.494,1.283,1.283,0,0,1-.988-.494,2.088,2.088,0,0,1-.494-1.482,6.138,6.138,0,0,1,.247-1.976c.247-.741.494-1.729.988-2.964a22.584,22.584,0,0,1,1.729-3.458,17.533,17.533,0,0,1,2.47-3.458H24.482A2.674,2.674,0,0,1,23,19.423v-.988a1.283,1.283,0,0,1,.494-.988A1.851,1.851,0,0,1,24.729,17.2Z" transform="translate(10.839 -16.459)"/></g></svg>