<svg xmlns="http://www.w3.org/2000/svg" width="89.414" height="82.498" viewBox="0 0 89.414 82.498"><defs><style>.a{fill:#f7f7f7;}.b{fill:#ef3829;}.c{fill:#e8e8e9;}.d{fill:#fff;}</style></defs><g transform="translate(4.94 29.393)"><path class="a" d="M72.4,63.282H7.44a4.955,4.955,0,0,1-4.94-4.94v-41A4.955,4.955,0,0,1,7.44,12.4H72.4a4.955,4.955,0,0,1,4.94,4.94v41A4.955,4.955,0,0,1,72.4,63.282Z" transform="translate(-1.265 -11.165)"/><path d="M73.63,65H7.681A5.745,5.745,0,0,1,2,59.324V17.581A5.745,5.745,0,0,1,7.681,11.9H73.63a5.745,5.745,0,0,1,5.681,5.681V59.324A5.59,5.59,0,0,1,73.63,65ZM7.681,14.37a3.533,3.533,0,0,0-3.458,3.458V59.571a3.533,3.533,0,0,0,3.458,3.458H73.63a3.533,3.533,0,0,0,3.458-3.458V17.581a3.533,3.533,0,0,0-3.458-3.458H7.681Z" transform="translate(-2 -11.9)"/></g><g transform="translate(17.29)"><path class="b" d="M10.464.5H56.406a3.27,3.27,0,0,1,3.211,3.211V9.145a3.27,3.27,0,0,1-3.211,3.211H10.464A3.223,3.223,0,0,1,7.5,9.145V3.464A2.854,2.854,0,0,1,10.464.5Z" transform="translate(-6.265 0.735)"/><path d="M57.141,14.079H11.2A4.328,4.328,0,0,1,7,9.88V4.2A4.328,4.328,0,0,1,11.2,0H57.141a4.328,4.328,0,0,1,4.2,4.2V9.88A4.328,4.328,0,0,1,57.141,14.079ZM11.2,2.223A2.125,2.125,0,0,0,9.223,4.2V9.88A2.125,2.125,0,0,0,11.2,11.856H57.141A2.125,2.125,0,0,0,59.117,9.88V4.2a2.125,2.125,0,0,0-1.976-1.976H11.2Z" transform="translate(-7)"/></g><g transform="translate(0 10.127)"><path class="a" d="M84.133,25.248H3.611A3.27,3.27,0,0,1,.4,22.037V20.061a3.43,3.43,0,0,1,1.235-2.47L17.443,5.241A2.8,2.8,0,0,1,19.419,4.5H68.325a2.8,2.8,0,0,1,1.976.741l15.808,12.35a3.04,3.04,0,0,1,1.235,2.47v1.976A3.451,3.451,0,0,1,84.133,25.248Z" transform="translate(0.588 -3.512)"/><path d="M84.721,26.824H4.2a4.328,4.328,0,0,1-4.2-4.2V20.649a3.6,3.6,0,0,1,1.729-3.211L17.537,5.088A5.179,5.179,0,0,1,20.254,4.1H69.16a3.715,3.715,0,0,1,2.717.988l15.808,12.35a4.222,4.222,0,0,1,1.729,3.211v1.976C88.92,24.848,86.944,26.824,84.721,26.824ZM20.007,6.323a1.887,1.887,0,0,0-1.235.494L2.964,19.167a2.135,2.135,0,0,0-.741,1.482v1.976A2.125,2.125,0,0,0,4.2,24.6H84.721A2.125,2.125,0,0,0,86.7,22.625V20.649a1.76,1.76,0,0,0-.741-1.482L70.148,6.817a1.887,1.887,0,0,0-1.235-.494Z" transform="translate(0 -4.1)"/></g><g transform="translate(53.846 56.069)"><path class="c" d="M22.3,46.071V26.311A3.27,3.27,0,0,1,25.511,23.1H36.379a3.27,3.27,0,0,1,3.211,3.211v19.76" transform="translate(-21.065 -22.112)"/><path d="M41.313,46.659H39.09V26.9a2.125,2.125,0,0,0-1.976-1.976H26A2.125,2.125,0,0,0,24.023,26.9v19.76H21.8V26.9A4.328,4.328,0,0,1,26,22.7H37.114a4.328,4.328,0,0,1,4.2,4.2Z" transform="translate(-21.8 -22.7)"/></g><g transform="translate(25.935 56.069)"><path class="d" d="M14.111,23.1H28.684a3.27,3.27,0,0,1,3.211,3.211V35.2a3.27,3.27,0,0,1-3.211,3.211H14.111A3.27,3.27,0,0,1,10.9,35.2V26.311A3.451,3.451,0,0,1,14.111,23.1Z" transform="translate(-9.912 -22.112)"/><path d="M29.272,39.99H14.7a4.328,4.328,0,0,1-4.2-4.2V26.9a4.328,4.328,0,0,1,4.2-4.2H29.272a4.328,4.328,0,0,1,4.2,4.2v8.892A4.02,4.02,0,0,1,29.272,39.99ZM14.7,24.923A2.125,2.125,0,0,0,12.723,26.9v8.892A2.125,2.125,0,0,0,14.7,37.767H29.272a2.125,2.125,0,0,0,1.976-1.976V26.9a2.125,2.125,0,0,0-1.976-1.976Z" transform="translate(-10.5 -22.7)"/></g><g transform="translate(0 29.146)"><path class="b" d="M.5,12.2V22.327a8.88,8.88,0,0,0,8.645,8.4,8.7,8.7,0,0,0,8.645-8.4,8.88,8.88,0,0,0,8.645,8.4,8.7,8.7,0,0,0,8.645-8.4,8.88,8.88,0,0,0,8.645,8.4,8.7,8.7,0,0,0,8.645-8.4,8.88,8.88,0,0,0,8.645,8.4,8.7,8.7,0,0,0,8.645-8.4,8.88,8.88,0,0,0,8.645,8.4,8.7,8.7,0,0,0,8.645-8.4V12.2H.5Z" transform="translate(0.735 -11.212)"/><path d="M79.04,32.548a10.427,10.427,0,0,1-8.645-5.434,9.925,9.925,0,0,1-8.645,5.434A10.427,10.427,0,0,1,53.1,27.114a9.925,9.925,0,0,1-8.645,5.434,10.427,10.427,0,0,1-8.645-5.434,9.925,9.925,0,0,1-8.645,5.434,10.427,10.427,0,0,1-8.645-5.434A9.925,9.925,0,0,1,9.88,32.548,10.363,10.363,0,0,1,0,23.162V11.8H88.92V23.162A9.816,9.816,0,0,1,79.04,32.548Zm-7.41-9.633a8.007,8.007,0,0,0,7.657,7.41,7.431,7.431,0,0,0,7.41-7.41V13.776H2.223v9.139a7.82,7.82,0,0,0,7.657,7.41,7.431,7.431,0,0,0,7.41-7.41h2.223a8.007,8.007,0,0,0,7.657,7.41,7.431,7.431,0,0,0,7.41-7.41H36.8a8.007,8.007,0,0,0,7.657,7.41,7.431,7.431,0,0,0,7.41-7.41h2.223a8.007,8.007,0,0,0,7.657,7.41,7.431,7.431,0,0,0,7.41-7.41Z" transform="translate(0 -11.8)"/></g></svg>