<svg xmlns="http://www.w3.org/2000/svg" width="73.112" height="88.92" viewBox="0 0 73.112 88.92"><defs><style>.a{fill:#f7f7f7;}.b{fill:#ef3829;}.c{fill:#fff;}.d{fill:#e9eaeb;}</style></defs><g transform="translate(0 58.292)"><path class="a" d="M66.2,52.111H5.44A4.955,4.955,0,0,1,.5,47.171V29.14A4.955,4.955,0,0,1,5.44,24.2H66.2a4.955,4.955,0,0,1,4.94,4.94V47.171A4.955,4.955,0,0,1,66.2,52.111Z" transform="translate(0.735 -22.718)"/><path d="M66.937,54.228H6.175A6.115,6.115,0,0,1,0,48.053V29.775A6.115,6.115,0,0,1,6.175,23.6H66.937a6.115,6.115,0,0,1,6.175,6.175V48.053A6.115,6.115,0,0,1,66.937,54.228ZM6.175,26.317a3.8,3.8,0,0,0-3.7,3.7V48.3a3.764,3.764,0,0,0,3.7,3.458H66.937a3.8,3.8,0,0,0,3.7-3.7V29.775a3.8,3.8,0,0,0-3.7-3.7H6.175Z" transform="translate(0 -23.6)"/></g><g transform="translate(10.868 39.52)"><path class="b" d="M48.866,35.519H9.84a4.955,4.955,0,0,1-4.94-4.94V21.44A4.955,4.955,0,0,1,9.84,16.5H48.619a4.955,4.955,0,0,1,4.94,4.94v9.139A4.6,4.6,0,0,1,48.866,35.519Z" transform="translate(-3.665 -15.265)"/><path d="M49.6,37.489H10.575A6.115,6.115,0,0,1,4.4,31.314V22.175A6.115,6.115,0,0,1,10.575,16H49.6a6.115,6.115,0,0,1,6.175,6.175v9.139A6.449,6.449,0,0,1,49.6,37.489ZM10.575,18.223a3.8,3.8,0,0,0-3.7,3.7v9.139a3.8,3.8,0,0,0,3.7,3.7H49.6a3.8,3.8,0,0,0,3.7-3.7V21.928a3.8,3.8,0,0,0-3.7-3.7Z" transform="translate(-4.4 -16)"/></g><g transform="translate(18.772 20.254)"><path class="c" d="M36.258,27.719H13.04a4.955,4.955,0,0,1-4.94-4.94V13.64A4.955,4.955,0,0,1,13.04,8.7H36.258a4.955,4.955,0,0,1,4.94,4.94v9.139A4.955,4.955,0,0,1,36.258,27.719Z" transform="translate(-6.865 -7.465)"/><path d="M36.993,29.689H13.775A6.115,6.115,0,0,1,7.6,23.514V14.375A6.115,6.115,0,0,1,13.775,8.2H36.993a6.115,6.115,0,0,1,6.175,6.175v9.139A6.115,6.115,0,0,1,36.993,29.689ZM13.775,10.67a3.8,3.8,0,0,0-3.7,3.7v9.139a3.8,3.8,0,0,0,3.7,3.7H36.993a3.8,3.8,0,0,0,3.7-3.7V14.375a3.8,3.8,0,0,0-3.7-3.7Z" transform="translate(-7.6 -8.2)"/></g><g transform="translate(15.314 16.302)"><path class="c" d="M43.5,14.263H9.911A3.27,3.27,0,0,1,6.7,11.052v-.741A3.27,3.27,0,0,1,9.911,7.1H43.5a3.27,3.27,0,0,1,3.211,3.211v.741A3.27,3.27,0,0,1,43.5,14.263Z" transform="translate(-5.465 -5.865)"/><path d="M44.238,16.233H10.646A4.428,4.428,0,0,1,6.2,11.787v-.741A4.428,4.428,0,0,1,10.646,6.6H44.238a4.428,4.428,0,0,1,4.446,4.446v.741A4.428,4.428,0,0,1,44.238,16.233ZM10.646,9.07A2.125,2.125,0,0,0,8.67,11.046v.741a2.125,2.125,0,0,0,1.976,1.976H44.238a2.125,2.125,0,0,0,1.976-1.976v-.741A2.125,2.125,0,0,0,44.238,9.07H10.646Z" transform="translate(-6.2 -6.6)"/></g><g transform="translate(31.863 14.82)"><rect class="d" width="7.163" height="71.63" transform="translate(0.988 1.235)"/><path d="M22.533,80.1H12.9V6h9.633Zm-7.41-2.47h4.693V8.47H15.123Z" transform="translate(-12.9 -6)"/></g><g transform="translate(35.321)"><path d="M18,15.808h-2.47a1.873,1.873,0,0,1-.988-.494,1.485,1.485,0,0,1-.247-.988l.247-1.729h0s.494-7.163,4.446-10.621A8.632,8.632,0,0,1,24.427,0a6.447,6.447,0,0,1,4.94,2.47A6.139,6.139,0,0,1,31.1,7.41a7.1,7.1,0,0,1-2.223,4.94h-.494A17.45,17.45,0,0,1,18,15.808Zm-.988-2.47h.494A17.393,17.393,0,0,0,26.9,10.621,3.983,3.983,0,0,0,28.379,7.41,3.793,3.793,0,0,0,27.144,4.2,2.883,2.883,0,0,0,24.427,2.47a4.877,4.877,0,0,0-3.458,1.482c-2.964,2.47-3.7,7.9-3.7,9.139Z" transform="translate(-14.3)"/></g><g transform="translate(20.435)"><path d="M21.183,15.808A19.053,19.053,0,0,1,10.809,12.6h0a.242.242,0,0,0-.247-.247,7.319,7.319,0,0,1-.494-10.127A7.019,7.019,0,0,1,14.761,0a7.5,7.5,0,0,1,5.187,1.976c4.2,3.458,4.693,10.868,4.693,10.868l.247,1.482a1.485,1.485,0,0,1-.247.988,1.283,1.283,0,0,1-.988.494h-2.47Zm-8.892-5.434a16.264,16.264,0,0,0,9.386,2.964h.494v-.247c0-1.482-.988-6.916-3.7-9.139a5.027,5.027,0,0,0-3.7-1.482A3.86,3.86,0,0,0,11.8,3.952a4.639,4.639,0,0,0,.494,6.422l-.741.988Z" transform="translate(-8.273)"/></g></svg>