<svg xmlns="http://www.w3.org/2000/svg" width="88.92" height="73.504" viewBox="0 0 88.92 73.504"><defs><style>.a{fill:#f7f7f7;}.b{fill:#ef3829;}</style></defs><g transform="translate(66.721)"><path d="M43.279,53.278H32.92A6,6,0,0,1,27,47.358V5.92A6,6,0,0,1,32.92,0h10.36A6,6,0,0,1,49.2,5.92V47.111A6.057,6.057,0,0,1,43.279,53.278ZM32.92,2.467A3.372,3.372,0,0,0,29.467,5.92V47.111a3.793,3.793,0,0,0,3.7,3.7h10.36a3.793,3.793,0,0,0,3.7-3.7V5.92a4.186,4.186,0,0,0-3.947-3.453Z" transform="translate(-27)"/></g><g transform="translate(6.29 8.785)"><path class="a" d="M26.039,58.329l9.866-9.866a16.324,16.324,0,0,0,12.826-3.453L69.7,24.043,55.638,4.064H40.592A8.746,8.746,0,0,0,32.7,7.024l-11.346,11.1L3.1,36.376Z" transform="translate(-1.62 -2.983)"/><path d="M26.919,60.634,2.5,37.2,21.493,18.209l11.346-11.1a9.8,9.8,0,0,1,8.88-3.453H57.258l14.8,21.212L50.1,46.574a16.426,16.426,0,0,1-13.319,3.7ZM5.953,36.955,26.919,57.181l9.373-9.373h.493A14.639,14.639,0,0,0,48.625,44.6L68.851,24.375,55.778,5.876H41.472a7.193,7.193,0,0,0-6.906,2.713l-11.346,11.1Z" transform="translate(-2.5 -3.562)"/></g><g transform="translate(0 37.122)"><path class="b" d="M1.98,19.693,4.693,16.98a5.062,5.062,0,0,1,7.153,0L33.059,38.192a5.062,5.062,0,0,1,0,7.153l-2.713,2.713a5.062,5.062,0,0,1-7.153,0L1.98,26.846A5.062,5.062,0,0,1,1.98,19.693Z" transform="translate(0.857 -14.39)"/><path d="M27.452,51.432a7.091,7.091,0,0,1-4.44-1.727L1.8,28.493a6.253,6.253,0,0,1,0-8.88L4.513,16.9a6.253,6.253,0,0,1,8.88,0L34.605,38.112a6.253,6.253,0,0,1,0,8.88l-2.713,2.467A6.177,6.177,0,0,1,27.452,51.432ZM8.953,17.393A3.961,3.961,0,0,0,6.24,18.627L3.527,21.34a3.871,3.871,0,0,0,0,5.426L24.739,47.979a3.871,3.871,0,0,0,5.426,0l2.713-2.713a3.871,3.871,0,0,0,0-5.426L11.666,18.627A3.534,3.534,0,0,0,8.953,17.393Z" transform="translate(0.05 -15.05)"/></g><g transform="translate(47.184 7.362)"><ellipse class="b" cx="17.266" cy="17.266" rx="17.266" ry="17.266" transform="translate(1.284 1.024)"/><path d="M37.629,40.021a27.179,27.179,0,0,1-4.44-.493,18.545,18.545,0,0,1,8.88-36.012A17.97,17.97,0,0,1,53.415,11.9a18.619,18.619,0,0,1,2.22,14.059A19.179,19.179,0,0,1,37.629,40.021ZM37.383,5.242A14.522,14.522,0,0,0,29,7.709a15.385,15.385,0,0,0-7.153,9.866,16.123,16.123,0,0,0,31.325,7.646A16.018,16.018,0,0,0,51.2,13.135a15.385,15.385,0,0,0-9.866-7.153A10.225,10.225,0,0,0,37.383,5.242Z" transform="translate(-19.079 -2.985)"/></g><g transform="translate(35.149 20.719)"><path class="a" d="M17.26,8.9H40.2a6.925,6.925,0,0,1,6.413,7.4v.493h0v.493a7.347,7.347,0,0,1-1.973,4.44,8.232,8.232,0,0,1-5.673,2.22H28.359A21.2,21.2,0,0,1,14.3,34.059" transform="translate(-14.053 -7.667)"/><path d="M14.693,36.026,14.2,33.559a20,20,0,0,0,13.073-9.62l.247-.493H38.866a7.96,7.96,0,0,0,5.18-1.973,8.353,8.353,0,0,0,1.48-3.7v-.74a6.7,6.7,0,0,0-1.48-4.193A6.09,6.09,0,0,0,40.1,10.867H17.16V8.4H40.1a9.472,9.472,0,0,1,5.673,2.713,7.571,7.571,0,0,1,1.973,5.92v.74a9.819,9.819,0,0,1-2.22,5.18,10.6,10.6,0,0,1-6.906,2.713H28.753A20.773,20.773,0,0,1,14.693,36.026Z" transform="translate(-14.2 -8.4)"/></g></svg>