<svg xmlns="http://www.w3.org/2000/svg" width="88.966" height="76.257" viewBox="0 0 88.966 76.257"><defs><style>.a{fill:#f7f7f7;}.b{fill:#ef3829;}.c{fill:#222;}.d{fill:#e6e6e7;}.e{fill:#e8e8e9;}</style></defs><g transform="translate(43.024 1.664)"><g transform="translate(1.235 1.482)"><ellipse class="a" cx="21.736" cy="21.736" rx="21.736" ry="21.736"/></g><path d="M40.371,46.642A22.971,22.971,0,1,1,63.342,23.671,23.087,23.087,0,0,1,40.371,46.642Zm0-43.225a20.5,20.5,0,1,0,20.5,20.5A20.45,20.45,0,0,0,40.371,3.417Z" transform="translate(-17.4 -0.7)"/><g transform="translate(9.657 4.446)"><path d="M42.774,42.514c-.247,0-8.151-1.235-16.3-14.079A33.755,33.755,0,0,1,22.273,2.5l2.223.741A32.078,32.078,0,0,0,28.448,27.2c7.657,11.856,14.573,13.091,14.573,13.091Z" transform="translate(-21.31 -2.5)"/></g><g transform="translate(15.314 1.235)"><path d="M48.547,37.509l-2.47-.494s1.729-8.892-6.422-21.736A25.981,25.981,0,0,0,23.6,3.67l.494-2.47c.494,0,11.115,1.976,17.784,12.844C50.523,27.876,48.547,37.262,48.547,37.509Z" transform="translate(-23.6 -1.2)"/></g><g transform="translate(3.458 12.597)"><path d="M25.222,27.536c-3.458,0-6.175-.247-6.422-.247l.247-2.47c.247,0,15.808,1.976,24.206-3.952S56.344,5.8,56.591,5.8l2.223,1.235A49.076,49.076,0,0,1,44.735,23.09C39.054,26.548,30.9,27.536,25.222,27.536Z" transform="translate(-18.8 -5.8)"/></g></g><g transform="translate(0 0)"><path class="b" d="M.527,30.348a22.373,22.373,0,0,1,12.35-4.693,36.117,36.117,0,0,1,3.952,4.693,17.246,17.246,0,0,0,7.41-5.928,33.177,33.177,0,0,0,5.434-7.657,35.3,35.3,0,0,1-4.94-3.458A17.892,17.892,0,0,1,28.191.708,21.825,21.825,0,0,1,40.047,2.437C41.282,7.624,40.294,18,29.673,29.854,18.558,41.216,8.184,42.945,3,42.2A22.37,22.37,0,0,1,.527,30.348Z" transform="translate(0.754 0.709)"/><path class="c" d="M5.955,44.174a8.4,8.4,0,0,1-2.47-.247H2.744L2.5,43.433a24.555,24.555,0,0,1-2.47-12.6v-.494l.494-.247a23.116,23.116,0,0,1,13.091-4.94h.494l.494.494A26.438,26.438,0,0,1,18.058,29.6a20.207,20.207,0,0,0,6.175-4.94,28.47,28.47,0,0,0,4.693-6.422c-1.482-.988-2.717-1.976-3.952-2.964l-.494-.741V14.04A18.436,18.436,0,0,1,28.185.7l.247-.494h.494a24.521,24.521,0,0,1,12.6,1.729l.494.247v.494C43.5,9.1,41.523,19.721,31.4,31.083,22.01,40.963,12.377,44.174,5.955,44.174ZM4.473,41.7c3.211.247,13.091,0,24.947-12.1C40.782,17,40.288,6.877,39.547,3.913a21.9,21.9,0,0,0-9.88-1.482A16.891,16.891,0,0,0,26.7,13.3c1.235.988,2.717,1.976,4.2,2.964l.988.494-.494.988A30.3,30.3,0,0,1,25.715,25.9a22.064,22.064,0,0,1-7.9,6.175l-.988.494-.494-.741a26.438,26.438,0,0,0-3.458-3.952A19.9,19.9,0,0,0,2.25,31.824,23.9,23.9,0,0,0,4.473,41.7Z" transform="translate(0.019 -0.026)"/></g><g transform="translate(18.324 33.279)"><g transform="translate(22.971 31.863)"><rect class="d" width="7.41" height="8.151" transform="translate(1.235 1.235)"/><path d="M25.345,37.021h-7.41A1.167,1.167,0,0,1,16.7,35.786V27.635A1.167,1.167,0,0,1,17.935,26.4h7.41a1.167,1.167,0,0,1,1.235,1.235v8.151A1.167,1.167,0,0,1,25.345,37.021Zm-6.175-2.47h5.187V28.87H19.17Z" transform="translate(-16.7 -26.4)"/></g><path class="e" d="M60.017,47.492H9.135A1.13,1.13,0,0,1,7.9,46.5V15.135A1.13,1.13,0,0,1,8.888,13.9H60.017a1.13,1.13,0,0,1,1.235.988V46.01C61.252,47,60.758,47.492,60.017,47.492Z" transform="translate(-6.665 -12.912)"/><path d="M9.623,49.315a3.511,3.511,0,0,1-1.482-.494A2.242,2.242,0,0,1,7.4,47.092V15.97A2.627,2.627,0,0,1,9.623,13.5H60.752a2.627,2.627,0,0,1,2.47,2.223V46.845a2.541,2.541,0,0,1-2.47,2.717L9.623,49.315ZM9.87,15.723V46.845H60.752V15.723Z" transform="translate(-7.4 -13.5)"/><g transform="translate(8.645 40.508)"><line x1="36.062" transform="translate(1.235 1.235)"/><path d="M48.2,32.37H12.135a1.235,1.235,0,1,1,0-2.47H48.2a1.235,1.235,0,1,1,0,2.47Z" transform="translate(-10.9 -29.9)"/></g></g></svg>