<svg xmlns="http://www.w3.org/2000/svg" width="90.154" height="69.901" viewBox="0 0 90.154 69.901"><defs><style>.a{fill:#f7f7f7;}.b{fill:#fff;}.c{fill:#ef3829;}</style></defs><g transform="translate(0)"><path class="a" d="M67.931.5H5.687A5.217,5.217,0,0,0,.5,5.687V41.008a5.217,5.217,0,0,0,5.187,5.187H9.145V56.816h0c0,3.7,4.693,5.434,7.41,2.717L30.14,45.948H67.931a5.217,5.217,0,0,0,5.187-5.187V5.687A5.384,5.384,0,0,0,67.931.5Z" transform="translate(0.735 0.735)"/><path d="M14.326,62.738a7.212,7.212,0,0,1-2.223-.494,5.065,5.065,0,0,1-3.211-4.693V47.918H6.422A6.377,6.377,0,0,1,0,41.5V6.422A6.23,6.23,0,0,1,6.422,0H68.666a6.377,6.377,0,0,1,6.422,6.422V41.743a6.377,6.377,0,0,1-6.422,6.422h-37.3L18.278,61.256A6.056,6.056,0,0,1,14.326,62.738ZM6.422,2.47A3.9,3.9,0,0,0,2.47,6.422V41.743a3.9,3.9,0,0,0,3.952,3.952h4.94V57.551a2.454,2.454,0,0,0,1.729,2.47,2.772,2.772,0,0,0,3.458-.741L30.381,45.448H68.666A3.9,3.9,0,0,0,72.618,41.5V6.422A3.9,3.9,0,0,0,68.666,2.47H6.422Z" transform="translate(0)"/></g><g transform="translate(23.712 19.266)"><circle cx="3.211" cy="3.211" r="3.211"/><circle cx="3.211" cy="3.211" r="3.211" transform="translate(10.621)"/><circle cx="3.211" cy="3.211" r="3.211" transform="translate(20.995)"/></g><g transform="translate(46.189 25.935)"><circle class="b" cx="20.748" cy="20.748" r="20.748" transform="translate(1.235 0.988)"/><path d="M40.683,54.466A21.983,21.983,0,1,1,62.666,32.483,22.032,22.032,0,0,1,40.683,54.466Zm0-41.743A19.513,19.513,0,1,0,60.2,32.236,19.554,19.554,0,0,0,40.683,12.723Z" transform="translate(-18.7 -10.5)"/><g transform="translate(10.268 13.444)"><g transform="translate(0 0)"><g transform="translate(0 0)"><g transform="translate(0 0)"><path class="c" d="M-418.227-474.918l2.47,2.717a1.389,1.389,0,0,0,2.223,0l10.127-10.868a1.385,1.385,0,0,1,2.223,0l1.482,1.482a1.843,1.843,0,0,1,0,2.223l-13.832,14.82a1.385,1.385,0,0,1-2.223,0l-6.422-6.422a1.852,1.852,0,0,1,0-2.223l1.729-1.482A1.587,1.587,0,0,1-418.227-474.918Z" transform="translate(422.55 483.625)"/></g></g></g></g></g></svg>