<svg xmlns="http://www.w3.org/2000/svg" width="71.136" height="88.92" viewBox="0 0 71.136 88.92"><defs><style>.a{fill:#fff;}.b{fill:#ef3829;}</style></defs><path class="a" d="M40.514,86.95H7.91A7.431,7.431,0,0,1,.5,79.54V7.91A7.431,7.431,0,0,1,7.91.5h32.6a7.431,7.431,0,0,1,7.41,7.41V79.54A7.431,7.431,0,0,1,40.514,86.95Z" transform="translate(0.735 0.735)"/><path d="M41.5,88.92H8.4a8.329,8.329,0,0,1-8.4-8.4V8.4A8.329,8.329,0,0,1,8.4,0H41.5a8.329,8.329,0,0,1,8.4,8.4V80.522A8.329,8.329,0,0,1,41.5,88.92ZM8.4,2.47A5.707,5.707,0,0,0,2.47,8.4V80.522A5.707,5.707,0,0,0,8.4,86.45H41.5a6.01,6.01,0,0,0,5.928-5.928V8.4A5.851,5.851,0,0,0,41.5,2.47Z"/><g transform="translate(0 73.853)"><path class="b" d="M.5,30.4v5.928A6.593,6.593,0,0,0,6.922,43H41.5a6.593,6.593,0,0,0,6.422-6.669V30.4Z" transform="translate(0.735 -29.165)"/><path d="M42.237,44.967H7.657A7.751,7.751,0,0,1,0,37.063V29.9H49.894v7.163A7.751,7.751,0,0,1,42.237,44.967ZM2.47,32.37v4.693A5.274,5.274,0,0,0,7.657,42.5h34.58a5.274,5.274,0,0,0,5.187-5.434V32.37Z" transform="translate(0 -29.9)"/></g><g transform="translate(15.808 7.78)"><g transform="translate(0 0.124)"><path d="M17.268,5.67H7.635A1.167,1.167,0,0,1,6.4,4.435,1.167,1.167,0,0,1,7.635,3.2h9.633A1.167,1.167,0,0,1,18.5,4.435,1.167,1.167,0,0,1,17.268,5.67Z" transform="translate(-6.4 -3.2)"/></g><g transform="translate(15.808)"><path d="M14.035,5.743a1.485,1.485,0,0,1-.988-.247C12.8,5.249,12.8,5,12.8,4.508c0-.247.247-.741.247-.988a1.194,1.194,0,0,1,1.729,0c.247.247.247.494.247.988a1.485,1.485,0,0,1-.247.988C14.529,5.5,14.282,5.743,14.035,5.743Z" transform="translate(-12.8 -3.15)"/></g></g><g transform="translate(28.158 21.736)"><circle class="a" cx="20.254" cy="20.254" r="20.254" transform="translate(1.235 1.235)"/><path d="M32.889,51.778A21.489,21.489,0,1,1,54.378,30.289,21.5,21.5,0,0,1,32.889,51.778Zm0-40.755A19.019,19.019,0,1,0,51.908,30.042,19.027,19.027,0,0,0,32.889,11.023Z" transform="translate(-11.4 -8.8)"/><g transform="translate(13.832 6.916)"><path class="b" d="M30.338,26.42a10.272,10.272,0,0,0-4.94-2.47,7.131,7.131,0,0,1-2.47-1.482,2.242,2.242,0,0,1-.741-1.729,4.653,4.653,0,0,1,.494-1.976c.247-.494.988-.741,1.976-.741a2.431,2.431,0,0,1,1.976.741,1.873,1.873,0,0,1,.494.988,2.119,2.119,0,0,0,1.729,1.482h1.976c.247-.247.494-.247.741-.741a5.027,5.027,0,0,0-1.482-3.7,6.153,6.153,0,0,0-4.2-1.976V12.094c-.247-.247-.494-.494-.741-.494H24.41c-.247,0-.494.247-.741.494v2.717a8.878,8.878,0,0,0-4.446,1.729,4.715,4.715,0,0,0-1.482,3.952,5.81,5.81,0,0,0,1.482,4.2,13.061,13.061,0,0,0,4.94,2.47,7.132,7.132,0,0,1,2.47,1.482,3.005,3.005,0,0,1,0,3.952,3.019,3.019,0,0,1-2.223.741,4.173,4.173,0,0,1-2.47-.741,2.242,2.242,0,0,1-.741-1.729c-.247-.494-.494-.741-.988-.741H17.494c-.247.247-.494.494-.494.741a4.977,4.977,0,0,0,1.729,3.952,9.059,9.059,0,0,0,4.693,1.976v2.47a1.283,1.283,0,0,0,.988.494h.741c.247,0,.494-.247.741-.247v-2.47a8.878,8.878,0,0,0,4.446-1.729A5.609,5.609,0,0,0,31.82,31.36,5.7,5.7,0,0,0,30.338,26.42Z" transform="translate(-17 -11.6)"/></g></g></svg>