<svg xmlns="http://www.w3.org/2000/svg" width="66.938" height="91.39" viewBox="0 0 66.938 91.39"><defs><style>.a{fill:#f7f7f7;}.b{fill:#ef3829;}</style></defs><circle class="a" cx="30.875" cy="30.875" r="30.875" transform="translate(4.94 29.64)"/><path d="M32.828,12.2A30.628,30.628,0,1,0,63.456,42.828,30.623,30.623,0,0,0,32.828,12.2ZM60.986,42.828a26.719,26.719,0,0,1-4.94,15.808c0-3.705-.741-9.633-3.952-17.537a71.926,71.926,0,0,0,6.669-9.139A30.419,30.419,0,0,1,60.986,42.828Zm-3.7-13.585a92.9,92.9,0,0,1-6.422,9.386,80.8,80.8,0,0,0-4.2-7.657A37.7,37.7,0,0,0,27.394,15.164a37,37,0,0,1,5.434-.494A27.775,27.775,0,0,1,57.281,29.243ZM23.936,50.732A42.924,42.924,0,0,1,18.5,18.622,16.382,16.382,0,0,1,23.195,16.4,35.961,35.961,0,0,1,44.931,32.207a93.7,93.7,0,0,1,4.446,8.4,63.87,63.87,0,0,1-9.386,8.645c-3.7,2.717-8.645,4.2-13.585,4.94A29.967,29.967,0,0,1,23.936,50.732ZM15.538,20.6A45.481,45.481,0,0,0,21.96,52.214l1.482,2.223a81.571,81.571,0,0,1-16.055,0A27.527,27.527,0,0,1,15.538,20.6ZM8.622,57.154c1.482,0,3.7.247,6.422.247a71.78,71.78,0,0,0,9.88-.741c5.928,7.9,11.362,11.609,14.82,13.091a33.4,33.4,0,0,1-7.163.988A28.326,28.326,0,0,1,8.622,57.154ZM43.7,68.516c-1.482-.247-8.151-2.47-15.808-12.35,4.693-.988,9.633-2.47,13.338-5.187a48.868,48.868,0,0,0,9.139-8.151C54.811,54.19,53.576,61.353,53.576,61.6h0A26.66,26.66,0,0,1,43.7,68.516Z" transform="translate(3.481 17.934)"/><g transform="translate(0)"><path class="b" d="M19.272.5A18.976,18.976,0,0,0,.5,19.519c0,16.3,16.055,18.525,17.537,35.568,0,.988.494,1.235,1.482,1.235A1.383,1.383,0,0,0,21,55.087c1.482-16.549,17.784-18.772,17.784-35.568A19.967,19.967,0,0,0,19.272.5Zm0,24.947a6.175,6.175,0,1,1,6.175-6.175A6.115,6.115,0,0,1,19.272,25.447Z" transform="translate(0.982 0.735)"/><path d="M20.648,58.292H20.4a2.4,2.4,0,0,1-2.717-2.47c-.741-7.9-4.693-12.35-8.892-17.043C4.593,33.839-.1,28.9-.1,20.254A20.508,20.508,0,0,1,20.154,0h0A21.291,21.291,0,0,1,40.9,20.254c0,9.139-4.446,14.079-8.892,19.019-4.2,4.693-8.151,8.892-8.645,16.8A2.894,2.894,0,0,1,20.648,58.292ZM20.154,2.47A17.818,17.818,0,0,0,2.617,20.254c0,7.9,3.952,12.35,8.151,17.043s8.645,9.633,9.386,18.525h.494c.741-8.645,4.94-13.585,9.386-18.278,4.2-4.693,8.4-9.139,8.4-17.29A18.822,18.822,0,0,0,20.154,2.47Zm0,24.947a7.431,7.431,0,0,1-7.41-7.41,7.278,7.278,0,0,1,7.41-7.41,7.278,7.278,0,0,1,7.41,7.41A7.278,7.278,0,0,1,20.154,27.417Zm0-12.1a4.94,4.94,0,1,0,4.94,4.94A4.8,4.8,0,0,0,20.154,15.314Z" transform="translate(0.1)"/></g></svg>