<svg xmlns="http://www.w3.org/2000/svg" width="88.426" height="88.92" viewBox="0 0 88.426 88.92"><defs><style>.a{fill:#f7f7f7;}.b{fill:#bcc0c4;}.c{fill:#ef3829;}.d{fill:#222;}</style></defs><circle class="a" cx="43.225" cy="43.225" r="43.225" transform="translate(0.988 1.235)"/><path d="M44.213,88.92A44.461,44.461,0,1,1,88.426,44.46,44.38,44.38,0,0,1,44.213,88.92Zm0-86.45A41.99,41.99,0,1,0,86.45,44.46,41.9,41.9,0,0,0,44.213,2.47Z"/><g transform="translate(42.163 68.619)"><g transform="translate(0 0)"><path class="b" d="M.464-3.9h0A2.854,2.854,0,0,1,3.428-.936h0A2.854,2.854,0,0,1,.464,2.028h0A2.664,2.664,0,0,1-2.5-.689h0A3.063,3.063,0,0,1,.464-3.9Z" transform="translate(3.735 4.888)"/><path d="M1.2,4.1A4.328,4.328,0,0,1-3-.1,4.328,4.328,0,0,1,1.2-4.3,4.328,4.328,0,0,1,5.4-.1,4.328,4.328,0,0,1,1.2,4.1Zm0-6.175A1.909,1.909,0,0,0-.53-.1,1.688,1.688,0,0,0,1.2,1.628,1.688,1.688,0,0,0,2.928-.1,1.909,1.909,0,0,0,1.2-2.077Z" transform="translate(3 4.3)"/></g></g><g transform="translate(42.163 8.514)"><g transform="translate(0 0)"><path class="b" d="M.464-.8h0A2.854,2.854,0,0,1,3.428,2.164h0A2.854,2.854,0,0,1,.464,5.128h0A2.854,2.854,0,0,1-2.5,2.164h0A2.854,2.854,0,0,1,.464-.8Z" transform="translate(3.735 2.035)"/><path d="M1.2,7.1A4.328,4.328,0,0,1-3,2.9,4.328,4.328,0,0,1,1.2-1.3,4.328,4.328,0,0,1,5.4,2.9,4.328,4.328,0,0,1,1.2,7.1Zm0-5.928A1.688,1.688,0,0,0-.53,2.9,1.688,1.688,0,0,0,1.2,4.628,1.688,1.688,0,0,0,2.928,2.9,1.688,1.688,0,0,0,1.2,1.17Z" transform="translate(3 1.3)"/></g></g><g transform="translate(68.802 41.271)"><g transform="translate(0 0)"><path class="b" d="M-.936-2.5h0A2.854,2.854,0,0,1,2.028.464h0A2.917,2.917,0,0,1-.936,3.675h0A2.854,2.854,0,0,1-3.9.711h0A3.234,3.234,0,0,1-.936-2.5Z" transform="translate(5.135 3.735)"/><path d="M-.2,5.4A4.328,4.328,0,0,1-4.4,1.2,4.328,4.328,0,0,1-.2-3,4.328,4.328,0,0,1,4,1.2,4.02,4.02,0,0,1-.2,5.4ZM-.2-.53A1.688,1.688,0,0,0-1.93,1.2,1.688,1.688,0,0,0-.2,2.928,1.688,1.688,0,0,0,1.528,1.2C1.775.211.787-.53-.2-.53Z" transform="translate(4.4 3)"/></g></g><g transform="translate(9.181 41.271)"><g transform="translate(0 0)"><path class="b" d="M2.164-2.5h0A2.854,2.854,0,0,1,5.128.464h0A3.234,3.234,0,0,1,2.164,3.675h0A2.854,2.854,0,0,1-.8.711h0A3.063,3.063,0,0,1,2.164-2.5Z" transform="translate(2.035 3.735)"/><path d="M2.9,5.4A4.328,4.328,0,0,1-1.3,1.2,4.163,4.163,0,0,1,2.9-3,4.163,4.163,0,0,1,7.1,1.2,4.163,4.163,0,0,1,2.9,5.4ZM2.9-.53A1.688,1.688,0,0,0,1.17,1.2,1.688,1.688,0,0,0,2.9,2.928,1.688,1.688,0,0,0,4.628,1.2,1.688,1.688,0,0,0,2.9-.53Z" transform="translate(1.3 3)"/></g></g><g transform="translate(21.469 21.02)"><g transform="translate(0 0)"><path d="M-1.669-1.669h0a1.65,1.65,0,0,1,2.47,0L30.935,28.465a1.65,1.65,0,0,1,0,2.47h0a1.65,1.65,0,0,1-2.47,0L-1.669.8A1.65,1.65,0,0,1-1.669-1.669Z" transform="translate(2.225 2.225)"/></g></g><g transform="translate(37.578 37.084)"><path class="c" d="M17.765,16.782c6.175-4.2,12.6,2.47,8.645,8.645l-.741.741c-6.175,4.2-12.6-2.47-8.645-8.645C17.271,17.276,17.518,16.782,17.765,16.782Z" transform="translate(-14.341 -14.347)"/><path d="M22.589,29.305A7.5,7.5,0,0,1,17.4,27.329a7.354,7.354,0,0,1-.741-9.633c.247-.494.741-.741,1.235-1.235h0A7.423,7.423,0,0,1,28.27,26.835c-.247.494-.741.741-1.235,1.235A10.065,10.065,0,0,1,22.589,29.305Zm0-12.1a5.98,5.98,0,0,0-3.211.988h0c-.247,0-.247.247-.494.494a5.08,5.08,0,0,0,.247,6.669A5.08,5.08,0,0,0,25.8,25.6c.247,0,.247-.247.494-.494a5.08,5.08,0,0,0-.247-6.669A7.211,7.211,0,0,0,22.589,17.2Z" transform="translate(-15.214 -15.014)"/></g><g transform="translate(37.05 37.05)"><circle class="d" cx="7.41" cy="7.41" r="7.41"/><circle class="c" cx="4.94" cy="4.94" r="4.94" transform="translate(2.47 2.47)"/></g></svg>