<svg xmlns="http://www.w3.org/2000/svg" width="72.865" height="91.39" viewBox="0 0 72.865 91.39"><defs><style>.a{fill:#f7f7f7;}.b{fill:#ef3829;}</style></defs><path class="a" d="M17.79.5H65.214a5.482,5.482,0,0,1,5.434,5.434v77.8a5.482,5.482,0,0,1-5.434,5.434H5.934A5.482,5.482,0,0,1,.5,83.739V14.332l13.091-12.1A5.417,5.417,0,0,1,17.79.5Z" transform="translate(0.735 0.735)"/><path d="M65.949,91.39H6.669A6.7,6.7,0,0,1,0,84.474v-69.9l13.338-12.6A7.971,7.971,0,0,1,18.525,0H65.949a6.9,6.9,0,0,1,6.916,6.916v77.8A6.7,6.7,0,0,1,65.949,91.39ZM2.47,15.561V84.474A4.428,4.428,0,0,0,6.916,88.92H66.2a4.428,4.428,0,0,0,4.446-4.446V6.916A4.428,4.428,0,0,0,66.2,2.47H18.525a4.877,4.877,0,0,0-3.458,1.482Z"/><g transform="translate(2.47 3.211)"><path class="b" d="M1,13.9H11.868a2.741,2.741,0,0,0,2.717-2.717V1.3Z" transform="translate(-1 -1.3)"/></g><g transform="translate(14.82 26.923)"><path d="M49.719,13.37H7.235A1.167,1.167,0,0,1,6,12.135,1.167,1.167,0,0,1,7.235,10.9H49.719a1.167,1.167,0,0,1,1.235,1.235A1.167,1.167,0,0,1,49.719,13.37Z" transform="translate(-6 -10.9)"/><g transform="translate(0 8.151)"><path d="M49.719,16.67H7.235a1.235,1.235,0,1,1,0-2.47H49.719a1.235,1.235,0,0,1,0,2.47Z" transform="translate(-6 -14.2)"/></g><g transform="translate(0 16.302)"><path d="M31.935,19.97H7.235a1.235,1.235,0,1,1,0-2.47h24.7a1.235,1.235,0,1,1,0,2.47Z" transform="translate(-6 -17.5)"/></g></g></svg>