<svg xmlns="http://www.w3.org/2000/svg" width="106.703" height="88.92" viewBox="0 0 106.703 88.92"><defs><style>.a{fill:#fff;}.b{fill:#ef3829;}.c{fill:#e8e8e9;}</style></defs><path class="a" d="M40.514,86.95H7.91A7.431,7.431,0,0,1,.5,79.54V7.91A7.431,7.431,0,0,1,7.91.5h32.6a7.431,7.431,0,0,1,7.41,7.41V79.54A7.431,7.431,0,0,1,40.514,86.95Z" transform="translate(0.735 0.735)"/><path d="M41.5,88.92H8.4a8.329,8.329,0,0,1-8.4-8.4V8.4A8.329,8.329,0,0,1,8.4,0H41.5a8.329,8.329,0,0,1,8.4,8.4V80.522A8.329,8.329,0,0,1,41.5,88.92ZM8.4,2.47A5.707,5.707,0,0,0,2.47,8.4V80.522A5.707,5.707,0,0,0,8.4,86.45H41.5a6.01,6.01,0,0,0,5.928-5.928V8.4A5.851,5.851,0,0,0,41.5,2.47Z"/><g transform="translate(0 73.853)"><path class="b" d="M.5,30.4v5.928A6.593,6.593,0,0,0,6.922,43H41.5a6.593,6.593,0,0,0,6.422-6.669V30.4Z" transform="translate(0.735 -29.165)"/><path d="M42.237,44.967H7.657A7.751,7.751,0,0,1,0,37.063V29.9H49.894v7.163A7.751,7.751,0,0,1,42.237,44.967ZM2.47,32.37v4.693A5.274,5.274,0,0,0,7.657,42.5h34.58a5.274,5.274,0,0,0,5.187-5.434V32.37Z" transform="translate(0 -29.9)"/></g><g transform="translate(15.808 7.78)"><g transform="translate(0 0.124)"><path d="M17.268,5.67H7.635A1.167,1.167,0,0,1,6.4,4.435,1.167,1.167,0,0,1,7.635,3.2h9.633A1.167,1.167,0,0,1,18.5,4.435,1.167,1.167,0,0,1,17.268,5.67Z" transform="translate(-6.4 -3.2)"/></g><g transform="translate(15.808)"><path d="M14.035,5.743a1.485,1.485,0,0,1-.988-.247C12.8,5.249,12.8,5,12.8,4.508c0-.247.247-.741.247-.988a1.194,1.194,0,0,1,1.729,0c.247.247.247.494.247.988a1.485,1.485,0,0,1-.247.988C14.529,5.5,14.282,5.743,14.035,5.743Z" transform="translate(-12.8 -3.15)"/></g></g><g transform="translate(56.81)"><g transform="translate(0)"><path class="a" d="M63.514,86.95H30.91a7.431,7.431,0,0,1-7.41-7.41V7.91A7.431,7.431,0,0,1,30.91.5h32.6a7.431,7.431,0,0,1,7.41,7.41V79.54A7.431,7.431,0,0,1,63.514,86.95Z" transform="translate(-22.265 0.735)"/><path d="M64.5,88.92H31.4a8.329,8.329,0,0,1-8.4-8.4V8.4A8.329,8.329,0,0,1,31.4,0H64.5a8.329,8.329,0,0,1,8.4,8.4V80.522A8.329,8.329,0,0,1,64.5,88.92ZM31.4,2.47A5.707,5.707,0,0,0,25.47,8.4V80.522A5.707,5.707,0,0,0,31.4,86.45H64.5a6.01,6.01,0,0,0,5.928-5.928V8.4A5.851,5.851,0,0,0,64.5,2.47Z" transform="translate(-23)"/></g><g transform="translate(0 73.853)"><path class="c" d="M23.5,30.4v5.928A6.593,6.593,0,0,0,29.922,43H64.5a6.593,6.593,0,0,0,6.422-6.669V30.4Z" transform="translate(-22.265 -29.165)"/><path d="M65.237,44.967H30.657A7.751,7.751,0,0,1,23,37.063V29.9H72.894v7.163A7.751,7.751,0,0,1,65.237,44.967ZM25.47,32.37v4.693A5.439,5.439,0,0,0,30.657,42.5h34.58a5.274,5.274,0,0,0,5.187-5.434V32.37Z" transform="translate(-23 -29.9)"/></g><g transform="translate(15.808 7.78)"><g transform="translate(0 0.124)"><path d="M40.268,5.67H30.635A1.167,1.167,0,0,1,29.4,4.435,1.167,1.167,0,0,1,30.635,3.2h9.633A1.167,1.167,0,0,1,41.5,4.435,1.167,1.167,0,0,1,40.268,5.67Z" transform="translate(-29.4 -3.2)"/></g><g transform="translate(15.808)"><path d="M37.035,5.743a1.485,1.485,0,0,1-.988-.247C35.8,5.249,35.8,5,35.8,4.508c0-.247.247-.741.247-.988a1.194,1.194,0,0,1,1.729,0c.247.247.247.494.247.988a1.485,1.485,0,0,1-.247.988C37.529,5.5,37.282,5.743,37.035,5.743Z" transform="translate(-35.8 -3.15)"/></g></g></g><g transform="translate(28.158 21.736)"><circle class="a" cx="20.254" cy="20.254" r="20.254" transform="translate(1.235 1.235)"/><path d="M32.889,51.778A21.489,21.489,0,1,1,54.378,30.289,21.5,21.5,0,0,1,32.889,51.778Zm0-40.755A19.019,19.019,0,1,0,51.908,30.042,19.027,19.027,0,0,0,32.889,11.023Z" transform="translate(-11.4 -8.8)"/><g transform="translate(10.515 13.444)"><g transform="translate(0 0)"><g transform="translate(0 0)"><path class="b" d="M-425.922-476.865l2.47,2.717a1.385,1.385,0,0,0,2.223,0l9.88-10.621a1.385,1.385,0,0,1,2.223,0l1.482,1.482a1.5,1.5,0,0,1,0,1.976l-13.338,14.326a1.559,1.559,0,0,1-2.223,0l-6.175-6.175a1.843,1.843,0,0,1,0-2.223l1.482-1.482A1.285,1.285,0,0,1-425.922-476.865Z" transform="translate(429.75 485.325)"/></g></g></g></g></svg>