<svg xmlns="http://www.w3.org/2000/svg" width="67.431" height="88.92" viewBox="0 0 67.431 88.92"><defs><style>.a{fill:#ededed;}.b{fill:#ef3829;}</style></defs><g transform="translate(4.199 11.362)"><path class="a" d="M53.823,80.188H7.14a4.955,4.955,0,0,1-4.94-4.94V10.04A4.955,4.955,0,0,1,7.14,5.1H53.823a4.955,4.955,0,0,1,4.94,4.94V75.248A4.955,4.955,0,0,1,53.823,80.188Z" transform="translate(-0.965 -3.865)"/><path d="M54.558,82.158H7.875A6.115,6.115,0,0,1,1.7,75.983V10.775A6.115,6.115,0,0,1,7.875,4.6H54.558a6.115,6.115,0,0,1,6.175,6.175V75.983A6.115,6.115,0,0,1,54.558,82.158ZM7.875,7.07a3.8,3.8,0,0,0-3.7,3.7V75.983a3.8,3.8,0,0,0,3.7,3.7H54.558a3.8,3.8,0,0,0,3.7-3.7V10.775a3.8,3.8,0,0,0-3.7-3.7Z" transform="translate(-1.7 -4.6)"/></g><g transform="translate(0 8.892)"><path class="b" d="M61.509,15.709H4.452A3.9,3.9,0,0,1,.5,11.757v-3.7A3.9,3.9,0,0,1,4.452,4.1H61.509a3.9,3.9,0,0,1,3.952,3.952v3.7A4.062,4.062,0,0,1,61.509,15.709Z" transform="translate(0.735 -2.865)"/><path d="M62.244,17.679H5.187A5.065,5.065,0,0,1,0,12.492v-3.7A5.217,5.217,0,0,1,5.187,3.6H62.244a5.217,5.217,0,0,1,5.187,5.187v3.7A5.217,5.217,0,0,1,62.244,17.679ZM5.187,6.07A2.741,2.741,0,0,0,2.47,8.787v3.7a2.741,2.741,0,0,0,2.717,2.717H62.244a2.741,2.741,0,0,0,2.717-2.717v-3.7A2.741,2.741,0,0,0,62.244,6.07Z" transform="translate(0 -3.6)"/></g><g transform="translate(20.501 35.321)"><path d="M11.511,54.314H10.029A1.688,1.688,0,0,1,8.3,52.585V16.029A1.688,1.688,0,0,1,10.029,14.3h1.482a1.688,1.688,0,0,1,1.729,1.729V52.585A1.688,1.688,0,0,1,11.511,54.314Z" transform="translate(-8.3 -14.3)"/><g transform="translate(10.621)"><path d="M15.811,54.314H14.329A1.688,1.688,0,0,1,12.6,52.585V16.029A1.688,1.688,0,0,1,14.329,14.3h1.482a1.688,1.688,0,0,1,1.729,1.729V52.585A1.688,1.688,0,0,1,15.811,54.314Z" transform="translate(-12.6 -14.3)"/></g><g transform="translate(21.489)"><path d="M20.211,54.314H18.729A1.688,1.688,0,0,1,17,52.585V16.029A1.688,1.688,0,0,1,18.729,14.3h1.482a1.688,1.688,0,0,1,1.729,1.729V52.585A1.856,1.856,0,0,1,20.211,54.314Z" transform="translate(-17 -14.3)"/></g></g><g transform="translate(21.242)"><path d="M33.3,11.362H8.6V6.669A6.641,6.641,0,0,1,15.269,0H26.631A6.641,6.641,0,0,1,33.3,6.669ZM11.07,8.892H30.83V6.669a4.328,4.328,0,0,0-4.2-4.2H15.269a4.328,4.328,0,0,0-4.2,4.2V8.892Z" transform="translate(-8.6)"/></g></svg>