<svg xmlns="http://www.w3.org/2000/svg" width="106.181" height="105.197" viewBox="0 0 106.181 105.197"><defs><style>.a{fill:#f7f7f7;}.b{fill:#ef3829;}.c{fill:#222;}</style></defs><g transform="translate(20.985 6.906)"><path d="M9.74,18.836a1.251,1.251,0,0,1-.963-2.025C18.73,5.078,34.464.311,50.865,4.041a1.24,1.24,0,1,1-.543,2.421C34.835,2.929,20.015,7.4,10.678,18.416A1.276,1.276,0,0,1,9.74,18.836Z" transform="translate(-8.497 -2.796)"/></g><g transform="translate(13.888 64.09)"><path d="M47.851,58.138A44.229,44.229,0,0,1,5.689,27.559,1.237,1.237,0,0,1,6.479,26a1.257,1.257,0,0,1,1.556.79A41.782,41.782,0,0,0,47.851,55.668a1.235,1.235,0,1,1,0,2.47Z" transform="translate(-5.624 -25.948)"/></g><g transform="translate(81.248 47.646)"><path d="M34.143,58.933a1.3,1.3,0,0,1-.988-.469,1.225,1.225,0,0,1,.222-1.729c9.435-7.311,16.006-22.181,16.006-36.21a1.235,1.235,0,0,1,2.47,0c0,14.968-6.817,30.307-16.969,38.161A1.215,1.215,0,0,1,34.143,58.933Z" transform="translate(-32.895 -19.29)"/></g><g transform="translate(0)"><g transform="translate(6.914)"><path class="a" d="M14.143,28.707h0A10.874,10.874,0,0,1,3.3,17.864V11.343A10.874,10.874,0,0,1,14.143.5h0A10.874,10.874,0,0,1,24.987,11.343v6.521A10.89,10.89,0,0,1,14.143,28.707Z" transform="translate(-2.065 0.735)"/><path d="M14.878,30.677A12.08,12.08,0,0,1,2.8,18.6V12.078a12.078,12.078,0,0,1,24.157,0V18.6A12.08,12.08,0,0,1,14.878,30.677Zm0-28.207A9.619,9.619,0,0,0,5.27,12.078V18.6a9.608,9.608,0,1,0,19.217,0V12.078A9.635,9.635,0,0,0,14.878,2.47Z" transform="translate(-2.8)"/></g><g transform="translate(0 31.443)"><path class="b" d="M33.967,32.224a3.617,3.617,0,0,0,3.581-4.4,18.991,18.991,0,0,0-36.951,0,3.639,3.639,0,0,0,3.581,4.4Z" transform="translate(0.734 -11.995)"/><path class="c" d="M34.7,34.194H4.914a4.953,4.953,0,0,1-3.878-1.877,4.749,4.749,0,0,1-.914-4.026,20.233,20.233,0,0,1,39.372,0,4.749,4.749,0,0,1-.914,4.026A4.914,4.914,0,0,1,34.7,34.194ZM19.808,15.225A17.658,17.658,0,0,0,2.543,28.884a2.285,2.285,0,0,0,.445,1.927,2.471,2.471,0,0,0,1.927.939H34.7a2.434,2.434,0,0,0,1.927-.939,2.266,2.266,0,0,0,.445-1.927A17.658,17.658,0,0,0,19.808,15.225Z" transform="translate(-0.001 -12.73)"/></g></g><g transform="translate(66.566)"><g transform="translate(6.914)"><path class="a" d="M41.093,28.707h0A10.874,10.874,0,0,1,30.25,17.864V11.343A10.874,10.874,0,0,1,41.093.5h0A10.874,10.874,0,0,1,51.937,11.343v6.521A10.874,10.874,0,0,1,41.093,28.707Z" transform="translate(-29.015 0.735)"/><path d="M41.828,30.677A12.08,12.08,0,0,1,29.75,18.6V12.078a12.078,12.078,0,1,1,24.157,0V18.6A12.08,12.08,0,0,1,41.828,30.677Zm0-28.207a9.619,9.619,0,0,0-9.608,9.608V18.6a9.608,9.608,0,1,0,19.217,0V12.078A9.619,9.619,0,0,0,41.828,2.47Z" transform="translate(-29.75)"/></g><g transform="translate(0 31.443)"><path class="b" d="M60.917,32.224a3.617,3.617,0,0,0,3.581-4.4,18.991,18.991,0,0,0-36.951,0,3.639,3.639,0,0,0,3.582,4.4Z" transform="translate(-26.216 -11.995)"/><path class="c" d="M61.652,34.194H31.864a4.953,4.953,0,0,1-3.878-1.877,4.73,4.73,0,0,1-.914-4.026,20.233,20.233,0,0,1,39.372,0,4.749,4.749,0,0,1-.914,4.026A4.879,4.879,0,0,1,61.652,34.194ZM46.758,15.225A17.658,17.658,0,0,0,29.493,28.884a2.285,2.285,0,0,0,.445,1.927,2.471,2.471,0,0,0,1.927.939H61.652A2.519,2.519,0,0,0,63.6,30.81a2.266,2.266,0,0,0,.445-1.927A17.686,17.686,0,0,0,46.758,15.225Z" transform="translate(-26.951 -12.73)"/></g></g><g transform="translate(36.185 52.29)"><g transform="translate(6.914)"><path class="a" d="M28.793,49.877h0A10.874,10.874,0,0,1,17.95,39.034V32.513A10.874,10.874,0,0,1,28.793,21.67h0A10.874,10.874,0,0,1,39.637,32.513v6.521A10.858,10.858,0,0,1,28.793,49.877Z" transform="translate(-16.715 -20.435)"/><path d="M29.528,51.847A12.08,12.08,0,0,1,17.45,39.769V33.248a12.078,12.078,0,0,1,24.157,0v6.521A12.065,12.065,0,0,1,29.528,51.847Zm0-28.207a9.619,9.619,0,0,0-9.608,9.608v6.521a9.608,9.608,0,0,0,19.217,0V33.248A9.6,9.6,0,0,0,29.528,23.64Z" transform="translate(-17.45 -21.17)"/></g><g transform="translate(0 31.443)"><path class="b" d="M48.617,53.394A3.617,3.617,0,0,0,52.2,49a18.991,18.991,0,0,0-36.951,0,3.639,3.639,0,0,0,3.581,4.4Z" transform="translate(-13.916 -33.165)"/><path class="c" d="M49.352,55.364H19.564a4.953,4.953,0,0,1-3.878-1.877,4.749,4.749,0,0,1-.914-4.026,20.233,20.233,0,0,1,39.372,0,4.749,4.749,0,0,1-.914,4.026A4.844,4.844,0,0,1,49.352,55.364ZM34.458,36.395A17.658,17.658,0,0,0,17.193,50.054a2.285,2.285,0,0,0,.445,1.927,2.47,2.47,0,0,0,1.927.939H49.352A2.519,2.519,0,0,0,51.3,51.98a2.266,2.266,0,0,0,.445-1.927A17.686,17.686,0,0,0,34.458,36.395Z" transform="translate(-14.651 -33.9)"/></g></g></svg>