<svg xmlns="http://www.w3.org/2000/svg" width="72.158" height="91.39" viewBox="0 0 72.158 91.39"><defs><style>.a{fill:#f7f7f7;}.b{fill:#ef3829;}</style></defs><g transform="translate(0 49.366)"><path d="M4.466,26.936A2.668,2.668,0,0,1,2.737,26.2L.761,24.219a2.645,2.645,0,0,1-.247-3.458,2.645,2.645,0,0,1,3.458-.247L5.948,22.49A2.645,2.645,0,0,1,6.2,25.948,1.654,1.654,0,0,1,4.466,26.936Z" transform="translate(0.014 -19.986)"/></g><g transform="translate(1.269 41.65)"><path class="a" d="M69.172,33.862v9.633a1.878,1.878,0,0,1-1.482,1.976,64,64,0,0,0-7.163,3.458.242.242,0,0,0-.247.247,15.844,15.844,0,0,0-6.669,13.338,2.084,2.084,0,0,1-.494,1.729,2.242,2.242,0,0,1-1.729.741H42.743a2.214,2.214,0,0,1-2.223-2.223h0V60.785a2.091,2.091,0,0,0-2.47-1.976,38.816,38.816,0,0,1-13.091,0,2.091,2.091,0,0,0-2.47,1.976v1.976a2.214,2.214,0,0,1-2.223,2.223H11.621A3.049,3.049,0,0,1,9.645,64,49.939,49.939,0,0,1,3.223,49.67a35.051,35.051,0,0,1-1.235-5.434,15.183,15.183,0,0,1-.741-8.151h0c0-.741.247-1.235.247-1.976v-.247a20.5,20.5,0,0,1,1.482-5.187c.741-1.482,1.482-2.964,2.47-4.693,0-.247.247-.247.247-.494a18.507,18.507,0,0,1,13.091-5.434H50.4l3.211-.988a2.057,2.057,0,0,1,2.717,2.223l-.494,2.717a2.8,2.8,0,0,0,.741,1.976l6.669,4.94a1.887,1.887,0,0,0,1.235.494h.247A4.428,4.428,0,0,1,69.172,33.862Z" transform="translate(0.235 -16.726)"/><path d="M51.876,66.6H43.231a3.377,3.377,0,0,1-3.458-3.458V61.168c0-.247-.247-.494-.247-.741a.907.907,0,0,0-.741-.247,41.788,41.788,0,0,1-13.585,0,.907.907,0,0,0-.741.247c-.247,0-.247.247-.247.741v1.976A3.377,3.377,0,0,1,20.754,66.6h-8.4A4.222,4.222,0,0,1,9.392,65.12l-.247-.247A45.393,45.393,0,0,1,2.476,50.3c-.247-1.729-.741-3.458-.988-5.187a17.035,17.035,0,0,1-.741-8.645,1.485,1.485,0,0,1,.247-.988v-.988a19.151,19.151,0,0,1,1.729-5.681,39.962,39.962,0,0,1,2.47-4.446c0-.247,0-.247.247-.247v-.247l.247-.247a19.427,19.427,0,0,1,13.832-5.681H50.641l3.211-.988a3.932,3.932,0,0,1,3.211.741A3.6,3.6,0,0,1,58.3,20.66l-.247,2.223c0,.247,0,.741.247.741l6.669,4.94c.247,0,.247.247.494.247a5.651,5.651,0,0,1,5.928,5.681v9.633a3.017,3.017,0,0,1-2.47,3.211A44.935,44.935,0,0,0,62,50.794a14.923,14.923,0,0,0-6.422,12.6,3.154,3.154,0,0,1-.988,2.717A10.5,10.5,0,0,1,51.876,66.6ZM38.785,57.71a3.984,3.984,0,0,1,2.223.741,3.43,3.43,0,0,1,1.235,2.47V62.9a1.062,1.062,0,0,0,.988.988h8.645c.494,0,.494,0,.988-.494a1.444,1.444,0,0,0,.247-.988,16.812,16.812,0,0,1,7.163-14.326c.247,0,.247-.247.494-.247a48.037,48.037,0,0,1,7.41-3.458c.494-.247.741-.247.741-.988V33.751a3.27,3.27,0,0,0-3.211-3.211,3.019,3.019,0,0,1-2.223-.741l-6.669-4.94a3.216,3.216,0,0,1-1.235-3.211l.247-2.223a1.082,1.082,0,0,0-.247-.741,2.488,2.488,0,0,0-.741-.247l-3.458,1.235c-.247,0-.741.247-.988.247H19.519A17.031,17.031,0,0,0,7.663,24.612v.247h0l-.247.247a39.963,39.963,0,0,0-2.47,4.446,14.5,14.5,0,0,0-1.482,4.94h0a1.851,1.851,0,0,1-.247,1.235v.741a13.226,13.226,0,0,0,.741,7.657v.247a39.482,39.482,0,0,0,1.235,5.187,45.83,45.83,0,0,0,6.175,13.832c.494.494.741.741.988.741h7.9a1.13,1.13,0,0,0,1.235-.988V61.168A3.04,3.04,0,0,1,22.73,58.7a2.787,2.787,0,0,1,2.717-.741,35.969,35.969,0,0,0,12.6,0A.907.907,0,0,1,38.785,57.71Z" transform="translate(-0.5 -16.863)"/></g><g transform="translate(7.938 14.079)"><circle class="b" cx="6.669" cy="6.669" r="6.669" transform="translate(1.235 1.235)"/><path d="M11.1,21.508a7.8,7.8,0,0,1-7.9-7.9,7.8,7.8,0,0,1,7.9-7.9,7.8,7.8,0,0,1,7.9,7.9A7.959,7.959,0,0,1,11.1,21.508Zm0-13.338A5.434,5.434,0,1,0,16.538,13.6,5.482,5.482,0,0,0,11.1,8.17Z" transform="translate(-3.2 -5.7)"/></g><g transform="translate(26.71)"><circle class="b" cx="6.669" cy="6.669" r="6.669" transform="translate(1.235 1.235)"/><path d="M18.7,15.808a7.8,7.8,0,0,1-7.9-7.9,7.9,7.9,0,1,1,15.808,0A7.8,7.8,0,0,1,18.7,15.808Zm0-13.338A5.482,5.482,0,0,0,13.27,7.9a5.434,5.434,0,1,0,10.868,0A5.482,5.482,0,0,0,18.7,2.47Z" transform="translate(-10.8)"/></g><g transform="translate(24.487 29.64)"><circle class="b" cx="6.669" cy="6.669" r="6.669" transform="translate(1.235 1.235)"/><path d="M17.8,27.808a7.8,7.8,0,0,1-7.9-7.9A7.8,7.8,0,0,1,17.8,12a7.8,7.8,0,0,1,7.9,7.9A7.8,7.8,0,0,1,17.8,27.808Zm0-13.338A5.434,5.434,0,1,0,23.238,19.9,5.482,5.482,0,0,0,17.8,14.47Z" transform="translate(-9.9 -12)"/></g><g transform="translate(24.487 46.93)"><path d="M25.214,21.47H11.135a1.235,1.235,0,0,1,0-2.47H25.214a1.235,1.235,0,0,1,0,2.47Z" transform="translate(-9.9 -19)"/></g></svg>