<svg xmlns="http://www.w3.org/2000/svg" width="61.502" height="88.92" viewBox="0 0 61.502 88.92"><defs><style>.a{fill:#fff;}.b{fill:#f7f7f7;}.c{fill:#ef3829;}.d{fill:#222;}</style></defs><g transform="translate(7.41)"><path class="a" d="M47.466,45.948V22.483A22.032,22.032,0,0,0,25.483.5h0A22.032,22.032,0,0,0,3.5,22.483V46.195a4.163,4.163,0,0,0,4.2,4.2H43.514A4.345,4.345,0,0,0,47.466,45.948Z" transform="translate(-2.265 0.735)"/><path d="M44.249,52.117H8.434A5.482,5.482,0,0,1,3,46.683V23.218A23.513,23.513,0,0,1,26.218,0,23.35,23.35,0,0,1,49.436,23.218V46.93A5.217,5.217,0,0,1,44.249,52.117ZM26.218,2.47A20.873,20.873,0,0,0,5.47,23.218V46.93a3,3,0,0,0,2.964,2.964H44.249a3,3,0,0,0,2.964-2.964V23.218A21.087,21.087,0,0,0,26.218,2.47Z" transform="translate(-3)"/></g><g transform="translate(2.034 12.103)"><g transform="translate(10.069)"><path class="b" d="M21.455,47.143h0A16.023,16.023,0,0,1,5.4,31.088V21.455A16.023,16.023,0,0,1,21.455,5.4h0A16.023,16.023,0,0,1,37.51,21.455v9.633A16.023,16.023,0,0,1,21.455,47.143Z" transform="translate(-4.165 -4.165)"/><path d="M22.19,49.113A17.341,17.341,0,0,1,4.9,31.823V22.19a17.29,17.29,0,0,1,34.58,0v9.633A17.5,17.5,0,0,1,22.19,49.113Zm0-41.5A14.864,14.864,0,0,0,7.37,22.437V32.07a14.82,14.82,0,1,0,29.64,0V22.437A14.706,14.706,0,0,0,22.19,7.617Z" transform="translate(-4.9 -4.9)"/></g><g transform="translate(0 46.436)"><path class="c" d="M50.626,52.111c3.458,0,6.175-3.211,5.187-6.422a27.921,27.921,0,0,0-54.34,0A5.416,5.416,0,0,0,6.66,52.111Z" transform="translate(-0.049 -22.965)"/><path class="d" d="M51.4,54.081H7.435a6.952,6.952,0,0,1-5.187-2.47,6.1,6.1,0,0,1-1.235-5.434,29.187,29.187,0,0,1,56.81,0,6.1,6.1,0,0,1-1.235,5.434A6.952,6.952,0,0,1,51.4,54.081ZM29.418,26.17a26.452,26.452,0,0,0-25.935,20.5,3.562,3.562,0,0,0,.741,3.211,3.6,3.6,0,0,0,3.211,1.729H51.154a3.6,3.6,0,0,0,3.211-1.729,4.287,4.287,0,0,0,.741-3.458C52.636,34.568,41.768,26.17,29.418,26.17Z" transform="translate(-0.823 -23.7)"/></g></g><g transform="translate(26.182 9.665)"><path class="a" d="M10.6,4.128a25.344,25.344,0,0,0,7.163,14.079A26.743,26.743,0,0,0,32.83,25.37S35.794,1.411,10.6,4.128Z" transform="translate(-10.6 -3.913)"/></g><g transform="translate(25.194 8.645)"><path d="M33.418,26.965h0a26.666,26.666,0,0,1-15.808-7.41A25.76,25.76,0,0,1,10.2,4.735a1.118,1.118,0,1,1,2.223-.247,24.282,24.282,0,0,0,6.916,13.338,24.968,24.968,0,0,0,14.326,6.916A1.323,1.323,0,0,1,34.9,25.977,1.668,1.668,0,0,1,33.418,26.965Z" transform="translate(-10.2 -3.5)"/></g><g transform="translate(0 26.429)"><path class="c" d="M7.169,24.538a6.669,6.669,0,1,1,0-13.338" transform="translate(0.735 -9.965)"/><path class="d" d="M7.9,26.508A7.959,7.959,0,0,1,0,18.6a8.127,8.127,0,0,1,7.9-7.9v2.47a5.745,5.745,0,0,0-5.681,5.681A5.59,5.59,0,0,0,7.9,24.532Z" transform="translate(0 -10.7)"/></g><g transform="translate(53.599 25.935)"><path class="c" d="M21.7,11.1a6.669,6.669,0,0,1,0,13.338" transform="translate(-21.7 -9.618)"/><path class="d" d="M21.7,26.8v-2.47a5.745,5.745,0,0,0,5.681-5.681A5.59,5.59,0,0,0,21.7,12.97V10.5a7.959,7.959,0,0,1,7.9,7.9C29.6,22.6,26.146,26.8,21.7,26.8Z" transform="translate(-21.7 -10.5)"/></g><g transform="translate(37.297 40.261)"><path class="d" d="M27.2,22.969H15.1V20.5H27.2a2.125,2.125,0,0,0,1.976-1.976V16.3h2.47v2.223A4.592,4.592,0,0,1,27.2,22.969Z" transform="translate(-15.1 -16.3)"/></g><g transform="translate(28.899 41.99)"><path class="c" d="M17.634,21.946H14.423A2.214,2.214,0,0,1,12.2,19.723h0A2.214,2.214,0,0,1,14.423,17.5h3.211a2.214,2.214,0,0,1,2.223,2.223h0C19.61,20.958,18.869,21.946,17.634,21.946Z" transform="translate(-10.965 -16.265)"/><path class="d" d="M18.369,23.916H15.158a3.458,3.458,0,1,1,0-6.916h3.211a3.533,3.533,0,0,1,3.458,3.458A3.712,3.712,0,0,1,18.369,23.916Zm-3.211-4.2a.988.988,0,1,0,0,1.976h3.211a.988.988,0,1,0,0-1.976Z" transform="translate(-11.7 -17)"/></g></svg>