<svg xmlns="http://www.w3.org/2000/svg" width="88.921" height="58.539" viewBox="0 0 88.921 58.539"><defs><style>.a{fill:#fff;}.b{fill:#222;}.c{fill:#ef3829;}</style></defs><g transform="translate(0)"><path class="a" d="M2.226,34.833A13.072,13.072,0,0,1,3.708,19.766C10.377,12.109,23.962.5,43.722.5,63.235.5,76.573,11.862,83.489,19.766a13.421,13.421,0,0,1,1.482,15.808c-5.434,8.892-17.29,21.242-41.249,21.242C19.516,56.816,7.66,43.725,2.226,34.833Z" transform="translate(0.771 0.735)"/><path class="b" d="M44.48,58.539C19.039,58.539,6.936,44.46,2,36.062H2A14.165,14.165,0,0,1,3.478,19.513C9.9,12.35,23.979,0,44.48,0,64.734,0,78.813,12.35,85.235,19.513A14.492,14.492,0,0,1,86.717,36.8C81.777,44.954,69.674,58.539,44.48,58.539ZM3.972,35.074c5.681,9.633,17.29,21.242,40.508,21.242,22.724,0,34.58-11.115,40.261-20.748a12.287,12.287,0,0,0-1.235-14.326C77.331,14.079,63.993,2.47,44.48,2.47c-19.76,0-33.1,11.856-39.273,19.019A11.907,11.907,0,0,0,3.972,35.074Z" transform="translate(0.014)"/></g><g transform="translate(21.028 5.681)"><circle class="c" cx="22.477" cy="22.477" r="22.477" transform="translate(1.235 1.235)"/><path class="b" d="M32.212,49.724A23.712,23.712,0,1,1,55.924,26.012,23.718,23.718,0,0,1,32.212,49.724Zm0-44.954A21.242,21.242,0,1,0,53.454,26.012,21.241,21.241,0,0,0,32.212,4.77Z" transform="translate(-8.5 -2.3)"/></g><g transform="translate(37.33 21.736)"><path d="M22.51,8.8h-.988a4.173,4.173,0,0,1,.741,2.47,4.955,4.955,0,0,1-4.94,4.94,7.212,7.212,0,0,1-2.223-.494v.741a7.41,7.41,0,1,0,14.82,0A7.335,7.335,0,0,0,22.51,8.8Z" transform="translate(-15.1 -8.8)"/></g><g transform="translate(34.119 19.513)"><circle class="a" cx="4.693" cy="4.693" r="4.693"/></g></svg>