<svg xmlns="http://www.w3.org/2000/svg" width="89.167" height="77.558" viewBox="0 0 89.167 77.558"><defs><style>.a{fill:#e8e8e9;}.b{fill:#ef3829;}.c{fill:#fff;}</style></defs><g transform="translate(0 9.633)"><path class="a" d="M82.01,69.855H5.44A4.955,4.955,0,0,1,.5,64.915V9.34A4.955,4.955,0,0,1,5.44,4.4H82.01a4.955,4.955,0,0,1,4.94,4.94V64.915A4.955,4.955,0,0,1,82.01,69.855Z" transform="translate(0.735 -3.165)"/><path d="M82.745,71.825H6.175A6.115,6.115,0,0,1,0,65.65V10.075A6.115,6.115,0,0,1,6.175,3.9H82.992a6.066,6.066,0,0,1,5.928,6.175V65.9A6.066,6.066,0,0,1,82.745,71.825ZM6.175,6.37a3.638,3.638,0,0,0-3.7,3.7V65.9a3.8,3.8,0,0,0,3.7,3.7H82.992A3.8,3.8,0,0,0,86.7,65.9V10.075a3.8,3.8,0,0,0-3.705-3.7Z" transform="translate(0 -3.9)"/></g><g transform="translate(0 9.633)"><path class="b" d="M81.022,4.4H6.428A6.01,6.01,0,0,0,.5,10.328V25.889a14.864,14.864,0,0,0,14.82,14.82H72.377A14.864,14.864,0,0,0,87.2,25.889V10.328A6.409,6.409,0,0,0,81.022,4.4Z" transform="translate(0.735 -3.165)"/><path d="M73.112,42.679h-57.3A15.759,15.759,0,0,1,0,26.871V11.063A7.168,7.168,0,0,1,7.163,3.9H82a7.168,7.168,0,0,1,7.163,7.163V26.624A16.347,16.347,0,0,1,73.112,42.679ZM7.163,6.37A4.69,4.69,0,0,0,2.47,11.063V26.624A13.706,13.706,0,0,0,16.055,40.209H73.112A13.706,13.706,0,0,0,86.7,26.624V11.063A4.69,4.69,0,0,0,82,6.37Z" transform="translate(0 -3.9)"/></g><g transform="translate(31.122)"><path d="M39.276,12.1H12.6V7.163A7.168,7.168,0,0,1,19.763,0h12.35a7.168,7.168,0,0,1,7.163,7.163ZM15.07,9.633H36.806V7.163A4.69,4.69,0,0,0,32.113,2.47H19.763A4.69,4.69,0,0,0,15.07,7.163v2.47Z" transform="translate(-12.6)"/></g><g transform="translate(24.453 38.532)"><path class="c" d="M10.5,28.45V18.57a2.475,2.475,0,0,1,2.47-2.47h2.47a2.475,2.475,0,0,1,2.47,2.47v9.88a2.334,2.334,0,0,1-2.47,2.47H12.97A2.475,2.475,0,0,1,10.5,28.45Z" transform="translate(-9.018 -14.865)"/><path d="M16.322,32.89H13.6a3.8,3.8,0,0,1-3.7-3.7V19.3a3.8,3.8,0,0,1,3.7-3.7h2.717a3.8,3.8,0,0,1,3.7,3.7v9.88A3.638,3.638,0,0,1,16.322,32.89Zm-2.47-14.82A1.167,1.167,0,0,0,12.617,19.3v9.88a1.167,1.167,0,0,0,1.235,1.235h2.717A1.167,1.167,0,0,0,17.8,29.185V19.3a1.167,1.167,0,0,0-1.235-1.235Z" transform="translate(-9.9 -15.6)"/></g><g transform="translate(54.587 38.532)"><path class="c" d="M22.7,28.45V18.57a2.656,2.656,0,0,1,2.47-2.47h2.47a2.656,2.656,0,0,1,2.47,2.47v9.88a2.475,2.475,0,0,1-2.47,2.47H25.17A2.475,2.475,0,0,1,22.7,28.45Z" transform="translate(-21.218 -14.865)"/><path d="M28.522,32.89H25.8a3.8,3.8,0,0,1-3.7-3.7V19.3a3.8,3.8,0,0,1,3.7-3.7h2.717a3.8,3.8,0,0,1,3.7,3.7v9.88A3.8,3.8,0,0,1,28.522,32.89Zm-2.47-14.82A1.167,1.167,0,0,0,24.817,19.3v9.88a1.167,1.167,0,0,0,1.235,1.235h2.717A1.167,1.167,0,0,0,30,29.185V19.3a1.167,1.167,0,0,0-1.235-1.235Z" transform="translate(-22.1 -15.6)"/></g></svg>