<svg xmlns="http://www.w3.org/2000/svg" width="72.124" height="88.92" viewBox="0 0 72.124 88.92"><defs><style>.a{fill:#fff;}.b{fill:#ef3829;}</style></defs><g transform="translate(1.235 1.235)"><path class="a" d="M40.514,86.95H7.91A7.431,7.431,0,0,1,.5,79.54V7.91A7.431,7.431,0,0,1,7.91.5h32.6a7.431,7.431,0,0,1,7.41,7.41V79.54A7.431,7.431,0,0,1,40.514,86.95Z" transform="translate(-0.5 -0.5)"/></g><path d="M41.5,88.92H8.4a8.329,8.329,0,0,1-8.4-8.4V8.4A8.329,8.329,0,0,1,8.4,0H41.5a8.329,8.329,0,0,1,8.4,8.4V80.522A8.329,8.329,0,0,1,41.5,88.92ZM8.4,2.47A5.707,5.707,0,0,0,2.47,8.4V80.522A5.707,5.707,0,0,0,8.4,86.45H41.5a6.01,6.01,0,0,0,5.928-5.928V8.4A5.851,5.851,0,0,0,41.5,2.47Z"/><g transform="translate(0 73.853)"><g transform="translate(1.235 1.235)"><path class="b" d="M.5,30.4v5.928A6.593,6.593,0,0,0,6.922,43H41.5a6.593,6.593,0,0,0,6.422-6.669V30.4Z" transform="translate(-0.5 -30.4)"/></g><path d="M42.237,44.967H7.657A7.751,7.751,0,0,1,0,37.063V29.9H49.894v7.163A7.751,7.751,0,0,1,42.237,44.967ZM2.47,32.37v4.693A5.274,5.274,0,0,0,7.657,42.5h34.58a5.274,5.274,0,0,0,5.187-5.434V32.37Z" transform="translate(0 -29.9)"/></g><g transform="translate(15.808 7.78)"><g transform="translate(0 0.124)"><path d="M17.268,5.67H7.635A1.167,1.167,0,0,1,6.4,4.435,1.167,1.167,0,0,1,7.635,3.2h9.633A1.167,1.167,0,0,1,18.5,4.435,1.167,1.167,0,0,1,17.268,5.67Z" transform="translate(-6.4 -3.2)"/></g><g transform="translate(15.808)"><path d="M14.035,5.743a1.485,1.485,0,0,1-.988-.247C12.8,5.249,12.8,5,12.8,4.508c0-.247.247-.741.247-.988a1.194,1.194,0,0,1,1.729,0c.247.247.247.494.247.988a1.485,1.485,0,0,1-.247.988C14.529,5.5,14.282,5.743,14.035,5.743Z" transform="translate(-12.8 -3.15)"/></g></g><g transform="translate(25.194 19.019)"><g transform="translate(3.952 16.549)"><path class="a" d="M43.916,44.046H17.24a4.955,4.955,0,0,1-4.94-4.94V19.84a4.955,4.955,0,0,1,4.94-4.94H44.163a4.955,4.955,0,0,1,4.94,4.94V39.106A5.347,5.347,0,0,1,43.916,44.046Z" transform="translate(-11.065 -13.665)"/><path d="M44.651,46.016H17.975A6.115,6.115,0,0,1,11.8,39.841V20.575A6.115,6.115,0,0,1,17.975,14.4H44.9a6.115,6.115,0,0,1,6.175,6.175V39.841A6.492,6.492,0,0,1,44.651,46.016ZM17.975,16.87a3.8,3.8,0,0,0-3.7,3.7V39.841a3.8,3.8,0,0,0,3.7,3.7H44.9a3.8,3.8,0,0,0,3.7-3.7V20.575a3.8,3.8,0,0,0-3.7-3.7H17.975Z" transform="translate(-11.8 -14.4)"/></g><g transform="translate(0 12.35)"><path class="a" d="M51.949,21.1H13.911A3.27,3.27,0,0,1,10.7,17.893V16.411A3.27,3.27,0,0,1,13.911,13.2H51.949a3.27,3.27,0,0,1,3.211,3.211v1.482A3.27,3.27,0,0,1,51.949,21.1Z" transform="translate(-9.465 -11.965)"/><path d="M52.684,23.074H14.646A4.428,4.428,0,0,1,10.2,18.628V17.146A4.428,4.428,0,0,1,14.646,12.7H52.684a4.428,4.428,0,0,1,4.446,4.446v1.482A4.428,4.428,0,0,1,52.684,23.074Zm-38.038-7.9a1.948,1.948,0,0,0-1.976,1.976v1.482A1.948,1.948,0,0,0,14.646,20.6H52.684a1.948,1.948,0,0,0,1.976-1.976V17.146a1.948,1.948,0,0,0-1.976-1.976Z" transform="translate(-10.2 -12.7)"/></g><g transform="translate(19.266 12.35)"><rect class="b" width="5.928" height="33.345" transform="translate(1.235 1.235)"/><path d="M26.4,48.515H18V12.7h8.4Zm-5.928-2.47h3.458V15.17H20.47Z" transform="translate(-18 -12.7)"/></g><g transform="translate(22.23)"><path d="M22.411,21.285H20.435a1.873,1.873,0,0,1-.988-.494A1.485,1.485,0,0,1,19.2,19.8l.247-1.482h0s.494-5.928,3.952-8.892A7.1,7.1,0,0,1,27.845,7.7a5.276,5.276,0,0,1,4.2,1.976,6.9,6.9,0,0,1,1.482,4.446,5.655,5.655,0,0,1-1.976,4.2l-.247.247A16.365,16.365,0,0,1,22.411,21.285Zm-.494-2.47h0a14.1,14.1,0,0,0,7.9-2.223,3.43,3.43,0,0,0,1.235-2.47,2.864,2.864,0,0,0-.988-2.47,2.947,2.947,0,0,0-2.223-1.235,5.179,5.179,0,0,0-2.717.988c-2.964,1.976-3.211,7.163-3.211,7.41Z" transform="translate(-19.2 -7.7)"/></g><g transform="translate(9.88 0.247)"><path d="M25.068,21.138a15.564,15.564,0,0,1-8.645-2.717h-.247a5.655,5.655,0,0,1-1.976-4.2,6.9,6.9,0,0,1,1.482-4.446A5.156,5.156,0,0,1,19.634,7.8,5.952,5.952,0,0,1,24.08,9.529c3.458,2.964,3.952,9.139,3.952,9.139l.247,1.235a1.485,1.485,0,0,1-.247.988,1.283,1.283,0,0,1-.988.494H25.562C25.562,21.138,25.315,21.138,25.068,21.138ZM17.9,16.2a12.122,12.122,0,0,0,7.657,2.223h.247c0-.741-.494-5.434-2.964-7.41a3.937,3.937,0,0,0-2.964-.988,2.947,2.947,0,0,0-2.223,1.235,3.715,3.715,0,0,0-.988,2.717A2.947,2.947,0,0,0,17.9,16.2l-.741.988Z" transform="translate(-14.2 -7.8)"/></g></g></svg>