<svg xmlns="http://www.w3.org/2000/svg" width="88.92" height="70.889" viewBox="0 0 88.92 70.889"><defs><style>.a{fill:#fff;}.b{fill:#f7f7f7;}.c{fill:#ef3829;}.d{fill:#222;}</style></defs><path class="a" d="M.5,17.3V63.485a5.482,5.482,0,0,0,5.434,5.434H81.763A5.482,5.482,0,0,0,87.2,63.485V5.934A5.482,5.482,0,0,0,81.763.5H14.085L2.229,13.1A5.785,5.785,0,0,0,.5,17.3Z" transform="translate(0.735 0.735)"/><path d="M82.251,70.889H6.669A6.641,6.641,0,0,1,0,64.22V18.031a6.9,6.9,0,0,1,1.976-4.94L14.079,0H82.251A6.641,6.641,0,0,1,88.92,6.669V64.22A6.641,6.641,0,0,1,82.251,70.889ZM15.314,2.47,3.7,14.82A4.7,4.7,0,0,0,2.47,18.031V64.22a4.328,4.328,0,0,0,4.2,4.2H82.5a4.328,4.328,0,0,0,4.2-4.2V6.669a4.375,4.375,0,0,0-4.446-4.2Z"/><g transform="translate(31.122 8.151)"><path class="a" d="M18.287,35.416H53.608a5.217,5.217,0,0,0,5.187-5.187V8.987A5.217,5.217,0,0,0,53.608,3.8H18.287A5.217,5.217,0,0,0,13.1,8.987V30.229A5.389,5.389,0,0,0,18.287,35.416Z" transform="translate(-11.865 -2.565)"/><path d="M54.59,37.386H18.775A6.115,6.115,0,0,1,12.6,31.211V9.475A6.115,6.115,0,0,1,18.775,3.3H54.343a6.115,6.115,0,0,1,6.175,6.175V31.211A6.061,6.061,0,0,1,54.59,37.386ZM18.775,5.77a3.8,3.8,0,0,0-3.7,3.7V31.211a3.8,3.8,0,0,0,3.7,3.7H54.343a3.8,3.8,0,0,0,3.705-3.7V9.475a3.8,3.8,0,0,0-3.705-3.7Z" transform="translate(-12.6 -3.3)"/></g><g transform="translate(44.857 14.573)"><g transform="translate(3.555)"><path class="b" d="M25.287,19.985h0A5.217,5.217,0,0,1,20.1,14.8V11.587A5.217,5.217,0,0,1,25.287,6.4h0a5.217,5.217,0,0,1,5.187,5.187V14.8A5.217,5.217,0,0,1,25.287,19.985Z" transform="translate(-18.865 -5.165)"/><path d="M26.022,21.955A6.539,6.539,0,0,1,19.6,15.533V12.322a6.422,6.422,0,0,1,12.844,0v3.211A6.539,6.539,0,0,1,26.022,21.955Zm0-13.832a4.163,4.163,0,0,0-4.2,4.2v3.211a4.2,4.2,0,0,0,8.4,0V12.322A4.323,4.323,0,0,0,26.022,8.123Z" transform="translate(-19.6 -5.9)"/></g><g transform="translate(0 15.067)"><path class="c" d="M34.878,21.886a1.732,1.732,0,0,0,1.729-2.223A9.214,9.214,0,0,0,27.715,12.5a9.01,9.01,0,0,0-8.892,7.163,1.968,1.968,0,0,0,1.729,2.223Z" transform="translate(-17.244 -11.265)"/><path class="d" d="M35.795,23.856H21.222a3.43,3.43,0,0,1-2.47-1.235,2.872,2.872,0,0,1-.494-2.47A10.543,10.543,0,0,1,28.385,12a10.091,10.091,0,0,1,10.127,8.151,3.042,3.042,0,0,1-.494,2.47A2.594,2.594,0,0,1,35.795,23.856Zm-7.41-9.386a8.163,8.163,0,0,0-7.9,6.175v.494a.862.862,0,0,0,.494.247H35.548a.862.862,0,0,0,.494-.247.342.342,0,0,0,0-.494C35.548,16.94,32.337,14.47,28.385,14.47Z" transform="translate(-18.161 -12)"/></g></g><g transform="translate(2.964 2.47)"><path class="c" d="M13.55,1V11.621a2.475,2.475,0,0,1-2.47,2.47H1.2Z" transform="translate(-1.2 -1)"/></g></svg>