<svg xmlns="http://www.w3.org/2000/svg" width="91.143" height="90.896" viewBox="0 0 91.143 90.896"><defs><style>.a{fill:#ef3829;}.b{fill:#222;}</style></defs><path class="a" d="M83,35.821H81.516a5.874,5.874,0,0,1-5.434-3.952.242.242,0,0,0-.247-.247,6.07,6.07,0,0,1,1.235-6.669L78.3,23.718a6.121,6.121,0,0,0,0-8.4l-4.446-4.446a5.815,5.815,0,0,0-8.151,0l-1.482,1.235c-1.729,1.729-4.2,1.976-6.669.988-.247,0-.247,0-.494-.247a6.137,6.137,0,0,1-3.952-5.434V6.428A6.01,6.01,0,0,0,47.183.5H41.255a6.01,6.01,0,0,0-5.928,5.928V7.91a5.874,5.874,0,0,1-3.952,5.434h-.247a6.033,6.033,0,0,1-6.916-1.482l-.247-.494a5.9,5.9,0,0,0-8.4-.247l-4.2,4.2a5.815,5.815,0,0,0,0,8.151L12.6,24.706a6.07,6.07,0,0,1,1.235,6.669.242.242,0,0,1-.247.247,6.137,6.137,0,0,1-5.434,3.952H6.428A6.01,6.01,0,0,0,.5,41.5V47.43a6.01,6.01,0,0,0,5.928,5.928H7.91a5.874,5.874,0,0,1,5.434,3.952v.247a6.07,6.07,0,0,1-1.235,6.669l-.988.988a5.685,5.685,0,0,0,0,8.4l3.952,3.952a6.119,6.119,0,0,0,8.4,0l1.235-1.235a6.07,6.07,0,0,1,6.669-1.235.242.242,0,0,1,.247.247,6.137,6.137,0,0,1,3.952,5.434v1.976A6.01,6.01,0,0,0,41.5,88.679H47.43a6.01,6.01,0,0,0,5.928-5.928V80.775a5.874,5.874,0,0,1,3.952-5.434.242.242,0,0,0,.247-.247,6.07,6.07,0,0,1,6.669,1.235l1.235,1.235a6.119,6.119,0,0,0,8.4,0l3.952-3.952a6.121,6.121,0,0,0,0-8.4l-.988-.988a6.07,6.07,0,0,1-1.235-6.669V57.31a6.137,6.137,0,0,1,5.434-3.952H82.5a6.01,6.01,0,0,0,5.928-5.928V41.5C88.926,38.538,86.209,35.821,83,35.821ZM44.713,57.557A12.844,12.844,0,1,1,57.557,44.713,13.078,13.078,0,0,1,44.713,57.557Z" transform="translate(0.735 0.735)"/><path class="b" d="M48.412,90.9H42.484a7.168,7.168,0,0,1-7.163-7.163V81.757a4.747,4.747,0,0,0-3.211-4.446l-.247-.247c-1.976-.741-3.952-.494-5.187.988l-1.235,1.235a7.31,7.31,0,0,1-10.127,0l-3.952-3.952a6.066,6.066,0,0,1-1.976-5.187,7.109,7.109,0,0,1,2.223-5.187l.988-.988c1.482-1.235,1.729-3.458.988-5.434v-.247a4.747,4.747,0,0,0-4.446-3.211H7.163A7.168,7.168,0,0,1,0,47.918V41.99a7.168,7.168,0,0,1,7.163-7.163H9.139a4.747,4.747,0,0,0,4.446-3.211l.247-.247c.741-1.976.494-3.952-.988-5.187l-1.235-1.235a5.766,5.766,0,0,1-2.47-4.94,6.9,6.9,0,0,1,1.976-4.94l3.952-3.952a6.066,6.066,0,0,1,5.187-1.976,7.109,7.109,0,0,1,5.187,2.223l.741.741a4.444,4.444,0,0,0,5.434.988,4.747,4.747,0,0,0,3.211-4.446V7.163A7.168,7.168,0,0,1,41.99,0h5.928a7.168,7.168,0,0,1,7.163,7.163V8.4a4.747,4.747,0,0,0,3.211,4.446l.494.247a4.893,4.893,0,0,0,5.187-.741l1.482-1.235a7.007,7.007,0,0,1,9.88,0l4.446,4.446A6.583,6.583,0,0,1,82,20.5a7.971,7.971,0,0,1-1.976,5.187l-1.235,1.235A4.95,4.95,0,0,0,77.8,32.11l.247.247A4.747,4.747,0,0,0,82.5,35.568H83.98a7.168,7.168,0,0,1,7.163,7.163v5.928a7.168,7.168,0,0,1-7.163,7.163H82.5a4.747,4.747,0,0,0-4.446,3.211v.247a4.895,4.895,0,0,0,.988,5.434l.988.988a6.727,6.727,0,0,1,2.223,5.187,7.971,7.971,0,0,1-1.976,5.187l-3.952,3.952a7.31,7.31,0,0,1-10.127,0l-1.235-1.235a4.95,4.95,0,0,0-5.187-.988l-.247.247A4.747,4.747,0,0,0,56.316,82.5v1.976A8.494,8.494,0,0,1,48.412,90.9ZM29.64,74.347a12.4,12.4,0,0,1,2.964.494h.247a7.121,7.121,0,0,1,4.693,6.669v1.976a4.69,4.69,0,0,0,4.693,4.693h5.928a4.69,4.69,0,0,0,4.693-4.693V81.51a7.121,7.121,0,0,1,4.693-6.669l.247-.247a6.76,6.76,0,0,1,7.9,1.482l1.235,1.235a4.933,4.933,0,0,0,6.669,0l3.952-3.952A4.485,4.485,0,0,0,79.04,69.9a3.983,3.983,0,0,0-1.482-3.211L76.57,65.7a7.058,7.058,0,0,1-1.482-8.151V57.3a7.121,7.121,0,0,1,6.669-4.693h1.482a4.69,4.69,0,0,0,4.693-4.693V41.99A4.69,4.69,0,0,0,83.239,37.3H81.757A7.121,7.121,0,0,1,75.088,32.6l-.247-.247a7.164,7.164,0,0,1,1.482-7.9l1.235-1.235a4.348,4.348,0,0,0,1.482-3.211A3.983,3.983,0,0,0,77.558,16.8L73.112,12.35a4.624,4.624,0,0,0-6.422,0l-1.482,1.235a7.1,7.1,0,0,1-7.9,1.235l-.494-.247A7.121,7.121,0,0,1,52.117,7.9V7.163A4.69,4.69,0,0,0,47.424,2.47H41.99A4.69,4.69,0,0,0,37.3,7.163V8.645A7.121,7.121,0,0,1,32.6,15.314a7.121,7.121,0,0,1-8.151-1.729l-.741-.494A3.983,3.983,0,0,0,20.5,11.609a4.877,4.877,0,0,0-3.458,1.482l-3.952,3.7a4.348,4.348,0,0,0-1.482,3.211,3.983,3.983,0,0,0,1.482,3.211L14.326,24.7a7.164,7.164,0,0,1,1.482,7.9l-.247.247a7.121,7.121,0,0,1-6.669,4.693H7.163A4.69,4.69,0,0,0,2.47,42.237v5.928a4.69,4.69,0,0,0,4.693,4.693H8.645a7.121,7.121,0,0,1,6.669,4.693V57.8a7.476,7.476,0,0,1-1.482,8.151l-.988.988a4.348,4.348,0,0,0-1.482,3.211,4.877,4.877,0,0,0,1.482,3.458L16.8,77.558a4.933,4.933,0,0,0,6.669,0L24.7,76.57A6.988,6.988,0,0,1,29.64,74.347Zm15.808-14.82a14.079,14.079,0,1,1,0-28.158A13.918,13.918,0,0,1,59.527,45.448,14.234,14.234,0,0,1,45.448,59.527Zm0-25.688A11.609,11.609,0,1,0,57.057,45.448,11.6,11.6,0,0,0,45.448,33.839Z"/></svg>