<svg xmlns="http://www.w3.org/2000/svg" width="63.919" height="88.92" viewBox="0 0 63.919 88.92"><defs><style>.a{fill:#fff;}.b{fill:#ef3829;}.c{fill:#222;}.d{fill:#f7f7f7;}</style></defs><g transform="translate(12.79)"><path class="a" d="M46.7,86.95H13.11A7.431,7.431,0,0,1,5.7,79.54V7.91A7.431,7.431,0,0,1,13.11.5H46.7a7.431,7.431,0,0,1,7.41,7.41V79.54A7.278,7.278,0,0,1,46.7,86.95Z" transform="translate(-4.465 0.735)"/><path d="M47.684,88.92H13.6a8.329,8.329,0,0,1-8.4-8.4V8.4A8.487,8.487,0,0,1,13.6,0H47.684a8.329,8.329,0,0,1,8.4,8.4V80.522A8.329,8.329,0,0,1,47.684,88.92ZM13.6,2.47A6.01,6.01,0,0,0,7.67,8.4V80.522A6.01,6.01,0,0,0,13.6,86.45H47.684a6.01,6.01,0,0,0,5.928-5.928V8.4A6.01,6.01,0,0,0,47.684,2.47Z" transform="translate(-5.2)"/><g transform="translate(0.247 73.853)"><path class="b" d="M5.7,30.4v5.928A6.641,6.641,0,0,0,12.369,43H47.69a6.641,6.641,0,0,0,6.669-6.669V30.4Z" transform="translate(-4.712 -29.165)"/><path class="c" d="M48.278,44.967H12.957a7.751,7.751,0,0,1-7.657-7.9V29.9H56.182v7.163A8.124,8.124,0,0,1,48.278,44.967ZM7.523,32.37v4.693A5.482,5.482,0,0,0,12.957,42.5H48.278a5.482,5.482,0,0,0,5.434-5.434V32.37Z" transform="translate(-5.3 -29.9)"/></g><g transform="translate(16.055 7.41)"><g transform="translate(0)"><path d="M23.062,5.47H12.935A1.167,1.167,0,0,1,11.7,4.235,1.13,1.13,0,0,1,12.688,3H22.815A1.167,1.167,0,0,1,24.05,4.235,1.13,1.13,0,0,1,23.062,5.47Z" transform="translate(-11.7 -3)"/></g><g transform="translate(16.796 0.123)"><path d="M19.488,5.4a2.488,2.488,0,0,1-.741-.247.907.907,0,0,1-.247-.741,1.485,1.485,0,0,1,.247-.988,1.194,1.194,0,0,1,1.729,0c.247.247.247.494.247.988,0,.247,0,.741-.247.741a.862.862,0,0,1-.494.247C19.735,5.149,19.735,5.4,19.488,5.4Z" transform="translate(-18.5 -3.05)"/></g></g></g><g transform="translate(0 26.085)"><path class="d" d="M8.705,42.209A23.529,23.529,0,0,1,24.513,32.082a2.4,2.4,0,0,1,2.717,2.47v1.235a2.285,2.285,0,0,0,3.458,2.223L48.472,27.142a2.428,2.428,0,0,0,.247-3.952L32.17,11.334c-1.482-.988-3.7,0-3.7,1.729v1.976a2.375,2.375,0,0,1-1.976,2.223A32.355,32.355,0,0,0,5.741,30.353C-.681,40.233-1.422,53.077,4.506,63.2l1.482-.494a22.411,22.411,0,0,1,2.717-20.5" transform="translate(0.627 -10.001)"/><path d="M5.4,64.01a1.655,1.655,0,0,1-1.976-.741A32.687,32.687,0,0,1,5.649,30.418,32.13,32.13,0,0,1,27.138,16.833a1.062,1.062,0,0,0,.988-.988V13.869A3.21,3.21,0,0,1,30.1,10.9a3.96,3.96,0,0,1,3.7.247L50.356,23.008a3.521,3.521,0,0,1,1.482,2.964,3.766,3.766,0,0,1-1.729,2.964L32.078,39.557a3.365,3.365,0,0,1-3.7,0,3.6,3.6,0,0,1-1.729-3.211V35.111a.986.986,0,0,0-.494-.988c-.247-.247-.494-.247-.988-.247a23.138,23.138,0,0,0-15.067,9.633h0A22.509,22.509,0,0,0,6.637,60.8,2.265,2.265,0,0,1,5.4,64.01ZM31.584,12.634H31.09c-.247,0-.494.247-.741.988V15.6a3.661,3.661,0,0,1-2.964,3.458A29.881,29.881,0,0,0,4.414,59.317a22.912,22.912,0,0,1,4.2-17.29A25.719,25.719,0,0,1,25.162,31.406a3.246,3.246,0,0,1,2.964.741,4.09,4.09,0,0,1,1.235,2.964v1.235c0,.494.247.988.494.988s.741.247,1.235,0L48.874,26.466a1.235,1.235,0,0,0,0-1.976L32.325,12.634Z" transform="translate(-0.022 -10.561)"/></g></svg>