<svg xmlns="http://www.w3.org/2000/svg" width="88.92" height="88.92" viewBox="0 0 88.92 88.92"><defs><style>.a{fill:#f7f7f7;}.b{fill:#ef3829;}</style></defs><g transform="translate(1.235 1.729)"><circle class="a" cx="43.225" cy="43.225" r="43.225"/></g><path d="M44.46,88.92A44.46,44.46,0,1,1,88.92,44.46,44.591,44.591,0,0,1,44.46,88.92Zm0-86.45A41.99,41.99,0,1,0,86.45,44.46,41.955,41.955,0,0,0,44.46,2.47Z"/><g transform="translate(18.738 7.41)"><path d="M49.363,81.3c-.741,0-15.561-2.47-31.863-27.664C1.939,29.182,9.349,3.247,9.349,3l2.223.741c0,.247-7.163,25.194,7.9,48.659C35.037,76.606,49.363,79.076,49.61,79.076Z" transform="translate(-7.586 -3)"/></g><g transform="translate(29.64 2.47)"><path d="M59.918,71.889l-2.47-.494c0-.247,3.458-18.031-12.844-43.966A52.887,52.887,0,0,0,12,3.47L12.494,1a54.231,54.231,0,0,1,34.58,24.947C63.623,52.87,60.165,70.9,59.918,71.889Z" transform="translate(-12 -1)"/></g><g transform="translate(5.681 23.959)"><path d="M14.9,51.2c-7.163,0-12.1-.494-12.6-.741l.247-2.47c.247,0,32.11,3.7,48.906-7.9S78.129,9.947,78.376,9.7L80.6,10.935C80.1,11.676,70.472,30.2,53.182,42.3,42.314,49.714,26.259,51.2,14.9,51.2Z" transform="translate(-2.3 -9.7)"/></g><g transform="translate(28.652 55.822)"><circle class="b" cx="6.175" cy="6.175" r="6.175" transform="translate(1.235 1.235)"/><path d="M19.01,37.42a7.431,7.431,0,0,1-7.41-7.41,7.6,7.6,0,0,1,7.41-7.41,7.6,7.6,0,0,1,7.41,7.41A7.6,7.6,0,0,1,19.01,37.42Zm0-12.6a4.94,4.94,0,1,0,4.94,4.94A4.955,4.955,0,0,0,19.01,24.823Z" transform="translate(-11.6 -22.6)"/></g><g transform="translate(52.117 13.585)"><circle class="b" cx="6.175" cy="6.175" r="6.175" transform="translate(1.235 1.235)"/><path d="M28.51,20.32a7.431,7.431,0,0,1-7.41-7.41A7.6,7.6,0,0,1,28.51,5.5a7.41,7.41,0,1,1,0,14.82Zm0-12.35a4.94,4.94,0,1,0,4.94,4.94A4.955,4.955,0,0,0,28.51,7.97Z" transform="translate(-21.1 -5.5)"/></g></svg>