<svg xmlns="http://www.w3.org/2000/svg" width="91.39" height="62.491" viewBox="0 0 91.39 62.491"><defs><style>.a{fill:#f7f7f7;}.b{fill:#ef3829;}</style></defs><path class="a" d="M8.157.5H81.763A8.041,8.041,0,0,1,89.42,8.157V52.864a8.041,8.041,0,0,1-7.657,7.657H8.157A8.041,8.041,0,0,1,.5,52.864V8.157A7.7,7.7,0,0,1,8.157.5Z" transform="translate(0.735 0.735)"/><path d="M8.892,62.491A9.187,9.187,0,0,1,0,53.6V8.892A8.855,8.855,0,0,1,8.892,0H82.5A9.187,9.187,0,0,1,91.39,8.892V53.6A9.187,9.187,0,0,1,82.5,62.491H8.892Zm0-60.021A6.377,6.377,0,0,0,2.47,8.892V53.6a6.714,6.714,0,0,0,6.422,6.422H82.5A6.714,6.714,0,0,0,88.92,53.6V8.892A6.714,6.714,0,0,0,82.5,2.47Z"/><g transform="translate(0 12.103)"><g transform="translate(1.235 1.235)"><rect class="b" width="88.92" height="10.868"/></g><path d="M91.39,18.238H0V4.9H91.39ZM2.47,15.768H88.92V7.37H2.47Z" transform="translate(0 -4.9)"/></g><g transform="translate(67.925 39.026)"><g transform="translate(1.203 0.988)"><path class="b" d="M30.489,16.2h4.2a2.475,2.475,0,0,1,2.47,2.47v4.446a2.475,2.475,0,0,1-2.47,2.47h-4.2a2.475,2.475,0,0,1-2.47-2.47v-4.2A2.4,2.4,0,0,1,30.489,16.2Z" transform="translate(-27.987 -16.2)"/></g><path d="M35.4,27.409h-4.2A3.638,3.638,0,0,1,27.5,23.7V19.5a3.638,3.638,0,0,1,3.705-3.7h4.2a3.638,3.638,0,0,1,3.7,3.7v4.2A3.8,3.8,0,0,1,35.4,27.409Zm-4.2-9.386a1.167,1.167,0,0,0-1.235,1.235V23.7a1.167,1.167,0,0,0,1.235,1.235h4.2A1.167,1.167,0,0,0,36.639,23.7V19.5A1.167,1.167,0,0,0,35.4,18.27h-4.2Z" transform="translate(-27.5 -15.8)"/></g></svg>