<svg xmlns="http://www.w3.org/2000/svg" width="86.146" height="90.155" viewBox="0 0 86.146 90.155"><defs><style>.a{fill:#f7f7f7;}.b{fill:#ef3829;}.c{fill:#222;}.d{fill:#e9eaeb;}</style></defs><g transform="translate(10.563 0)"><path class="a" d="M21,42.737h0a16.447,16.447,0,0,1-16.3-16.3V16.8A16.447,16.447,0,0,1,21,.5h0A16.447,16.447,0,0,1,37.3,16.8v9.633C37.057,35.327,29.894,42.737,21,42.737Z" transform="translate(-3.465 0.735)"/><path d="M21.737,44.707A17.6,17.6,0,0,1,4.2,27.17V17.537a17.537,17.537,0,0,1,35.074,0V27.17A17.767,17.767,0,0,1,21.737,44.707Zm0-42.237A14.97,14.97,0,0,0,6.67,17.537V27.17a15.067,15.067,0,1,0,30.134,0V17.537A15.289,15.289,0,0,0,21.737,2.47Z" transform="translate(-4.2 0)"/></g><g transform="translate(0 47.424)"><path class="b" d="M50.567,48A5.555,5.555,0,0,0,56,41.336a28.472,28.472,0,0,0-55.328,0A5.555,5.555,0,0,0,6.107,48Z" transform="translate(0.998 -18.612)"/><path class="c" d="M51.489,49.828H6.782a7.933,7.933,0,0,1-5.434-2.47A6.1,6.1,0,0,1,.113,41.924a29.738,29.738,0,0,1,57.8,0,6.1,6.1,0,0,1-1.235,5.434A6.952,6.952,0,0,1,51.489,49.828Zm-22.23-28.4A27.184,27.184,0,0,0,2.83,42.418a4.273,4.273,0,0,0,4.2,5.187H51.736a4.273,4.273,0,0,0,4.2-5.187A27.4,27.4,0,0,0,29.259,21.423Z" transform="translate(0.077 -19.2)"/></g><g transform="translate(39.709 32.604)"><path class="a" d="M38.483,13.8h0a50.051,50.051,0,0,0-19.266,4.446,4.565,4.565,0,0,0-2.717,4.2V45.416c0,9.386,15.561,19.513,21.736,23.218h0C44.411,64.929,59.972,54.8,59.972,45.416V22.445a4.565,4.565,0,0,0-2.717-4.2A46.624,46.624,0,0,0,38.483,13.8Z" transform="translate(-15.265 -12.318)"/><path d="M39.218,70.751h0a.907.907,0,0,1-.741-.247l-.247-.247C28.1,64.082,16,54.943,16,46.3V23.327a5.922,5.922,0,0,1,3.458-5.434A53.812,53.812,0,0,1,38.971,13.2h.247a49.376,49.376,0,0,1,19.76,4.693,6.075,6.075,0,0,1,3.458,5.434V46.3c0,8.892-12.1,17.784-22.23,23.959l-.247.247A.907.907,0,0,1,39.218,70.751Zm0-54.834h0a48.67,48.67,0,0,0-18.772,4.446,3.21,3.21,0,0,0-1.976,2.964V46.3c0,5.928,7.41,13.585,20.748,21.736C52.556,59.883,59.966,52.226,59.966,46.3V23.327a3.21,3.21,0,0,0-1.976-2.964,49.75,49.75,0,0,0-18.772-4.446Z" transform="translate(-16 -13.2)"/></g><g transform="translate(63.174 37.544)"><path class="d" d="M25.5,59.413c4.94-2.964,17.537-10.868,17.537-18.525V22.363A3.942,3.942,0,0,0,41.061,18.9a42.187,42.187,0,0,0-15.314-3.7" transform="translate(-25.5 -15.2)"/></g></svg>