<svg xmlns="http://www.w3.org/2000/svg" width="74.1" height="91.39" viewBox="0 0 74.1 91.39"><defs><style>.a{fill:#ef3829;}.b{fill:#fff;}.c{fill:#e9eaeb;}</style></defs><g transform="translate(58.045 21.057)"><path class="a" d="M26.37,19.374l-.988-.988a4.773,4.773,0,0,1,0-6.916l.988-.988a4.773,4.773,0,0,1,6.916,0l.988.988a4.773,4.773,0,0,1,0,6.916l-.988.988A4.773,4.773,0,0,1,26.37,19.374Z" transform="translate(-22.912 -7.827)"/><path d="M30.663,22.789a7.1,7.1,0,0,1-4.446-1.729l-.988-.988A5.952,5.952,0,0,1,23.5,15.626a7.1,7.1,0,0,1,1.729-4.446l.988-.988a6.437,6.437,0,0,1,8.645,0l.988.988a5.968,5.968,0,0,1,0,8.645l-.988.988A5.655,5.655,0,0,1,30.663,22.789Zm0-11.856a5.179,5.179,0,0,0-2.717.988l-.988.988a3.715,3.715,0,0,0-.988,2.717,5.179,5.179,0,0,0,.988,2.717l.988.988a3.579,3.579,0,0,0,5.187,0l.988-.988a3.581,3.581,0,0,0,0-5.187l-.988-.988A3.43,3.43,0,0,0,30.663,10.933Z" transform="translate(-23.5 -8.525)"/></g><g transform="translate(21.736)"><path class="a" d="M32.765.5H14.24A4.955,4.955,0,0,0,9.3,5.44v.741a4.955,4.955,0,0,0,4.94,4.94h3.952V26.682a4.955,4.955,0,0,0,4.94,4.94h.741a4.955,4.955,0,0,0,4.94-4.94V11.121h3.952a4.955,4.955,0,0,0,4.94-4.94V5.44A4.955,4.955,0,0,0,32.765.5Z" transform="translate(-8.065 0.735)"/><path d="M24.608,33.839h-.741a6.115,6.115,0,0,1-6.175-6.175V13.091H14.975A6.115,6.115,0,0,1,8.8,6.916V6.175A6.115,6.115,0,0,1,14.975,0H33.5a6.115,6.115,0,0,1,6.175,6.175v.741A6.115,6.115,0,0,1,33.5,13.091H30.783V27.417A6.328,6.328,0,0,1,24.608,33.839ZM14.975,2.47a3.8,3.8,0,0,0-3.7,3.7v.741a3.8,3.8,0,0,0,3.7,3.7h5.187v16.8a3.8,3.8,0,0,0,3.7,3.7h.741a3.8,3.8,0,0,0,3.7-3.7v-16.8H33.5a3.8,3.8,0,0,0,3.7-3.7V6.175a3.8,3.8,0,0,0-3.7-3.7Z" transform="translate(-8.8)"/></g><g transform="translate(4.446 21.736)"><circle class="b" cx="32.604" cy="32.604" r="32.604"/></g><g transform="translate(0 17.29)"><path class="c" d="M36.315,79.277A35.939,35.939,0,1,1,72.377,43.462,35.841,35.841,0,0,1,36.315,79.277Zm0-62A26.059,26.059,0,1,0,62.5,43.462,25.986,25.986,0,0,0,36.315,17.28Z" transform="translate(0.735 -6.412)"/><path d="M37.05,81.1A37.05,37.05,0,1,1,74.1,44.05,37,37,0,0,1,37.05,81.1Zm0-71.877A34.58,34.58,0,1,0,71.63,43.8,34.682,34.682,0,0,0,37.05,9.223Zm0,62A27.092,27.092,0,0,1,9.88,44.05a27.417,27.417,0,0,1,54.834,0A27.676,27.676,0,0,1,37.05,71.22Zm0-52.117A24.824,24.824,0,1,0,62,44.05,24.826,24.826,0,0,0,37.05,19.1Z" transform="translate(0 -7)"/></g><g transform="translate(27.911 34.333)"><path class="a" d="M27.849,33.166a19.163,19.163,0,0,0-6.422-3.458c-1.729-.741-2.717-1.235-3.211-1.976a3.688,3.688,0,0,1-.741-2.47,3.688,3.688,0,0,1,.741-2.47,3.078,3.078,0,0,1,2.717-.988,3.539,3.539,0,0,1,2.717,1.235,8.223,8.223,0,0,1,.741,1.482,2.372,2.372,0,0,0,2.223,1.729h2.47c.247-.247.741-.494.741-.741a7.956,7.956,0,0,0-1.729-4.94,8.233,8.233,0,0,0-5.434-2.717V14.394a1.283,1.283,0,0,0-.988-.494h-.988c-.494,0-.741.247-.988.741V18.1a8.646,8.646,0,0,0-5.681,2.47,6.872,6.872,0,0,0-1.976,5.187,7.689,7.689,0,0,0,1.976,5.434,19.163,19.163,0,0,0,6.422,3.458,9.255,9.255,0,0,1,3.211,1.729,4.388,4.388,0,0,1,.988,2.47,2.864,2.864,0,0,1-.988,2.47,4.5,4.5,0,0,1-2.717.988,4.964,4.964,0,0,1-3.211-.988,3.773,3.773,0,0,1-.988-2.47,1.641,1.641,0,0,0-1.235-.988H12.041a3.41,3.41,0,0,0-.741.988,6.9,6.9,0,0,0,2.223,5.434,9.909,9.909,0,0,0,5.928,2.47v3.211a5.4,5.4,0,0,0,1.235.741h.741a1.873,1.873,0,0,0,.988-.494V47a8.646,8.646,0,0,0,5.681-2.47c1.482-1.235,1.976-3.211,1.976-5.434A7.64,7.64,0,0,0,27.849,33.166Z" transform="translate(-11.3 -13.9)"/></g></svg>