<svg xmlns="http://www.w3.org/2000/svg" width="84.765" height="60.762" viewBox="0 0 84.765 60.762"><defs><style>.a{fill:#f7f7f7;}.b{fill:#e9eaeb;}.c{fill:#222;}.d{fill:#ef3829;}</style></defs><g transform="translate(47.918 7.657)"><g transform="translate(6.621)"><path class="a" d="M32.48,29.535h0a9.909,9.909,0,0,1-9.88-9.88V13.48A9.909,9.909,0,0,1,32.48,3.6h0a9.909,9.909,0,0,1,9.88,9.88v5.928A9.964,9.964,0,0,1,32.48,29.535Z" transform="translate(-21.365 -2.365)"/><path d="M33.215,31.5A11.069,11.069,0,0,1,22.1,20.39V14.215a11.115,11.115,0,1,1,22.23,0v5.928A11.125,11.125,0,0,1,33.215,31.5Zm0-25.935a8.591,8.591,0,0,0-8.645,8.645v5.928a8.591,8.591,0,0,0,8.645,8.645,8.752,8.752,0,0,0,8.645-8.645V14.215A8.752,8.752,0,0,0,33.215,5.57Z" transform="translate(-22.1 -3.1)"/></g><g transform="translate(0 29.146)"><path class="b" d="M50.826,32.69a3.2,3.2,0,0,0,3.211-3.952A17.294,17.294,0,0,0,36.994,15.4,17.294,17.294,0,0,0,19.951,28.738a3.326,3.326,0,0,0,3.211,3.952Z" transform="translate(-18.764 -14.165)"/><path class="c" d="M51.481,34.66H24.064a5.253,5.253,0,0,1-3.7-1.729,4.015,4.015,0,0,1-.741-3.7A18.568,18.568,0,0,1,37.9,14.9,18.568,18.568,0,0,1,56.174,29.226a4.868,4.868,0,0,1-.741,3.7A6.36,6.36,0,0,1,51.481,34.66ZM37.9,17.123a16.131,16.131,0,0,0-15.808,12.6,1.637,1.637,0,0,0,.494,1.729,2.242,2.242,0,0,0,1.729.741H51.728a2.242,2.242,0,0,0,1.729-.741,2.084,2.084,0,0,0,.494-1.729A16.835,16.835,0,0,0,37.9,17.123Z" transform="translate(-19.419 -14.9)"/></g></g><g transform="translate(0 7.657)"><g transform="translate(6.374)"><path class="a" d="M12.98,29.535h0a9.909,9.909,0,0,1-9.88-9.88V13.48A9.909,9.909,0,0,1,12.98,3.6h0a9.909,9.909,0,0,1,9.88,9.88v5.928A9.666,9.666,0,0,1,12.98,29.535Z" transform="translate(-1.865 -2.365)"/><path d="M13.715,31.5A11.069,11.069,0,0,1,2.6,20.39V14.215a11.115,11.115,0,0,1,22.23,0v5.928A10.976,10.976,0,0,1,13.715,31.5Zm0-25.935A8.591,8.591,0,0,0,5.07,14.215v5.928a8.591,8.591,0,0,0,8.645,8.645,8.752,8.752,0,0,0,8.645-8.645V14.215A8.439,8.439,0,0,0,13.715,5.57Z" transform="translate(-2.6 -3.1)"/></g><g transform="translate(0 29.146)"><path class="b" d="M31.426,32.69a3.2,3.2,0,0,0,3.211-3.952A17.294,17.294,0,0,0,17.594,15.4,17.294,17.294,0,0,0,.551,28.738,3.326,3.326,0,0,0,3.762,32.69Z" transform="translate(0.636 -14.165)"/><path class="c" d="M32.081,34.66H4.664a5.253,5.253,0,0,1-3.7-1.729,4.015,4.015,0,0,1-.741-3.7A18.568,18.568,0,0,1,18.5,14.9,18.568,18.568,0,0,1,36.774,29.226a4.868,4.868,0,0,1-.741,3.7A6.36,6.36,0,0,1,32.081,34.66ZM18.249,17.123A16.131,16.131,0,0,0,2.441,29.72a1.637,1.637,0,0,0,.494,1.729,2.242,2.242,0,0,0,1.729.741H32.081a2.242,2.242,0,0,0,1.729-.741A2.084,2.084,0,0,0,34.3,29.72,16.618,16.618,0,0,0,18.249,17.123Z" transform="translate(-0.019 -14.9)"/></g></g><g transform="translate(19.271)"><g transform="translate(7.851)"><path class="a" d="M24.1,33.1h0a12.65,12.65,0,0,1-12.6-12.6V13.1A12.65,12.65,0,0,1,24.1.5h0a12.65,12.65,0,0,1,12.6,12.6v7.41A12.814,12.814,0,0,1,24.1,33.1Z" transform="translate(-10.265 0.735)"/><path d="M24.832,35.074A13.809,13.809,0,0,1,11,21.242v-7.41a13.832,13.832,0,0,1,27.664,0v7.41A14.135,14.135,0,0,1,24.832,35.074Zm0-32.6A11.332,11.332,0,0,0,13.47,13.832v7.41a11.362,11.362,0,1,0,22.724,0v-7.41A11.491,11.491,0,0,0,24.832,2.47Z" transform="translate(-11)"/></g><g transform="translate(0 36.556)"><path class="d" d="M46.877,37.036a4.22,4.22,0,0,0,4.2-4.94A21.745,21.745,0,0,0,29.834,15.3,22.022,22.022,0,0,0,8.345,31.849a4.22,4.22,0,0,0,4.2,4.94H46.877Z" transform="translate(-7.163 -14.065)"/><path class="c" d="M47.535,39.006H13.2A5.276,5.276,0,0,1,9,37.03a4.889,4.889,0,0,1-.988-4.446,23.1,23.1,0,0,1,44.954,0,4.889,4.889,0,0,1-.988,4.446A7.357,7.357,0,0,1,47.535,39.006ZM30.492,17.023A20.365,20.365,0,0,0,10.485,32.831a3.005,3.005,0,0,0,2.964,3.7H47.782a3.43,3.43,0,0,0,2.47-1.235,2.872,2.872,0,0,0,.494-2.47A20.851,20.851,0,0,0,30.492,17.023Z" transform="translate(-7.822 -14.8)"/></g></g></svg>