<svg xmlns="http://www.w3.org/2000/svg" width="71.376" height="88.92" viewBox="0 0 71.376 88.92"><defs><style>.a{fill:#f7f7f7;}.b{fill:#ef3829;}</style></defs><path class="a" d="M35.107.5h0A82.334,82.334,0,0,0,4.586,7.71,6.976,6.976,0,0,0,.5,14.2V50.487c0,14.9,24.513,30.521,34.366,36.289v.24h0v-.24c9.853-5.768,34.366-21.629,34.366-36.289V14.2A6.976,6.976,0,0,0,65.147,7.71,79.9,79.9,0,0,0,35.107.5Z" transform="translate(0.702 0.702)"/><path d="M35.808,88.92h0c-.481,0-.481,0-.721-.24-.24,0-.24-.24-.481-.24C18.745,78.826,0,64.647,0,51.189V14.9A8.562,8.562,0,0,1,4.806,7.21,83.464,83.464,0,0,1,35.328,0h.481A85.872,85.872,0,0,1,66.57,7.21a8.562,8.562,0,0,1,4.806,7.69V51.189c0,13.458-18.745,27.637-34.607,37.25l-.24.24A.883.883,0,0,1,35.808,88.92Zm0-86.517h0A79.659,79.659,0,0,0,5.768,9.373,6.28,6.28,0,0,0,2.4,14.9V51.189C2.4,60.8,14.179,73.3,35.808,86.276,57.2,73.3,69.213,60.8,69.213,51.189V14.9a6.28,6.28,0,0,0-3.365-5.527A81.834,81.834,0,0,0,35.808,2.4Z"/><g transform="translate(5.287 5.527)"><path class="b" d="M32.721,78.963C24.069,73.676,2.2,59.737,2.2,46.52v-32.2A6.422,6.422,0,0,1,5.8,8.548,68.952,68.952,0,0,1,32.721,2.3" transform="translate(-2.2 -2.3)"/></g></svg>