<svg xmlns="http://www.w3.org/2000/svg" width="77.915" height="88.92" viewBox="0 0 77.915 88.92"><defs><style>.a{fill:#ef3829;}.b{fill:#222;}.c{fill:#f7f7f7;}</style></defs><g transform="translate(12.129 16.298)"><path class="a" d="M17.611,8.538V26.514H7.066a1.518,1.518,0,0,0-1.2,2.4L30.074,57.192a1.348,1.348,0,0,0,2.157,0L56.439,29.15a1.457,1.457,0,0,0-1.2-2.4H44.695V8.538A1.546,1.546,0,0,0,43.257,7.1H19.049A1.546,1.546,0,0,0,17.611,8.538Z" transform="translate(-4.335 -6.141)"/><path class="b" d="M32,59.429a2.18,2.18,0,0,1-1.917-.959L5.634,30.188a2.148,2.148,0,0,1-.24-2.636,2.636,2.636,0,0,1,2.4-1.438h9.587V9.336A2.66,2.66,0,0,1,20.015,6.7H44.7a2.66,2.66,0,0,1,2.636,2.636V26.114h9.347A2.537,2.537,0,0,1,58.6,30.428L33.916,58.47A2.959,2.959,0,0,1,32,59.429ZM7.791,28.271h0c-.24.24-.24.24-.24.479L31.759,56.792h.479L56.446,28.75v-.24a.235.235,0,0,0-.24-.24H44.462V9.1c0-.24,0-.24-.24-.24H19.775c-.24,0-.24,0-.24.24V28.271H7.791Z" transform="translate(-5.061 -6.7)"/></g><g transform="translate(24.207 0)"><path class="a" d="M15.154.5H33.609a4.551,4.551,0,0,1,4.554,4.554h0a4.551,4.551,0,0,1-4.554,4.554H15.154A4.551,4.551,0,0,1,10.6,5.054h0A4.551,4.551,0,0,1,15.154.5Z" transform="translate(-9.402 0.938)"/><path class="b" d="M34.307,11.4H15.852A5.832,5.832,0,0,1,10.1,5.652,5.832,5.832,0,0,1,15.852-.1H34.307A5.832,5.832,0,0,1,40.06,5.652,5.678,5.678,0,0,1,34.307,11.4ZM15.852,2.536A3.277,3.277,0,0,0,12.5,5.892a3.277,3.277,0,0,0,3.355,3.355H34.307a3.277,3.277,0,0,0,3.355-3.355,3.277,3.277,0,0,0-3.355-3.355Z" transform="translate(-10.1 0.1)"/></g><g transform="translate(0 60.878)"><path class="c" d="M76.238,28.676V48.33a2.769,2.769,0,0,1-2.876,2.876H3.376A2.769,2.769,0,0,1,.5,48.33V28.676A2.769,2.769,0,0,1,3.376,25.8H7.93a2.769,2.769,0,0,1,2.876,2.876v9.587a2.769,2.769,0,0,0,2.876,2.876H62.816a2.769,2.769,0,0,0,2.876-2.876V28.676A2.769,2.769,0,0,1,68.568,25.8h4.554A2.974,2.974,0,0,1,76.238,28.676Z" transform="translate(0.698 -24.602)"/><path class="b" d="M74.06,53.342H4.074A4.2,4.2,0,0,1,0,49.268V29.374A4.2,4.2,0,0,1,4.074,25.3H8.628A4.2,4.2,0,0,1,12.7,29.374v9.587a1.638,1.638,0,0,0,1.678,1.678H63.514a1.638,1.638,0,0,0,1.678-1.678V29.374A4.2,4.2,0,0,1,69.266,25.3H73.82a4.2,4.2,0,0,1,4.075,4.074V49.028A3.915,3.915,0,0,1,74.06,53.342ZM4.074,27.7A1.8,1.8,0,0,0,2.4,29.374V49.028a1.71,1.71,0,0,0,1.678,1.917H74.06a1.638,1.638,0,0,0,1.678-1.678V29.374A1.638,1.638,0,0,0,74.06,27.7H69.506a1.638,1.638,0,0,0-1.678,1.678v9.587a4.2,4.2,0,0,1-4.074,4.075H14.381a4.2,4.2,0,0,1-4.074-4.075V29.374A1.638,1.638,0,0,0,8.628,27.7Z" transform="translate(0 -25.3)"/></g></svg>