<svg xmlns="http://www.w3.org/2000/svg" width="88.921" height="59.28" viewBox="0 0 88.921 59.28"><defs><style>.a{fill:#fff;}.b{fill:#222;}.c{fill:#ef3829;}</style></defs><g transform="translate(0 0.494)"><path class="a" d="M2.238,34.933A13.459,13.459,0,0,1,3.473,19.866C10.389,12.209,23.974.6,43.734.6,63.247.6,76.585,11.962,83.5,19.866a13.421,13.421,0,0,1,1.482,15.808c-5.434,8.892-17.29,21.242-41.249,21.242C19.528,56.669,7.672,43.825,2.238,34.933Z" transform="translate(0.76 0.635)"/><path class="b" d="M44.48,58.639C19.039,58.639,6.936,44.56,2,36.409H2A14.165,14.165,0,0,1,3.478,19.86C9.9,12.45,23.979.1,44.48.1,64.734.1,78.813,12.45,85.235,19.613A14.492,14.492,0,0,1,86.717,36.9C81.777,45.054,69.674,58.639,44.48,58.639ZM3.972,35.174c5.681,9.633,17.29,21.242,40.508,21.242,22.724,0,34.58-11.115,40.261-20.748a12.287,12.287,0,0,0-1.235-14.326C77.331,14.179,63.993,2.57,44.48,2.57c-19.76,0-33.1,11.856-39.273,19.019A11.907,11.907,0,0,0,3.972,35.174Z" transform="translate(0.014 -0.1)"/></g><g transform="translate(21.028 5.928)"><circle class="c" cx="22.477" cy="22.477" r="22.477" transform="translate(1.235 1.482)"/><path class="b" d="M32.212,49.724A23.712,23.712,0,1,1,55.924,26.012,23.718,23.718,0,0,1,32.212,49.724Zm0-44.954A21.242,21.242,0,1,0,53.454,26.012,21.241,21.241,0,0,0,32.212,4.77Z" transform="translate(-8.5 -2.3)"/></g><g transform="translate(37.33 22.23)"><path d="M22.51,8.9h-.988a4.173,4.173,0,0,1,.741,2.47,4.955,4.955,0,0,1-4.94,4.94,7.212,7.212,0,0,1-2.223-.494v.741a7.41,7.41,0,1,0,14.82,0A7.335,7.335,0,0,0,22.51,8.9Z" transform="translate(-15.1 -8.9)"/></g><g transform="translate(34.119 20.007)"><circle class="a" cx="4.693" cy="4.693" r="4.693"/></g><g transform="translate(16.582 0)"><path d="M63.51,59.18a2.668,2.668,0,0,1-1.729-.741L7.441,4.1a2.388,2.388,0,0,1,0-3.458,2.388,2.388,0,0,1,3.458,0l54.34,54.34a2.388,2.388,0,0,1,0,3.458A2.242,2.242,0,0,1,63.51,59.18Z" transform="translate(-6.7 0.1)"/></g></svg>