<svg xmlns="http://www.w3.org/2000/svg" width="88.92" height="74.347" viewBox="0 0 88.92 74.347"><defs><style>.a{fill:#f7f7f7;}.b{fill:#fff;}.c{fill:#222;}.d{fill:#ef3829;}</style></defs><path class="a" d="M17.543,14.826H7.663a7.007,7.007,0,0,0-4.2,1.729L2.229,18.037A5.088,5.088,0,0,0,.5,22.236V65.214a6.445,6.445,0,0,0,1.729,4.2l1.235,1.235a5.785,5.785,0,0,0,4.2,1.729H79.54a6.445,6.445,0,0,0,4.2-1.729l1.235-1.235a5.785,5.785,0,0,0,1.729-4.2V22.236a6.445,6.445,0,0,0-1.729-4.2l-.988-1.482a5.785,5.785,0,0,0-4.2-1.729H72.13a6.447,6.447,0,0,1-4.94-2.47L60.521,2.97A6.447,6.447,0,0,0,55.581.5H35.574a5.784,5.784,0,0,0-4.446,1.976L22.236,12.85A6.748,6.748,0,0,1,17.543,14.826Z" transform="translate(0.735 0.735)"/><path d="M80.522,74.347H8.4a7.109,7.109,0,0,1-5.187-2.223L1.976,70.889A7.343,7.343,0,0,1,0,65.949V22.971a7.109,7.109,0,0,1,2.223-5.187l1.235-1.235a7.7,7.7,0,0,1,5.187-2.223h9.88a4.444,4.444,0,0,0,3.7-1.729l8.4-10.127A7.933,7.933,0,0,1,36.062,0H56.069A8.148,8.148,0,0,1,62,2.964l6.916,9.386a5.156,5.156,0,0,0,3.952,1.976h7.657a7.109,7.109,0,0,1,5.187,2.223l1.235,1.235a7.971,7.971,0,0,1,1.976,5.187V65.949A7.109,7.109,0,0,1,86.7,71.136l-1.235,1.235A7.343,7.343,0,0,1,80.522,74.347ZM8.4,16.8A4.877,4.877,0,0,0,4.94,18.278L3.7,19.513A5.9,5.9,0,0,0,2.47,22.971V65.949a4.877,4.877,0,0,0,1.482,3.458l1.235,1.235a4.877,4.877,0,0,0,3.458,1.482H80.522a4.877,4.877,0,0,0,3.458-1.482l1.235-1.235A4.877,4.877,0,0,0,86.7,65.949V22.971a4.877,4.877,0,0,0-1.482-3.458L83.98,18.278A4.877,4.877,0,0,0,80.522,16.8H72.865a8.148,8.148,0,0,1-5.928-2.964L60.268,4.446A5.156,5.156,0,0,0,56.316,2.47H36.309A4.444,4.444,0,0,0,32.6,4.2L23.712,14.326a7.933,7.933,0,0,1-5.434,2.47Z"/><g transform="translate(21.736 17.784)"><circle class="b" cx="22.23" cy="22.23" r="22.23" transform="translate(1.235 1.235)"/><path class="c" d="M32.265,54.13A23.465,23.465,0,1,1,55.73,30.665,23.454,23.454,0,0,1,32.265,54.13Zm0-44.46A20.995,20.995,0,1,0,53.26,30.665,20.977,20.977,0,0,0,32.265,9.67Z" transform="translate(-8.8 -7.2)"/></g><g transform="translate(27.664 23.712)"><path class="d" d="M28.1,10.1a8.4,8.4,0,0,0-2.47.247,9.958,9.958,0,0,1,1.482,5.434A10.542,10.542,0,0,1,16.493,26.4,9.459,9.459,0,0,1,11.8,25.167v1.482a16.549,16.549,0,0,0,33.1,0C44.4,17.51,37.241,10.1,28.1,10.1Z" transform="translate(-10.318 -8.865)"/><path class="c" d="M28.984,44.921A17.868,17.868,0,0,1,11.2,27.137V25.655l.247-1.729,1.482.741a8.727,8.727,0,0,0,4.2.988,9.382,9.382,0,0,0,9.386-9.386,10.216,10.216,0,0,0-1.235-4.693l-.988-1.482,1.729-.247A10.132,10.132,0,0,1,28.737,9.6,17.868,17.868,0,0,1,46.521,27.384,17.446,17.446,0,0,1,28.984,44.921ZM13.67,27.878A15.318,15.318,0,1,0,28.984,12.07H28.49a14.424,14.424,0,0,1,.988,4.446A11.859,11.859,0,0,1,17.622,28.372,19.2,19.2,0,0,1,13.67,27.878Z" transform="translate(-11.2 -9.6)"/></g></svg>