<svg xmlns="http://www.w3.org/2000/svg" width="69.654" height="91.403" viewBox="0 0 69.654 91.403"><defs><style>.a{fill:#ef3829;}.b{fill:#f7f7f7;}.c{fill:#fff;}</style></defs><g transform="translate(0 9.646)"><path class="a" d="M64.72,4.3H3.711A3.223,3.223,0,0,0,.5,7.264V80.623a3.063,3.063,0,0,0,3.211,2.964H64.473a3.223,3.223,0,0,0,3.211-2.964V7.511A3.063,3.063,0,0,0,64.72,4.3Z" transform="translate(0.735 -3.312)"/><path d="M65.455,85.657H4.446A4.382,4.382,0,0,1,0,81.458V8.1A4.359,4.359,0,0,1,4.446,3.9H65.208a4.375,4.375,0,0,1,4.446,4.2V81.7A4.116,4.116,0,0,1,65.455,85.657ZM4.446,6.123C3.211,6.123,2.717,7.358,2.47,8.1V81.211a1.948,1.948,0,0,0,1.976,1.976H65.208a1.948,1.948,0,0,0,1.976-1.976V8.1A2.12,2.12,0,0,0,65.208,6.37H4.446Z" transform="translate(0 -3.9)"/></g><g transform="translate(6.422 16.068)"><path class="b" d="M5.689,6.9h49.4a2.475,2.475,0,0,1,2.47,2.47V71.12a2.475,2.475,0,0,1-2.47,2.47H5.689a2.475,2.475,0,0,1-2.47-2.47V9.617A2.4,2.4,0,0,1,5.689,6.9Z" transform="translate(-1.737 -5.912)"/><path d="M55.7,75.66H6.3a3.8,3.8,0,0,1-3.7-3.705V10.2A3.8,3.8,0,0,1,6.3,6.5H55.7a3.8,3.8,0,0,1,3.7,3.7v61.75A3.5,3.5,0,0,1,55.7,75.66ZM6.552,8.723A1.594,1.594,0,0,0,5.07,10.2v61.75A1.167,1.167,0,0,0,6.3,73.19H55.7a1.167,1.167,0,0,0,1.235-1.235V10.2A1.167,1.167,0,0,0,55.7,8.97H6.552Z" transform="translate(-2.6 -6.5)"/></g><g transform="translate(16.055 0)"><path class="c" d="M37.381,8.414H30.959V7.179A6.867,6.867,0,0,0,25.031.51a6.614,6.614,0,0,0-7.163,5.928V8.414H11.94A4.955,4.955,0,0,0,7,13.354v3.458a2.475,2.475,0,0,0,2.47,2.47H39.6a2.475,2.475,0,0,0,2.47-2.47v-3.7c.247-2.717-1.729-4.693-4.693-4.693Z" transform="translate(-5.765 0.738)"/><path d="M40.586,21.5H10.452A3.9,3.9,0,0,1,6.5,17.545V14.087a6.115,6.115,0,0,1,6.175-6.175h4.94V7.171a7.943,7.943,0,0,1,8.4-7.163,8.179,8.179,0,0,1,6.916,7.9h5.187a5.912,5.912,0,0,1,6.175,5.928v3.952A3.8,3.8,0,0,1,40.586,21.5ZM12.675,10.382a3.8,3.8,0,0,0-3.7,3.7v3.458A1.167,1.167,0,0,0,10.2,18.78H40.339a1.167,1.167,0,0,0,1.235-1.235v-3.7a3.443,3.443,0,0,0-3.7-3.458H30.212V7.912a5.561,5.561,0,0,0-4.94-5.434,4.953,4.953,0,0,0-5.187,4.693v3.211Z" transform="translate(-6.5 0.005)"/></g><g transform="translate(13.417 33.094)"><g transform="translate(7.578 1.993)"><path d="M36.164,16.67H9.241c-.494,0-.741-.494-.741-1.235s.247-1.235.741-1.235H36.164c.494,0,.741.494.741,1.235C36.9,15.929,36.658,16.67,36.164,16.67Z" transform="translate(-8.5 -14.2)"/></g><g transform="translate(7.578 10.391)"><path d="M42.833,20.07H9.488A1.13,1.13,0,0,1,8.5,18.835,1.13,1.13,0,0,1,9.488,17.6H42.833a1.13,1.13,0,0,1,.988,1.235A1.13,1.13,0,0,1,42.833,20.07Z" transform="translate(-8.5 -17.6)"/></g><g transform="translate(7.578 19.036)"><path d="M29,23.57H9.488A1.13,1.13,0,0,1,8.5,22.335,1.13,1.13,0,0,1,9.488,21.1H29a1.13,1.13,0,0,1,.988,1.235C29.989,22.829,29.495,23.57,29,23.57Z" transform="translate(-8.5 -21.1)"/></g><g transform="translate(0 0)"><g transform="translate(0 0)"><g transform="translate(0 0)"><path class="a" d="M-439.049-483.52l.741.741a.463.463,0,0,0,.741,0l2.964-3.211a.463.463,0,0,1,.741,0l.494.494c.247.247.247.494,0,.494l-3.952,4.2a.463.463,0,0,1-.741,0l-1.729-1.729a.463.463,0,0,1,0-.741l.494-.494C-439.543-483.767-439.3-483.767-439.049-483.52Z" transform="translate(439.975 486.175)"/></g></g></g><g transform="translate(0 7.904)"><g transform="translate(0 0)"><g transform="translate(0 0)"><g transform="translate(0)"><path class="a" d="M-439.049-480.32l.741.741a.463.463,0,0,0,.741,0l2.964-3.211a.463.463,0,0,1,.741,0l.494.494c.247.247.247.494,0,.494l-3.952,4.2a.463.463,0,0,1-.741,0l-1.729-1.729a.463.463,0,0,1,0-.741l.494-.494C-439.543-480.567-439.3-480.567-439.049-480.32Z" transform="translate(439.975 482.975)"/></g></g></g></g><g transform="translate(0 15.808)"><g transform="translate(0 0)"><g transform="translate(0 0)"><g transform="translate(0)"><path class="a" d="M-439.049-477.12l.741.741a.463.463,0,0,0,.741,0l2.964-3.211a.463.463,0,0,1,.741,0l.494.494c.247.247.247.494,0,.494l-3.952,4.2a.463.463,0,0,1-.741,0l-1.729-1.729a.463.463,0,0,1,0-.741l.494-.494C-439.543-477.367-439.3-477.367-439.049-477.12Z" transform="translate(439.975 479.775)"/></g></g></g></g></g></svg>