<svg xmlns="http://www.w3.org/2000/svg" width="88.92" height="66.106" viewBox="0 0 88.92 66.106"><defs><style>.a{fill:#ef3829;}.b{fill:#222;}</style></defs><g transform="translate(35.568 11.856)"><path class="a" d="M16.382,45.127H34.413V56a1.426,1.426,0,0,0,2.47.988l28.4-24.453a1.389,1.389,0,0,0,0-2.223l-28.4-24.7a1.483,1.483,0,0,0-2.47.988V17.216H16.382A1.594,1.594,0,0,0,14.9,18.7V43.4A1.652,1.652,0,0,0,16.382,45.127Z" transform="translate(-13.665 -4.115)"/><path class="b" d="M67.752,31.976a2.246,2.246,0,0,1-.988,1.976L38.359,58.4a3.154,3.154,0,0,1-2.964.494,2.717,2.717,0,0,1-1.482-2.47V46.8h-16.8A2.741,2.741,0,0,1,14.4,44.079v-24.7a2.741,2.741,0,0,1,2.717-2.717h16.8V7.523a2.615,2.615,0,0,1,4.446-1.976L66.764,30A2.246,2.246,0,0,1,67.752,31.976ZM36.383,56.429h0c.247.247.247.247.494.247l28.4-24.453v-.494L36.877,7.276H36.63a.242.242,0,0,0-.247.247V19.132H17.117c-.247,0-.247,0-.247.247v24.7c0,.247,0,.247.247.247H36.383Z" transform="translate(-14.4 -4.796)"/></g><g transform="translate(0 0)"><path class="a" d="M51.419,38.763v-24.7a1.594,1.594,0,0,0-1.482-1.482H31.906V1.96a1.426,1.426,0,0,0-2.47-.988L1.031,25.425a1.389,1.389,0,0,0,0,2.223L29.436,52.1a1.483,1.483,0,0,0,2.47-.988V40.245H49.937A1.594,1.594,0,0,0,51.419,38.763Z" transform="translate(0.698 0.767)"/><path class="b" d="M.988,25.2,29.393.747A2.255,2.255,0,0,1,32.11.253a2.717,2.717,0,0,1,1.482,2.47v9.386h16.8A2.741,2.741,0,0,1,53.1,14.826v24.7a2.741,2.741,0,0,1-2.717,2.717h-16.8v9.633a2.615,2.615,0,0,1-4.446,1.976L.988,29.152a2.47,2.47,0,0,1,0-3.952ZM31.369,39.773H50.635c.247,0,.247,0,.247-.247v-24.7c0-.247,0-.247-.247-.247H31.369V2.723a.242.242,0,0,0-.247-.247h-.247L2.47,26.929v.494l28.4,24.453h.247a.242.242,0,0,0,.247-.247V39.773Z" transform="translate(0 0.004)"/></g></svg>