<?xml version="1.0" encoding="UTF-8" ?>
<!DOCTYPE svg PUBLIC "-//W3C//DTD SVG 1.1//EN" "http://www.w3.org/Graphics/SVG/1.1/DTD/svg11.dtd">
<svg width="122pt" height="89pt" viewBox="0 0 122 89" version="1.1" xmlns="http://www.w3.org/2000/svg">
<g id="#fbfbfbff">
<path fill="#fbfbfb" opacity="1.00" d=" M 49.12 16.67 C 50.32 14.11 53.07 11.99 56.00 12.34 C 71.02 12.36 86.03 12.35 101.05 12.34 C 103.94 12.06 106.72 14.15 107.87 16.70 C 111.94 19.99 116.10 23.17 120.22 26.41 C 120.43 27.96 120.63 29.52 120.80 31.08 C 92.57 31.13 64.35 31.14 36.12 31.08 C 36.29 29.53 36.50 27.99 36.69 26.45 C 40.82 23.17 45.06 20.02 49.12 16.67 Z" />
<path fill="#fbfbfb" opacity="1.00" d=" M 52.48 47.26 C 53.08 48.41 53.67 49.58 54.18 50.78 C 57.90 54.73 64.32 54.77 68.15 50.96 C 68.60 49.74 69.10 48.54 69.64 47.36 C 70.90 49.38 71.84 51.87 74.26 52.80 C 77.92 54.88 82.46 53.71 85.42 50.95 C 85.78 49.62 86.54 48.47 87.40 47.41 C 87.91 48.57 88.37 49.75 88.80 50.95 C 91.83 53.53 96.25 54.93 99.95 52.87 C 102.34 52.00 103.25 49.53 104.34 47.47 C 104.64 47.95 105.23 48.91 105.52 49.39 C 106.83 52.81 110.75 53.67 113.99 54.11 C 113.96 63.75 114.02 73.40 113.99 83.04 C 114.11 84.70 113.53 86.55 111.86 87.22 C 110.09 87.52 108.29 87.21 106.50 87.32 C 107.86 85.47 107.25 83.15 107.40 81.05 C 107.29 75.73 107.52 70.40 107.30 65.08 C 107.45 63.20 105.70 62.22 104.52 61.11 C 104.61 60.85 104.80 60.34 104.90 60.09 C 99.99 60.03 95.08 60.01 90.18 60.11 C 90.27 60.37 90.46 60.89 90.56 61.15 C 89.52 62.24 87.83 63.16 87.91 64.90 C 87.39 72.46 88.49 80.17 87.42 87.65 C 73.28 87.30 59.12 87.68 44.97 87.47 C 42.98 87.66 41.15 85.97 41.24 83.96 C 41.06 73.85 41.29 63.73 41.14 53.62 C 44.69 54.38 48.33 53.38 50.93 50.83 C 51.40 49.62 51.92 48.43 52.48 47.26 M 62.22 60.13 C 62.31 60.39 62.50 60.93 62.59 61.20 C 61.55 62.27 59.93 63.20 60.00 64.91 C 59.82 68.30 59.85 71.71 59.98 75.11 C 59.87 77.31 61.83 79.38 64.05 79.30 C 69.05 79.41 74.05 79.39 79.05 79.30 C 80.90 79.38 82.64 77.84 82.81 76.01 C 83.06 72.64 82.95 69.25 82.90 65.88 C 83.08 63.57 81.14 62.01 80.12 60.16 C 74.16 59.96 68.19 60.02 62.22 60.13 Z" />
<path fill="#fbfbfb" opacity="1.00" d=" M 64.18 63.34 C 69.06 63.19 73.96 63.15 78.83 63.37 C 81.49 63.75 80.47 67.16 80.72 69.01 C 80.45 71.58 81.39 74.55 79.87 76.83 C 74.61 77.41 69.26 77.12 63.97 77.01 C 62.43 77.18 62.08 75.26 62.16 74.12 C 62.09 71.38 62.07 68.63 62.19 65.89 C 61.99 64.63 62.83 63.32 64.18 63.34 Z" />
<path fill="#fbfbfb" opacity="1.00" d=" M 90.37 64.29 C 92.09 62.59 94.82 63.60 96.99 63.30 C 99.52 63.60 102.49 62.61 104.74 64.12 C 105.54 69.01 104.92 74.02 105.12 78.96 C 104.94 81.86 105.70 84.97 104.34 87.66 C 99.76 87.43 95.16 87.41 90.58 87.68 C 89.66 84.89 90.27 81.91 90.14 79.04 C 90.29 74.13 89.83 69.18 90.37 64.29 Z" />
</g>
<g id="#050405ff">
<path fill="#050405" opacity="1.00" d=" M 52.25 0.00 L 104.54 0.00 C 106.18 3.40 105.56 7.24 105.62 10.88 C 107.91 12.65 110.37 14.31 112.03 16.74 C 115.24 19.53 118.67 22.05 122.00 24.69 L 122.00 47.11 C 121.75 47.72 121.26 48.92 121.02 49.53 C 119.74 51.25 118.03 52.55 116.26 53.71 C 116.16 63.81 116.38 73.91 116.17 84.01 C 116.31 86.13 114.76 87.68 113.33 89.00 L 41.93 89.00 C 40.52 87.68 38.92 86.17 39.03 84.06 C 38.79 73.63 39.10 63.19 38.90 52.75 C 36.66 49.94 34.17 46.86 34.05 43.10 C 33.94 38.37 33.98 33.63 34.03 28.90 C 34.17 27.63 33.92 26.07 35.04 25.17 C 38.29 22.15 42.09 19.79 45.37 16.81 C 46.94 14.51 49.35 13.05 51.18 11.01 C 51.48 7.33 50.85 3.52 52.25 0.00 M 53.51 10.12 C 70.14 10.09 86.77 10.13 103.40 10.10 C 103.39 7.41 103.58 4.70 103.08 2.05 C 101.67 0.90 99.73 1.30 98.05 1.17 C 84.04 1.31 70.02 1.08 56.01 1.27 C 51.82 1.58 54.09 7.32 53.51 10.12 M 49.12 16.67 C 45.06 20.02 40.82 23.17 36.69 26.45 C 36.50 27.99 36.29 29.53 36.12 31.08 C 64.35 31.14 92.57 31.13 120.80 31.08 C 120.63 29.52 120.43 27.96 120.22 26.41 C 116.10 23.17 111.94 19.99 107.87 16.70 C 106.72 14.15 103.94 12.06 101.05 12.34 C 86.03 12.35 71.02 12.36 56.00 12.34 C 53.07 11.99 50.32 14.11 49.12 16.67 M 36.24 33.14 C 36.29 36.98 35.95 40.85 36.48 44.66 C 37.16 47.14 39.19 48.92 40.57 51.02 C 42.78 51.62 45.08 51.65 47.29 50.98 C 49.01 48.54 50.85 46.13 51.65 43.19 C 52.04 43.22 52.82 43.26 53.21 43.29 C 54.16 46.20 56.13 48.54 57.88 51.00 C 60.04 51.58 62.27 51.59 64.45 51.09 C 66.25 48.69 68.04 46.24 68.88 43.32 C 69.26 43.28 70.03 43.19 70.41 43.15 C 71.43 46.03 73.29 48.45 75.03 50.91 C 77.31 51.63 79.68 51.63 81.98 51.00 C 83.74 48.42 85.50 45.80 86.42 42.78 C 89.08 44.97 90.20 48.47 92.52 51.01 C 94.74 51.63 97.05 51.66 99.25 50.92 C 100.95 48.50 102.72 46.08 103.52 43.19 C 103.97 43.21 104.88 43.26 105.33 43.28 C 106.26 46.20 108.25 48.51 109.97 50.98 C 112.14 51.34 114.86 52.33 116.70 50.55 C 118.42 48.68 120.36 46.61 120.58 43.94 C 120.85 40.35 120.66 36.74 120.68 33.14 C 92.53 33.13 64.38 33.14 36.24 33.14 M 52.48 47.26 C 51.92 48.43 51.40 49.62 50.93 50.83 C 48.33 53.38 44.69 54.38 41.14 53.62 C 41.29 63.73 41.06 73.85 41.24 83.96 C 41.15 85.97 42.98 87.66 44.97 87.47 C 59.12 87.68 73.28 87.30 87.42 87.65 C 88.49 80.17 87.39 72.46 87.91 64.90 C 87.83 63.16 89.52 62.24 90.56 61.15 C 90.46 60.89 90.27 60.37 90.18 60.11 C 95.08 60.01 99.99 60.03 104.90 60.09 C 104.80 60.34 104.61 60.85 104.52 61.11 C 105.70 62.22 107.45 63.20 107.30 65.08 C 107.52 70.40 107.29 75.73 107.40 81.05 C 107.25 83.15 107.86 85.47 106.50 87.32 C 108.29 87.21 110.09 87.52 111.86 87.22 C 113.53 86.55 114.11 84.70 113.99 83.04 C 114.02 73.40 113.96 63.75 113.99 54.11 C 110.75 53.67 106.83 52.81 105.52 49.39 C 105.23 48.91 104.64 47.95 104.34 47.47 C 103.25 49.53 102.34 52.00 99.95 52.87 C 96.25 54.93 91.83 53.53 88.80 50.95 C 88.37 49.75 87.91 48.57 87.40 47.41 C 86.54 48.47 85.78 49.62 85.42 50.95 C 82.46 53.71 77.92 54.88 74.26 52.80 C 71.84 51.87 70.90 49.38 69.64 47.36 C 69.10 48.54 68.60 49.74 68.15 50.96 C 64.32 54.77 57.90 54.73 54.18 50.78 C 53.67 49.58 53.08 48.41 52.48 47.26 M 90.37 64.29 C 89.83 69.18 90.29 74.13 90.14 79.04 C 90.27 81.91 89.66 84.89 90.58 87.68 C 95.16 87.41 99.76 87.43 104.34 87.66 C 105.70 84.97 104.94 81.86 105.12 78.96 C 104.92 74.02 105.54 69.01 104.74 64.12 C 102.49 62.61 99.52 63.60 96.99 63.30 C 94.82 63.60 92.09 62.59 90.37 64.29 Z" />
<path fill="#050405" opacity="1.00" d=" M 10.77 8.86 C 11.40 8.92 12.67 9.04 13.30 9.09 C 13.29 12.02 13.29 14.95 13.27 17.89 C 16.27 17.87 19.28 17.87 22.29 17.86 L 22.95 17.86 C 22.93 14.86 22.88 11.86 22.68 8.87 C 23.33 8.94 24.63 9.09 25.28 9.17 C 25.30 15.72 25.30 22.28 25.28 28.84 C 24.63 28.91 23.33 29.05 22.67 29.12 C 22.88 26.09 22.94 23.04 22.97 20.00 L 22.25 20.00 C 19.26 20.00 16.27 20.00 13.28 20.00 C 13.29 22.97 13.29 25.94 13.30 28.91 C 12.67 28.96 11.40 29.08 10.77 29.14 C 11.14 22.39 11.13 15.61 10.77 8.86 Z" />
<path fill="#050405" opacity="1.00" d=" M 14.40 34.55 C 18.50 33.03 24.47 34.37 25.84 39.01 C 27.21 43.19 26.89 48.36 23.86 51.76 C 19.67 55.52 11.20 54.78 9.32 48.91 C 7.60 43.89 8.51 36.31 14.40 34.55 M 12.36 39.11 C 10.81 42.54 10.80 46.98 13.06 50.12 C 15.15 52.39 19.01 52.51 21.38 50.59 C 21.44 50.54 21.56 50.44 21.61 50.38 C 24.32 47.67 24.23 43.23 23.18 39.80 C 21.78 35.13 14.45 34.86 12.36 39.11 Z" />
<path fill="#050405" opacity="1.00" d=" M 15.71 60.68 C 19.33 59.31 25.11 59.63 26.42 64.02 C 23.24 63.27 19.79 60.98 16.51 62.74 C 10.58 65.13 10.67 75.23 16.73 77.38 C 18.82 78.42 21.15 77.64 23.26 77.10 C 23.26 75.14 23.26 73.18 23.28 71.23 C 21.25 70.84 17.83 72.18 17.67 69.09 C 20.34 68.98 23.02 68.98 25.70 69.04 C 25.76 72.22 25.77 75.40 25.69 78.58 C 21.87 80.14 17.34 80.82 13.64 78.54 C 13.57 78.50 13.45 78.42 13.38 78.38 C 7.25 74.29 8.36 62.83 15.71 60.68 Z" />
<path fill="#050405" opacity="1.00" d=" M 62.22 60.13 C 68.19 60.02 74.16 59.96 80.12 60.16 C 81.14 62.01 83.08 63.57 82.90 65.88 C 82.95 69.25 83.06 72.64 82.81 76.01 C 82.64 77.84 80.90 79.38 79.05 79.30 C 74.05 79.39 69.05 79.41 64.05 79.30 C 61.83 79.38 59.87 77.31 59.98 75.11 C 59.85 71.71 59.82 68.30 60.00 64.91 C 59.93 63.20 61.55 62.27 62.59 61.20 C 62.50 60.93 62.31 60.39 62.22 60.13 M 64.18 63.34 C 62.83 63.32 61.99 64.63 62.19 65.89 C 62.07 68.63 62.09 71.38 62.16 74.12 C 62.08 75.26 62.43 77.18 63.97 77.01 C 69.26 77.12 74.61 77.41 79.87 76.83 C 81.39 74.55 80.45 71.58 80.72 69.01 C 80.47 67.16 81.49 63.75 78.83 63.37 C 73.96 63.15 69.06 63.19 64.18 63.34 Z" />
</g>
<g id="#ef3829ff">
<path fill="#ef3829" opacity="1.00" d=" M 53.51 10.12 C 54.09 7.32 51.82 1.58 56.01 1.27 C 70.02 1.08 84.04 1.31 98.05 1.17 C 99.73 1.30 101.67 0.90 103.08 2.05 C 103.58 4.70 103.39 7.41 103.40 10.10 C 86.77 10.13 70.14 10.09 53.51 10.12 Z" />
<path fill="#ef3829" opacity="1.00" d=" M 10.77 29.14 C 10.25 22.41 10.25 15.59 10.77 8.86 C 11.13 15.61 11.14 22.39 10.77 29.14 Z" />
<path fill="#ef3829" opacity="1.00" d=" M 22.29 17.86 C 22.23 14.86 22.17 11.84 22.68 8.87 C 22.88 11.86 22.93 14.86 22.95 17.86 L 22.29 17.86 Z" />
<path fill="#ef3829" opacity="1.00" d=" M 22.25 20.00 L 22.97 20.00 C 22.94 23.04 22.88 26.09 22.67 29.12 C 22.18 26.11 22.22 23.04 22.25 20.00 Z" />
<path fill="#ef3829" opacity="1.00" d=" M 36.24 33.14 C 64.38 33.14 92.53 33.13 120.68 33.14 C 120.66 36.74 120.85 40.35 120.58 43.94 C 120.36 46.61 118.42 48.68 116.70 50.55 C 114.86 52.33 112.14 51.34 109.97 50.98 C 108.25 48.51 106.26 46.20 105.33 43.28 C 104.88 43.26 103.97 43.21 103.52 43.19 C 102.72 46.08 100.95 48.50 99.25 50.92 C 97.05 51.66 94.74 51.63 92.52 51.01 C 90.20 48.47 89.08 44.97 86.42 42.78 C 85.50 45.80 83.74 48.42 81.98 51.00 C 79.68 51.63 77.31 51.63 75.03 50.91 C 73.29 48.45 71.43 46.03 70.41 43.15 C 70.03 43.19 69.26 43.28 68.88 43.32 C 68.04 46.24 66.25 48.69 64.45 51.09 C 62.27 51.59 60.04 51.58 57.88 51.00 C 56.13 48.54 54.16 46.20 53.21 43.29 C 52.82 43.26 52.04 43.22 51.65 43.19 C 50.85 46.13 49.01 48.54 47.29 50.98 C 45.08 51.65 42.78 51.62 40.57 51.02 C 39.19 48.92 37.16 47.14 36.48 44.66 C 35.95 40.85 36.29 36.98 36.24 33.14 Z" />
<path fill="#ef3829" opacity="1.00" d=" M 21.38 50.59 C 21.44 50.54 21.56 50.44 21.61 50.38 C 21.56 50.44 21.44 50.54 21.38 50.59 Z" />
<path fill="#ef3829" opacity="1.00" d=" M 13.38 78.38 C 13.45 78.42 13.57 78.50 13.64 78.54 C 13.57 78.50 13.45 78.42 13.38 78.38 Z" />
</g>
</svg>
