<svg xmlns="http://www.w3.org/2000/svg" width="85.428" height="88.918" viewBox="0 0 85.428 88.918"><defs><style>.a{fill:#ef3829;}.b{fill:#222;}</style></defs><g transform="translate(0)"><path class="a" d="M-337.252,1954.6a45.242,45.242,0,0,1,25.622-9.668,77.076,77.076,0,0,1,7.977,9.668,40.469,40.469,0,0,0,15.711-12.085,53.716,53.716,0,0,0,11.119-16.195,75.531,75.531,0,0,1-10.152-7.01,39.288,39.288,0,0,1,7.01-26.346,43.261,43.261,0,0,1,24.655,3.626c2.417,10.635.484,32.389-21.754,57.043-23.2,23.688-44.959,27.314-55.594,25.622A54.017,54.017,0,0,1-337.252,1954.6Z" transform="translate(338.611 -1891.789)"/><path class="b" d="M-326.835,1981.131a30.881,30.881,0,0,1-4.834-.241h-.725l-.242-.483a48.462,48.462,0,0,1-5.076-25.38v-.483l.483-.241a45.361,45.361,0,0,1,26.347-9.91h.484l.483.483a93.526,93.526,0,0,1,7.735,8.943,40.728,40.728,0,0,0,14.261-11.36,49.111,49.111,0,0,0,10.394-14.986,81.991,81.991,0,0,1-9.427-6.526l-.483-.242v-.483a39.751,39.751,0,0,1,7.251-27.071l.242-.483h.483a45.74,45.74,0,0,1,25.38,3.625l.483.242.242.483c3.142,12.811-1.209,34.807-22,58.01C-294.2,1974.363-313.54,1981.131-326.835,1981.131Zm-3.867-2.659c5.559.725,27.8,1.208,53.9-25.379,19.821-22.237,24.171-43.025,21.513-55.352a46.82,46.82,0,0,0-22.963-3.384,36.723,36.723,0,0,0-6.526,24.413,81.945,81.945,0,0,0,9.427,6.526l.967.483-.483.967a54.19,54.19,0,0,1-11.361,16.436,40.1,40.1,0,0,1-15.953,12.327l-.967.483-.483-.725a66.761,66.761,0,0,0-7.493-8.943,44.2,44.2,0,0,0-24.171,8.943A47.047,47.047,0,0,0-330.7,1978.472Z" transform="translate(337.862 -1892.213)"/></g></svg>