<svg xmlns="http://www.w3.org/2000/svg" width="88.92" height="51.376" viewBox="0 0 88.92 51.376"><defs><style>.a{fill:#fff;}.b{fill:#ef3829;}.c{fill:#f7f7f7;}</style></defs><g transform="translate(4.446 1.939)"><path class="a" d="M19.4,42.082l7.41-7.41a12.235,12.235,0,0,0,9.633-2.47L52.247,16.395,41.626,1.328H30.264a6.727,6.727,0,0,0-5.928,2.223l-8.151,8.4L2.6,25.534Z" transform="translate(-0.624 -0.055)"/><path d="M20.572,44.541,1.8,26.51,24.771,3.539A8.028,8.028,0,0,1,31.687.822H43.543L54.9,17.124,38.356,33.673a12.729,12.729,0,0,1-10.127,2.964ZM5.258,26.263l15.314,14.82,6.916-6.916h.494a11.03,11.03,0,0,0,8.645-2.223L51.694,16.877,42.061,3.292H31.44A5.148,5.148,0,0,0,26.5,5.268l-8.4,8.4Z" transform="translate(-1.8 -0.785)"/></g><g transform="translate(0 23.218)"><path class="b" d="M1.561,13.037l1.976-1.976a3.877,3.877,0,0,1,5.434,0L24.779,26.869a3.877,3.877,0,0,1,0,5.434L22.8,34.279a3.877,3.877,0,0,1-5.434,0L1.561,18.471A3.877,3.877,0,0,1,1.561,13.037Z" transform="translate(0.661 -8.592)"/><path d="M20.995,37.558a4.877,4.877,0,0,1-3.458-1.482L1.729,20.268A5.147,5.147,0,0,1,0,16.563,4.877,4.877,0,0,1,1.482,13.1l1.976-2.223a5.069,5.069,0,0,1,7.163,0L26.429,26.69a4.775,4.775,0,0,1,0,6.916l-1.976,1.976A3.985,3.985,0,0,1,20.995,37.558ZM7.163,11.87a2.242,2.242,0,0,0-1.729.741L3.458,14.587a2.246,2.246,0,0,0-.988,1.976,2.242,2.242,0,0,0,.741,1.729L19.019,34.1a2.686,2.686,0,0,0,3.7,0L24.7,32.124a2.668,2.668,0,0,0,.741-1.729,2.242,2.242,0,0,0-.741-1.729L8.892,12.858A2.14,2.14,0,0,0,7.163,11.87Z" transform="translate(0 -9.4)"/></g><g transform="translate(37.791)"><path class="c" d="M20,.5H60.26a4.328,4.328,0,0,1,4.2,4.2V29.152a4.328,4.328,0,0,1-4.2,4.2H20a4.328,4.328,0,0,1-4.2-4.2V4.7A4.328,4.328,0,0,1,20,.5Z" transform="translate(-14.565 0.735)"/><path d="M20.734,35.074A5.653,5.653,0,0,1,15.3,29.64V5.434A5.482,5.482,0,0,1,20.734,0H60.995a5.482,5.482,0,0,1,5.434,5.434V29.887a5.653,5.653,0,0,1-5.434,5.434Zm0-32.6a2.246,2.246,0,0,0-1.976.988,2.8,2.8,0,0,0-.741,1.976V29.887a3.187,3.187,0,0,0,2.964,2.964H61.242a3.187,3.187,0,0,0,2.964-2.964V5.434A3.223,3.223,0,0,0,60.995,2.47Z" transform="translate(-15.3)"/><g transform="translate(0.247 6.669)"><rect class="b" width="48.659" height="5.928" transform="translate(1.235 1.235)"/><path d="M66.282,11.1H15.4V2.7H66.282ZM17.623,8.628H63.812V5.17H17.623Z" transform="translate(-15.4 -2.7)"/></g><g transform="translate(37.05 20.995)"><path class="b" d="M32.282,9.1H34.5a1.594,1.594,0,0,1,1.482,1.482V12.8A1.594,1.594,0,0,1,34.5,14.287H32.282A1.594,1.594,0,0,1,30.8,12.8v-2.47A1.383,1.383,0,0,1,32.282,9.1Z" transform="translate(-29.565 -7.618)"/><path d="M35.24,16.157H33.017A2.741,2.741,0,0,1,30.3,13.44V11.217A2.741,2.741,0,0,1,33.017,8.5H35.24a2.741,2.741,0,0,1,2.717,2.717V13.44A2.592,2.592,0,0,1,35.24,16.157Zm-2.223-4.94h0l-.247,2.47a.242.242,0,0,0,.247.247H35.24a.242.242,0,0,0,.247-.247v-2.47a.242.242,0,0,0-.247-.247H33.017Z" transform="translate(-30.3 -8.5)"/></g></g><g transform="translate(26.676 10.621)"><path class="a" d="M13.123,4.9h17.29a5.386,5.386,0,0,1,4.94,5.434v.494h0v.247a8.66,8.66,0,0,1-1.482,3.458,7.694,7.694,0,0,1-4.446,1.729h-7.9A16.121,16.121,0,0,1,10.9,23.919" transform="translate(-10.653 -3.418)"/><path d="M11.294,26.036l-.494-2.47A14.354,14.354,0,0,0,20.433,16.4l.247-.494h8.645a5.446,5.446,0,0,0,3.7-1.482,4.5,4.5,0,0,0,.988-2.717v-.741a3.769,3.769,0,0,0-3.7-4.2H13.023V4.3h17.29a6.6,6.6,0,0,1,6.175,6.916v.741a8.029,8.029,0,0,1-1.729,4.2,7.663,7.663,0,0,1-5.434,2.223h-7.41A16.121,16.121,0,0,1,11.294,26.036Z" transform="translate(-10.8 -4.3)"/></g></svg>