<?xml version="1.0" encoding="UTF-8" ?>
<!DOCTYPE svg PUBLIC "-//W3C//DTD SVG 1.1//EN" "http://www.w3.org/Graphics/SVG/1.1/DTD/svg11.dtd">
<svg width="225pt" height="225pt" viewBox="0 0 225 225" version="1.1" xmlns="http://www.w3.org/2000/svg">
<g id="#ffffffff">
</g>
<g id="#337180ff">
<path fill="#337180" opacity="1.00" d=" M 109.56 0.00 L 115.49 0.00 C 135.64 0.66 155.60 6.59 172.61 17.45 C 195.92 32.16 213.52 55.72 220.75 82.34 C 223.60 91.87 224.46 101.82 225.00 111.71 L 225.00 116.46 C 223.90 143.88 212.66 170.80 193.47 190.48 C 175.58 209.21 151.02 221.34 125.29 224.24 C 123.42 224.33 121.56 224.42 119.70 224.54 C 119.75 209.65 119.67 194.76 119.74 179.87 C 129.58 178.58 139.69 175.84 147.48 169.41 C 152.04 165.66 155.62 160.15 155.30 154.03 C 155.27 116.04 155.33 78.04 155.27 40.04 C 155.38 31.87 148.99 25.45 142.34 21.68 C 130.18 14.88 115.62 13.39 101.99 15.26 C 93.40 16.62 84.79 19.42 77.92 24.89 C 73.37 28.58 69.59 33.93 69.73 40.01 C 69.69 78.31 69.69 116.62 69.73 154.92 C 69.66 161.26 73.86 166.66 78.67 170.34 C 86.00 175.84 95.06 178.41 104.02 179.72 C 104.04 194.63 104.04 209.55 104.02 224.46 C 102.90 224.39 101.78 224.34 100.66 224.30 C 75.26 221.87 50.91 210.16 32.96 192.06 C 15.47 174.72 3.99 151.43 0.97 126.98 C 0.67 123.89 0.40 120.79 0.00 117.71 L 0.00 105.55 C 0.78 98.73 1.45 91.88 3.24 85.23 C 10.52 55.51 30.66 29.29 57.38 14.42 C 73.24 5.38 91.36 0.66 109.56 0.00 Z" />
</g>
<g id="#e3e3e3ff">
<path fill="#e3e3e3" opacity="1.00" d=" M 77.92 24.89 C 84.79 19.42 93.40 16.62 101.99 15.26 C 115.62 13.39 130.18 14.88 142.34 21.68 C 148.99 25.45 155.38 31.87 155.27 40.04 C 155.33 78.04 155.27 116.04 155.30 154.03 C 155.62 160.15 152.04 165.66 147.48 169.41 C 139.69 175.84 129.58 178.58 119.74 179.87 C 119.67 194.76 119.75 209.65 119.70 224.54 C 121.56 224.42 123.42 224.33 125.29 224.24 L 123.93 225.00 L 99.36 225.00 L 100.66 224.30 C 101.78 224.34 102.90 224.39 104.02 224.46 C 104.04 209.55 104.04 194.63 104.02 179.72 C 95.06 178.41 86.00 175.84 78.67 170.34 C 73.86 166.66 69.66 161.26 69.73 154.92 C 69.69 116.62 69.69 78.31 69.73 40.01 C 69.59 33.93 73.37 28.58 77.92 24.89 M 109.08 19.15 C 100.15 19.83 91.09 22.29 83.90 27.82 C 79.22 31.43 75.44 36.90 75.59 43.02 C 75.57 79.33 75.57 115.63 75.59 151.93 C 75.55 158.00 79.38 163.31 84.03 166.86 C 92.24 173.13 102.82 175.61 113.02 175.44 C 123.11 175.44 133.53 172.79 141.52 166.42 C 145.88 162.91 149.42 157.78 149.40 152.00 C 149.45 117.34 149.40 82.68 149.43 48.02 C 149.42 44.98 149.56 41.90 148.93 38.90 C 147.25 32.76 142.36 28.09 136.95 25.07 C 128.53 20.38 118.64 18.62 109.08 19.15 Z" />
</g>
<g id="#3b3b3bff">
<path fill="#3b3b3b" opacity="1.00" d=" M 109.08 19.15 C 118.64 18.62 128.53 20.38 136.95 25.07 C 142.36 28.09 147.25 32.76 148.93 38.90 C 149.56 41.90 149.42 44.98 149.43 48.02 C 149.40 82.68 149.45 117.34 149.40 152.00 C 149.42 157.78 145.88 162.91 141.52 166.42 C 133.53 172.79 123.11 175.44 113.02 175.44 C 102.82 175.61 92.24 173.13 84.03 166.86 C 79.38 163.31 75.55 158.00 75.59 151.93 C 75.57 115.63 75.57 79.33 75.59 43.02 C 75.44 36.90 79.22 31.43 83.90 27.82 C 91.09 22.29 100.15 19.83 109.08 19.15 M 109.55 33.66 C 100.31 34.98 92.82 43.61 93.16 52.99 C 92.91 61.47 99.21 69.38 107.34 71.50 C 113.98 73.55 121.57 71.30 126.37 66.38 C 132.54 60.41 133.59 50.15 129.12 42.90 C 125.29 36.21 117.12 32.46 109.55 33.66 M 107.41 79.61 C 99.29 81.70 93.02 89.55 93.03 97.97 C 92.62 106.54 98.77 114.83 107.00 117.12 C 114.13 119.36 122.42 116.90 127.21 111.17 C 132.14 105.71 133.36 97.35 130.39 90.65 C 126.74 82.02 116.45 76.95 107.41 79.61 M 109.50 124.67 C 100.30 126.01 92.82 134.60 93.16 143.96 C 92.86 153.06 100.12 161.41 109.01 162.89 C 120.27 165.40 132.30 155.63 131.84 144.01 C 132.41 132.44 120.82 122.59 109.50 124.67 Z" />
</g>
<g id="#777777ff">
<path fill="#777777" opacity="1.00" d=" M 109.55 33.66 C 117.12 32.46 125.29 36.21 129.12 42.90 C 133.59 50.15 132.54 60.41 126.37 66.38 C 121.57 71.30 113.98 73.55 107.34 71.50 C 99.21 69.38 92.91 61.47 93.16 52.99 C 92.82 43.61 100.31 34.98 109.55 33.66 Z" />
<path fill="#777777" opacity="1.00" d=" M 109.50 124.67 C 120.82 122.59 132.41 132.44 131.84 144.01 C 132.30 155.63 120.27 165.40 109.01 162.89 C 100.12 161.41 92.86 153.06 93.16 143.96 C 92.82 134.60 100.30 126.01 109.50 124.67 Z" />
</g>
<g id="#ecc336ff">
<path fill="#ecc336" opacity="1.00" d=" M 107.41 79.61 C 116.45 76.95 126.74 82.02 130.39 90.65 C 133.36 97.35 132.14 105.71 127.21 111.17 C 122.42 116.90 114.13 119.36 107.00 117.12 C 98.77 114.83 92.62 106.54 93.03 97.97 C 93.02 89.55 99.29 81.70 107.41 79.61 Z" />
</g>
</svg>
