<?xml version="1.0" encoding="UTF-8" standalone="no"?>
<!-- Created with Inkscape (http://www.inkscape.org/) -->

<svg
   xmlns:dc="http://purl.org/dc/elements/1.1/"
   xmlns:cc="http://creativecommons.org/ns#"
   xmlns:rdf="http://www.w3.org/1999/02/22-rdf-syntax-ns#"
   xmlns:svg="http://www.w3.org/2000/svg"
   xmlns="http://www.w3.org/2000/svg"
   xmlns:sodipodi="http://sodipodi.sourceforge.net/DTD/sodipodi-0.dtd"
   xmlns:inkscape="http://www.inkscape.org/namespaces/inkscape"
   width="32"
   height="32"
   viewBox="0 0 8.4666667 8.4666667"
   version="1.1"
   id="svg8"
   inkscape:export-filename="C:\Users\cohechaja\Pictures\discount.png"
   inkscape:export-xdpi="96"
   inkscape:export-ydpi="96"
   inkscape:version="0.92.4 (5da689c313, 2019-01-14)"
   sodipodi:docname="discount.svg">
  <defs
     id="defs2" />
  <sodipodi:namedview
     id="base"
     pagecolor="#ffffff"
     bordercolor="#666666"
     borderopacity="1.0"
     inkscape:pageopacity="0.0"
     inkscape:pageshadow="2"
     inkscape:zoom="17.0625"
     inkscape:cx="16"
     inkscape:cy="16.879121"
     inkscape:document-units="mm"
     inkscape:current-layer="g877"
     showgrid="false"
     units="px"
     borderlayer="true"
     inkscape:window-width="1366"
     inkscape:window-height="715"
     inkscape:window-x="-8"
     inkscape:window-y="-8"
     inkscape:window-maximized="1" />
  <metadata
     id="metadata5">
    <rdf:RDF>
      <cc:Work
         rdf:about="">
        <dc:format>image/svg+xml</dc:format>
        <dc:type
           rdf:resource="http://purl.org/dc/dcmitype/StillImage" />
        <dc:title></dc:title>
      </cc:Work>
    </rdf:RDF>
  </metadata>
  <g
     inkscape:label="Capa 1"
     inkscape:groupmode="layer"
     id="layer1"
     transform="translate(0,-288.53333)"
     style="display:inline">
    <g
       id="g877"
       transform="matrix(0.47947934,0.24323547,-0.24323547,0.47947934,71.901959,151.51973)"
       inkscape:export-xdpi="96"
       inkscape:export-ydpi="96">
      <g
         transform="matrix(1.4240856,0,0,1.4240856,-3.965313,-123.72143)"
         style="fill:#f53503;fill-opacity:1"
         id="g3719">
        <rect
           id="rect3713"
           width="4.6520147"
           height="5.3032966"
           x="5.4661169"
           y="289.99872"
           style="fill:#f53503;fill-opacity:1;stroke-width:0.315842"
           ry="0.89493126" />
        <path
           style="fill:#f53503;fill-opacity:1;stroke-width:0.74420071"
           d="M 23.076172,6.3085938 12.708984,12.166016 11.787109,13.875 l 10.134766,6.064453 1.921875,-0.0625 0.939453,-9.658203 z M 21.310547,9.078125 a 1.1107426,1.1343754 26.898262 0 1 0.505859,0.1191406 1.1107426,1.1343754 26.898262 0 1 0.476563,1.5136724 1.1107426,1.1343754 26.898262 0 1 -1.503907,0.509765 A 1.1107426,1.1343754 26.898262 0 1 20.3125,9.7050781 1.1107426,1.1343754 26.898262 0 1 21.310547,9.078125 Z"
           transform="matrix(0.30817853,-0.15633614,0.15633614,0.30817853,-0.33758038,288.29974)"
           id="path3715"
           inkscape:connector-curvature="0" />
      </g>
      <path
         sodipodi:nodetypes="csaaasac"
         inkscape:connector-curvature="0"
         id="path4543"
         d="m 6.332555,285.98054 c 0,0 -0.8102904,-0.50173 -1.223885,-0.73821 -0.6659911,-0.38079 -1.4585168,-0.44041 -2.1720854,-0.28524 -0.6280936,0.13658 -1.221657,0.53011 -1.6349885,1.02236 -0.3015004,0.35907 -0.51620739,0.83494 -0.52819877,1.30365 -0.0260251,1.01725 0.51552177,2.05415 1.00018317,2.88425 0.5323063,0.9117 1.4341073,1.5835 1.4188648,2.55861 -0.022009,1.40798 -2.1631869,3.62857 -2.1631869,3.62857"
         style="fill:none;stroke:#f53503;stroke-width:0.60000002;stroke-linecap:butt;stroke-linejoin:miter;stroke-miterlimit:4;stroke-dasharray:none;stroke-opacity:1" />
      <ellipse
         ry="0.20934066"
         rx="0.4768315"
         cy="289.16135"
         cx="2.5702381"
         id="path4526"
         style="fill:#ef3829;fill-opacity:0;stroke-width:0.26458332" />
      <ellipse
         ry="0.75595242"
         rx="0.89551282"
         cy="289.98709"
         cx="2.3841574"
         id="path4530"
         style="fill:#ffff00;fill-opacity:0;stroke-width:0.26458332" />
      <rect
         transform="rotate(39.035555)"
         ry="0.058150183"
         y="214.19055"
         x="188.03267"
         height="2.5353479"
         width="0.11630037"
         id="rect4545"
         style="fill:#e30000;fill-opacity:1;stroke:#f53503;stroke-width:0.46499997;stroke-miterlimit:4;stroke-dasharray:none;stroke-opacity:1" />
      <rect
         transform="matrix(0.39333592,0.91939483,-0.86997454,0.49309664,0,0)"
         ry="0.05278866"
         y="102.29263"
         x="256.6561"
         height="2.3015857"
         width="0.11307357"
         id="rect4545-7"
         style="fill:#e30000;fill-opacity:1;stroke:#f53503;stroke-width:0.43685541;stroke-miterlimit:4;stroke-dasharray:none;stroke-opacity:1" />
      <rect
         transform="matrix(0.16833521,0.98572981,-0.98463676,0.17461515,0,0)"
         ry="0.050700676"
         y="36.212711"
         x="285.58917"
         height="2.2105494"
         width="0.11629288"
         id="rect4545-7-2"
         style="fill:#e30000;fill-opacity:1;stroke:#f53503;stroke-width:0.43418044;stroke-miterlimit:4;stroke-dasharray:none;stroke-opacity:1" />
      <text
         transform="scale(0.87377553,1.1444587)"
         id="text4579"
         y="257.99072"
         x="5.3562484"
         style="font-style:normal;font-weight:normal;font-size:5.17669535px;line-height:1.25;font-family:sans-serif;letter-spacing:0px;word-spacing:0px;fill:#ffffff;fill-opacity:1;stroke:none;stroke-width:0.12941739"
         xml:space="preserve"><tspan
           style="font-style:normal;font-variant:normal;font-weight:bold;font-stretch:normal;font-family:sans-serif;-inkscape-font-specification:'sans-serif Bold';fill:#ffffff;stroke-width:0.12941739"
           y="257.99072"
           x="5.3562484"
           id="tspan4577"
           sodipodi:role="line">%</tspan></text>
    </g>
  </g>
</svg>
