<?xml version="1.0" encoding="utf-8"?>
<!-- Generator: Adobe Illustrator 24.1.2, SVG Export Plug-In . SVG Version: 6.00 Build 0)  -->
<svg version="1.1" id="Capa_1" xmlns="http://www.w3.org/2000/svg" xmlns:xlink="http://www.w3.org/1999/xlink" x="0px" y="0px"
	 viewBox="0 0 351 480" style="enable-background:new 0 0 351 480;" xml:space="preserve">
<style type="text/css">
	.st0{fill:#FFFFFF;}
	.st1{fill:#8A5D3B;}
	.st2{fill:#603813;}
	.st3{fill:#F4CEAB;}
	.st4{fill:#F8DEC6;}
	.st5{fill:#5E331B;}
	.st6{fill:#5C3119;}
	.st7{fill:#8D5C39;}
	.st8{fill:#F3CFAC;}
	.st9{fill:#191818;}
	.st10{fill:#010100;}
	.st11{fill:#F9D3B0;}
	.st12{fill:#FF614E;}
	.st13{fill:#72657C;}
	.st14{fill:#81728D;}
	.st15{fill:#82738E;}
	.st16{fill:#B5B5B5;}
	.st17{fill:#FF5757;}
	.st18{fill:#F5CEAB;}
	.st19{fill:#1D1F1D;}
	.st20{fill:#302C35;}
	.st21{fill:#433C49;}
	.st22{fill:#202020;}
	.st23{font-family:'ArialMT';}
	.st24{font-size:15px;}
	.st25{font-size:36px;}
</style>
<path class="st0" d="M142.7,105.4c-3-2.4,0.1-7.3,3.4-6.8c2.3,1,3.7,3.1,3.5,5.7C148,106.1,144.7,107.9,142.7,105.4z"/>
<path class="st0" d="M207.5,103.1c-0.4-2.3,1.9-3.6,3.4-4.8c2.5,0.7,5.5,3,4.1,5.9C213.8,107.9,207.3,107.1,207.5,103.1z"/>
<path class="st0" d="M75.5,242.1c6-9.8,22.4-10.1,28.6-0.4c4.5,7.2,4.8,16,4.6,24.2c-12.6,0.1-25.2,0-37.8,0
	C70.7,257.8,71.2,249.2,75.5,242.1z"/>
<path class="st0" d="M79.8,242c0-6.5,7.1-11.6,13.3-9.9c5.8,1.3,9.3,8.4,7.1,13.9c-0.7,2.5-2.8,4.1-4.6,5.9
	c0.8,5.6,1.7,11.3,2.6,16.9c-4.9,0-9.9,0-14.8,0c0.8-5.5,1.6-11,2.3-16.5C82.4,249.8,79.4,246.4,79.8,242z"/>
<g id="_x23_8a5d3bff">
	<path class="st1" d="M222.8,5.2c2.9-0.6,7-2.6,8.9,0.8c0.6,2.9-2.2,4.7-3.7,6.9c3-1.1,6-2.3,9.2-2.6c3.4,3.8-1.4,8-0.3,12.2
		c1.5,6.8,6.1,12.3,9.3,18.3c7.2,13.5,7.3,29.5,4.3,44.1c5.9,5.3,6.8,15.3,1.7,21.4c-2,2.4-4.7,4.2-7.8,4.8
		c-1.1,4.3-0.6,8.7-1.2,13.1c-1.7,13.6-3.7,27.6-10.1,39.9c-1.1,1.7-2.3,3.3-3.6,4.8c-1.7,1.9-3.4,3.7-5.1,5.6
		c-4.1,0-8.2,0.1-12.3,0c5.2-3.4,11.1-6.5,14.5-11.9c3.9-6.1,5.8-13.3,7.6-20.3c2.3-10.9,3.4-22.1,3.6-33.2c0.2-7,1.1-14.1,0.3-21.1
		c-1.9-6.2-7.9-9.8-13.6-12.2c-0.1-0.4-0.4-1.1-0.5-1.4c-11.5-3.2-23.5-1.2-35.1,0.5c0.6,0.2,1.8,0.6,2.4,0.8
		c-13,3.6-27,0.3-38.1-6.9c-6.8,5.9-16.1,7.3-24.9,7.1c-4.6,0.2-9.5-0.1-13.8,1.8c-2.9,1.3-2.4,4.8-2.8,7.4
		c-0.9,18.7-0.8,37.5,2.8,55.9c1.6,8.2,4.4,16.3,9.1,23.3c2.9,4.5,7.5,7.3,11.9,10.2c-3.9,0-7.8,0-11.8,0c-1.3-1.6-2.6-3.3-3.8-4.9
		c-1.3-1.6-2.5-3.3-3.5-5.1c-8.7-16-10.5-34.8-11.3-52.7c-2.1-1.5-4.9-2.1-6.7-4c-6.2-5.4-6.1-15.8-0.8-21.9
		c-2.2-10.9-2.7-22.5,0.9-33.2c3.4-11.2,11.3-20.7,20.9-27.2c10.5-6.9,22.5-11.3,34.8-13.5c17.8-3.9,37.3-3.9,54.2,3.6
		C212.2,10.9,216.8,6.4,222.8,5.2 M212.4,21.4c-0.8,1.8-3,1.5-4.5,0.8c-19.4-9.5-42.3-7.6-62.5-1.7c-14,4.1-28,11.2-36.1,23.8
		c-7.9,11.7-8.1,26.6-5.8,40c1.7-4.7,3.6-9.9,8.5-12.2c9.2-4.2,19.6-1,29.1-3.8c4.6-1.1,8-4.5,11.8-7c8.9,5.9,19.3,10.5,30.1,9.5
		c6-0.6,11.9-2,18-2.5c11.5-1.3,24-0.7,33.9,6c4.1,2.6,6.7,6.7,9.3,10.7c2.9-12.7,3.4-26.7-2.1-38.8c-4.4-8.8-11.6-16.9-11.7-27.3
		c-3.6,2.6-4.8,7-6.7,10.8c-1.7,0.7-4.4,0.5-4.8-1.7c-1.7-5.1,0.1-10.5,1.8-15.3C216.9,14.4,214.5,17.9,212.4,21.4 M244.6,100
		c-0.1,1.7-0.2,3.4,0,5.1c3.9-2.8,5.3-7.7,4.6-12.3C247.5,95.2,246.5,97.9,244.6,100 M99.5,95.9c0.2,2.7,1.2,5.2,3.1,7.2
		C102,100.6,101.2,98,99.5,95.9z"/>
	<path class="st1" d="M147.2,136.4c19.1,0.5,38.3,0.1,57.4,0.2c1,7.5-0.4,16.5-7,21.2c-6,4.9-14.2,5.7-21.6,6.1
		c-8.9,0.4-18.8-0.6-25.7-6.9c-1.4-2.9-2.8-5.9-3.6-9C145.8,144.1,146.7,140.2,147.2,136.4 M151.3,142.9c-0.3,2.9,0.6,5.6,1.9,8.1
		c13.4-5.4,29-6,42.2,0.3c1.8-2.6,3-5.5,3.4-8.6C183,142.8,167.1,142.4,151.3,142.9 M159.6,155.3c9.1,3.8,19.4,2.6,28.8,0.5
		C179.5,151.4,168.9,152.8,159.6,155.3z"/>
	<path class="st1" d="M30,228c1.2-1.3,2.7-2.3,4.2-3.3c0,5.5,0,11.1,0,16.6c-3.6,2.7-6.6,7-5.7,11.7c0.3,3.5,3.1,5.7,5.7,7.7
		c0,2,0,3.9,0,5.9c-0.6-0.2-1.7-0.6-2.3-0.8c-10.4-3.3-12.7-18-5.7-25.6c1-1.1,2.1-2,3.3-3C27.8,234.4,27.5,230.3,30,228z"/>
	<path class="st1" d="M319,243.3c-0.4-5.8-0.3-11.5-0.1-17.3c1.5,1.4,3.5,2.7,4,4.9c0.8,2.2-0.4,4.5-0.8,6.7
		c6.6,4.4,8.6,13.8,5.4,20.8c-1.6,3.8-5.2,6.1-8.7,7.8c0-2.4,0.1-4.8,0.3-7.2C324,255.2,323.9,247.2,319,243.3z"/>
</g>
<g id="_x23_603813ff">
	<path class="st2" d="M212.4,21.4c2.2-3.5,4.5-7,8.4-8.8c-1.7,4.8-3.5,10.2-1.8,15.3c0.4,2.2,3.1,2.4,4.8,1.7
		c1.8-3.9,3-8.2,6.7-10.8c0.1,10.4,7.2,18.5,11.7,27.3c5.6,12.1,5.1,26.1,2.1,38.8c-2.6-3.9-5.3-8-9.3-10.7
		c-9.9-6.6-22.4-7.3-33.9-6c-6.1,0.5-12,1.9-18,2.5c-10.9,1-21.3-3.7-30.1-9.5c-3.8,2.5-7.2,5.9-11.8,7c-9.5,2.8-19.9-0.4-29.1,3.8
		c-4.9,2.2-6.8,7.5-8.5,12.2c-2.3-13.4-2.2-28.3,5.8-40c8.1-12.5,22.1-19.7,36.1-23.8c20.2-5.9,43.1-7.8,62.5,1.7
		C209.3,22.9,211.5,23.2,212.4,21.4z"/>
	<path class="st2" d="M188.9,74.7c11.6-1.7,23.6-3.7,35.1-0.5c0.1,0.4,0.4,1.1,0.5,1.4c-10.8-3.4-22.2-1.8-33.2-0.1
		C190.7,75.4,189.5,74.9,188.9,74.7z"/>
	<path class="st2" d="M145.5,138.9c-0.1-1.2,0.6-2.2,1.8-2.6c-0.5,3.8-1.5,7.8-0.5,11.6c0.8,3.1,2.1,6.1,3.6,9
		C145.2,152.6,144.8,145.1,145.5,138.9z"/>
</g>
<g id="_x23_f4ceabff">
	<path class="st3" d="M128.4,75.8c8.8,0.2,18-1.2,24.9-7.1c11.1,7.2,25.1,10.4,38.1,6.9c11-1.7,22.4-3.3,33.2,0.1
		c5.6,2.4,11.7,6,13.6,12.2c0.8,7-0.1,14.1-0.3,21.1c-0.1,11.2-1.3,22.3-3.6,33.2c-1.7,7-3.6,14.2-7.6,20.3
		c-3.4,5.4-9.3,8.4-14.5,11.9c-19.9,0-39.8,0-59.6,0c-7.7-8.1-14-17.7-17.7-28.3c-2.5-7.3-4.1-14.9-5.4-22.5
		c-0.6-3.1-0.2-6.2,0.4-9.3c2.5,2.8,5.2,5.8,8.9,6.6c5.2,1.4,10.8-0.9,14.1-4.9c4.9-6.3,2.5-16.9-5.1-20c-5.8-3-13.8-0.9-17,4.9
		c-2.5,3.9-1.9,8.7-1.2,13c-2.7-5.8-1.8-12.5-0.8-18.6c6.5-4.6,14.8-5.6,22.6-4.4c0.3-2.4,0.7-4.7,1-7.1c-8.3-0.2-17.2,1.1-23.5,7
		C127.6,85.8,127.9,80.8,128.4,75.8 M198.3,90.7c4.3-0.2,8.6-0.7,12.8,0.3c5.9,1,10.9,4.6,14.9,8.8c-1.3-4.4-3.9-8.5-7.7-11.1
		c-5.9-4.3-13.6-4.9-20.7-5C197.7,86.1,197.7,88.4,198.3,90.7 M195.9,102.1c-0.9,3.9-0.8,8-0.1,12c1.1,1.4,2.2,2.8,3.6,3.9l0.2,0.8
		c0.5-0.1,1.5-0.3,2-0.3l-0.1,1.5c0.5-0.2,1.5-0.5,1.9-0.7v1.3c2.7,0.1,5.4,0.1,8.1,0.1l0.1-1.1c0.7,0,2.2,0,3,0l-0.2-0.7
		c2-0.9,3.6-2.4,4.4-4.4l0.7,0.1c0-0.8,0-2.3,0-3l1-0.1c-0.2-2.5,0.6-5.3-1-7.5c0.1-0.4,0.2-1.1,0.3-1.5l-1,0.1
		c-0.6-3.1-3.2-5.7-6.3-6.4l-0.1-0.6c-3-0.1-6-0.1-9-0.1l0.1,0.7C200,96.5,197.6,99.3,195.9,102.1 M145.5,138.9
		c-0.7,6.2-0.3,13.7,4.9,18c6.9,6.3,16.8,7.3,25.7,6.9c7.5-0.4,15.6-1.2,21.6-6.1c6.6-4.7,8-13.6,7-21.2
		c-19.1-0.1-38.3,0.3-57.4-0.2C146.1,136.7,145.4,137.7,145.5,138.9z"/>
	<path class="st3" d="M99.5,95.9c1.7,2.1,2.5,4.7,3.1,7.2C100.7,101.1,99.7,98.6,99.5,95.9z"/>
</g>
<g id="_x23_f8dec6ff">
	<path class="st4" d="M114.6,77.6c4.3-1.9,9.2-1.6,13.8-1.8c-0.4,5-0.7,10,0.6,14.9c-2.4,2.7-4,5.9-5.3,9.2c1.8-1.6,3.5-3.2,5.3-4.7
		c-1,6.1-2,12.9,0.8,18.6l0.2,0.4c-0.6,3.1-1,6.2-0.4,9.3c1.3,7.6,2.9,15.2,5.4,22.5c3.6,10.6,9.9,20.2,17.7,28.3
		c-5.7,0-11.3,0-17,0c-4.3-2.9-9-5.7-11.9-10.2c-4.7-7-7.5-15.1-9.1-23.3c-3.6-18.4-3.7-37.3-2.8-55.9
		C112.2,82.4,111.7,78.9,114.6,77.6z"/>
</g>
<g id="_x23_5e331bff">
	<path class="st5" d="M129,90.7c6.3-5.9,15.2-7.1,23.5-7c-0.3,2.4-0.6,4.7-1,7.1c-7.8-1.2-16-0.2-22.6,4.4c-1.8,1.5-3.5,3.1-5.3,4.7
		C125,96.6,126.6,93.4,129,90.7z"/>
</g>
<g id="_x23_5c3119ff">
	<path class="st6" d="M198.3,90.7c-0.6-2.3-0.6-4.6-0.7-7c7.1,0,14.8,0.6,20.7,5c3.8,2.7,6.4,6.7,7.7,11.1
		c-4.1-4.2-9.1-7.8-14.9-8.8C206.9,90,202.6,90.5,198.3,90.7z"/>
</g>
<g id="_x23_8d5c39ff">
	<path class="st7" d="M130.9,100.9c3.2-5.8,11.2-7.9,17-4.9c7.5,3.1,10,13.7,5.1,20c-3.3,4-9,6.3-14.1,4.9c-3.8-0.8-6.5-3.8-8.9-6.6
		l-0.2-0.4C129,109.6,128.4,104.8,130.9,100.9 M134.3,99.3c-0.2,0-0.5,0.1-0.7,0.2c-2.1,3.1-4,6.7-3.2,10.5
		c1,8.1,11.6,12.9,18.2,7.8c2.2-1.7,5.1-3.5,5-6.7c0.2-3.4,0.6-7.2-1.7-10C148.3,95.4,139,94.6,134.3,99.3z"/>
</g>
<g id="_x23_f3cfacff">
	<path class="st8" d="M244.6,100c1.9-2.1,2.9-4.9,4.6-7.2c0.7,4.6-0.7,9.5-4.6,12.3C244.4,103.4,244.5,101.7,244.6,100z"/>
</g>
<g id="_x23_191818ff">
	<path class="st9" d="M195.9,102.1c1.7-2.8,4.1-5.5,7.6-5.8l-0.1-0.7c3-0.1,6,0,9,0.1l0.1,0.6c3.1,0.6,5.7,3.3,6.3,6.4l1-0.1
		c-0.1,0.4-0.2,1.1-0.3,1.5c1.6,2.2,0.8,5,1,7.5l-1,0.1c0,0.8,0,2.3,0,3l-0.7-0.1c-0.9,2-2.5,3.5-4.4,4.4l0.2,0.7c-0.8,0-2.2,0-3,0
		l-0.1,1.1c-2.7,0-5.4,0-8.1-0.1v-1.3c-0.5,0.2-1.5,0.5-1.9,0.7l0.1-1.5c-0.5,0.1-1.5,0.3-2,0.3l-0.2-0.8c-1.4-1.1-2.5-2.5-3.6-3.9
		C195.1,110.1,195.1,106,195.9,102.1 M207.5,103.1c-0.2,4.1,6.3,4.9,7.5,1.1c1.5-2.9-1.6-5.2-4.1-5.9
		C209.3,99.4,207,100.7,207.5,103.1z"/>
	<path class="st9" d="M134.3,99.3c2.6-0.5,5.1-1.2,7.6-1.9c-0.9,1.8-1.9,3.5-2.4,5.4c0.3,2.9,3,5.2,5.7,5.8c2.8-0.5,5-2.6,7.4-3.9
		c0.2,4.7-1.4,9.2-4,13.1c-6.6,5.1-17.2,0.3-18.2-7.8c-0.8-3.8,1.1-7.4,3.2-10.5C133.7,99.4,134.1,99.4,134.3,99.3z"/>
</g>
<g id="_x23_010100ff">
	<path class="st10" d="M134.3,99.3c4.7-4.8,14-3.9,17.6,1.8c2.3,2.8,1.9,6.6,1.7,10c0.1,3.2-2.8,5-5,6.7c2.5-3.9,4.2-8.4,4-13.1
		c-2.4,1.4-4.6,3.4-7.4,3.9c-2.7-0.7-5.4-2.9-5.7-5.8c0.5-1.9,1.6-3.6,2.4-5.4C139.4,98.2,136.8,98.8,134.3,99.3 M142.7,105.4
		c2,2.4,5.3,0.7,6.9-1.2c0.2-2.5-1.2-4.7-3.5-5.7C142.8,98.2,139.7,103.1,142.7,105.4z"/>
</g>
<g id="_x23_f9d3b0ff">
	<path class="st11" d="M151.3,142.9c15.8-0.6,31.7-0.1,47.6-0.2c-0.4,3.1-1.7,6-3.4,8.6c-13.2-6.3-28.9-5.8-42.2-0.3
		C151.9,148.5,151,145.8,151.3,142.9z"/>
	<path class="st11" d="M319.1,259c-0.4-5.2-0.4-10.5-0.1-15.7C323.9,247.2,324,255.2,319.1,259z"/>
</g>
<g id="_x23_ff614eff">
	<path class="st12" d="M159.6,155.3c9.3-2.5,19.9-3.9,28.8,0.5C179,157.9,168.7,159.1,159.6,155.3z"/>
</g>
<g id="_x23_72657cff">
	<path class="st13" d="M116.4,164.4c1.1,1.8,2.3,3.5,3.5,5.1c-2.8,1.2-5.4,2.7-7.6,4.9c-3.2,0-6.4-0.1-9.5-0.2
		C106,169.4,111.4,166.8,116.4,164.4z"/>
	<path class="st13" d="M229.5,168.8c1.3-1.5,2.5-3.2,3.6-4.8c6,2.1,11.9,5.2,15.7,10.4c-3.1,0-6.3,0-9.4-0.1
		C236.4,172,233.1,170.3,229.5,168.8z"/>
</g>
<g id="_x23_81728dff">
	<path class="st14" d="M224.4,174.4c1.7-1.9,3.5-3.7,5.1-5.6c3.5,1.4,6.9,3.2,9.9,5.6C234.4,174.4,229.4,174.4,224.4,174.4z"/>
</g>
<g id="_x23_82738eff">
	<path class="st15" d="M112.4,174.4c2.1-2.2,4.8-3.7,7.6-4.9c1.3,1.6,2.6,3.3,3.8,4.9C120,174.4,116.2,174.4,112.4,174.4z"/>
</g>
<path class="st16" d="M34.3,175.8c22.9-0.1,45.7,0.3,68.5-0.2c3.2,0.1,6.4,0.2,9.5,0.2c3.8,0,7.6,0,11.4,0c3.9,0,7.8,0.1,11.8,0
	c5.7,0,11.3,0,17,0c19.9,0.1,39.8,0,59.6,0c4.1,0,8.2,0,12.3,0c5,0,10.1,0,15.1,0c3.1,0,6.2,0.1,9.4,0.1c23.3,0.1,46.7-0.1,70,0.1
	c0,17.2-0.2,34.3,0.1,51.5c-0.2,5.8-0.3,11.6,0.1,17.3c-0.3,5.2-0.3,10.5,0.1,15.7c-0.2,2.4-0.3,4.8-0.3,7.2
	c0,18.5-0.1,36.9,0.1,55.4c-21.3,0-42.6-0.1-63.8,0.1c-21,0.1-42,0-63,0c-2.5-0.1-4.8,0.7-7.1,1.5c-7.7,0.1-15.4,0.2-23.1-0.1
	c-2.2-0.8-4.4-1.5-6.7-1.4c-19.7,0-39.4,0.1-59.2,0c-20.5-0.1-41.1,0-61.6,0c0.1-18-0.1-36,0.1-53.9c-0.8-0.7-1.6-1.3-2.4-1.9
	c0.6,0.2,1.7,0.6,2.3,0.8c0-2,0-3.9,0-5.9c0-6.5,0-12.9,0-19.4c0-5.5,0-11.1,0-16.6C34.3,209.3,34.2,192.6,34.3,175.8 M40.5,316.9
	c90.7,0,181.3,0,271.9,0c0-45,0.1-89.9-0.1-134.9c-90.6,0.1-181.2,0.1-271.8,0C40.5,227,40.6,271.9,40.5,316.9z"/>
<g id="_x23_ff5757ff">
	<path class="st17" d="M69.7,201c4.6-5.8,12.1-8.2,19.2-8.4c8.4-0.7,17.3,2.5,22.4,9.4c6.9,8.8,8,20.6,7.6,31.4
		c3.7,0.2,8.2,0,10.8,3.1c2.6,2.5,3.5,6.2,3.4,9.8c-0.1,17,0.1,34-0.1,51c0.1,5.8-5.2,11-11,10.7c-21.4,0.1-42.8,0-64.1,0
		c-6,0-11.5-5.6-10.9-11.7c0-17.4-0.1-34.7,0-52.1c0-7,7.3-11.4,13.7-10.8C60.3,222.1,62.1,209.9,69.7,201 M75.5,209.7
		c-4.3,7.1-4.9,15.7-4.6,23.8c12.6,0,25.2,0,37.8,0c0.3-8.2-0.1-17.1-4.6-24.2C97.9,199.6,81.5,200,75.5,209.7 M79.8,263.3
		c-0.4,4.3,2.7,7.8,5.9,10.2c-0.7,5.5-1.5,11-2.3,16.5c4.9,0,9.9,0,14.8,0c-0.9-5.6-1.8-11.3-2.6-16.9c1.8-1.7,3.9-3.4,4.6-5.9
		c2.2-5.5-1.3-12.6-7.1-13.9C86.9,251.7,79.8,256.8,79.8,263.3z"/>
</g>
<g id="_x23_f5ceabff">
	<path class="st18" d="M28.5,253c-1-4.7,2.1-9,5.7-11.7c0,6.5,0.1,12.9,0,19.4C31.6,258.8,28.8,256.5,28.5,253z"/>
</g>
<g id="_x23_1d1f1dff">
	<path class="st19" d="M95.8,321.7c19.7,0.1,39.5,0.1,59.2,0c2.3-0.1,4.5,0.6,6.7,1.4c-0.2,0.4-0.5,1.2-0.7,1.5
		c8.4,0.3,16.9,0.4,25.3-0.1c-0.4-0.3-1.1-1-1.5-1.4c2.3-0.7,4.7-1.6,7.1-1.5c21,0,42,0.1,63,0c-0.2,0.7-0.6,2.2-0.8,2.9
		c-0.1,0-0.3,0.1-0.4,0.2c-2.9,1.3-5.9,2.3-9.1,2.6c-46.4-0.1-92.9-0.2-139.4,0c-2.9-0.5-5.6-1.5-8.3-2.6c-0.1,0-0.3-0.1-0.4-0.2
		C96.5,323.9,96.1,322.4,95.8,321.7z"/>
</g>
<g id="_x23_000000ff">
	<path d="M161.7,323.1c7.7,0.3,15.4,0.2,23.1,0.1c0.4,0.3,1.1,1,1.5,1.4c-8.4,0.5-16.9,0.4-25.3,0.1
		C161.2,324.3,161.6,323.5,161.7,323.1z"/>
	<path d="M87,451c6-2.9,13-2.2,19.1-0.1c6.3,2.3,12.5-1.3,18.8-1.2c5.6,0,11.2-0.1,16.8,0.3c1.1,6.5,1,13.1-0.2,19.6
		c-23.3,0-46.6,0.5-69.8-1.9C75.1,460.9,80.2,454.6,87,451z"/>
	<path d="M230.9,451.2c7.5,2,14.5-3.3,22.1-2c10.3,1.2,16.9,10.1,21.9,18.3c-4.9,1.1-10,1-14.9,1.1c-18.2,1.5-36.6,0.8-54.8,1
		c-1.4-6.5-1.4-13.2-0.3-19.7C213.6,449.9,222.5,448.8,230.9,451.2z"/>
</g>
<g id="_x23_302c35ff">
	<path class="st20" d="M97.1,324.8c2.7,1.1,5.4,2.2,8.3,2.6c6.2,6.9,13.9,12.4,22.6,15.6c23.4,9.3,49.5,9.9,73.9,4.8
		c15.4-3.8,31.6-8.7,42.8-20.5c3.1-0.3,6.2-1.2,9.1-2.6c-4.7,9.8-14.5,16.1-24.1,20.3c0,8-0.2,16,0.5,23.9
		c0.3,25.2,0.6,50.4,0.5,75.5c-9.9-1-19.8-0.1-29.7-0.5c-0.7,1.7-1.4,3.3-2,5c-0.1-4.7-0.2-9.4-0.7-14.1c-2-20.6-3.6-41.3-5.6-61.9
		c-0.2-5.6-1.4-11.2-1.2-16.8c-6.4,0.4-12.9,0.5-19.3,1c-5.5-0.4-11.1-0.6-16.6-1c-2.5,25-4.4,50-6.9,75c-0.2,6.1-1.7,12.2-1,18.4
		c-0.8-1.9-1.6-3.8-2.4-5.7c-6.7-0.1-13.3,0.2-20-0.1c-3.3-0.2-6.5,0.2-9.7,1.1c0.3-18.7,0-37.3,0.9-56c0.2-14.8,0-29.6,0.4-44.4
		C108.7,339.8,100.8,333.6,97.1,324.8 M122.5,347.9c0,31.7-0.3,63.4-1.1,95.2c6.6,0.5,13.2,0.4,19.8,0.1c0.9-4.8,1.1-9.6,1.5-14.5
		c2.2-24.3,4-48.7,6.6-73c-3.9-1.4-8.1-2-12.1-3C132.1,351.5,127.4,349.3,122.5,347.9 M197.2,355.2c2.3,29.4,5.5,58.6,7.9,88
		c6.6,0.3,13.2,0.3,19.7,0c-1-25-0.2-50.1-0.9-75.2c-0.3-6.6,0.2-13.3-0.6-19.9C214.8,351.3,206,353.3,197.2,355.2z"/>
</g>
<g id="_x23_433c49ff">
	<path class="st21" d="M105.4,327.4c46.5-0.2,92.9-0.1,139.4,0c-11.2,11.8-27.4,16.7-42.8,20.5c-24.4,5.1-50.5,4.5-73.9-4.8
		C119.3,339.8,111.6,334.3,105.4,327.4z"/>
	<path class="st21" d="M122.5,347.9c5,1.4,9.7,3.6,14.7,4.8c4,1,8.2,1.6,12.1,3c-2.7,24.3-4.4,48.7-6.6,73
		c-0.4,4.8-0.6,9.7-1.5,14.5c-6.6,0.3-13.2,0.4-19.8-0.1C122.2,411.4,122.5,379.6,122.5,347.9z"/>
	<path class="st21" d="M197.2,355.2c8.8-1.9,17.6-3.9,26-7.1c0.8,6.6,0.4,13.3,0.6,19.9c0.8,25.1,0,50.1,0.9,75.2
		c-6.6,0.3-13.2,0.3-19.7,0C202.8,413.8,199.5,384.6,197.2,355.2z"/>
</g>
<g id="_x23_202020ff">
	<path class="st22" d="M83.1,446.1c3.3-2.1,7.2-2.6,10.9-3.4c7.4-1.1,14.1,4.4,21.3,2.3c3.2-0.9,6.4-1.2,9.7-1.1
		c6.7,0.3,13.3,0,20,0.1c0.8,1.9,1.6,3.8,2.4,5.7c2.2,8.5,1,17.7-1.3,26.1c-28,0.5-56.1,0-84-2.5C66.4,462.7,72.6,451.7,83.1,446.1
		 M87,451c-6.9,3.6-11.9,9.9-15.3,16.7c23.2,2.4,46.5,1.9,69.8,1.9c1.2-6.5,1.3-13.1,0.2-19.6c-5.6-0.4-11.2-0.2-16.8-0.3
		c-6.3-0.1-12.5,3.5-18.8,1.2C100,448.9,93,448.1,87,451z"/>
	<path class="st22" d="M231.9,445.4c5.6,0.9,10.6-2.1,16-2.7c6.2-0.3,12.4,1.4,17.6,4.6c9,6.2,14.7,16,18.5,26
		c-28,2.5-56.2,3.2-84.3,2.4c-1.8-8.8-3.6-18-1-26.8c0.7-1.7,1.4-3.4,2-5c9.9,0.4,19.9-0.5,29.7,0.5
		C230.9,444.7,231.6,445.2,231.9,445.4 M230.9,451.2c-8.4-2.5-17.4-1.3-26-1.2c-1.1,6.5-1.2,13.2,0.3,19.7c18.3-0.2,36.6,0.5,54.8-1
		c5-0.2,10,0,14.9-1.1c-5-8.2-11.6-17.1-21.9-18.3C245.5,448,238.4,453.2,230.9,451.2z"/>
</g>
<text transform="matrix(1 0 0 1 140.4481 285.2479)" class="st16 st23 st24">¡Parametros Invalidos!</text>
<text transform="matrix(1 0 0 1 140.4482 261.8496)" class="st16 st23 st25">Ups</text>
</svg>
