<?xml version="1.0" encoding="UTF-8" ?>
<!DOCTYPE svg PUBLIC "-//W3C//DTD SVG 1.1//EN" "http://www.w3.org/Graphics/SVG/1.1/DTD/svg11.dtd">
<svg width="351pt" height="480pt" viewBox="0 0 351 480" version="1.1" xmlns="http://www.w3.org/2000/svg">
<g id="#ffffffff">
<path fill="#ffffff" opacity="1.00" d=" M 142.74 105.44 C 139.74 103.07 142.82 98.18 146.14 98.60 C 148.47 99.55 149.86 101.72 149.66 104.26 C 147.99 106.14 144.71 107.88 142.74 105.44 Z" />
<path fill="#ffffff" opacity="1.00" d=" M 207.46 103.06 C 207.02 100.74 209.32 99.43 210.87 98.28 C 213.34 98.98 216.41 101.25 214.94 104.18 C 213.79 107.94 207.31 107.13 207.46 103.06 Z" />
<path fill="#ffffff" opacity="1.00" d=" M 40.51 315.45 C 40.60 270.50 40.50 225.55 40.56 180.60 C 131.16 180.67 221.77 180.71 312.38 180.58 C 312.57 225.53 312.41 270.49 312.45 315.45 C 221.80 315.45 131.16 315.43 40.51 315.45 M 69.74 197.71 C 62.12 206.56 60.32 218.81 60.77 230.12 C 54.32 229.56 47.04 233.93 47.04 240.96 C 46.93 258.33 47.04 275.70 46.99 293.07 C 46.46 299.17 51.88 304.78 57.93 304.75 C 79.31 304.75 100.69 304.80 122.07 304.72 C 127.89 305.00 133.18 299.82 133.09 294.01 C 133.24 277.01 133.09 260.00 133.16 242.99 C 133.32 239.45 132.42 235.75 129.78 233.24 C 127.10 230.14 122.67 230.30 118.95 230.14 C 119.37 219.32 118.24 207.52 111.33 198.70 C 106.22 191.86 97.33 188.60 88.96 189.32 C 81.82 189.52 74.32 191.94 69.74 197.71 M 171.58 231.61 C 171.40 237.48 172.03 243.40 171.22 249.24 C 170.80 252.44 167.37 254.43 164.34 253.56 C 161.38 253.00 160.20 249.75 160.17 247.07 C 159.93 241.90 160.17 236.71 160.09 231.54 C 159.32 231.53 157.78 231.52 157.01 231.51 C 157.03 236.01 156.94 240.51 156.99 245.01 C 157.07 248.02 157.22 251.34 159.26 253.76 C 161.75 256.77 166.37 257.01 169.80 255.68 C 172.86 254.39 174.22 250.96 174.45 247.86 C 174.78 242.40 174.52 236.93 174.56 231.46 C 173.56 231.51 172.57 231.56 171.58 231.61 M 181.12 237.47 C 180.99 246.20 181.06 254.94 181.09 263.68 C 181.83 263.68 183.32 263.68 184.07 263.69 C 184.13 260.67 184.12 257.66 184.03 254.65 C 186.45 255.78 189.24 257.26 191.90 255.85 C 197.73 252.99 198.38 244.19 194.64 239.42 C 191.97 236.37 187.52 237.32 184.57 239.39 C 183.50 238.61 182.34 237.98 181.12 237.47 M 200.46 242.02 C 200.07 246.73 205.77 247.21 208.73 249.26 C 210.86 250.20 210.04 253.34 208.02 253.82 C 204.93 255.10 202.20 251.31 199.20 253.04 C 202.32 257.98 212.67 257.82 212.95 250.97 C 212.71 245.80 206.06 246.24 203.31 243.05 C 203.28 238.64 208.49 239.79 211.05 241.17 C 211.38 240.65 212.03 239.61 212.36 239.09 C 208.53 236.78 201.35 236.37 200.46 242.02 M 188.34 271.06 C 187.81 272.67 188.36 273.24 189.99 272.76 C 190.52 271.14 189.97 270.57 188.34 271.06 M 218.37 277.03 C 218.55 278.92 217.87 281.36 219.77 282.58 C 220.45 280.05 218.69 275.87 222.13 275.05 C 224.00 276.74 223.05 279.68 223.39 281.93 C 223.77 281.96 224.53 282.01 224.91 282.04 C 224.83 279.80 225.02 277.52 224.47 275.34 C 223.66 273.38 221.52 274.33 220.02 274.65 C 219.93 273.12 219.83 271.58 219.72 270.05 C 217.86 271.91 218.54 274.68 218.37 277.03 M 265.12 271.08 C 264.66 272.72 265.24 273.25 266.85 272.67 C 267.31 271.03 266.73 270.50 265.12 271.08 M 289.49 270.09 C 289.40 271.15 289.24 273.28 289.16 274.34 C 285.64 273.10 282.58 276.56 284.03 279.93 C 284.74 283.04 288.34 281.74 290.57 281.67 C 290.16 277.84 291.47 273.59 289.49 270.09 M 303.31 270.61 C 302.98 273.62 302.80 276.75 303.94 279.62 C 304.06 276.71 305.68 272.95 303.31 270.61 M 160.22 282.00 C 162.27 281.99 164.33 282.00 166.39 282.00 L 166.41 280.88 C 164.94 280.85 163.47 280.82 162.01 280.80 C 161.83 277.43 162.77 273.71 160.84 270.69 C 159.92 274.39 160.16 278.22 160.22 282.00 M 199.61 274.67 C 200.09 277.14 200.53 279.62 200.94 282.10 C 201.83 282.07 203.62 282.02 204.52 281.99 C 203.90 281.60 202.66 280.82 202.03 280.43 C 202.02 278.93 202.00 277.42 201.99 275.93 C 202.69 275.57 203.40 275.22 204.11 274.87 C 203.06 273.93 202.10 272.92 201.21 271.85 C 200.68 272.79 200.14 273.73 199.61 274.67 M 155.20 274.26 C 154.68 275.88 155.24 276.43 156.87 275.90 C 157.38 274.27 156.82 273.72 155.20 274.26 M 167.85 275.46 C 169.68 275.51 171.73 275.10 173.24 276.43 C 171.66 277.13 170.02 277.74 168.51 278.60 C 167.73 279.65 167.99 281.21 169.14 281.89 C 170.81 281.98 172.49 281.87 174.18 281.84 C 174.08 279.66 174.28 277.42 173.68 275.31 C 172.28 273.05 169.63 274.63 167.85 275.46 M 179.84 273.49 C 180.62 276.65 180.99 280.37 183.71 282.55 C 184.87 279.67 185.95 276.75 186.63 273.72 C 184.52 275.48 184.13 278.35 183.26 280.79 C 182.42 278.23 181.68 275.55 179.84 273.49 M 188.41 280.05 C 188.37 281.17 188.86 282.00 189.90 282.54 C 190.06 279.54 190.03 276.53 189.68 273.55 C 187.81 275.18 188.46 277.87 188.41 280.05 M 192.57 275.84 C 192.58 278.17 195.76 278.68 197.15 280.14 C 195.53 281.19 193.58 280.75 191.78 280.81 C 193.55 281.98 196.64 283.18 197.77 280.60 C 198.34 277.93 194.15 277.72 193.75 275.22 C 195.11 275.26 196.47 275.30 197.83 275.34 C 196.29 274.03 193.41 273.45 192.57 275.84 M 205.57 275.46 C 207.42 275.49 209.46 275.07 210.93 276.51 C 208.74 277.38 204.30 278.37 206.31 281.69 C 208.21 281.96 210.14 281.80 212.06 281.77 C 211.84 279.44 212.11 276.96 211.15 274.77 C 209.34 273.37 207.31 274.67 205.57 275.46 M 226.90 275.41 C 228.75 275.49 230.60 275.61 232.42 275.96 C 230.69 277.43 226.64 277.75 227.15 280.70 C 228.19 283.03 231.20 281.49 233.18 281.83 C 233.07 279.64 233.30 277.39 232.66 275.27 C 231.25 273.08 228.67 274.62 226.90 275.41 M 240.05 280.84 C 241.28 282.96 244.21 282.21 245.87 281.06 C 244.88 281.04 242.90 281.01 241.91 280.99 C 241.57 280.41 240.89 279.24 240.55 278.65 C 242.40 278.58 244.25 278.53 246.10 278.46 C 245.56 276.68 245.27 274.16 242.93 273.98 C 239.59 273.81 237.92 278.49 240.05 280.84 M 247.53 273.57 C 248.18 275.07 248.87 276.55 249.57 278.04 C 248.76 279.50 247.96 280.96 247.23 282.47 C 248.49 281.53 249.56 280.38 250.49 279.12 C 251.41 280.42 252.49 281.61 253.83 282.48 C 253.11 281.02 252.33 279.60 251.54 278.18 C 252.19 276.64 252.84 275.11 253.47 273.57 C 252.49 274.66 251.54 275.78 250.60 276.90 C 249.59 275.77 248.57 274.66 247.53 273.57 M 255.79 274.44 C 256.12 278.20 254.73 282.47 256.81 285.84 C 256.90 284.93 257.07 283.12 257.16 282.22 C 258.36 282.14 259.55 282.02 260.75 281.85 C 262.90 280.43 262.99 277.39 261.96 275.25 C 260.39 273.44 257.84 274.51 255.79 274.44 M 265.09 273.76 C 264.99 276.51 264.99 279.26 264.99 282.00 C 265.48 282.00 266.47 282.00 266.96 282.00 C 266.39 279.37 268.48 274.77 265.09 273.76 M 269.43 274.59 C 269.76 277.20 268.37 280.67 270.76 282.57 C 270.94 280.49 271.07 278.41 271.16 276.33 C 272.22 275.58 273.29 274.83 274.35 274.08 C 272.70 274.24 271.07 274.42 269.43 274.59 M 275.26 275.54 C 277.07 275.43 279.12 274.96 280.48 276.55 C 278.74 277.56 274.75 277.69 275.40 280.59 C 276.22 283.12 279.54 281.45 281.47 281.75 C 281.36 279.57 281.48 277.36 280.92 275.25 C 279.49 273.16 276.87 274.44 275.26 275.54 M 295.41 274.29 C 292.60 275.32 292.12 279.63 294.43 281.43 C 296.12 282.99 298.98 282.03 299.75 279.97 C 301.21 277.24 298.63 273.06 295.41 274.29 M 155.16 277.95 C 155.09 280.30 155.02 282.65 154.97 285.00 C 155.49 285.00 156.55 285.01 157.07 285.01 C 157.02 282.32 156.93 279.63 156.79 276.95 C 156.38 277.20 155.57 277.70 155.16 277.95 M 303.03 280.28 C 302.49 281.90 303.04 282.47 304.67 281.99 C 305.20 280.37 304.66 279.80 303.03 280.28 Z" />
<path fill="#ffffff" opacity="1.00" d=" M 75.53 206.43 C 81.52 196.68 97.90 196.33 104.17 205.98 C 108.69 213.14 109.01 222.00 108.76 230.21 C 96.16 230.28 83.56 230.23 70.96 230.24 C 70.67 222.14 71.23 213.53 75.53 206.43 Z" />
<path fill="#ffffff" opacity="1.00" d=" M 184.15 242.11 C 186.41 240.74 189.51 238.81 191.93 241.02 C 194.59 244.16 194.40 249.58 191.65 252.63 C 189.48 254.90 186.32 253.46 184.06 252.14 C 184.13 248.80 184.15 245.46 184.15 242.11 Z" />
<path fill="#ffffff" opacity="1.00" d=" M 79.76 260.03 C 79.76 253.51 86.87 248.39 93.07 250.13 C 98.92 251.43 102.42 258.52 100.20 264.02 C 99.46 266.49 97.40 268.16 95.60 269.87 C 96.43 275.50 97.33 281.12 98.19 286.75 C 93.26 286.75 88.33 286.75 83.40 286.74 C 84.16 281.24 84.98 275.74 85.69 270.23 C 82.44 267.84 79.37 264.36 79.76 260.03 Z" />
<path fill="#ffffff" opacity="1.00" d=" M 257.01 275.79 C 258.39 275.54 259.80 275.53 261.18 275.77 C 261.35 278.40 260.72 281.70 257.31 281.03 C 257.21 279.28 257.11 277.53 257.01 275.79 Z" />
<path fill="#ffffff" opacity="1.00" d=" M 285.89 275.76 C 286.94 275.06 288.25 275.61 289.40 275.59 C 289.38 278.19 289.40 281.49 285.91 281.37 C 285.51 279.55 284.51 277.43 285.89 275.76 Z" />
<path fill="#ffffff" opacity="1.00" d=" M 296.17 275.12 C 299.66 274.91 299.64 281.74 296.07 280.95 C 293.62 280.37 293.80 275.97 296.17 275.12 Z" />
<path fill="#ffffff" opacity="1.00" d=" M 171.09 278.23 C 173.92 277.26 172.93 281.54 170.66 280.97 C 168.79 280.81 169.71 278.36 171.09 278.23 Z" />
<path fill="#ffffff" opacity="1.00" d=" M 209.53 278.16 C 212.14 278.74 209.05 282.18 207.47 280.68 C 206.42 279.44 208.32 278.02 209.53 278.16 Z" />
<path fill="#ffffff" opacity="1.00" d=" M 230.10 278.23 C 232.93 277.27 231.91 281.55 229.65 280.97 C 227.78 280.79 228.72 278.35 230.10 278.23 Z" />
</g>
<g id="#8a5d3bff">
<path fill="#8a5d3b" opacity="1.00" d=" M 222.83 5.15 C 225.74 4.56 229.81 2.55 231.76 5.90 C 232.37 8.84 229.55 10.65 228.03 12.76 C 231.03 11.69 233.99 10.42 237.20 10.18 C 240.63 13.96 235.80 18.20 236.93 22.39 C 238.44 29.20 242.98 34.69 246.26 40.69 C 253.42 54.16 253.60 70.16 250.51 84.80 C 256.40 90.10 257.36 100.09 252.16 106.18 C 250.15 108.54 247.47 110.34 244.41 110.99 C 243.30 115.25 243.86 119.71 243.24 124.05 C 241.55 137.67 239.57 151.70 233.12 164.00 C 232.03 165.68 230.84 167.30 229.53 168.83 C 227.86 170.72 226.10 172.54 224.40 174.41 C 220.31 174.44 216.23 174.48 212.14 174.45 C 217.34 171.04 223.19 167.99 226.63 162.59 C 230.58 156.45 232.46 149.28 234.20 142.28 C 236.52 131.36 237.64 120.19 237.78 109.04 C 237.98 102.01 238.87 94.95 238.08 87.93 C 236.21 81.71 230.14 78.13 224.52 75.69 C 224.39 75.34 224.13 74.62 223.99 74.27 C 212.47 71.06 200.49 73.05 188.90 74.74 C 189.51 74.95 190.72 75.37 191.33 75.58 C 178.36 79.14 164.36 75.85 153.21 68.70 C 146.38 74.64 137.11 75.99 128.36 75.79 C 123.75 76.03 118.85 75.70 114.55 77.61 C 111.69 78.89 112.16 82.43 111.77 85.02 C 110.88 103.67 110.96 122.53 114.59 140.92 C 116.20 149.13 119.00 157.24 123.66 164.24 C 126.56 168.72 131.19 171.56 135.53 174.45 C 131.61 174.49 127.69 174.44 123.77 174.41 C 122.49 172.77 121.20 171.15 119.93 169.51 C 118.67 167.86 117.47 166.16 116.39 164.39 C 107.69 148.35 105.91 129.62 105.13 111.70 C 103.03 110.16 100.27 109.58 98.41 107.66 C 92.21 102.23 92.34 91.84 97.57 85.78 C 95.33 74.84 94.87 63.29 98.51 52.59 C 101.91 41.37 109.76 31.90 119.40 25.41 C 129.89 18.53 141.88 14.08 154.22 11.93 C 172.06 8.02 191.48 8.05 208.41 15.51 C 212.22 10.93 216.79 6.45 222.83 5.15 M 212.35 21.37 C 211.54 23.18 209.33 22.91 207.89 22.12 C 188.44 12.63 165.57 14.50 145.35 20.42 C 131.39 24.51 117.37 31.65 109.26 44.19 C 101.35 55.84 101.18 70.78 103.50 84.18 C 105.19 79.51 107.12 74.26 111.98 72.03 C 121.17 67.88 131.57 71.03 141.05 68.23 C 145.63 67.12 149.03 63.69 152.87 61.19 C 161.72 67.04 172.14 71.73 182.99 70.70 C 189.01 70.12 194.92 68.66 200.97 68.19 C 212.43 66.89 224.97 67.54 234.83 74.17 C 238.89 76.78 241.55 80.88 244.14 84.82 C 247.09 72.12 247.56 58.12 241.99 46.05 C 237.57 37.22 230.40 29.17 230.34 18.76 C 226.72 21.40 225.49 25.73 223.68 29.58 C 221.96 30.24 219.32 30.08 218.91 27.88 C 217.22 22.76 219.01 17.40 220.75 12.55 C 216.90 14.38 214.53 17.88 212.35 21.37 M 244.60 100.01 C 244.46 101.72 244.44 103.43 244.58 105.15 C 248.48 102.33 249.90 97.49 249.18 92.86 C 247.50 95.15 246.53 97.89 244.60 100.01 M 99.52 95.90 C 99.74 98.58 100.74 101.12 102.58 103.11 C 101.97 100.55 101.17 97.99 99.52 95.90 Z" />
<path fill="#8a5d3b" opacity="1.00" d=" M 147.24 136.35 C 166.36 136.88 185.52 136.48 204.65 136.55 C 205.60 144.08 204.28 153.07 197.64 157.73 C 191.61 162.63 183.48 163.38 176.01 163.80 C 167.11 164.18 157.23 163.19 150.35 156.92 C 148.92 154.03 147.60 151.06 146.79 147.93 C 145.78 144.11 146.70 140.17 147.24 136.35 M 151.29 142.93 C 150.97 145.78 151.91 148.50 153.15 151.01 C 166.54 145.56 182.19 145.00 195.39 151.32 C 197.18 148.74 198.41 145.83 198.84 142.71 C 182.99 142.83 167.11 142.37 151.29 142.93 M 159.60 155.29 C 168.70 159.08 179.04 157.90 188.41 155.77 C 179.46 151.39 168.91 152.76 159.60 155.29 Z" />
<path fill="#8a5d3b" opacity="1.00" d=" M 29.98 227.96 C 31.18 226.63 32.71 225.67 34.19 224.69 C 34.17 230.23 34.19 235.77 34.15 241.31 C 30.57 244.05 27.55 248.30 28.50 253.04 C 28.80 256.51 31.64 258.75 34.17 260.72 C 34.17 262.68 34.16 264.65 34.15 266.62 C 33.58 266.42 32.45 266.02 31.88 265.82 C 21.46 262.53 19.17 247.80 26.20 240.22 C 27.22 239.15 28.35 238.19 29.45 237.20 C 27.84 234.42 27.47 230.33 29.98 227.96 Z" />
<path fill="#8a5d3b" opacity="1.00" d=" M 319.04 243.31 C 318.60 237.55 318.76 231.77 318.92 226.00 C 320.45 227.43 322.43 228.73 322.93 230.93 C 323.75 233.15 322.49 235.43 322.12 237.64 C 328.76 242.00 330.72 251.43 327.50 258.48 C 325.91 262.23 322.34 264.62 318.76 266.27 C 318.78 263.86 318.88 261.45 319.11 259.05 C 324.04 255.18 323.86 247.19 319.04 243.31 Z" />
</g>
<g id="#603813ff">
<path fill="#603813" opacity="1.00" d=" M 212.35 21.37 C 214.53 17.88 216.90 14.38 220.75 12.55 C 219.01 17.40 217.22 22.76 218.91 27.88 C 219.32 30.08 221.96 30.24 223.68 29.58 C 225.49 25.73 226.72 21.40 230.34 18.76 C 230.40 29.17 237.57 37.22 241.99 46.05 C 247.56 58.12 247.09 72.12 244.14 84.82 C 241.55 80.88 238.89 76.78 234.83 74.17 C 224.97 67.54 212.43 66.89 200.97 68.19 C 194.92 68.66 189.01 70.12 182.99 70.70 C 172.14 71.73 161.72 67.04 152.87 61.19 C 149.03 63.69 145.63 67.12 141.05 68.23 C 131.57 71.03 121.17 67.88 111.98 72.03 C 107.12 74.26 105.19 79.51 103.50 84.18 C 101.18 70.78 101.35 55.84 109.26 44.19 C 117.37 31.65 131.39 24.51 145.35 20.42 C 165.57 14.50 188.44 12.63 207.89 22.12 C 209.33 22.91 211.54 23.18 212.35 21.37 Z" />
<path fill="#603813" opacity="1.00" d=" M 188.90 74.74 C 200.49 73.05 212.47 71.06 223.99 74.27 C 224.13 74.62 224.39 75.34 224.52 75.69 C 213.69 72.30 202.30 73.90 191.33 75.58 C 190.72 75.37 189.51 74.95 188.90 74.74 Z" />
<path fill="#603813" opacity="1.00" d=" M 145.49 138.91 C 145.42 137.67 146.07 136.72 147.24 136.35 C 146.70 140.17 145.78 144.11 146.79 147.93 C 147.60 151.06 148.92 154.03 150.35 156.92 C 145.16 152.57 144.77 145.15 145.49 138.91 Z" />
</g>
<g id="#f4ceabff">
<path fill="#f4ceab" opacity="1.00" d=" M 128.36 75.79 C 137.11 75.99 146.38 74.64 153.21 68.70 C 164.36 75.85 178.36 79.14 191.33 75.58 C 202.30 73.90 213.69 72.30 224.52 75.69 C 230.14 78.13 236.21 81.71 238.08 87.93 C 238.87 94.95 237.98 102.01 237.78 109.04 C 237.64 120.19 236.52 131.36 234.20 142.28 C 232.46 149.28 230.58 156.45 226.63 162.59 C 223.19 167.99 217.34 171.04 212.14 174.45 C 192.27 174.45 172.39 174.49 152.52 174.43 C 144.80 166.32 138.48 156.75 134.85 146.12 C 132.33 138.81 130.77 131.21 129.45 123.60 C 128.86 120.51 129.28 117.37 129.90 114.32 C 132.36 117.09 135.05 120.10 138.84 120.92 C 143.99 122.36 149.63 120.02 152.97 116.02 C 157.87 109.73 155.45 99.07 147.91 96.02 C 142.09 93.06 134.14 95.13 130.92 100.94 C 128.44 104.81 129.02 109.60 129.71 113.90 C 126.97 108.12 127.92 101.36 128.95 95.26 C 135.49 90.67 143.79 89.64 151.54 90.84 C 151.86 88.47 152.19 86.10 152.49 83.73 C 144.22 83.57 135.26 84.81 128.99 90.71 C 127.64 85.84 127.93 80.77 128.36 75.79 M 198.30 90.70 C 202.55 90.54 206.87 90.00 211.07 91.04 C 216.93 92.03 221.94 95.63 225.99 99.83 C 224.74 95.41 222.08 91.38 218.32 88.71 C 212.39 84.37 204.69 83.76 197.59 83.73 C 197.67 86.07 197.66 88.44 198.30 90.70 M 195.91 102.06 C 195.05 106.00 195.13 110.06 195.81 114.02 C 196.88 115.43 198.01 116.82 199.43 117.90 L 199.58 118.66 C 200.07 118.58 201.06 118.41 201.55 118.33 L 201.50 119.84 C 201.98 119.67 202.96 119.32 203.45 119.15 L 203.45 120.47 C 206.14 120.55 208.83 120.58 211.53 120.57 L 211.63 119.50 C 212.37 119.51 213.86 119.53 214.61 119.54 L 214.40 118.82 C 216.35 117.90 217.95 116.42 218.82 114.43 L 219.49 114.53 C 219.48 113.77 219.46 112.27 219.45 111.51 L 220.48 111.44 C 220.28 108.93 221.06 106.13 219.50 103.93 C 219.58 103.56 219.73 102.82 219.81 102.46 L 218.82 102.55 C 218.24 99.45 215.64 96.81 212.54 96.20 L 212.43 95.55 C 209.43 95.46 206.43 95.44 203.44 95.50 L 203.50 96.21 C 199.98 96.51 197.64 99.27 195.91 102.06 M 145.49 138.91 C 144.77 145.15 145.16 152.57 150.35 156.92 C 157.23 163.19 167.11 164.18 176.01 163.80 C 183.48 163.38 191.61 162.63 197.64 157.73 C 204.28 153.07 205.60 144.08 204.65 136.55 C 185.52 136.48 166.36 136.88 147.24 136.35 C 146.07 136.72 145.42 137.67 145.49 138.91 Z" />
<path fill="#f4ceab" opacity="1.00" d=" M 99.52 95.90 C 101.17 97.99 101.97 100.55 102.58 103.11 C 100.74 101.12 99.74 98.58 99.52 95.90 Z" />
</g>
<g id="#f8dec6ff">
<path fill="#f8dec6" opacity="1.00" d=" M 114.55 77.61 C 118.85 75.70 123.75 76.03 128.36 75.79 C 127.93 80.77 127.64 85.84 128.99 90.71 C 126.58 93.37 124.98 96.63 123.67 99.94 C 125.42 98.37 127.13 96.75 128.95 95.26 C 127.92 101.36 126.97 108.12 129.71 113.90 L 129.90 114.32 C 129.28 117.37 128.86 120.51 129.45 123.60 C 130.77 131.21 132.33 138.81 134.85 146.12 C 138.48 156.75 144.80 166.32 152.52 174.43 C 146.86 174.42 141.19 174.42 135.53 174.45 C 131.19 171.56 126.56 168.72 123.66 164.24 C 119.00 157.24 116.20 149.13 114.59 140.92 C 110.96 122.53 110.88 103.67 111.77 85.02 C 112.16 82.43 111.69 78.89 114.55 77.61 Z" />
</g>
<g id="#5e331bff">
<path fill="#5e331b" opacity="1.00" d=" M 128.99 90.71 C 135.26 84.81 144.22 83.57 152.49 83.73 C 152.19 86.10 151.86 88.47 151.54 90.84 C 143.79 89.64 135.49 90.67 128.95 95.26 C 127.13 96.75 125.42 98.37 123.67 99.94 C 124.98 96.63 126.58 93.37 128.99 90.71 Z" />
</g>
<g id="#5c3119ff">
<path fill="#5c3119" opacity="1.00" d=" M 198.30 90.70 C 197.66 88.44 197.67 86.07 197.59 83.73 C 204.69 83.76 212.39 84.37 218.32 88.71 C 222.08 91.38 224.74 95.41 225.99 99.83 C 221.94 95.63 216.93 92.03 211.07 91.04 C 206.87 90.00 202.55 90.54 198.30 90.70 Z" />
</g>
<g id="#8d5c39ff">
<path fill="#8d5c39" opacity="1.00" d=" M 130.92 100.94 C 134.14 95.13 142.09 93.06 147.91 96.02 C 155.45 99.07 157.87 109.73 152.97 116.02 C 149.63 120.02 143.99 122.36 138.84 120.92 C 135.05 120.10 132.36 117.09 129.90 114.32 L 129.71 113.90 C 129.02 109.60 128.44 104.81 130.92 100.94 M 134.29 99.33 C 134.11 99.37 133.74 99.45 133.56 99.49 C 131.44 102.55 129.59 106.14 130.39 109.99 C 131.40 118.06 142.04 122.93 148.59 117.80 C 150.78 116.12 153.68 114.29 153.57 111.13 C 153.78 107.77 154.18 103.93 151.92 101.13 C 148.28 95.39 139.00 94.57 134.29 99.33 Z" />
</g>
<g id="#f3cfacff">
<path fill="#f3cfac" opacity="1.00" d=" M 244.60 100.01 C 246.53 97.89 247.50 95.15 249.18 92.86 C 249.90 97.49 248.48 102.33 244.58 105.15 C 244.44 103.43 244.46 101.72 244.60 100.01 Z" />
</g>
<g id="#191818ff">
<path fill="#191818" opacity="1.00" d=" M 195.91 102.06 C 197.64 99.27 199.98 96.51 203.50 96.21 L 203.44 95.50 C 206.43 95.44 209.43 95.46 212.43 95.55 L 212.54 96.20 C 215.64 96.81 218.24 99.45 218.82 102.55 L 219.81 102.46 C 219.73 102.82 219.58 103.56 219.50 103.93 C 221.06 106.13 220.28 108.93 220.48 111.44 L 219.45 111.51 C 219.46 112.27 219.48 113.77 219.49 114.53 L 218.82 114.43 C 217.95 116.42 216.35 117.90 214.40 118.82 L 214.61 119.54 C 213.86 119.53 212.37 119.51 211.63 119.50 L 211.53 120.57 C 208.83 120.58 206.14 120.55 203.45 120.47 L 203.45 119.15 C 202.96 119.32 201.98 119.67 201.50 119.84 L 201.55 118.33 C 201.06 118.41 200.07 118.58 199.58 118.66 L 199.43 117.90 C 198.01 116.82 196.88 115.43 195.81 114.02 C 195.13 110.06 195.05 106.00 195.91 102.06 M 207.46 103.06 C 207.31 107.13 213.79 107.94 214.94 104.18 C 216.41 101.25 213.34 98.98 210.87 98.28 C 209.32 99.43 207.02 100.74 207.46 103.06 Z" />
<path fill="#191818" opacity="1.00" d=" M 134.29 99.33 C 136.84 98.80 139.36 98.15 141.88 97.46 C 141.00 99.22 139.94 100.93 139.45 102.85 C 139.76 105.76 142.45 108.00 145.18 108.65 C 147.97 108.15 150.16 106.09 152.55 104.71 C 152.74 109.42 151.13 113.90 148.59 117.80 C 142.04 122.93 131.40 118.06 130.39 109.99 C 129.59 106.14 131.44 102.55 133.56 99.49 C 133.74 99.45 134.11 99.37 134.29 99.33 Z" />
</g>
<g id="#010100ff">
<path fill="#010100" opacity="1.00" d=" M 134.29 99.33 C 139.00 94.57 148.28 95.39 151.92 101.13 C 154.18 103.93 153.78 107.77 153.57 111.13 C 153.68 114.29 150.78 116.12 148.59 117.80 C 151.13 113.90 152.74 109.42 152.55 104.71 C 150.16 106.09 147.97 108.15 145.18 108.65 C 142.45 108.00 139.76 105.76 139.45 102.85 C 139.94 100.93 141.00 99.22 141.88 97.46 C 139.36 98.15 136.84 98.80 134.29 99.33 M 142.74 105.44 C 144.71 107.88 147.99 106.14 149.66 104.26 C 149.86 101.72 148.47 99.55 146.14 98.60 C 142.82 98.18 139.74 103.07 142.74 105.44 Z" />
</g>
<g id="#f9d3b0ff">
<path fill="#f9d3b0" opacity="1.00" d=" M 151.29 142.93 C 167.11 142.37 182.99 142.83 198.84 142.71 C 198.41 145.83 197.18 148.74 195.39 151.32 C 182.19 145.00 166.54 145.56 153.15 151.01 C 151.91 148.50 150.97 145.78 151.29 142.93 Z" />
<path fill="#f9d3b0" opacity="1.00" d=" M 319.11 259.05 C 318.70 253.80 318.71 248.55 319.04 243.31 C 323.86 247.19 324.04 255.18 319.11 259.05 Z" />
</g>
<g id="#ff614eff">
<path fill="#ff614e" opacity="1.00" d=" M 159.60 155.29 C 168.91 152.76 179.46 151.39 188.41 155.77 C 179.04 157.90 168.70 159.08 159.60 155.29 Z" />
</g>
<g id="#72657cff">
<path fill="#72657c" opacity="1.00" d=" M 116.39 164.39 C 117.47 166.16 118.67 167.86 119.93 169.51 C 117.13 170.68 114.50 172.22 112.36 174.40 C 109.18 174.43 106.00 174.30 102.82 174.20 C 106.01 169.36 111.36 166.84 116.39 164.39 Z" />
<path fill="#72657c" opacity="1.00" d=" M 229.53 168.83 C 230.84 167.30 232.03 165.68 233.12 164.00 C 239.11 166.06 245.04 169.20 248.84 174.44 C 245.71 174.44 242.59 174.40 239.47 174.38 C 236.45 172.04 233.05 170.28 229.53 168.83 Z" />
</g>
<g id="#81728dff">
<path fill="#81728d" opacity="1.00" d=" M 224.40 174.41 C 226.10 172.54 227.86 170.72 229.53 168.83 C 233.05 170.28 236.45 172.04 239.47 174.38 C 234.45 174.43 229.42 174.42 224.40 174.41 Z" />
</g>
<g id="#82738eff">
<path fill="#82738e" opacity="1.00" d=" M 112.36 174.40 C 114.50 172.22 117.13 170.68 119.93 169.51 C 121.20 171.15 122.49 172.77 123.77 174.41 C 119.97 174.40 116.16 174.41 112.36 174.40 Z" />
</g>
<g id="#b5b5b5ff">
<path fill="#b5b5b5" opacity="1.00" d=" M 34.28 174.41 C 57.13 174.36 79.99 174.76 102.82 174.20 C 106.00 174.30 109.18 174.43 112.36 174.40 C 116.16 174.41 119.97 174.40 123.77 174.41 C 127.69 174.44 131.61 174.49 135.53 174.45 C 141.19 174.42 146.86 174.42 152.52 174.43 C 172.39 174.49 192.27 174.45 212.14 174.45 C 216.23 174.48 220.31 174.44 224.40 174.41 C 229.42 174.42 234.45 174.43 239.47 174.38 C 242.59 174.40 245.71 174.44 248.84 174.44 C 272.17 174.54 295.50 174.33 318.83 174.54 C 318.79 191.69 318.62 208.85 318.92 226.00 C 318.76 231.77 318.60 237.55 319.04 243.31 C 318.71 248.55 318.70 253.80 319.11 259.05 C 318.88 261.45 318.78 263.86 318.76 266.27 C 318.81 284.74 318.71 303.21 318.82 321.67 C 297.54 321.69 276.27 321.58 254.99 321.73 C 233.99 321.80 212.98 321.78 191.98 321.73 C 189.50 321.63 187.16 322.47 184.83 323.20 C 177.13 323.26 169.41 323.42 161.71 323.10 C 159.56 322.32 157.35 321.62 155.03 321.73 C 135.31 321.78 115.58 321.81 95.85 321.72 C 75.31 321.60 54.76 321.67 34.21 321.69 C 34.33 303.71 34.13 285.73 34.32 267.76 C 33.51 267.11 32.69 266.47 31.88 265.82 C 32.45 266.02 33.58 266.42 34.15 266.62 C 34.16 264.65 34.17 262.68 34.17 260.72 C 34.21 254.25 34.20 247.78 34.15 241.31 C 34.19 235.77 34.17 230.23 34.19 224.69 C 34.33 207.93 34.16 191.17 34.28 174.41 M 40.51 315.45 C 131.16 315.43 221.80 315.45 312.45 315.45 C 312.41 270.49 312.57 225.53 312.38 180.58 C 221.77 180.71 131.16 180.67 40.56 180.60 C 40.50 225.55 40.60 270.50 40.51 315.45 Z" />
<path fill="#b5b5b5" opacity="1.00" d=" M 218.37 277.03 C 218.54 274.68 217.86 271.91 219.72 270.05 C 219.83 271.58 219.93 273.12 220.02 274.65 C 221.52 274.33 223.66 273.38 224.47 275.34 C 225.02 277.52 224.83 279.80 224.91 282.04 C 224.53 282.01 223.77 281.96 223.39 281.93 C 223.05 279.68 224.00 276.74 222.13 275.05 C 218.69 275.87 220.45 280.05 219.77 282.58 C 217.87 281.36 218.55 278.92 218.37 277.03 Z" />
<path fill="#b5b5b5" opacity="1.00" d=" M 303.31 270.61 C 305.68 272.95 304.06 276.71 303.94 279.62 C 302.80 276.75 302.98 273.62 303.31 270.61 Z" />
<path fill="#b5b5b5" opacity="1.00" d=" M 188.41 280.05 C 188.46 277.87 187.81 275.18 189.68 273.55 C 190.03 276.53 190.06 279.54 189.90 282.54 C 188.86 282.00 188.37 281.17 188.41 280.05 Z" />
<path fill="#b5b5b5" opacity="1.00" d=" M 240.05 280.84 C 237.92 278.49 239.59 273.81 242.93 273.98 C 245.27 274.16 245.56 276.68 246.10 278.46 C 244.25 278.53 242.40 278.58 240.55 278.65 C 240.89 279.24 241.57 280.41 241.91 280.99 C 242.90 281.01 244.88 281.04 245.87 281.06 C 244.21 282.21 241.28 282.96 240.05 280.84 M 242.24 275.39 C 241.99 275.65 241.51 276.15 241.26 276.41 C 242.01 279.44 245.76 274.99 242.24 275.39 Z" />
<path fill="#b5b5b5" opacity="1.00" d=" M 269.43 274.59 C 271.07 274.42 272.70 274.24 274.35 274.08 C 273.29 274.83 272.22 275.58 271.16 276.33 C 271.07 278.41 270.94 280.49 270.76 282.57 C 268.37 280.67 269.76 277.20 269.43 274.59 Z" />
</g>
<g id="#ff5757ff">
<path fill="#ff5757" opacity="1.00" d=" M 69.74 197.71 C 74.32 191.94 81.82 189.52 88.96 189.32 C 97.33 188.60 106.22 191.86 111.33 198.70 C 118.24 207.52 119.37 219.32 118.95 230.14 C 122.67 230.30 127.10 230.14 129.78 233.24 C 132.42 235.75 133.32 239.45 133.16 242.99 C 133.09 260.00 133.24 277.01 133.09 294.01 C 133.18 299.82 127.89 305.00 122.07 304.72 C 100.69 304.80 79.31 304.75 57.93 304.75 C 51.88 304.78 46.46 299.17 46.99 293.07 C 47.04 275.70 46.93 258.33 47.04 240.96 C 47.04 233.93 54.32 229.56 60.77 230.12 C 60.32 218.81 62.12 206.56 69.74 197.71 M 75.53 206.43 C 71.23 213.53 70.67 222.14 70.96 230.24 C 83.56 230.23 96.16 230.28 108.76 230.21 C 109.01 222.00 108.69 213.14 104.17 205.98 C 97.90 196.33 81.52 196.68 75.53 206.43 M 79.76 260.03 C 79.37 264.36 82.44 267.84 85.69 270.23 C 84.98 275.74 84.16 281.24 83.40 286.74 C 88.33 286.75 93.26 286.75 98.19 286.75 C 97.33 281.12 96.43 275.50 95.60 269.87 C 97.40 268.16 99.46 266.49 100.20 264.02 C 102.42 258.52 98.92 251.43 93.07 250.13 C 86.87 248.39 79.76 253.51 79.76 260.03 Z" />
</g>
<g id="#a8a8a8ff">
<path fill="#a8a8a8" opacity="1.00" d=" M 171.58 231.61 C 172.57 231.56 173.56 231.51 174.56 231.46 C 174.52 236.93 174.78 242.40 174.45 247.86 C 174.22 250.96 172.86 254.39 169.80 255.68 C 166.37 257.01 161.75 256.77 159.26 253.76 C 157.22 251.34 157.07 248.02 156.99 245.01 C 156.94 240.51 157.03 236.01 157.01 231.51 C 157.78 231.52 159.32 231.53 160.09 231.54 C 160.17 236.71 159.93 241.90 160.17 247.07 C 160.20 249.75 161.38 253.00 164.34 253.56 C 167.37 254.43 170.80 252.44 171.22 249.24 C 172.03 243.40 171.40 237.48 171.58 231.61 Z" />
<path fill="#a8a8a8" opacity="1.00" d=" M 181.12 237.47 C 182.34 237.98 183.50 238.61 184.57 239.39 C 187.52 237.32 191.97 236.37 194.64 239.42 C 198.38 244.19 197.73 252.99 191.90 255.85 C 189.24 257.26 186.45 255.78 184.03 254.65 C 184.12 257.66 184.13 260.67 184.07 263.69 C 183.32 263.68 181.83 263.68 181.09 263.68 C 181.06 254.94 180.99 246.20 181.12 237.47 M 184.15 242.11 C 184.15 245.46 184.13 248.80 184.06 252.14 C 186.32 253.46 189.48 254.90 191.65 252.63 C 194.40 249.58 194.59 244.16 191.93 241.02 C 189.51 238.81 186.41 240.74 184.15 242.11 Z" />
<path fill="#a8a8a8" opacity="1.00" d=" M 200.46 242.02 C 201.35 236.37 208.53 236.78 212.36 239.09 C 212.03 239.61 211.38 240.65 211.05 241.17 C 208.49 239.79 203.28 238.64 203.31 243.05 C 206.06 246.24 212.71 245.80 212.95 250.97 C 212.67 257.82 202.32 257.98 199.20 253.04 C 202.20 251.31 204.93 255.10 208.02 253.82 C 210.04 253.34 210.86 250.20 208.73 249.26 C 205.77 247.21 200.07 246.73 200.46 242.02 Z" />
<path fill="#a8a8a8" opacity="1.00" d=" M 289.49 270.09 C 291.47 273.59 290.16 277.84 290.57 281.67 C 288.34 281.74 284.74 283.04 284.03 279.93 C 282.58 276.56 285.64 273.10 289.16 274.34 C 289.24 273.28 289.40 271.15 289.49 270.09 M 285.89 275.76 C 284.51 277.43 285.51 279.55 285.91 281.37 C 289.40 281.49 289.38 278.19 289.40 275.59 C 288.25 275.61 286.94 275.06 285.89 275.76 Z" />
<path fill="#a8a8a8" opacity="1.00" d=" M 167.85 275.46 C 169.63 274.63 172.28 273.05 173.68 275.31 C 174.28 277.42 174.08 279.66 174.18 281.84 C 172.49 281.87 170.81 281.98 169.14 281.89 C 167.99 281.21 167.73 279.65 168.51 278.60 C 170.02 277.74 171.66 277.13 173.24 276.43 C 171.73 275.10 169.68 275.51 167.85 275.46 M 171.09 278.23 C 169.71 278.36 168.79 280.81 170.66 280.97 C 172.93 281.54 173.92 277.26 171.09 278.23 Z" />
<path fill="#a8a8a8" opacity="1.00" d=" M 179.84 273.49 C 181.68 275.55 182.42 278.23 183.26 280.79 C 184.13 278.35 184.52 275.48 186.63 273.72 C 185.95 276.75 184.87 279.67 183.71 282.55 C 180.99 280.37 180.62 276.65 179.84 273.49 Z" />
<path fill="#a8a8a8" opacity="1.00" d=" M 192.57 275.84 C 193.41 273.45 196.29 274.03 197.83 275.34 C 196.47 275.30 195.11 275.26 193.75 275.22 C 194.15 277.72 198.34 277.93 197.77 280.60 C 196.64 283.18 193.55 281.98 191.78 280.81 C 193.58 280.75 195.53 281.19 197.15 280.14 C 195.76 278.68 192.58 278.17 192.57 275.84 Z" />
<path fill="#a8a8a8" opacity="1.00" d=" M 205.57 275.46 C 207.31 274.67 209.34 273.37 211.15 274.77 C 212.11 276.96 211.84 279.44 212.06 281.77 C 210.14 281.80 208.21 281.96 206.31 281.69 C 204.30 278.37 208.74 277.38 210.93 276.51 C 209.46 275.07 207.42 275.49 205.57 275.46 M 209.53 278.16 C 208.32 278.02 206.42 279.44 207.47 280.68 C 209.05 282.18 212.14 278.74 209.53 278.16 Z" />
<path fill="#a8a8a8" opacity="1.00" d=" M 226.90 275.41 C 228.67 274.62 231.25 273.08 232.66 275.27 C 233.30 277.39 233.07 279.64 233.18 281.83 C 231.20 281.49 228.19 283.03 227.15 280.70 C 226.64 277.75 230.69 277.43 232.42 275.96 C 230.60 275.61 228.75 275.49 226.90 275.41 M 230.10 278.23 C 228.72 278.35 227.78 280.79 229.65 280.97 C 231.91 281.55 232.93 277.27 230.10 278.23 Z" />
<path fill="#a8a8a8" opacity="1.00" d=" M 247.53 273.57 C 248.57 274.66 249.59 275.77 250.60 276.90 C 251.54 275.78 252.49 274.66 253.47 273.57 C 252.84 275.11 252.19 276.64 251.54 278.18 C 252.33 279.60 253.11 281.02 253.83 282.48 C 252.49 281.61 251.41 280.42 250.49 279.12 C 249.56 280.38 248.49 281.53 247.23 282.47 C 247.96 280.96 248.76 279.50 249.57 278.04 C 248.87 276.55 248.18 275.07 247.53 273.57 Z" />
<path fill="#a8a8a8" opacity="1.00" d=" M 275.26 275.54 C 276.87 274.44 279.49 273.16 280.92 275.25 C 281.48 277.36 281.36 279.57 281.47 281.75 C 279.54 281.45 276.22 283.12 275.40 280.59 C 274.75 277.69 278.74 277.56 280.48 276.55 C 279.12 274.96 277.07 275.43 275.26 275.54 M 278.31 278.21 C 276.98 278.39 276.06 280.76 277.85 281.02 C 280.10 281.65 281.07 277.27 278.31 278.21 Z" />
<path fill="#a8a8a8" opacity="1.00" d=" M 295.41 274.29 C 298.63 273.06 301.21 277.24 299.75 279.97 C 298.98 282.03 296.12 282.99 294.43 281.43 C 292.12 279.63 292.60 275.32 295.41 274.29 M 296.17 275.12 C 293.80 275.97 293.62 280.37 296.07 280.95 C 299.64 281.74 299.66 274.91 296.17 275.12 Z" />
</g>
<g id="#f5ceabff">
<path fill="#f5ceab" opacity="1.00" d=" M 28.50 253.04 C 27.55 248.30 30.57 244.05 34.15 241.31 C 34.20 247.78 34.21 254.25 34.17 260.72 C 31.64 258.75 28.80 256.51 28.50 253.04 Z" />
</g>
<g id="#d0d0d0ff">
<path fill="#d0d0d0" opacity="1.00" d=" M 188.34 271.06 C 189.97 270.57 190.52 271.14 189.99 272.76 C 188.36 273.24 187.81 272.67 188.34 271.06 Z" />
<path fill="#d0d0d0" opacity="1.00" d=" M 155.16 277.95 C 155.57 277.70 156.38 277.20 156.79 276.95 C 156.93 279.63 157.02 282.32 157.07 285.01 C 156.55 285.01 155.49 285.00 154.97 285.00 C 155.02 282.65 155.09 280.30 155.16 277.95 Z" />
</g>
<g id="#cfcfcfff">
<path fill="#cfcfcf" opacity="1.00" d=" M 265.12 271.08 C 266.73 270.50 267.31 271.03 266.85 272.67 C 265.24 273.25 264.66 272.72 265.12 271.08 Z" />
</g>
<g id="#bfbfbfff">
<path fill="#bfbfbf" opacity="1.00" d=" M 160.22 282.00 C 160.16 278.22 159.92 274.39 160.84 270.69 C 162.77 273.71 161.83 277.43 162.01 280.80 C 163.47 280.82 164.94 280.85 166.41 280.88 L 166.39 282.00 C 164.33 282.00 162.27 281.99 160.22 282.00 Z" />
</g>
<g id="#bebebeff">
<path fill="#bebebe" opacity="1.00" d=" M 199.61 274.67 C 200.14 273.73 200.68 272.79 201.21 271.85 C 202.10 272.92 203.06 273.93 204.11 274.87 C 203.40 275.22 202.69 275.57 201.99 275.93 C 202.00 277.42 202.02 278.93 202.03 280.43 C 202.66 280.82 203.90 281.60 204.52 281.99 C 203.62 282.02 201.83 282.07 200.94 282.10 C 200.53 279.62 200.09 277.14 199.61 274.67 Z" />
</g>
<g id="#c0c0c0ff">
<path fill="#c0c0c0" opacity="1.00" d=" M 155.20 274.26 C 156.82 273.72 157.38 274.27 156.87 275.90 C 155.24 276.43 154.68 275.88 155.20 274.26 Z" />
</g>
<g id="#b3b3b3ff">
<path fill="#b3b3b3" opacity="1.00" d=" M 255.79 274.44 C 257.84 274.51 260.39 273.44 261.96 275.25 C 262.99 277.39 262.90 280.43 260.75 281.85 C 259.55 282.02 258.36 282.14 257.16 282.22 C 257.07 283.12 256.90 284.93 256.81 285.84 C 254.73 282.47 256.12 278.20 255.79 274.44 M 257.01 275.79 C 257.11 277.53 257.21 279.28 257.31 281.03 C 260.72 281.70 261.35 278.40 261.18 275.77 C 259.80 275.53 258.39 275.54 257.01 275.79 Z" />
</g>
<g id="#c8c8c8ff">
<path fill="#c8c8c8" opacity="1.00" d=" M 265.09 273.76 C 268.48 274.77 266.39 279.37 266.96 282.00 C 266.47 282.00 265.48 282.00 264.99 282.00 C 264.99 279.26 264.99 276.51 265.09 273.76 Z" />
</g>
<g id="#fbfbfbff">
<path fill="#fbfbfb" opacity="1.00" d=" M 242.24 275.39 C 245.76 274.99 242.01 279.44 241.26 276.41 C 241.51 276.15 241.99 275.65 242.24 275.39 Z" />
</g>
<g id="#fafafaff">
<path fill="#fafafa" opacity="1.00" d=" M 278.31 278.21 C 281.07 277.27 280.10 281.65 277.85 281.02 C 276.06 280.76 276.98 278.39 278.31 278.21 Z" />
</g>
<g id="#c4c4c4ff">
<path fill="#c4c4c4" opacity="1.00" d=" M 303.03 280.28 C 304.66 279.80 305.20 280.37 304.67 281.99 C 303.04 282.47 302.49 281.90 303.03 280.28 Z" />
</g>
<g id="#1d1f1dff">
<path fill="#1d1f1d" opacity="1.00" d=" M 95.85 321.72 C 115.58 321.81 135.31 321.78 155.03 321.73 C 157.35 321.62 159.56 322.32 161.71 323.10 C 161.55 323.49 161.22 324.26 161.06 324.65 C 169.48 324.96 177.93 325.06 186.35 324.57 C 185.97 324.23 185.21 323.54 184.83 323.20 C 187.16 322.47 189.50 321.63 191.98 321.73 C 212.98 321.78 233.99 321.80 254.99 321.73 C 254.80 322.45 254.41 323.90 254.22 324.62 C 254.12 324.66 253.91 324.75 253.81 324.80 C 250.95 326.13 247.90 327.10 244.75 327.36 C 198.30 327.25 151.85 327.17 105.40 327.40 C 102.53 326.92 99.78 325.91 97.12 324.77 C 97.02 324.73 96.82 324.65 96.72 324.61 C 96.51 323.89 96.07 322.44 95.85 321.72 Z" />
</g>
<g id="#000000ff">
<path fill="#000000" opacity="1.00" d=" M 161.71 323.10 C 169.41 323.42 177.13 323.26 184.83 323.20 C 185.21 323.54 185.97 324.23 186.35 324.57 C 177.93 325.06 169.48 324.96 161.06 324.65 C 161.22 324.26 161.55 323.49 161.71 323.10 Z" />
<path fill="#000000" opacity="1.00" d=" M 87.02 451.03 C 93.03 448.14 100.01 448.87 106.14 450.94 C 112.44 453.20 118.61 449.60 124.93 449.75 C 130.53 449.80 136.13 449.64 141.72 450.02 C 142.83 456.51 142.70 463.15 141.53 469.62 C 118.26 469.66 94.92 470.13 71.75 467.72 C 75.14 460.89 80.16 454.59 87.02 451.03 Z" />
<path fill="#000000" opacity="1.00" d=" M 230.95 451.23 C 238.44 453.19 245.46 447.96 253.00 449.22 C 263.30 450.39 269.93 459.35 274.94 467.54 C 270.04 468.67 264.99 468.50 260.00 468.69 C 241.77 470.21 223.45 469.46 205.17 469.67 C 203.76 463.21 203.80 456.49 204.92 449.99 C 213.59 449.89 222.50 448.75 230.95 451.23 Z" />
</g>
<g id="#302c35ff">
<path fill="#302c35" opacity="1.00" d=" M 97.12 324.77 C 99.78 325.91 102.53 326.92 105.40 327.40 C 111.56 334.29 119.35 339.77 128.03 343.00 C 151.40 352.28 177.51 352.90 201.94 347.83 C 217.30 344.07 233.55 339.17 244.75 327.36 C 247.90 327.10 250.95 326.13 253.81 324.80 C 249.07 334.55 239.34 340.88 229.66 345.05 C 229.69 353.01 229.48 361.00 230.13 368.93 C 230.43 394.10 230.73 419.29 230.61 444.47 C 220.75 443.44 210.78 444.34 200.88 443.95 C 200.19 445.62 199.49 447.30 198.84 448.99 C 198.75 444.29 198.64 439.58 198.15 434.89 C 196.19 414.29 194.54 393.63 192.55 373.01 C 192.33 367.39 191.13 361.85 191.33 356.21 C 184.89 356.57 178.44 356.75 172.01 357.25 C 166.49 356.81 160.94 356.68 155.42 356.29 C 152.96 381.30 151.00 406.34 148.49 431.34 C 148.30 437.49 146.80 443.58 147.50 449.75 C 146.68 447.85 145.85 445.95 145.05 444.05 C 138.39 443.90 131.72 444.22 125.06 443.94 C 121.79 443.77 118.51 444.12 115.35 445.00 C 115.62 426.34 115.33 407.66 116.25 389.03 C 116.41 374.24 116.25 359.44 116.61 344.65 C 108.65 339.77 100.83 333.61 97.12 324.77 M 122.48 347.92 C 122.46 379.64 122.22 411.37 121.38 443.08 C 127.96 443.58 134.57 443.50 141.15 443.17 C 142.00 438.38 142.26 433.53 142.65 428.70 C 144.83 404.36 146.62 379.97 149.27 355.68 C 145.33 354.28 141.18 353.67 137.14 352.69 C 132.13 351.50 127.44 349.28 122.48 347.92 M 197.22 355.20 C 199.51 384.56 202.76 413.83 205.07 443.19 C 211.64 443.47 218.23 443.47 224.81 443.18 C 223.85 418.13 224.65 393.05 223.87 367.99 C 223.60 361.36 224.02 354.70 223.25 348.09 C 214.81 351.27 206.02 353.28 197.22 355.20 Z" />
</g>
<g id="#433c49ff">
<path fill="#433c49" opacity="1.00" d=" M 105.40 327.40 C 151.85 327.17 198.30 327.25 244.75 327.36 C 233.55 339.17 217.30 344.07 201.94 347.83 C 177.51 352.90 151.40 352.28 128.03 343.00 C 119.35 339.77 111.56 334.29 105.40 327.40 Z" />
<path fill="#433c49" opacity="1.00" d=" M 122.48 347.92 C 127.44 349.28 132.13 351.50 137.14 352.69 C 141.18 353.67 145.33 354.28 149.27 355.68 C 146.62 379.97 144.83 404.36 142.65 428.70 C 142.26 433.53 142.00 438.38 141.15 443.17 C 134.57 443.50 127.96 443.58 121.38 443.08 C 122.22 411.37 122.46 379.64 122.48 347.92 Z" />
<path fill="#433c49" opacity="1.00" d=" M 197.22 355.20 C 206.02 353.28 214.81 351.27 223.25 348.09 C 224.02 354.70 223.60 361.36 223.87 367.99 C 224.65 393.05 223.85 418.13 224.81 443.18 C 218.23 443.47 211.64 443.47 205.07 443.19 C 202.76 413.83 199.51 384.56 197.22 355.20 Z" />
</g>
<g id="#202020ff">
<path fill="#202020" opacity="1.00" d=" M 83.10 446.11 C 86.39 444.05 90.27 443.46 94.01 442.75 C 101.38 441.63 108.09 447.15 115.35 445.00 C 118.51 444.12 121.79 443.77 125.06 443.94 C 131.72 444.22 138.39 443.90 145.05 444.05 C 145.85 445.95 146.68 447.85 147.50 449.75 C 149.71 458.25 148.50 467.45 146.24 475.87 C 118.21 476.40 90.15 475.89 62.23 473.40 C 66.41 462.67 72.60 451.72 83.10 446.11 M 87.02 451.03 C 80.16 454.59 75.14 460.89 71.75 467.72 C 94.92 470.13 118.26 469.66 141.53 469.62 C 142.70 463.15 142.83 456.51 141.72 450.02 C 136.13 449.64 130.53 449.80 124.93 449.75 C 118.61 449.60 112.44 453.20 106.14 450.94 C 100.01 448.87 93.03 448.14 87.02 451.03 Z" />
<path fill="#202020" opacity="1.00" d=" M 231.95 445.42 C 237.52 446.33 242.54 443.35 247.96 442.74 C 254.13 442.48 260.35 444.09 265.60 447.36 C 274.58 453.58 280.31 463.31 284.10 473.36 C 256.09 475.86 227.92 476.55 199.81 475.74 C 197.98 466.99 196.23 457.77 198.84 448.99 C 199.49 447.30 200.19 445.62 200.88 443.95 C 210.78 444.34 220.75 443.44 230.61 444.47 C 230.94 444.70 231.62 445.18 231.95 445.42 M 230.95 451.23 C 222.50 448.75 213.59 449.89 204.92 449.99 C 203.80 456.49 203.76 463.21 205.17 469.67 C 223.45 469.46 241.77 470.21 260.00 468.69 C 264.99 468.50 270.04 468.67 274.94 467.54 C 269.93 459.35 263.30 450.39 253.00 449.22 C 245.46 447.96 238.44 453.19 230.95 451.23 Z" />
</g>
</svg>
