<?xml version="1.0" encoding="UTF-8" ?>
<!DOCTYPE svg PUBLIC "-//W3C//DTD SVG 1.1//EN" "http://www.w3.org/Graphics/SVG/1.1/DTD/svg11.dtd">
<svg width="351pt" height="480pt" viewBox="0 0 351 480" version="1.1" xmlns="http://www.w3.org/2000/svg">
<g id="#ffffffff">
<path fill="#ffffff" opacity="1.00" d=" M 143.34 99.52 C 145.36 97.25 148.77 99.62 149.43 101.88 C 150.65 105.55 144.97 108.42 142.69 105.39 C 140.73 103.79 141.44 100.83 143.34 99.52 Z" />
<path fill="#ffffff" opacity="1.00" d=" M 207.47 103.09 C 207.01 100.75 209.27 99.39 210.90 98.30 C 213.37 98.96 216.34 101.23 214.96 104.13 C 213.86 107.92 207.34 107.18 207.47 103.09 Z" />
<path fill="#ffffff" opacity="1.00" d=" M 40.52 315.45 C 40.55 270.50 40.45 225.55 40.56 180.61 C 131.16 180.66 221.75 180.71 312.34 180.58 C 312.60 225.53 312.39 270.49 312.45 315.44 C 221.80 315.45 131.16 315.43 40.52 315.45 M 75.32 198.43 C 67.96 207.22 66.35 219.30 66.77 230.40 C 60.40 229.82 53.28 234.04 53.06 240.93 C 52.93 258.64 53.02 276.35 53.01 294.07 C 52.75 299.94 58.16 305.11 63.94 305.02 C 85.64 305.01 107.34 305.03 129.03 305.01 C 134.73 305.22 139.36 299.51 139.12 294.03 C 139.20 277.02 139.13 260.01 139.15 243.00 C 139.29 239.70 138.34 236.32 135.96 233.94 C 133.30 230.76 128.84 230.58 125.02 230.42 C 125.27 219.78 124.35 208.20 117.59 199.48 C 112.68 192.80 104.20 189.29 96.00 189.86 C 88.30 189.68 80.37 192.43 75.32 198.43 M 163.40 232.21 C 163.10 236.25 162.81 240.29 162.69 244.35 C 165.38 244.55 167.93 242.49 170.56 243.66 C 174.79 245.38 174.13 252.57 169.74 253.68 C 166.84 254.60 164.21 252.80 161.92 251.27 C 161.57 252.10 161.21 252.93 160.86 253.77 C 164.05 255.81 168.07 257.44 171.79 255.77 C 177.11 253.78 178.27 245.47 173.63 242.19 C 171.23 240.44 168.13 241.00 165.43 241.55 C 165.68 239.32 165.90 237.08 166.12 234.85 C 169.18 234.83 172.23 234.83 175.29 234.85 C 175.28 234.18 175.26 232.84 175.25 232.16 C 171.30 232.18 167.35 232.18 163.40 232.21 M 184.44 232.49 C 181.14 234.36 180.19 238.45 179.97 241.96 C 179.79 246.15 179.91 250.87 182.71 254.28 C 185.04 257.14 189.96 257.16 192.31 254.30 C 194.72 251.48 195.10 247.56 195.14 244.00 C 195.08 240.46 194.73 236.53 192.25 233.77 C 190.35 231.59 186.94 231.21 184.44 232.49 M 203.34 232.41 C 199.88 234.23 198.93 238.49 198.71 242.07 C 198.55 246.08 198.69 250.49 201.12 253.87 C 203.37 257.14 208.74 257.31 211.18 254.19 C 213.45 251.36 213.84 247.55 213.90 244.05 C 213.86 240.54 213.48 236.68 211.11 233.88 C 209.27 231.68 205.87 231.17 203.34 232.41 M 268.06 272.16 C 267.62 273.58 268.09 274.06 269.49 273.60 C 269.93 272.18 269.45 271.70 268.06 272.16 M 286.00 271.62 C 285.99 272.62 285.98 274.61 285.97 275.60 C 285.22 275.40 283.71 275.00 282.96 274.80 C 280.26 276.60 279.34 280.86 282.16 282.98 C 283.87 283.11 285.58 282.95 287.29 282.89 C 287.30 279.15 287.30 275.42 287.27 271.68 L 286.00 271.62 M 300.17 271.68 C 299.88 274.59 299.88 277.53 300.24 280.45 C 301.46 277.78 301.80 274.25 300.17 271.68 M 166.38 282.96 C 168.68 282.99 170.99 282.97 173.28 282.67 C 171.57 281.85 169.65 281.83 167.79 281.75 C 167.78 280.60 167.76 279.46 167.76 278.32 C 169.35 278.09 170.94 277.82 172.50 277.38 C 170.93 277.16 169.36 276.98 167.79 276.83 C 167.78 276.07 167.77 274.55 167.76 273.79 C 169.47 273.71 171.19 273.61 172.90 273.47 C 170.99 272.32 168.72 272.56 166.60 272.43 C 166.37 275.93 166.36 279.45 166.38 282.96 M 161.21 275.23 C 160.67 276.85 161.22 277.41 162.85 276.91 C 163.39 275.28 162.84 274.72 161.21 275.23 M 174.99 275.56 C 175.00 278.21 175.00 280.86 175.17 283.51 C 177.07 281.95 176.22 279.18 176.68 277.06 C 177.67 276.47 178.66 275.88 179.66 275.30 C 178.10 275.37 176.55 275.47 174.99 275.56 M 180.99 275.55 C 181.00 278.20 181.01 280.86 181.16 283.51 C 183.08 281.97 182.21 279.19 182.68 277.07 C 183.67 276.47 184.66 275.87 185.66 275.28 C 184.10 275.37 182.55 275.48 180.99 275.55 M 189.19 275.28 C 186.70 276.15 186.02 279.62 187.46 281.68 C 188.64 283.57 191.77 283.76 193.00 281.79 C 195.32 279.20 192.85 273.96 189.19 275.28 M 196.00 275.39 C 195.99 277.94 195.99 280.50 196.00 283.05 C 196.46 283.03 197.39 282.99 197.85 282.97 C 197.92 281.11 198.00 279.26 198.09 277.40 C 199.12 276.62 200.15 275.85 201.17 275.06 C 199.44 275.15 197.72 275.27 196.00 275.39 M 206.00 275.29 C 206.01 278.03 206.00 280.78 206.17 283.52 C 208.27 281.84 207.09 278.78 207.49 276.50 C 212.00 274.89 210.77 280.37 210.99 282.99 L 212.24 283.02 C 212.18 280.75 212.45 278.42 211.83 276.21 C 211.09 274.49 208.98 275.52 207.65 275.66 C 207.24 275.57 206.41 275.39 206.00 275.29 M 217.24 275.25 C 214.01 276.31 213.85 281.61 216.98 282.91 C 219.48 284.15 222.15 281.49 221.87 278.99 C 221.94 276.64 219.61 274.41 217.24 275.25 M 227.99 275.58 C 228.00 278.22 228.01 280.86 228.16 283.50 C 231.05 281.73 227.25 274.74 232.47 276.61 C 233.06 278.84 231.88 281.82 233.86 283.51 C 234.02 281.25 234.07 278.99 234.12 276.73 C 234.90 276.64 236.47 276.46 237.25 276.36 C 237.32 278.54 237.37 280.72 237.41 282.90 C 237.74 282.92 238.42 282.95 238.76 282.96 C 238.68 280.76 238.85 278.51 238.36 276.35 C 237.51 274.41 235.44 275.51 233.94 275.82 C 233.43 275.68 232.42 275.40 231.91 275.25 C 230.60 275.38 229.30 275.49 227.99 275.58 M 241.36 276.66 C 243.14 276.50 245.29 275.71 246.39 277.69 C 244.66 278.60 241.60 278.49 241.26 280.94 C 241.57 284.26 245.42 282.66 247.56 282.51 C 247.37 280.41 247.51 278.25 246.87 276.23 C 245.52 274.22 242.74 275.24 241.36 276.66 M 250.12 275.59 C 250.14 278.05 250.15 280.52 250.16 282.99 C 250.54 282.97 251.30 282.94 251.68 282.92 C 251.94 280.50 250.67 276.67 253.98 276.08 C 255.90 277.94 254.68 281.06 255.14 283.45 C 257.72 282.33 256.44 278.89 256.27 276.72 C 255.53 273.94 252.15 275.67 250.12 275.59 M 260.45 282.43 C 261.86 283.77 263.80 282.83 265.44 282.59 C 263.38 282.00 260.69 282.13 260.02 279.58 C 261.93 279.49 263.84 279.44 265.75 279.39 C 265.25 277.78 265.07 275.32 262.92 275.16 C 259.13 274.60 257.57 280.38 260.45 282.43 M 268.39 274.59 C 267.71 278.66 268.78 283.00 266.89 286.83 C 270.12 286.06 269.25 282.40 269.43 279.96 C 269.31 278.14 269.76 276.05 268.39 274.59 M 271.88 276.55 C 273.31 276.85 276.69 275.34 276.68 277.69 C 275.18 278.76 272.12 278.69 272.06 281.01 C 272.29 284.13 276.14 282.52 278.15 282.81 C 278.03 280.63 278.38 278.33 277.63 276.24 C 276.21 274.09 273.55 275.53 271.88 276.55 M 292.31 275.23 C 289.01 276.23 288.81 281.69 292.04 282.93 C 294.18 283.99 296.57 282.05 296.83 279.89 C 297.38 277.33 295.05 274.34 292.31 275.23 M 160.96 285.97 C 161.48 285.99 162.53 286.03 163.05 286.05 C 163.05 283.29 162.98 280.52 162.68 277.78 C 160.11 279.66 161.30 283.25 160.96 285.97 M 300.10 281.47 C 298.70 284.52 303.44 281.44 300.10 281.47 Z" />
<path fill="#ffffff" opacity="1.00" d=" M 80.83 207.90 C 86.28 197.89 102.59 195.97 109.50 205.42 C 114.54 212.66 115.17 222.00 114.66 230.54 C 102.09 230.43 89.53 230.53 76.96 230.49 C 76.69 222.84 77.12 214.77 80.83 207.90 Z" />
<path fill="#ffffff" opacity="1.00" d=" M 186.41 234.40 C 189.03 233.43 191.14 236.04 191.56 238.37 C 192.42 242.51 192.51 246.97 191.13 251.01 C 190.51 253.29 187.64 254.98 185.59 253.33 C 182.71 250.79 182.95 246.51 182.89 243.01 C 183.10 239.99 183.21 235.85 186.41 234.40 Z" />
<path fill="#ffffff" opacity="1.00" d=" M 205.37 234.34 C 207.99 233.54 209.88 236.18 210.32 238.44 C 211.18 242.75 211.34 247.49 209.60 251.61 C 208.80 253.83 205.71 254.84 203.99 253.04 C 201.33 250.11 201.64 245.76 201.69 242.07 C 201.93 239.28 202.27 235.42 205.37 234.34 Z" />
<path fill="#ffffff" opacity="1.00" d=" M 85.78 259.98 C 85.96 252.82 94.44 247.94 100.78 251.22 C 108.39 254.43 108.80 266.14 101.65 270.15 C 102.31 275.79 103.37 281.38 104.20 286.99 C 99.27 287.01 94.34 287.00 89.41 287.00 C 90.15 281.57 90.96 276.15 91.72 270.72 C 88.24 268.30 85.18 264.49 85.78 259.98 Z" />
<path fill="#ffffff" opacity="1.00" d=" M 190.16 276.22 C 193.35 276.14 193.33 282.29 190.10 282.08 C 187.34 281.72 187.38 276.53 190.16 276.22 Z" />
<path fill="#ffffff" opacity="1.00" d=" M 218.12 276.25 C 221.33 275.99 221.36 282.40 218.05 282.08 C 215.36 281.64 215.38 276.55 218.12 276.25 Z" />
<path fill="#ffffff" opacity="1.00" d=" M 284.92 281.93 C 281.20 282.92 281.13 277.17 283.91 275.96 C 284.44 276.24 285.49 276.79 286.02 277.07 C 285.75 278.69 286.48 280.80 284.92 281.93 Z" />
<path fill="#ffffff" opacity="1.00" d=" M 293.13 276.24 C 296.02 276.12 296.32 281.06 293.92 282.05 C 290.52 282.84 290.03 276.60 293.13 276.24 Z" />
<path fill="#ffffff" opacity="1.00" d=" M 275.15 279.22 C 277.94 278.30 276.87 282.57 274.66 281.97 C 272.75 281.78 273.74 279.31 275.15 279.22 Z" />
</g>
<g id="#8a5d3bff">
<path fill="#8a5d3b" opacity="1.00" d=" M 219.46 6.27 C 222.20 5.25 225.04 4.46 227.94 4.05 C 229.57 3.55 230.91 4.66 231.75 5.93 C 232.36 8.86 229.55 10.65 228.07 12.77 C 231.07 11.78 233.94 10.26 237.18 10.25 C 240.71 13.95 235.77 18.16 236.91 22.32 C 238.73 30.64 245.04 36.88 248.14 44.65 C 253.46 57.33 253.27 71.57 250.50 84.84 C 259.23 92.08 256.11 108.66 244.57 110.88 C 243.09 114.40 243.98 118.33 243.44 122.02 C 241.80 136.34 239.83 151.10 233.10 164.05 C 232.05 165.75 230.86 167.35 229.54 168.85 C 227.86 170.71 226.13 172.52 224.48 174.39 C 220.37 174.45 216.25 174.50 212.14 174.44 C 218.42 170.52 225.35 166.53 228.46 159.42 C 236.30 142.47 237.45 123.40 237.95 105.01 C 238.23 99.10 238.83 93.10 237.94 87.22 C 235.59 81.44 229.97 77.97 224.43 75.69 C 224.34 75.33 224.16 74.62 224.07 74.26 C 212.52 70.94 200.51 73.05 188.88 74.64 C 189.49 74.87 190.69 75.35 191.30 75.59 C 178.34 79.14 164.32 75.86 153.21 68.67 C 146.41 74.67 137.09 75.98 128.35 75.79 C 123.16 76.29 116.73 75.11 112.71 79.16 C 111.23 84.98 111.61 91.08 111.38 97.03 C 111.05 111.43 111.74 125.89 114.41 140.06 C 116.07 148.84 119.01 157.56 124.15 164.94 C 127.04 169.06 131.43 171.68 135.51 174.44 C 131.58 174.50 127.64 174.43 123.70 174.40 C 122.47 172.79 121.22 171.19 119.98 169.59 C 118.70 167.91 117.47 166.19 116.38 164.38 C 107.69 148.32 105.89 129.58 105.15 111.63 C 103.22 110.24 100.68 109.82 98.94 108.11 C 92.25 102.85 92.14 91.98 97.60 85.79 C 95.24 74.60 94.89 62.74 98.75 51.85 C 102.16 41.14 109.69 32.15 118.81 25.79 C 129.31 18.80 141.33 14.21 153.73 12.03 C 171.71 8.04 191.33 7.95 208.39 15.53 C 211.51 11.86 214.94 8.17 219.46 6.27 M 214.37 18.37 C 213.03 20.27 211.63 23.92 208.67 22.45 C 195.25 15.71 179.67 14.35 164.93 16.32 C 154.17 17.58 143.61 20.42 133.64 24.65 C 121.80 29.82 110.87 38.52 105.75 50.67 C 101.30 61.20 101.64 73.00 103.48 84.07 C 105.24 79.43 107.18 74.24 112.02 72.00 C 122.39 67.38 134.49 71.96 144.73 66.81 C 147.77 65.50 149.84 62.39 153.01 61.54 C 160.13 65.67 167.66 69.67 175.95 70.63 C 184.10 71.61 192.01 68.93 200.06 68.29 C 211.82 66.87 224.71 67.37 234.85 74.18 C 238.91 76.75 241.50 80.87 244.14 84.76 C 246.62 74.51 247.17 63.58 244.61 53.29 C 241.80 40.97 230.38 31.97 230.37 18.79 C 227.39 20.98 225.72 24.29 224.62 27.73 C 224.32 30.67 219.49 30.72 218.94 27.94 C 217.34 22.86 218.85 17.49 220.75 12.71 C 218.14 13.98 215.78 15.79 214.37 18.37 M 244.62 99.96 C 244.41 101.66 244.37 103.38 244.59 105.09 C 248.53 102.36 249.88 97.49 249.19 92.91 C 247.26 94.99 246.78 98.02 244.62 99.96 M 99.62 95.91 C 99.68 98.57 100.76 101.04 102.35 103.15 C 102.15 100.52 101.14 98.05 99.62 95.91 Z" />
<path fill="#8a5d3b" opacity="1.00" d=" M 147.42 136.40 C 166.48 136.83 185.57 136.49 204.65 136.57 C 205.49 143.44 204.55 151.26 199.39 156.31 C 192.38 162.97 182.16 163.69 173.01 163.86 C 165.08 163.83 156.20 162.61 150.36 156.74 C 149.16 154.14 147.92 151.54 147.02 148.81 C 145.73 144.75 146.49 140.45 147.42 136.40 M 153.24 151.02 C 166.55 145.52 182.16 145.02 195.29 151.29 C 197.23 148.79 198.51 145.86 198.75 142.69 C 182.97 142.63 167.20 142.81 151.43 142.59 C 151.01 145.56 151.72 148.46 153.24 151.02 M 159.65 155.33 C 168.70 159.07 178.97 157.87 188.29 155.82 C 187.81 155.52 186.85 154.92 186.37 154.62 C 177.63 152.02 168.30 152.72 159.65 155.33 Z" />
<path fill="#8a5d3b" opacity="1.00" d=" M 28.66 229.71 C 29.96 227.54 32.02 225.98 34.20 224.76 C 34.17 230.30 34.19 235.84 34.16 241.38 C 30.50 244.00 27.60 248.31 28.49 253.00 C 28.78 256.46 31.55 258.77 34.17 260.65 C 34.17 262.62 34.17 264.60 34.15 266.59 C 33.62 266.41 32.56 266.05 32.03 265.88 C 21.49 262.67 19.14 247.83 26.20 240.20 C 27.23 239.11 28.40 238.15 29.52 237.17 C 27.97 235.02 27.92 232.16 28.66 229.71 Z" />
<path fill="#8a5d3b" opacity="1.00" d=" M 319.13 243.13 C 318.53 237.61 318.64 232.05 319.08 226.52 C 322.52 228.03 324.18 232.22 322.56 235.64 C 321.29 237.99 324.24 239.03 325.39 240.60 C 329.63 245.92 330.19 253.87 326.84 259.79 C 324.99 262.81 321.96 264.86 318.75 266.23 C 318.73 263.85 318.73 261.44 319.26 259.11 C 324.04 254.98 323.71 247.28 319.13 243.13 Z" />
</g>
<g id="#603813ff">
<path fill="#603813" opacity="1.00" d=" M 214.37 18.37 C 215.78 15.79 218.14 13.98 220.75 12.71 C 218.85 17.49 217.34 22.86 218.94 27.94 C 219.49 30.72 224.32 30.67 224.62 27.73 C 225.72 24.29 227.39 20.98 230.37 18.79 C 230.38 31.97 241.80 40.97 244.61 53.29 C 247.17 63.58 246.62 74.51 244.14 84.76 C 241.50 80.87 238.91 76.75 234.85 74.18 C 224.71 67.37 211.82 66.87 200.06 68.29 C 192.01 68.93 184.10 71.61 175.95 70.63 C 167.66 69.67 160.13 65.67 153.01 61.54 C 149.84 62.39 147.77 65.50 144.73 66.81 C 134.49 71.96 122.39 67.38 112.02 72.00 C 107.18 74.24 105.24 79.43 103.48 84.07 C 101.64 73.00 101.30 61.20 105.75 50.67 C 110.87 38.52 121.80 29.82 133.64 24.65 C 143.61 20.42 154.17 17.58 164.93 16.32 C 179.67 14.35 195.25 15.71 208.67 22.45 C 211.63 23.92 213.03 20.27 214.37 18.37 Z" />
<path fill="#603813" opacity="1.00" d=" M 188.88 74.64 C 200.51 73.05 212.52 70.94 224.07 74.26 C 224.16 74.62 224.34 75.33 224.43 75.69 C 213.62 72.27 202.25 73.92 191.30 75.59 C 190.69 75.35 189.49 74.87 188.88 74.64 Z" />
<path fill="#603813" opacity="1.00" d=" M 145.33 140.95 C 145.56 139.27 145.04 136.59 147.42 136.40 C 146.49 140.45 145.73 144.75 147.02 148.81 C 147.92 151.54 149.16 154.14 150.36 156.74 C 145.61 153.15 144.92 146.48 145.33 140.95 Z" />
</g>
<g id="#f4ceabff">
<path fill="#f4ceab" opacity="1.00" d=" M 128.35 75.79 C 137.09 75.98 146.41 74.67 153.21 68.67 C 164.32 75.86 178.34 79.14 191.30 75.59 C 202.25 73.92 213.62 72.27 224.43 75.69 C 229.97 77.97 235.59 81.44 237.94 87.22 C 238.83 93.10 238.23 99.10 237.95 105.01 C 237.45 123.40 236.30 142.47 228.46 159.42 C 225.35 166.53 218.42 170.52 212.14 174.44 C 192.25 174.43 172.35 174.49 152.45 174.41 C 144.99 166.46 138.74 157.23 135.14 146.88 C 132.30 138.82 130.55 130.42 129.24 121.99 C 128.72 119.42 129.27 116.85 130.00 114.39 C 132.38 117.15 135.05 120.08 138.77 120.89 C 143.93 122.39 149.61 120.03 152.97 116.02 C 157.87 109.75 155.46 99.08 147.93 96.04 C 142.11 93.05 134.13 95.13 130.92 100.95 C 128.42 104.83 128.99 109.65 129.78 113.95 C 127.19 110.31 128.43 105.85 128.15 101.72 C 127.90 99.49 128.52 97.31 129.13 95.18 C 135.60 90.61 143.86 89.66 151.54 90.85 C 151.86 88.49 152.18 86.12 152.47 83.76 C 144.24 83.55 135.30 84.80 129.05 90.67 C 127.26 85.87 128.15 80.76 128.35 75.79 M 198.36 90.73 C 202.25 90.57 206.18 90.01 210.03 90.85 C 216.23 91.68 221.72 95.27 225.90 99.80 C 224.77 95.06 221.67 90.92 217.64 88.23 C 211.81 84.34 204.49 83.78 197.67 83.72 C 197.72 86.07 197.51 88.50 198.36 90.73 M 195.57 102.93 C 195.24 106.33 195.26 109.74 195.52 113.14 C 196.53 114.93 197.60 116.76 199.43 117.83 L 199.62 118.62 C 200.11 118.56 201.08 118.42 201.56 118.35 L 201.50 119.81 C 201.98 119.65 202.94 119.35 203.42 119.20 L 203.50 120.48 C 207.19 120.81 210.91 120.59 214.43 119.38 L 214.46 118.75 C 216.40 117.94 218.00 116.44 218.75 114.45 L 219.31 114.39 C 219.40 113.17 219.75 112.04 220.35 110.99 C 221.13 105.37 218.74 97.62 212.54 96.29 L 212.40 95.55 C 209.43 95.45 206.46 95.43 203.49 95.50 L 203.47 96.33 C 199.55 96.40 197.24 99.85 195.57 102.93 M 145.33 140.95 C 144.92 146.48 145.61 153.15 150.36 156.74 C 156.20 162.61 165.08 163.83 173.01 163.86 C 182.16 163.69 192.38 162.97 199.39 156.31 C 204.55 151.26 205.49 143.44 204.65 136.57 C 185.57 136.49 166.48 136.83 147.42 136.40 C 145.04 136.59 145.56 139.27 145.33 140.95 Z" />
<path fill="#f4ceab" opacity="1.00" d=" M 99.62 95.91 C 101.14 98.05 102.15 100.52 102.35 103.15 C 100.76 101.04 99.68 98.57 99.62 95.91 Z" />
</g>
<g id="#f8dec6ff">
<path fill="#f8dec6" opacity="1.00" d=" M 112.71 79.16 C 116.73 75.11 123.16 76.29 128.35 75.79 C 128.15 80.76 127.26 85.87 129.05 90.67 C 126.60 93.29 124.98 96.54 123.77 99.89 C 125.53 98.28 127.26 96.65 129.13 95.18 C 128.52 97.31 127.90 99.49 128.15 101.72 C 128.43 105.85 127.19 110.31 129.78 113.95 L 130.00 114.39 C 129.27 116.85 128.72 119.42 129.24 121.99 C 130.55 130.42 132.30 138.82 135.14 146.88 C 138.74 157.23 144.99 166.46 152.45 174.41 C 146.81 174.43 141.16 174.41 135.51 174.44 C 131.43 171.68 127.04 169.06 124.15 164.94 C 119.01 157.56 116.07 148.84 114.41 140.06 C 111.74 125.89 111.05 111.43 111.38 97.03 C 111.61 91.08 111.23 84.98 112.71 79.16 Z" />
</g>
<g id="#5e331bff">
<path fill="#5e331b" opacity="1.00" d=" M 129.05 90.67 C 135.30 84.80 144.24 83.55 152.47 83.76 C 152.18 86.12 151.86 88.49 151.54 90.85 C 143.86 89.66 135.60 90.61 129.13 95.18 C 127.26 96.65 125.53 98.28 123.77 99.89 C 124.98 96.54 126.60 93.29 129.05 90.67 Z" />
</g>
<g id="#5c3119ff">
<path fill="#5c3119" opacity="1.00" d=" M 198.36 90.73 C 197.51 88.50 197.72 86.07 197.67 83.72 C 204.49 83.78 211.81 84.34 217.64 88.23 C 221.67 90.92 224.77 95.06 225.90 99.80 C 221.72 95.27 216.23 91.68 210.03 90.85 C 206.18 90.01 202.25 90.57 198.36 90.73 Z" />
</g>
<g id="#8d5c39ff">
<path fill="#8d5c39" opacity="1.00" d=" M 130.92 100.95 C 134.13 95.13 142.11 93.05 147.93 96.04 C 155.46 99.08 157.87 109.75 152.97 116.02 C 149.61 120.03 143.93 122.39 138.77 120.89 C 135.05 120.08 132.38 117.15 130.00 114.39 L 129.78 113.95 C 128.99 109.65 128.42 104.83 130.92 100.95 M 134.33 99.41 C 129.14 103.13 128.88 111.97 133.65 116.26 C 137.30 120.28 144.25 121.27 148.50 117.73 C 154.28 115.30 154.47 108.33 153.11 103.13 C 150.32 95.94 139.54 93.79 134.33 99.41 Z" />
</g>
<g id="#f3cfacff">
<path fill="#f3cfac" opacity="1.00" d=" M 244.62 99.96 C 246.78 98.02 247.26 94.99 249.19 92.91 C 249.88 97.49 248.53 102.36 244.59 105.09 C 244.37 103.38 244.41 101.66 244.62 99.96 Z" />
</g>
<g id="#191818ff">
<path fill="#191818" opacity="1.00" d=" M 195.57 102.93 C 197.24 99.85 199.55 96.40 203.47 96.33 L 203.49 95.50 C 206.46 95.43 209.43 95.45 212.40 95.55 L 212.54 96.29 C 218.74 97.62 221.13 105.37 220.35 110.99 C 219.75 112.04 219.40 113.17 219.31 114.39 L 218.75 114.45 C 218.00 116.44 216.40 117.94 214.46 118.75 L 214.43 119.38 C 210.91 120.59 207.19 120.81 203.50 120.48 L 203.42 119.20 C 202.94 119.35 201.98 119.65 201.50 119.81 L 201.56 118.35 C 201.08 118.42 200.11 118.56 199.62 118.62 L 199.43 117.83 C 197.60 116.76 196.53 114.93 195.52 113.14 C 195.26 109.74 195.24 106.33 195.57 102.93 M 207.47 103.09 C 207.34 107.18 213.86 107.92 214.96 104.13 C 216.34 101.23 213.37 98.96 210.90 98.30 C 209.27 99.39 207.01 100.75 207.47 103.09 Z" />
<path fill="#191818" opacity="1.00" d=" M 134.33 99.41 C 136.86 98.77 139.39 98.20 141.91 97.51 C 140.98 99.24 139.85 100.92 139.35 102.84 C 139.89 105.85 142.72 108.62 145.86 108.64 C 148.26 107.77 150.27 106.14 152.40 104.78 C 152.98 109.52 150.90 113.82 148.50 117.73 C 144.25 121.27 137.30 120.28 133.65 116.26 C 128.88 111.97 129.14 103.13 134.33 99.41 Z" />
</g>
<g id="#010100ff">
<path fill="#010100" opacity="1.00" d=" M 134.33 99.41 C 139.54 93.79 150.32 95.94 153.11 103.13 C 154.47 108.33 154.28 115.30 148.50 117.73 C 150.90 113.82 152.98 109.52 152.40 104.78 C 150.27 106.14 148.26 107.77 145.86 108.64 C 142.72 108.62 139.89 105.85 139.35 102.84 C 139.85 100.92 140.98 99.24 141.91 97.51 C 139.39 98.20 136.86 98.77 134.33 99.41 M 143.34 99.52 C 141.44 100.83 140.73 103.79 142.69 105.39 C 144.97 108.42 150.65 105.55 149.43 101.88 C 148.77 99.62 145.36 97.25 143.34 99.52 Z" />
</g>
<g id="#f9d3b0ff">
<path fill="#f9d3b0" opacity="1.00" d=" M 153.24 151.02 C 151.72 148.46 151.01 145.56 151.43 142.59 C 167.20 142.81 182.97 142.63 198.75 142.69 C 198.51 145.86 197.23 148.79 195.29 151.29 C 182.16 145.02 166.55 145.52 153.24 151.02 Z" />
<path fill="#f9d3b0" opacity="1.00" d=" M 319.26 259.11 C 318.46 253.81 318.71 248.45 319.13 243.13 C 323.71 247.28 324.04 254.98 319.26 259.11 Z" />
</g>
<g id="#ff614eff">
<path fill="#ff614e" opacity="1.00" d=" M 159.65 155.33 C 168.30 152.72 177.63 152.02 186.37 154.62 C 186.85 154.92 187.81 155.52 188.29 155.82 C 178.97 157.87 168.70 159.07 159.65 155.33 Z" />
</g>
<g id="#72657cff">
<path fill="#72657c" opacity="1.00" d=" M 116.38 164.38 C 117.47 166.19 118.70 167.91 119.98 169.59 C 117.11 170.56 114.38 171.99 112.46 174.42 C 109.28 174.54 106.11 174.31 102.96 174.00 C 106.15 169.27 111.44 166.82 116.38 164.38 Z" />
<path fill="#72657c" opacity="1.00" d=" M 229.54 168.85 C 230.86 167.35 232.05 165.75 233.10 164.05 C 239.07 166.02 245.07 169.13 248.72 174.43 C 245.61 174.44 242.49 174.41 239.38 174.39 C 236.46 171.96 233.05 170.25 229.54 168.85 Z" />
</g>
<g id="#81728dff">
<path fill="#81728d" opacity="1.00" d=" M 224.48 174.39 C 226.13 172.52 227.86 170.71 229.54 168.85 C 233.05 170.25 236.46 171.96 239.38 174.39 C 234.41 174.44 229.44 174.42 224.48 174.39 Z" />
</g>
<g id="#82738eff">
<path fill="#82738e" opacity="1.00" d=" M 112.46 174.42 C 114.38 171.99 117.11 170.56 119.98 169.59 C 121.22 171.19 122.47 172.79 123.70 174.40 C 119.95 174.41 116.20 174.39 112.46 174.42 Z" />
</g>
<g id="#b5b5b5ff">
<path fill="#b5b5b5" opacity="1.00" d=" M 87.97 174.46 C 92.97 174.35 98.00 174.83 102.96 174.00 C 106.11 174.31 109.28 174.54 112.46 174.42 C 116.20 174.39 119.95 174.41 123.70 174.40 C 127.64 174.43 131.58 174.50 135.51 174.44 C 141.16 174.41 146.81 174.43 152.45 174.41 C 172.35 174.49 192.25 174.43 212.14 174.44 C 216.25 174.50 220.37 174.45 224.48 174.39 C 229.44 174.42 234.41 174.44 239.38 174.39 C 242.49 174.41 245.61 174.44 248.72 174.43 C 272.09 174.55 295.46 174.33 318.82 174.54 C 318.88 191.86 318.43 209.22 319.08 226.52 C 318.64 232.05 318.53 237.61 319.13 243.13 C 318.71 248.45 318.46 253.81 319.26 259.11 C 318.73 261.44 318.73 263.85 318.75 266.23 C 318.83 284.71 318.69 303.19 318.82 321.67 C 297.54 321.69 276.27 321.58 254.99 321.73 C 233.65 321.82 212.31 321.75 190.98 321.76 C 188.99 321.72 187.14 322.49 185.27 323.05 C 177.40 323.40 169.47 323.46 161.60 323.01 C 159.78 322.46 157.97 321.72 156.04 321.75 C 135.98 321.75 115.91 321.83 95.85 321.72 C 75.30 321.60 54.76 321.66 34.21 321.69 C 34.33 303.73 34.13 285.76 34.32 267.80 C 33.55 267.16 32.79 266.51 32.03 265.88 C 32.56 266.05 33.62 266.41 34.15 266.59 C 34.17 264.60 34.17 262.62 34.17 260.65 C 34.20 254.22 34.21 247.80 34.16 241.38 C 34.19 235.84 34.17 230.30 34.20 224.76 C 34.34 207.98 34.15 191.19 34.29 174.41 C 52.18 174.53 70.08 174.43 87.97 174.46 M 40.52 315.45 C 131.16 315.43 221.80 315.45 312.45 315.44 C 312.39 270.49 312.60 225.53 312.34 180.58 C 221.75 180.71 131.16 180.66 40.56 180.61 C 40.45 225.55 40.55 270.50 40.52 315.45 Z" />
<path fill="#b5b5b5" opacity="1.00" d=" M 250.12 275.59 C 252.15 275.67 255.53 273.94 256.27 276.72 C 256.44 278.89 257.72 282.33 255.14 283.45 C 254.68 281.06 255.90 277.94 253.98 276.08 C 250.67 276.67 251.94 280.50 251.68 282.92 C 251.30 282.94 250.54 282.97 250.16 282.99 C 250.15 280.52 250.14 278.05 250.12 275.59 Z" />
</g>
<g id="#ff5757ff">
<path fill="#ff5757" opacity="1.00" d=" M 75.32 198.43 C 80.37 192.43 88.30 189.68 96.00 189.86 C 104.20 189.29 112.68 192.80 117.59 199.48 C 124.35 208.20 125.27 219.78 125.02 230.42 C 128.84 230.58 133.30 230.76 135.96 233.94 C 138.34 236.32 139.29 239.70 139.15 243.00 C 139.13 260.01 139.20 277.02 139.12 294.03 C 139.36 299.51 134.73 305.22 129.03 305.01 C 107.34 305.03 85.64 305.01 63.94 305.02 C 58.16 305.11 52.75 299.94 53.01 294.07 C 53.02 276.35 52.93 258.64 53.06 240.93 C 53.28 234.04 60.40 229.82 66.77 230.40 C 66.35 219.30 67.96 207.22 75.32 198.43 M 80.83 207.90 C 77.12 214.77 76.69 222.84 76.96 230.49 C 89.53 230.53 102.09 230.43 114.66 230.54 C 115.17 222.00 114.54 212.66 109.50 205.42 C 102.59 195.97 86.28 197.89 80.83 207.90 M 85.78 259.98 C 85.18 264.49 88.24 268.30 91.72 270.72 C 90.96 276.15 90.15 281.57 89.41 287.00 C 94.34 287.00 99.27 287.01 104.20 286.99 C 103.37 281.38 102.31 275.79 101.65 270.15 C 108.80 266.14 108.39 254.43 100.78 251.22 C 94.44 247.94 85.96 252.82 85.78 259.98 Z" />
</g>
<g id="#a8a8a8ff">
<path fill="#a8a8a8" opacity="1.00" d=" M 163.40 232.21 C 167.35 232.18 171.30 232.18 175.25 232.16 C 175.26 232.84 175.28 234.18 175.29 234.85 C 172.23 234.83 169.18 234.83 166.12 234.85 C 165.90 237.08 165.68 239.32 165.43 241.55 C 168.13 241.00 171.23 240.44 173.63 242.19 C 178.27 245.47 177.11 253.78 171.79 255.77 C 168.07 257.44 164.05 255.81 160.86 253.77 C 161.21 252.93 161.57 252.10 161.92 251.27 C 164.21 252.80 166.84 254.60 169.74 253.68 C 174.13 252.57 174.79 245.38 170.56 243.66 C 167.93 242.49 165.38 244.55 162.69 244.35 C 162.81 240.29 163.10 236.25 163.40 232.21 Z" />
<path fill="#a8a8a8" opacity="1.00" d=" M 184.44 232.49 C 186.94 231.21 190.35 231.59 192.25 233.77 C 194.73 236.53 195.08 240.46 195.14 244.00 C 195.10 247.56 194.72 251.48 192.31 254.30 C 189.96 257.16 185.04 257.14 182.71 254.28 C 179.91 250.87 179.79 246.15 179.97 241.96 C 180.19 238.45 181.14 234.36 184.44 232.49 M 186.41 234.40 C 183.21 235.85 183.10 239.99 182.89 243.01 C 182.95 246.51 182.71 250.79 185.59 253.33 C 187.64 254.98 190.51 253.29 191.13 251.01 C 192.51 246.97 192.42 242.51 191.56 238.37 C 191.14 236.04 189.03 233.43 186.41 234.40 Z" />
<path fill="#a8a8a8" opacity="1.00" d=" M 203.34 232.41 C 205.87 231.17 209.27 231.68 211.11 233.88 C 213.48 236.68 213.86 240.54 213.90 244.05 C 213.84 247.55 213.45 251.36 211.18 254.19 C 208.74 257.31 203.37 257.14 201.12 253.87 C 198.69 250.49 198.55 246.08 198.71 242.07 C 198.93 238.49 199.88 234.23 203.34 232.41 M 205.37 234.34 C 202.27 235.42 201.93 239.28 201.69 242.07 C 201.64 245.76 201.33 250.11 203.99 253.04 C 205.71 254.84 208.80 253.83 209.60 251.61 C 211.34 247.49 211.18 242.75 210.32 238.44 C 209.88 236.18 207.99 233.54 205.37 234.34 Z" />
<path fill="#a8a8a8" opacity="1.00" d=" M 166.38 282.96 C 166.36 279.45 166.37 275.93 166.60 272.43 C 168.72 272.56 170.99 272.32 172.90 273.47 C 171.19 273.61 169.47 273.71 167.76 273.79 C 167.77 274.55 167.78 276.07 167.79 276.83 C 169.36 276.98 170.93 277.16 172.50 277.38 C 170.94 277.82 169.35 278.09 167.76 278.32 C 167.76 279.46 167.78 280.60 167.79 281.75 C 169.65 281.83 171.57 281.85 173.28 282.67 C 170.99 282.97 168.68 282.99 166.38 282.96 Z" />
<path fill="#a8a8a8" opacity="1.00" d=" M 174.99 275.56 C 176.55 275.47 178.10 275.37 179.66 275.30 C 178.66 275.88 177.67 276.47 176.68 277.06 C 176.22 279.18 177.07 281.95 175.17 283.51 C 175.00 280.86 175.00 278.21 174.99 275.56 Z" />
<path fill="#a8a8a8" opacity="1.00" d=" M 180.99 275.55 C 182.55 275.48 184.10 275.37 185.66 275.28 C 184.66 275.87 183.67 276.47 182.68 277.07 C 182.21 279.19 183.08 281.97 181.16 283.51 C 181.01 280.86 181.00 278.20 180.99 275.55 Z" />
<path fill="#a8a8a8" opacity="1.00" d=" M 189.19 275.28 C 192.85 273.96 195.32 279.20 193.00 281.79 C 191.77 283.76 188.64 283.57 187.46 281.68 C 186.02 279.62 186.70 276.15 189.19 275.28 M 190.16 276.22 C 187.38 276.53 187.34 281.72 190.10 282.08 C 193.33 282.29 193.35 276.14 190.16 276.22 Z" />
<path fill="#a8a8a8" opacity="1.00" d=" M 206.00 275.29 C 206.41 275.39 207.24 275.57 207.65 275.66 C 208.98 275.52 211.09 274.49 211.83 276.21 C 212.45 278.42 212.18 280.75 212.24 283.02 L 210.99 282.99 C 210.77 280.37 212.00 274.89 207.49 276.50 C 207.09 278.78 208.27 281.84 206.17 283.52 C 206.00 280.78 206.01 278.03 206.00 275.29 Z" />
<path fill="#a8a8a8" opacity="1.00" d=" M 217.24 275.25 C 219.61 274.41 221.94 276.64 221.87 278.99 C 222.15 281.49 219.48 284.15 216.98 282.91 C 213.85 281.61 214.01 276.31 217.24 275.25 M 218.12 276.25 C 215.38 276.55 215.36 281.64 218.05 282.08 C 221.36 282.40 221.33 275.99 218.12 276.25 Z" />
<path fill="#a8a8a8" opacity="1.00" d=" M 227.99 275.58 C 229.30 275.49 230.60 275.38 231.91 275.25 C 232.42 275.40 233.43 275.68 233.94 275.82 C 235.44 275.51 237.51 274.41 238.36 276.35 C 238.85 278.51 238.68 280.76 238.76 282.96 C 238.42 282.95 237.74 282.92 237.41 282.90 C 237.37 280.72 237.32 278.54 237.25 276.36 C 236.47 276.46 234.90 276.64 234.12 276.73 C 234.07 278.99 234.02 281.25 233.86 283.51 C 231.88 281.82 233.06 278.84 232.47 276.61 C 227.25 274.74 231.05 281.73 228.16 283.50 C 228.01 280.86 228.00 278.22 227.99 275.58 Z" />
<path fill="#a8a8a8" opacity="1.00" d=" M 241.36 276.66 C 242.74 275.24 245.52 274.22 246.87 276.23 C 247.51 278.25 247.37 280.41 247.56 282.51 C 245.42 282.66 241.57 284.26 241.26 280.94 C 241.60 278.49 244.66 278.60 246.39 277.69 C 245.29 275.71 243.14 276.50 241.36 276.66 M 244.31 279.21 C 242.98 279.40 242.04 281.76 243.85 282.01 C 246.10 282.66 247.05 278.23 244.31 279.21 Z" />
<path fill="#a8a8a8" opacity="1.00" d=" M 260.45 282.43 C 257.57 280.38 259.13 274.60 262.92 275.16 C 265.07 275.32 265.25 277.78 265.75 279.39 C 263.84 279.44 261.93 279.49 260.02 279.58 C 260.69 282.13 263.38 282.00 265.44 282.59 C 263.80 282.83 261.86 283.77 260.45 282.43 M 262.10 276.36 C 261.88 276.60 261.43 277.09 261.21 277.33 C 262.09 280.43 265.64 276.09 262.10 276.36 Z" />
<path fill="#a8a8a8" opacity="1.00" d=" M 268.39 274.59 C 269.76 276.05 269.31 278.14 269.43 279.96 C 269.25 282.40 270.12 286.06 266.89 286.83 C 268.78 283.00 267.71 278.66 268.39 274.59 Z" />
<path fill="#a8a8a8" opacity="1.00" d=" M 271.88 276.55 C 273.55 275.53 276.21 274.09 277.63 276.24 C 278.38 278.33 278.03 280.63 278.15 282.81 C 276.14 282.52 272.29 284.13 272.06 281.01 C 272.12 278.69 275.18 278.76 276.68 277.69 C 276.69 275.34 273.31 276.85 271.88 276.55 M 275.15 279.22 C 273.74 279.31 272.75 281.78 274.66 281.97 C 276.87 282.57 277.94 278.30 275.15 279.22 Z" />
<path fill="#a8a8a8" opacity="1.00" d=" M 292.31 275.23 C 295.05 274.34 297.38 277.33 296.83 279.89 C 296.57 282.05 294.18 283.99 292.04 282.93 C 288.81 281.69 289.01 276.23 292.31 275.23 M 293.13 276.24 C 290.03 276.60 290.52 282.84 293.92 282.05 C 296.32 281.06 296.02 276.12 293.13 276.24 Z" />
</g>
<g id="#f5ceabff">
<path fill="#f5ceab" opacity="1.00" d=" M 28.49 253.00 C 27.60 248.31 30.50 244.00 34.16 241.38 C 34.21 247.80 34.20 254.22 34.17 260.65 C 31.55 258.77 28.78 256.46 28.49 253.00 Z" />
</g>
<g id="#c9c9c9ff">
<path fill="#c9c9c9" opacity="1.00" d=" M 268.06 272.16 C 269.45 271.70 269.93 272.18 269.49 273.60 C 268.09 274.06 267.62 273.58 268.06 272.16 Z" />
</g>
<g id="#b4b4b4ff">
<path fill="#b4b4b4" opacity="1.00" d=" M 286.00 271.62 L 287.27 271.68 C 287.30 275.42 287.30 279.15 287.29 282.89 C 285.58 282.95 283.87 283.11 282.16 282.98 C 279.34 280.86 280.26 276.60 282.96 274.80 C 283.71 275.00 285.22 275.40 285.97 275.60 C 285.98 274.61 285.99 272.62 286.00 271.62 M 284.92 281.93 C 286.48 280.80 285.75 278.69 286.02 277.07 C 285.49 276.79 284.44 276.24 283.91 275.96 C 281.13 277.17 281.20 282.92 284.92 281.93 Z" />
</g>
<g id="#afafafff">
<path fill="#afafaf" opacity="1.00" d=" M 300.17 271.68 C 301.80 274.25 301.46 277.78 300.24 280.45 C 299.88 277.53 299.88 274.59 300.17 271.68 Z" />
</g>
<g id="#c0c0c0ff">
<path fill="#c0c0c0" opacity="1.00" d=" M 161.21 275.23 C 162.84 274.72 163.39 275.28 162.85 276.91 C 161.22 277.41 160.67 276.85 161.21 275.23 Z" />
</g>
<g id="#c7c7c7ff">
<path fill="#c7c7c7" opacity="1.00" d=" M 196.00 275.39 C 197.72 275.27 199.44 275.15 201.17 275.06 C 200.15 275.85 199.12 276.62 198.09 277.40 C 198.00 279.26 197.92 281.11 197.85 282.97 C 197.39 282.99 196.46 283.03 196.00 283.05 C 195.99 280.50 195.99 277.94 196.00 275.39 Z" />
</g>
<g id="#fbfbfbff">
<path fill="#fbfbfb" opacity="1.00" d=" M 262.10 276.36 C 265.64 276.09 262.09 280.43 261.21 277.33 C 261.43 277.09 261.88 276.60 262.10 276.36 Z" />
</g>
<g id="#d0d0d0ff">
<path fill="#d0d0d0" opacity="1.00" d=" M 160.96 285.97 C 161.30 283.25 160.11 279.66 162.68 277.78 C 162.98 280.52 163.05 283.29 163.05 286.05 C 162.53 286.03 161.48 285.99 160.96 285.97 Z" />
</g>
<g id="#fafafaff">
<path fill="#fafafa" opacity="1.00" d=" M 244.31 279.21 C 247.05 278.23 246.10 282.66 243.85 282.01 C 242.04 281.76 242.98 279.40 244.31 279.21 Z" />
</g>
<g id="#b3b3b3ff">
<path fill="#b3b3b3" opacity="1.00" d=" M 300.10 281.47 C 303.44 281.44 298.70 284.52 300.10 281.47 Z" />
</g>
<g id="#1d1f1dff">
<path fill="#1d1f1d" opacity="1.00" d=" M 95.85 321.72 C 115.91 321.83 135.98 321.75 156.04 321.75 C 157.97 321.72 159.78 322.46 161.60 323.01 C 161.56 323.46 161.47 324.36 161.42 324.81 C 169.51 324.83 177.60 324.83 185.69 324.80 C 185.58 324.36 185.37 323.49 185.27 323.05 C 187.14 322.49 188.99 321.72 190.98 321.76 C 212.31 321.75 233.65 321.82 254.99 321.73 C 254.81 322.43 254.44 323.84 254.26 324.54 C 254.13 324.60 253.87 324.72 253.74 324.78 C 250.92 326.24 247.83 327.14 244.65 327.34 C 198.25 327.26 151.85 327.18 105.45 327.37 C 102.57 327.01 99.82 326.04 97.21 324.81 C 97.08 324.75 96.82 324.63 96.69 324.57 C 96.48 323.86 96.06 322.43 95.85 321.72 Z" />
</g>
<g id="#000000ff">
<path fill="#000000" opacity="1.00" d=" M 161.60 323.01 C 169.47 323.46 177.40 323.40 185.27 323.05 C 185.37 323.49 185.58 324.36 185.69 324.80 C 177.60 324.83 169.51 324.83 161.42 324.81 C 161.47 324.36 161.56 323.46 161.60 323.01 Z" />
<path fill="#000000" opacity="1.00" d=" M 86.35 451.36 C 92.48 448.20 99.79 448.66 106.12 450.96 C 112.80 453.24 119.28 449.24 125.99 449.79 C 131.23 449.90 136.49 449.57 141.71 450.15 C 142.81 456.59 142.66 463.20 141.54 469.64 C 122.69 469.43 103.77 470.34 84.97 468.65 C 80.58 468.56 76.16 468.57 71.83 467.71 C 74.93 461.00 79.91 455.06 86.35 451.36 Z" />
<path fill="#000000" opacity="1.00" d=" M 236.97 451.52 C 242.83 450.58 248.62 448.05 254.67 449.43 C 264.13 451.52 270.31 459.72 274.86 467.69 C 269.97 468.69 264.96 468.50 260.00 468.70 C 241.77 470.30 223.46 469.41 205.19 469.68 C 203.72 463.25 203.73 456.48 204.95 450.01 C 210.63 449.59 216.32 449.85 222.01 449.74 C 227.10 449.51 231.84 452.42 236.97 451.52 Z" />
</g>
<g id="#302c35ff">
<path fill="#302c35" opacity="1.00" d=" M 97.21 324.81 C 99.82 326.04 102.57 327.01 105.45 327.37 C 110.07 332.90 116.03 337.17 122.36 340.54 C 146.74 352.00 174.87 353.27 201.01 348.02 C 213.34 345.19 225.77 341.48 236.40 334.41 C 239.51 332.50 242.27 330.09 244.65 327.34 C 247.83 327.14 250.92 326.24 253.74 324.78 C 249.15 334.79 239.03 340.72 229.51 345.35 C 229.82 353.57 229.47 361.81 230.19 370.01 C 230.41 394.72 230.69 419.44 230.66 444.14 C 220.71 443.86 210.76 444.21 200.80 443.94 C 200.18 445.63 199.54 447.33 198.90 449.02 C 198.18 430.97 196.03 413.03 194.54 395.04 C 193.71 382.07 191.80 369.20 191.33 356.22 C 184.86 356.54 178.39 356.78 171.93 357.27 C 166.43 356.73 160.91 356.72 155.41 356.29 C 152.98 381.32 151.00 406.36 148.48 431.38 C 148.29 437.49 146.86 443.53 147.43 449.67 C 146.49 447.85 145.79 445.92 145.14 443.99 C 138.09 443.87 131.03 444.33 123.98 443.94 C 121.06 443.73 118.13 444.08 115.34 444.98 C 115.67 427.68 115.27 410.35 116.12 393.08 C 116.53 376.94 116.16 360.79 116.62 344.66 C 108.73 339.76 100.77 333.68 97.21 324.81 M 122.39 347.97 C 122.45 371.32 122.37 394.68 121.90 418.03 C 121.74 426.36 121.99 434.71 121.35 443.02 C 127.92 443.67 134.53 443.34 141.12 443.20 C 142.30 437.20 142.19 431.06 142.98 425.00 C 144.88 401.75 147.14 378.52 149.04 355.26 C 144.05 354.17 139.00 353.33 134.11 351.86 C 130.15 350.70 126.43 348.86 122.39 347.97 M 220.89 348.85 C 213.21 351.71 205.21 353.51 197.20 355.15 C 199.55 384.49 202.75 413.76 205.06 443.10 C 211.61 443.53 218.19 443.50 224.74 443.16 C 223.89 411.91 224.56 380.60 223.49 349.36 C 223.61 347.75 221.69 348.66 220.89 348.85 Z" />
</g>
<g id="#433c49ff">
<path fill="#433c49" opacity="1.00" d=" M 105.45 327.37 C 151.85 327.18 198.25 327.26 244.65 327.34 C 242.27 330.09 239.51 332.50 236.40 334.41 C 225.77 341.48 213.34 345.19 201.01 348.02 C 174.87 353.27 146.74 352.00 122.36 340.54 C 116.03 337.17 110.07 332.90 105.45 327.37 Z" />
<path fill="#433c49" opacity="1.00" d=" M 122.39 347.97 C 126.43 348.86 130.15 350.70 134.11 351.86 C 139.00 353.33 144.05 354.17 149.04 355.26 C 147.14 378.52 144.88 401.75 142.98 425.00 C 142.19 431.06 142.30 437.20 141.12 443.20 C 134.53 443.34 127.92 443.67 121.35 443.02 C 121.99 434.71 121.74 426.36 121.90 418.03 C 122.37 394.68 122.45 371.32 122.39 347.97 Z" />
<path fill="#433c49" opacity="1.00" d=" M 220.89 348.85 C 221.69 348.66 223.61 347.75 223.49 349.36 C 224.56 380.60 223.89 411.91 224.74 443.16 C 218.19 443.50 211.61 443.53 205.06 443.10 C 202.75 413.76 199.55 384.49 197.20 355.15 C 205.21 353.51 213.21 351.71 220.89 348.85 Z" />
</g>
<g id="#202020ff">
<path fill="#202020" opacity="1.00" d=" M 81.83 446.85 C 88.92 442.33 98.13 441.64 105.96 444.54 C 108.93 445.65 112.29 445.98 115.34 444.98 C 118.13 444.08 121.06 443.73 123.98 443.94 C 131.03 444.33 138.09 443.87 145.14 443.99 C 145.79 445.92 146.49 447.85 147.43 449.67 C 148.02 450.69 148.33 451.80 148.36 452.99 C 148.93 460.69 148.55 468.53 146.17 475.92 C 125.10 476.01 104.00 476.40 82.98 474.79 C 76.04 474.72 69.16 473.80 62.25 473.41 C 66.23 463.11 72.06 452.64 81.83 446.85 M 86.35 451.36 C 79.91 455.06 74.93 461.00 71.83 467.71 C 76.16 468.57 80.58 468.56 84.97 468.65 C 103.77 470.34 122.69 469.43 141.54 469.64 C 142.66 463.20 142.81 456.59 141.71 450.15 C 136.49 449.57 131.23 449.90 125.99 449.79 C 119.28 449.24 112.80 453.24 106.12 450.96 C 99.79 448.66 92.48 448.20 86.35 451.36 Z" />
<path fill="#202020" opacity="1.00" d=" M 231.66 445.50 C 237.35 446.37 242.41 443.27 247.96 442.88 C 253.90 442.29 259.88 444.09 265.02 446.99 C 274.30 453.15 280.31 463.09 284.04 473.38 C 262.76 475.17 241.39 476.25 220.02 476.00 C 213.27 475.83 206.49 476.38 199.77 475.63 C 198.02 466.92 196.17 457.73 198.90 449.02 C 199.54 447.33 200.18 445.63 200.80 443.94 C 210.76 444.21 220.71 443.86 230.66 444.14 C 230.91 444.48 231.41 445.16 231.66 445.50 M 236.97 451.52 C 231.84 452.42 227.10 449.51 222.01 449.74 C 216.32 449.85 210.63 449.59 204.95 450.01 C 203.73 456.48 203.72 463.25 205.19 469.68 C 223.46 469.41 241.77 470.30 260.00 468.70 C 264.96 468.50 269.97 468.69 274.86 467.69 C 270.31 459.72 264.13 451.52 254.67 449.43 C 248.62 448.05 242.83 450.58 236.97 451.52 Z" />
</g>
</svg>
