<?xml version="1.0" encoding="UTF-8" ?>
<!DOCTYPE svg PUBLIC "-//W3C//DTD SVG 1.1//EN" "http://www.w3.org/Graphics/SVG/1.1/DTD/svg11.dtd">
<svg width="351pt" height="480pt" viewBox="0 0 351 480" version="1.1" xmlns="http://www.w3.org/2000/svg">
<g id="#ffffffff">
<path fill="#ffffff" opacity="1.00" d=" M 142.67 105.36 C 139.75 102.97 142.90 98.18 146.13 98.61 C 148.48 99.55 149.87 101.70 149.65 104.25 C 147.98 106.19 144.62 107.90 142.67 105.36 Z" />
<path fill="#ffffff" opacity="1.00" d=" M 207.96 104.90 C 206.30 102.21 208.51 99.46 210.90 98.29 C 213.07 99.07 215.60 100.45 215.31 103.20 C 214.89 106.70 209.83 107.96 207.96 104.90 Z" />
<path fill="#ffffff" opacity="1.00" d=" M 40.51 315.47 C 40.57 270.51 40.40 225.55 40.59 180.60 C 131.18 180.67 221.77 180.69 312.36 180.59 C 312.59 225.54 312.40 270.50 312.45 315.46 C 221.81 315.45 131.16 315.43 40.51 315.47 M 76.60 196.48 C 68.22 205.29 66.27 218.16 66.79 229.86 C 64.01 230.06 61.08 230.14 58.64 231.66 C 54.88 233.57 52.75 237.88 52.99 242.02 C 53.02 259.01 52.98 276.00 53.00 292.99 C 52.59 299.03 58.08 304.43 64.07 304.25 C 85.71 304.30 107.37 304.33 129.01 304.23 C 132.48 304.45 135.56 302.24 137.39 299.45 C 139.33 296.72 139.13 293.21 139.17 290.03 C 139.08 273.70 139.23 257.37 139.10 241.05 C 139.18 237.34 137.20 233.82 134.25 231.66 C 131.52 229.81 128.06 230.11 124.93 229.91 C 125.38 219.34 124.28 207.92 117.78 199.15 C 112.86 191.80 103.58 188.34 94.96 189.07 C 88.24 189.29 81.23 191.36 76.60 196.48 M 170.42 231.34 C 167.16 237.12 162.16 242.01 160.13 248.41 C 163.74 248.46 167.34 248.43 170.95 248.39 C 171.02 250.58 171.08 252.78 171.12 254.98 C 171.83 254.98 173.25 255.00 173.96 255.01 C 174.00 252.80 174.05 250.60 174.10 248.40 C 174.87 248.41 176.42 248.41 177.19 248.42 C 177.21 247.82 177.24 246.64 177.25 246.05 C 176.44 246.01 174.81 245.95 174.00 245.91 C 174.01 240.97 174.05 236.02 173.95 231.08 C 172.77 231.16 171.59 231.25 170.42 231.34 M 184.40 231.51 C 181.11 233.41 180.18 237.51 179.97 241.02 C 179.79 244.99 179.94 249.32 182.26 252.73 C 184.41 256.04 189.76 256.38 192.29 253.33 C 194.71 250.50 195.10 246.56 195.14 242.98 C 195.09 239.43 194.71 235.50 192.23 232.75 C 190.32 230.57 186.90 230.21 184.40 231.51 M 198.87 233.30 C 199.36 234.03 199.86 234.77 200.36 235.51 C 202.47 234.16 205.02 232.41 207.61 233.62 C 210.44 234.76 210.33 239.31 207.63 240.54 C 206.17 241.10 204.60 241.30 203.08 241.62 C 203.04 242.12 202.97 243.12 202.94 243.62 C 205.11 244.10 207.67 243.96 209.40 245.58 C 211.51 247.65 210.59 251.75 207.70 252.57 C 204.57 253.75 201.63 251.78 199.11 250.16 C 198.76 250.99 198.42 251.83 198.09 252.67 C 201.24 254.74 205.14 256.34 208.91 254.95 C 212.60 253.97 214.75 249.51 213.08 246.04 C 212.37 244.28 210.47 243.56 209.01 242.59 C 210.71 241.09 212.98 239.53 212.83 236.96 C 213.11 233.68 210.17 231.02 207.04 230.84 C 204.05 230.26 201.36 231.90 198.87 233.30 M 169.15 270.86 C 167.40 274.57 166.08 278.46 165.08 282.44 C 166.44 281.75 166.91 280.30 167.49 279.02 C 168.62 278.93 169.75 278.86 170.88 278.80 C 171.57 280.17 172.26 281.61 173.55 282.53 C 172.46 278.52 171.45 274.38 169.15 270.86 M 253.08 271.17 C 252.63 272.58 253.10 273.06 254.50 272.61 C 254.95 271.19 254.48 270.72 253.08 271.17 M 275.07 271.17 C 274.62 272.58 275.10 273.06 276.50 272.61 C 276.94 271.19 276.47 270.71 275.07 271.17 M 284.35 274.34 C 280.85 273.05 277.78 276.72 279.30 280.02 C 280.04 283.02 283.66 281.58 285.86 281.74 C 285.73 277.96 285.81 274.17 285.62 270.40 C 284.20 271.25 284.51 272.94 284.35 274.34 M 298.21 271.50 C 298.20 273.97 296.79 278.27 299.89 279.27 C 300.01 276.44 300.03 273.60 299.94 270.77 C 299.51 270.96 298.64 271.32 298.21 271.50 M 241.65 272.20 C 241.32 272.70 240.65 273.71 240.32 274.21 C 240.72 276.87 241.13 279.53 241.76 282.16 C 242.65 282.14 244.42 282.12 245.30 282.10 C 241.87 280.69 242.74 276.94 243.93 274.25 C 243.17 273.57 242.80 272.25 241.65 272.20 M 161.21 274.21 C 160.65 275.82 161.19 276.39 162.84 275.91 C 163.39 274.29 162.85 273.73 161.21 274.21 M 174.73 278.03 C 174.28 281.52 178.42 283.19 180.99 281.19 C 178.89 281.17 175.69 280.99 176.09 278.03 C 175.90 275.16 178.99 275.24 181.00 275.30 C 178.67 272.98 174.52 274.61 174.73 278.03 M 182.52 278.88 C 182.71 281.98 186.67 283.21 188.72 280.92 C 187.75 280.95 185.81 281.01 184.84 281.04 C 184.29 279.50 183.30 277.81 184.32 276.23 C 185.30 274.90 187.13 275.56 188.50 275.32 C 186.03 272.37 181.63 275.51 182.52 278.88 M 191.22 280.64 C 192.35 282.69 195.05 281.65 196.90 281.99 C 194.90 281.15 192.39 280.85 191.42 278.60 C 193.30 278.53 195.18 278.51 197.06 278.49 C 196.66 276.98 196.87 274.64 194.88 274.28 C 191.38 273.12 189.20 278.13 191.22 280.64 M 199.09 275.18 C 197.90 278.22 202.59 278.31 203.29 280.90 C 201.71 280.82 200.14 280.73 198.56 280.67 C 199.85 282.76 203.69 282.74 204.19 280.06 C 203.95 278.08 201.54 277.75 200.27 276.59 C 199.69 274.30 202.94 275.72 204.20 275.28 C 202.68 274.28 200.44 273.42 199.09 275.18 M 208.36 274.30 C 205.61 275.37 205.13 279.60 207.40 281.40 C 209.05 282.99 211.98 282.06 212.73 280.00 C 214.24 277.26 211.61 273.02 208.36 274.30 M 219.00 274.39 C 218.99 276.94 218.99 279.49 218.99 282.04 C 219.45 282.02 220.38 281.99 220.85 281.98 C 220.92 280.12 221.01 278.27 221.09 276.43 C 222.11 275.63 223.14 274.84 224.17 274.05 C 222.44 274.15 220.72 274.27 219.00 274.39 M 226.30 281.52 C 227.83 282.59 229.72 281.82 231.40 281.76 C 229.27 281.13 226.79 280.93 225.59 278.79 C 227.42 278.17 230.62 279.53 231.38 277.16 C 231.00 275.54 229.81 273.89 227.94 274.10 C 224.49 274.45 223.62 279.66 226.30 281.52 M 233.12 276.69 C 234.44 278.22 236.56 279.00 237.41 280.95 C 236.22 280.87 233.85 280.72 232.66 280.65 C 234.10 283.15 239.33 282.77 238.81 279.28 C 237.45 277.90 235.38 277.13 234.73 275.17 C 235.97 275.36 237.23 275.54 238.48 275.73 C 237.64 272.84 232.82 273.70 233.12 276.69 M 246.79 274.53 C 246.77 277.03 246.76 279.52 246.76 282.02 L 248.00 281.99 C 247.69 278.82 248.23 275.63 251.34 274.08 C 249.82 274.24 248.31 274.41 246.79 274.53 M 253.34 273.62 C 252.98 276.57 252.95 279.56 253.15 282.53 C 255.24 280.33 254.97 276.04 253.34 273.62 M 257.13 274.58 C 257.15 277.06 257.16 279.55 257.17 282.04 C 257.55 282.01 258.29 281.93 258.67 281.89 C 258.69 279.97 258.66 278.04 258.91 276.14 C 259.87 275.51 261.10 274.62 261.87 276.03 C 262.10 278.16 262.05 280.31 262.15 282.46 C 264.61 281.46 263.44 278.34 263.41 276.33 C 263.12 272.99 259.32 274.49 257.13 274.58 M 266.53 275.61 C 266.46 278.51 266.99 281.48 265.90 284.29 C 268.00 286.08 272.12 286.09 273.09 283.10 C 273.01 280.27 269.31 281.39 267.53 280.86 C 267.79 280.40 268.32 279.48 268.59 279.01 C 267.83 277.93 266.78 275.03 268.99 275.14 C 271.73 274.83 270.21 278.46 269.96 279.87 C 271.72 278.42 272.18 276.16 272.86 274.11 C 270.79 274.47 267.82 273.44 266.53 275.61 M 275.41 273.57 C 274.98 276.54 274.93 279.55 275.15 282.54 C 277.30 280.29 276.83 276.15 275.41 273.57 M 290.38 274.52 C 286.77 276.43 288.66 283.33 292.98 282.05 C 297.85 280.74 295.25 271.92 290.38 274.52 M 161.17 278.05 C 161.09 280.36 161.02 282.68 160.96 284.99 C 161.48 285.00 162.53 285.02 163.06 285.02 C 163.03 282.36 162.95 279.69 162.83 277.03 C 162.41 277.29 161.58 277.80 161.17 278.05 M 298.18 280.31 C 297.67 281.94 298.23 282.48 299.86 281.95 C 300.36 280.31 299.80 279.77 298.18 280.31 Z" />
<path fill="#ffffff" opacity="1.00" d=" M 81.82 205.80 C 88.13 196.13 104.68 196.35 110.63 206.31 C 114.61 213.48 115.08 221.94 114.76 229.96 C 102.16 230.05 89.57 229.98 76.97 229.99 C 76.69 221.77 77.16 212.89 81.82 205.80 Z" />
<path fill="#ffffff" opacity="1.00" d=" M 186.46 233.39 C 188.75 232.55 190.83 234.59 191.35 236.69 C 192.48 240.79 192.45 245.25 191.37 249.37 C 190.85 251.55 188.67 253.79 186.28 252.73 C 182.90 250.84 183.01 246.33 182.87 242.97 C 183.04 239.66 182.93 235.02 186.46 233.39 Z" />
<path fill="#ffffff" opacity="1.00" d=" M 163.68 245.96 C 166.13 242.29 168.59 238.64 171.07 235.00 C 171.11 238.65 171.10 242.31 171.07 245.96 C 168.60 245.96 166.14 245.96 163.68 245.96 Z" />
<path fill="#ffffff" opacity="1.00" d=" M 85.75 260.05 C 85.59 253.45 92.72 248.13 99.00 249.87 C 104.72 251.08 108.24 257.82 106.37 263.28 C 105.68 265.99 103.52 267.88 101.56 269.72 C 102.48 275.30 103.34 280.89 104.18 286.48 C 99.26 286.50 94.34 286.50 89.41 286.49 C 90.15 280.97 90.98 275.46 91.69 269.95 C 88.50 267.63 85.48 264.27 85.75 260.05 Z" />
<path fill="#ffffff" opacity="1.00" d=" M 167.79 277.79 C 168.29 276.18 168.82 274.59 169.40 273.02 C 169.87 274.60 170.35 276.20 170.81 277.79 C 170.05 277.79 168.55 277.79 167.79 277.79 Z" />
<path fill="#ffffff" opacity="1.00" d=" M 209.02 274.67 C 211.95 275.60 212.02 278.61 211.16 281.07 C 209.85 280.72 207.77 281.28 207.54 279.42 C 206.76 277.63 208.14 276.08 209.02 274.67 Z" />
<path fill="#ffffff" opacity="1.00" d=" M 227.28 275.44 C 228.24 274.81 230.37 275.67 229.59 277.00 C 228.46 278.70 224.78 276.71 227.28 275.44 Z" />
<path fill="#ffffff" opacity="1.00" d=" M 280.87 276.09 C 281.75 274.92 283.32 275.56 284.52 275.53 C 284.42 277.29 284.32 279.06 284.22 280.83 C 283.37 280.84 281.66 280.87 280.80 280.88 C 280.66 279.30 280.10 277.60 280.87 276.09 Z" />
<path fill="#ffffff" opacity="1.00" d=" M 291.42 275.34 C 294.46 274.47 295.23 279.65 292.91 280.99 C 289.61 282.09 288.69 276.35 291.42 275.34 Z" />
<path fill="#ffffff" opacity="1.00" d=" M 268.24 282.27 C 269.22 281.79 272.07 282.32 270.99 283.86 C 269.84 285.55 265.50 283.50 268.24 282.27 Z" />
</g>
<g id="#8a5d3bff">
<path fill="#8a5d3b" opacity="1.00" d=" M 222.80 5.16 C 225.71 4.58 229.81 2.53 231.75 5.90 C 232.38 8.84 229.56 10.65 228.06 12.76 C 231.04 11.74 233.96 10.35 237.17 10.21 C 240.66 13.90 235.86 18.11 236.90 22.24 C 238.69 30.61 245.03 36.87 248.15 44.67 C 253.46 57.34 253.27 71.56 250.50 84.82 C 259.23 92.12 256.10 108.65 244.53 110.92 C 243.12 114.80 243.96 119.03 243.35 123.05 C 241.67 137.01 239.71 151.41 233.11 164.03 C 232.02 165.72 230.82 167.34 229.51 168.86 C 227.85 170.71 226.15 172.53 224.50 174.40 C 220.39 174.45 216.28 174.49 212.17 174.43 C 217.35 171.03 223.18 168.00 226.61 162.62 C 230.56 156.48 232.46 149.30 234.21 142.29 C 236.52 131.36 237.67 120.18 237.77 109.01 C 238.00 102.00 238.84 94.95 238.09 87.94 C 236.06 81.45 229.64 77.70 223.64 75.42 C 223.98 75.21 224.67 74.79 225.01 74.58 C 213.30 70.79 200.97 73.03 189.09 74.55 C 189.59 74.83 190.58 75.40 191.08 75.68 C 178.16 79.07 164.28 75.82 153.20 68.69 C 146.39 74.66 137.10 75.98 128.36 75.79 C 123.77 76.03 118.89 75.70 114.59 77.58 C 111.70 78.84 112.17 82.38 111.78 84.97 C 111.21 95.40 111.20 105.87 111.58 116.31 C 112.87 132.48 114.29 149.57 123.23 163.59 C 126.11 168.39 130.95 171.41 135.49 174.44 C 131.56 174.49 127.62 174.44 123.69 174.40 C 122.44 172.77 121.17 171.16 119.93 169.53 C 118.66 167.87 117.46 166.16 116.38 164.38 C 107.69 148.32 105.89 129.59 105.15 111.65 C 102.52 110.06 99.39 109.14 97.37 106.65 C 92.22 100.94 92.66 91.49 97.58 85.76 C 95.32 74.84 94.87 63.31 98.49 52.62 C 101.81 41.60 109.46 32.28 118.83 25.78 C 129.35 18.78 141.39 14.19 153.81 12.01 C 171.78 8.03 191.34 7.99 208.41 15.51 C 212.21 10.94 216.77 6.45 222.80 5.16 M 210.81 22.77 C 207.23 22.58 204.27 20.06 200.86 19.14 C 181.63 12.92 160.60 15.31 141.72 21.62 C 129.04 25.70 116.64 32.79 109.25 44.21 C 101.37 55.81 101.11 70.72 103.53 84.08 C 105.20 79.64 106.94 74.70 111.42 72.34 C 120.93 67.52 132.06 71.41 141.92 67.96 C 146.12 66.73 149.22 63.49 152.84 61.22 C 158.90 65.33 165.67 68.40 172.77 70.18 C 182.21 72.24 191.55 68.95 200.93 68.20 C 212.41 66.87 224.97 67.53 234.83 74.19 C 238.86 76.76 241.49 80.82 244.13 84.68 C 246.63 74.46 247.16 63.55 244.60 53.29 C 241.80 40.98 230.42 31.99 230.38 18.84 C 226.56 21.32 225.56 25.85 223.61 29.64 C 221.98 30.24 219.38 30.09 218.97 28.01 C 217.38 22.91 218.82 17.50 220.75 12.70 C 215.87 14.38 214.35 19.67 210.81 22.77 M 244.61 99.99 C 244.45 101.69 244.42 103.40 244.57 105.10 C 248.47 102.37 249.97 97.51 249.09 92.93 C 247.53 95.25 246.52 97.91 244.61 99.99 M 99.56 95.93 C 99.75 98.58 100.64 101.16 102.59 103.03 C 101.98 100.51 101.14 98.01 99.56 95.93 Z" />
<path fill="#8a5d3b" opacity="1.00" d=" M 147.46 136.40 C 166.51 136.83 185.58 136.49 204.64 136.57 C 205.42 142.84 204.67 149.50 200.88 154.74 C 196.21 160.23 189.04 162.66 182.05 163.33 C 171.38 164.51 158.86 164.59 150.46 156.87 C 148.96 153.68 147.31 150.48 146.62 146.99 C 145.91 143.44 146.74 139.87 147.46 136.40 M 153.16 151.00 C 161.98 147.61 171.59 145.77 181.02 147.16 C 186.11 147.52 190.76 149.81 195.66 150.93 C 197.47 148.54 198.38 145.64 198.77 142.70 C 182.98 142.63 167.20 142.79 151.41 142.61 C 151.04 145.55 151.74 148.42 153.16 151.00 M 159.64 155.35 C 166.08 158.15 173.33 157.96 180.19 157.28 C 182.95 156.88 185.95 156.87 188.35 155.23 C 179.06 152.04 168.94 152.43 159.64 155.35 Z" />
<path fill="#8a5d3b" opacity="1.00" d=" M 29.97 227.98 C 31.15 226.62 32.69 225.68 34.20 224.73 C 34.17 230.27 34.19 235.82 34.15 241.37 C 30.54 244.01 27.61 248.25 28.49 252.94 C 28.75 256.44 31.54 258.75 34.16 260.65 C 34.16 262.63 34.16 264.61 34.15 266.60 C 33.62 266.42 32.55 266.05 32.02 265.87 C 21.50 262.67 19.14 247.86 26.18 240.23 C 27.21 239.14 28.36 238.18 29.47 237.18 C 27.79 234.45 27.49 230.33 29.97 227.98 Z" />
<path fill="#8a5d3b" opacity="1.00" d=" M 319.24 243.09 C 318.33 237.47 318.67 231.73 319.17 226.08 C 321.42 227.97 324.00 230.75 322.98 233.97 C 322.71 235.52 321.44 237.62 323.37 238.63 C 330.68 244.57 331.10 257.53 323.55 263.45 C 322.11 264.64 320.40 265.43 318.74 266.25 C 318.72 263.83 318.73 261.38 319.33 259.03 C 324.08 254.85 323.57 247.37 319.24 243.09 Z" />
</g>
<g id="#603813ff">
<path fill="#603813" opacity="1.00" d=" M 210.81 22.77 C 214.35 19.67 215.87 14.38 220.75 12.70 C 218.82 17.50 217.38 22.91 218.97 28.01 C 219.38 30.09 221.98 30.24 223.61 29.64 C 225.56 25.85 226.56 21.32 230.38 18.84 C 230.42 31.99 241.80 40.98 244.60 53.29 C 247.16 63.55 246.63 74.46 244.13 84.68 C 241.49 80.82 238.86 76.76 234.83 74.19 C 224.97 67.53 212.41 66.87 200.93 68.20 C 191.55 68.95 182.21 72.24 172.77 70.18 C 165.67 68.40 158.90 65.33 152.84 61.22 C 149.22 63.49 146.12 66.73 141.92 67.96 C 132.06 71.41 120.93 67.52 111.42 72.34 C 106.94 74.70 105.20 79.64 103.53 84.08 C 101.11 70.72 101.37 55.81 109.25 44.21 C 116.64 32.79 129.04 25.70 141.72 21.62 C 160.60 15.31 181.63 12.92 200.86 19.14 C 204.27 20.06 207.23 22.58 210.81 22.77 Z" />
<path fill="#603813" opacity="1.00" d=" M 189.09 74.55 C 200.97 73.03 213.30 70.79 225.01 74.58 C 224.67 74.79 223.98 75.21 223.64 75.42 C 212.96 72.42 201.82 73.88 191.08 75.68 C 190.58 75.40 189.59 74.83 189.09 74.55 Z" />
<path fill="#603813" opacity="1.00" d=" M 145.33 141.01 C 145.58 139.30 145.00 136.54 147.46 136.40 C 146.74 139.87 145.91 143.44 146.62 146.99 C 147.31 150.48 148.96 153.68 150.46 156.87 C 145.68 153.24 144.89 146.60 145.33 141.01 Z" />
</g>
<g id="#f4ceabff">
<path fill="#f4ceab" opacity="1.00" d=" M 128.36 75.79 C 137.10 75.98 146.39 74.66 153.20 68.69 C 164.28 75.82 178.16 79.07 191.08 75.68 C 201.82 73.88 212.96 72.42 223.64 75.42 C 229.64 77.70 236.06 81.45 238.09 87.94 C 238.84 94.95 238.00 102.00 237.77 109.01 C 237.67 120.18 236.52 131.36 234.21 142.29 C 232.46 149.30 230.56 156.48 226.61 162.62 C 223.18 168.00 217.35 171.03 212.17 174.43 C 192.27 174.42 172.37 174.48 152.47 174.40 C 144.40 165.93 137.89 155.82 134.38 144.61 C 132.11 137.50 130.57 130.18 129.34 122.83 C 128.77 120.00 129.20 117.13 129.95 114.38 C 132.38 117.12 135.04 120.08 138.77 120.90 C 143.95 122.41 149.64 120.01 153.00 115.99 C 157.84 109.71 155.45 99.11 147.96 96.05 C 142.14 93.04 134.15 95.12 130.93 100.93 C 128.43 104.82 129.02 109.64 129.75 113.95 C 126.92 109.65 128.90 104.47 127.87 99.74 C 128.33 98.20 128.81 96.66 129.29 95.12 C 135.70 90.54 143.93 89.70 151.55 90.84 C 151.86 88.48 152.19 86.11 152.48 83.74 C 144.25 83.58 135.33 84.79 129.07 90.65 C 127.25 85.86 128.17 80.75 128.36 75.79 M 198.31 90.89 C 208.28 88.96 219.21 91.90 225.90 99.79 C 224.76 95.08 221.70 90.95 217.69 88.27 C 211.84 84.33 204.47 83.76 197.61 83.74 C 197.67 86.14 197.88 88.53 198.31 90.89 M 196.87 100.77 C 194.46 104.44 195.47 109.03 195.50 113.16 C 196.67 115.16 198.12 116.99 199.83 118.57 C 200.25 118.52 201.11 118.42 201.54 118.37 L 201.50 119.80 C 201.98 119.65 202.93 119.36 203.41 119.21 L 203.52 120.49 C 207.22 120.79 210.95 120.60 214.48 119.36 L 214.40 118.79 C 216.32 118.03 217.67 116.45 218.83 114.82 C 219.32 113.53 219.84 112.27 220.39 111.01 C 220.64 108.21 220.40 105.40 219.41 102.76 C 218.03 99.88 215.98 97.26 212.97 95.98 C 209.87 95.23 206.67 95.43 203.51 95.50 L 203.46 96.23 C 200.69 96.63 198.16 98.26 196.87 100.77 M 145.33 141.01 C 144.89 146.60 145.68 153.24 150.46 156.87 C 158.86 164.59 171.38 164.51 182.05 163.33 C 189.04 162.66 196.21 160.23 200.88 154.74 C 204.67 149.50 205.42 142.84 204.64 136.57 C 185.58 136.49 166.51 136.83 147.46 136.40 C 145.00 136.54 145.58 139.30 145.33 141.01 Z" />
<path fill="#f4ceab" opacity="1.00" d=" M 99.56 95.93 C 101.14 98.01 101.98 100.51 102.59 103.03 C 100.64 101.16 99.75 98.58 99.56 95.93 Z" />
</g>
<g id="#f8dec6ff">
<path fill="#f8dec6" opacity="1.00" d=" M 114.59 77.58 C 118.89 75.70 123.77 76.03 128.36 75.79 C 128.17 80.75 127.25 85.86 129.07 90.65 C 126.63 93.28 125.00 96.52 123.77 99.87 C 125.57 98.24 127.35 96.58 129.29 95.12 C 128.81 96.66 128.33 98.20 127.87 99.74 C 128.90 104.47 126.92 109.65 129.75 113.95 L 129.95 114.38 C 129.20 117.13 128.77 120.00 129.34 122.83 C 130.57 130.18 132.11 137.50 134.38 144.61 C 137.89 155.82 144.40 165.93 152.47 174.40 C 146.81 174.42 141.15 174.41 135.49 174.44 C 130.95 171.41 126.11 168.39 123.23 163.59 C 114.29 149.57 112.87 132.48 111.58 116.31 C 111.20 105.87 111.21 95.40 111.78 84.97 C 112.17 82.38 111.70 78.84 114.59 77.58 Z" />
</g>
<g id="#5e331bff">
<path fill="#5e331b" opacity="1.00" d=" M 129.07 90.65 C 135.33 84.79 144.25 83.58 152.48 83.74 C 152.19 86.11 151.86 88.48 151.55 90.84 C 143.93 89.70 135.70 90.54 129.29 95.12 C 127.35 96.58 125.57 98.24 123.77 99.87 C 125.00 96.52 126.63 93.28 129.07 90.65 Z" />
</g>
<g id="#5c3119ff">
<path fill="#5c3119" opacity="1.00" d=" M 198.31 90.89 C 197.88 88.53 197.67 86.14 197.61 83.74 C 204.47 83.76 211.84 84.33 217.69 88.27 C 221.70 90.95 224.76 95.08 225.90 99.79 C 219.21 91.90 208.28 88.96 198.31 90.89 Z" />
</g>
<g id="#8d5c39ff">
<path fill="#8d5c39" opacity="1.00" d=" M 130.93 100.93 C 134.15 95.12 142.14 93.04 147.96 96.05 C 155.45 99.11 157.84 109.71 153.00 115.99 C 149.64 120.01 143.95 122.41 138.77 120.90 C 135.04 120.08 132.38 117.12 129.95 114.38 L 129.75 113.95 C 129.02 109.64 128.43 104.82 130.93 100.93 M 134.42 99.36 C 134.21 99.40 133.77 99.49 133.55 99.53 C 131.41 102.54 129.63 106.13 130.39 109.94 C 131.31 117.93 141.97 123.00 148.40 117.80 C 154.17 115.37 154.54 108.35 153.09 103.14 C 150.35 95.98 139.62 93.80 134.42 99.36 Z" />
</g>
<g id="#f3cfacff">
<path fill="#f3cfac" opacity="1.00" d=" M 244.61 99.99 C 246.52 97.91 247.53 95.25 249.09 92.93 C 249.97 97.51 248.47 102.37 244.57 105.10 C 244.42 103.40 244.45 101.69 244.61 99.99 Z" />
</g>
<g id="#191818ff">
<path fill="#191818" opacity="1.00" d=" M 196.87 100.77 C 198.16 98.26 200.69 96.63 203.46 96.23 L 203.51 95.50 C 206.67 95.43 209.87 95.23 212.97 95.98 C 215.98 97.26 218.03 99.88 219.41 102.76 C 220.40 105.40 220.64 108.21 220.39 111.01 C 219.84 112.27 219.32 113.53 218.83 114.82 C 217.67 116.45 216.32 118.03 214.40 118.79 L 214.48 119.36 C 210.95 120.60 207.22 120.79 203.52 120.49 L 203.41 119.21 C 202.93 119.36 201.98 119.65 201.50 119.80 L 201.54 118.37 C 201.11 118.42 200.25 118.52 199.83 118.57 C 198.12 116.99 196.67 115.16 195.50 113.16 C 195.47 109.03 194.46 104.44 196.87 100.77 M 207.96 104.90 C 209.83 107.96 214.89 106.70 215.31 103.20 C 215.60 100.45 213.07 99.07 210.90 98.29 C 208.51 99.46 206.30 102.21 207.96 104.90 Z" />
<path fill="#191818" opacity="1.00" d=" M 134.42 99.36 C 136.95 98.89 139.44 98.25 141.92 97.56 C 141.00 99.28 139.90 100.95 139.38 102.85 C 139.77 105.92 142.74 108.50 145.80 108.63 C 148.27 107.84 150.28 106.11 152.43 104.73 C 152.86 109.50 150.97 113.91 148.40 117.80 C 141.97 123.00 131.31 117.93 130.39 109.94 C 129.63 106.13 131.41 102.54 133.55 99.53 C 133.77 99.49 134.21 99.40 134.42 99.36 Z" />
</g>
<g id="#010100ff">
<path fill="#010100" opacity="1.00" d=" M 134.42 99.36 C 139.62 93.80 150.35 95.98 153.09 103.14 C 154.54 108.35 154.17 115.37 148.40 117.80 C 150.97 113.91 152.86 109.50 152.43 104.73 C 150.28 106.11 148.27 107.84 145.80 108.63 C 142.74 108.50 139.77 105.92 139.38 102.85 C 139.90 100.95 141.00 99.28 141.92 97.56 C 139.44 98.25 136.95 98.89 134.42 99.36 M 142.67 105.36 C 144.62 107.90 147.98 106.19 149.65 104.25 C 149.87 101.70 148.48 99.55 146.13 98.61 C 142.90 98.18 139.75 102.97 142.67 105.36 Z" />
</g>
<g id="#f9d3b0ff">
<path fill="#f9d3b0" opacity="1.00" d=" M 153.16 151.00 C 151.74 148.42 151.04 145.55 151.41 142.61 C 167.20 142.79 182.98 142.63 198.77 142.70 C 198.38 145.64 197.47 148.54 195.66 150.93 C 190.76 149.81 186.11 147.52 181.02 147.16 C 171.59 145.77 161.98 147.61 153.16 151.00 Z" />
<path fill="#f9d3b0" opacity="1.00" d=" M 319.33 259.03 C 318.46 253.75 318.56 248.38 319.24 243.09 C 323.57 247.37 324.08 254.85 319.33 259.03 Z" />
</g>
<g id="#ff614eff">
<path fill="#ff614e" opacity="1.00" d=" M 159.64 155.35 C 168.94 152.43 179.06 152.04 188.35 155.23 C 185.95 156.87 182.95 156.88 180.19 157.28 C 173.33 157.96 166.08 158.15 159.64 155.35 Z" />
</g>
<g id="#72657cff">
<path fill="#72657c" opacity="1.00" d=" M 116.38 164.38 C 117.46 166.16 118.66 167.87 119.93 169.53 C 117.08 170.54 114.41 172.04 112.48 174.41 C 109.32 174.56 106.15 174.40 103.04 173.83 C 106.30 169.24 111.48 166.79 116.38 164.38 Z" />
<path fill="#72657c" opacity="1.00" d=" M 229.51 168.86 C 230.82 167.34 232.02 165.72 233.11 164.03 C 239.08 166.03 245.05 169.15 248.76 174.42 C 245.64 174.43 242.53 174.41 239.41 174.38 C 236.50 171.91 233.06 170.21 229.51 168.86 Z" />
</g>
<g id="#81728dff">
<path fill="#81728d" opacity="1.00" d=" M 224.50 174.40 C 226.15 172.53 227.85 170.71 229.51 168.86 C 233.06 170.21 236.50 171.91 239.41 174.38 C 234.44 174.43 229.47 174.41 224.50 174.40 Z" />
</g>
<g id="#82738eff">
<path fill="#82738e" opacity="1.00" d=" M 112.48 174.41 C 114.41 172.04 117.08 170.54 119.93 169.53 C 121.17 171.16 122.44 172.77 123.69 174.40 C 119.95 174.40 116.21 174.37 112.48 174.41 Z" />
</g>
<g id="#b5b5b5ff">
<path fill="#b5b5b5" opacity="1.00" d=" M 93.98 174.47 C 97.01 174.49 100.10 174.72 103.04 173.83 C 106.15 174.40 109.32 174.56 112.48 174.41 C 116.21 174.37 119.95 174.40 123.69 174.40 C 127.62 174.44 131.56 174.49 135.49 174.44 C 141.15 174.41 146.81 174.42 152.47 174.40 C 172.37 174.48 192.27 174.42 212.17 174.43 C 216.28 174.49 220.39 174.45 224.50 174.40 C 229.47 174.41 234.44 174.43 239.41 174.38 C 242.53 174.41 245.64 174.43 248.76 174.42 C 272.02 174.43 295.30 174.61 318.56 174.33 C 319.31 191.56 318.10 208.87 319.17 226.08 C 318.67 231.73 318.33 237.47 319.24 243.09 C 318.56 248.38 318.46 253.75 319.33 259.03 C 318.73 261.38 318.72 263.83 318.74 266.25 C 318.83 284.73 318.70 303.21 318.81 321.69 C 297.60 321.68 276.40 321.58 255.19 321.74 C 234.14 321.79 213.08 321.79 192.02 321.73 C 189.68 321.62 187.46 322.36 185.26 323.04 C 177.59 323.54 169.89 323.19 162.20 323.21 C 160.17 322.60 158.16 321.75 156.00 321.76 C 135.89 321.75 115.77 321.82 95.66 321.73 C 75.18 321.59 54.69 321.67 34.21 321.69 C 34.33 303.73 34.13 285.76 34.32 267.80 C 33.55 267.15 32.78 266.51 32.02 265.87 C 32.55 266.05 33.62 266.42 34.15 266.60 C 34.16 264.61 34.16 262.63 34.16 260.65 C 34.21 254.22 34.21 247.80 34.15 241.37 C 34.19 235.82 34.17 230.27 34.20 224.73 C 34.34 207.95 34.14 191.17 34.30 174.40 C 54.19 174.54 74.09 174.40 93.98 174.47 M 40.51 315.47 C 131.16 315.43 221.81 315.45 312.45 315.46 C 312.40 270.50 312.59 225.54 312.36 180.59 C 221.77 180.69 131.18 180.67 40.59 180.60 C 40.40 225.55 40.57 270.51 40.51 315.47 Z" />
<path fill="#b5b5b5" opacity="1.00" d=" M 257.13 274.58 C 259.32 274.49 263.12 272.99 263.41 276.33 C 263.44 278.34 264.61 281.46 262.15 282.46 C 262.05 280.31 262.10 278.16 261.87 276.03 C 261.10 274.62 259.87 275.51 258.91 276.14 C 258.66 278.04 258.69 279.97 258.67 281.89 C 258.29 281.93 257.55 282.01 257.17 282.04 C 257.16 279.55 257.15 277.06 257.13 274.58 Z" />
</g>
<g id="#ff5757ff">
<path fill="#ff5757" opacity="1.00" d=" M 76.60 196.48 C 81.23 191.36 88.24 189.29 94.96 189.07 C 103.58 188.34 112.86 191.80 117.78 199.15 C 124.28 207.92 125.38 219.34 124.93 229.91 C 128.06 230.11 131.52 229.81 134.25 231.66 C 137.20 233.82 139.18 237.34 139.10 241.05 C 139.23 257.37 139.08 273.70 139.17 290.03 C 139.13 293.21 139.33 296.72 137.39 299.45 C 135.56 302.24 132.48 304.45 129.01 304.23 C 107.37 304.33 85.71 304.30 64.07 304.25 C 58.08 304.43 52.59 299.03 53.00 292.99 C 52.98 276.00 53.02 259.01 52.99 242.02 C 52.75 237.88 54.88 233.57 58.64 231.66 C 61.08 230.14 64.01 230.06 66.79 229.86 C 66.27 218.16 68.22 205.29 76.60 196.48 M 81.82 205.80 C 77.16 212.89 76.69 221.77 76.97 229.99 C 89.57 229.98 102.16 230.05 114.76 229.96 C 115.08 221.94 114.61 213.48 110.63 206.31 C 104.68 196.35 88.13 196.13 81.82 205.80 M 85.75 260.05 C 85.48 264.27 88.50 267.63 91.69 269.95 C 90.98 275.46 90.15 280.97 89.41 286.49 C 94.34 286.50 99.26 286.50 104.18 286.48 C 103.34 280.89 102.48 275.30 101.56 269.72 C 103.52 267.88 105.68 265.99 106.37 263.28 C 108.24 257.82 104.72 251.08 99.00 249.87 C 92.72 248.13 85.59 253.45 85.75 260.05 Z" />
</g>
<g id="#a8a8a8ff">
<path fill="#a8a8a8" opacity="1.00" d=" M 170.42 231.34 C 171.59 231.25 172.77 231.16 173.95 231.08 C 174.05 236.02 174.01 240.97 174.00 245.91 C 174.81 245.95 176.44 246.01 177.25 246.05 C 177.24 246.64 177.21 247.82 177.19 248.42 C 176.42 248.41 174.87 248.41 174.10 248.40 C 174.05 250.60 174.00 252.80 173.96 255.01 C 173.25 255.00 171.83 254.98 171.12 254.98 C 171.08 252.78 171.02 250.58 170.95 248.39 C 167.34 248.43 163.74 248.46 160.13 248.41 C 162.16 242.01 167.16 237.12 170.42 231.34 M 163.68 245.96 C 166.14 245.96 168.60 245.96 171.07 245.96 C 171.10 242.31 171.11 238.65 171.07 235.00 C 168.59 238.64 166.13 242.29 163.68 245.96 Z" />
<path fill="#a8a8a8" opacity="1.00" d=" M 184.40 231.51 C 186.90 230.21 190.32 230.57 192.23 232.75 C 194.71 235.50 195.09 239.43 195.14 242.98 C 195.10 246.56 194.71 250.50 192.29 253.33 C 189.76 256.38 184.41 256.04 182.26 252.73 C 179.94 249.32 179.79 244.99 179.97 241.02 C 180.18 237.51 181.11 233.41 184.40 231.51 M 186.46 233.39 C 182.93 235.02 183.04 239.66 182.87 242.97 C 183.01 246.33 182.90 250.84 186.28 252.73 C 188.67 253.79 190.85 251.55 191.37 249.37 C 192.45 245.25 192.48 240.79 191.35 236.69 C 190.83 234.59 188.75 232.55 186.46 233.39 Z" />
<path fill="#a8a8a8" opacity="1.00" d=" M 198.87 233.30 C 201.36 231.90 204.05 230.26 207.04 230.84 C 210.17 231.02 213.11 233.68 212.83 236.96 C 212.98 239.53 210.71 241.09 209.01 242.59 C 210.47 243.56 212.37 244.28 213.08 246.04 C 214.75 249.51 212.60 253.97 208.91 254.95 C 205.14 256.34 201.24 254.74 198.09 252.67 C 198.42 251.83 198.76 250.99 199.11 250.16 C 201.63 251.78 204.57 253.75 207.70 252.57 C 210.59 251.75 211.51 247.65 209.40 245.58 C 207.67 243.96 205.11 244.10 202.94 243.62 C 202.97 243.12 203.04 242.12 203.08 241.62 C 204.60 241.30 206.17 241.10 207.63 240.54 C 210.33 239.31 210.44 234.76 207.61 233.62 C 205.02 232.41 202.47 234.16 200.36 235.51 C 199.86 234.77 199.36 234.03 198.87 233.30 Z" />
<path fill="#a8a8a8" opacity="1.00" d=" M 169.15 270.86 C 171.45 274.38 172.46 278.52 173.55 282.53 C 172.26 281.61 171.57 280.17 170.88 278.80 C 169.75 278.86 168.62 278.93 167.49 279.02 C 166.91 280.30 166.44 281.75 165.08 282.44 C 166.08 278.46 167.40 274.57 169.15 270.86 M 167.79 277.79 C 168.55 277.79 170.05 277.79 170.81 277.79 C 170.35 276.20 169.87 274.60 169.40 273.02 C 168.82 274.59 168.29 276.18 167.79 277.79 Z" />
<path fill="#a8a8a8" opacity="1.00" d=" M 284.35 274.34 C 284.51 272.94 284.20 271.25 285.62 270.40 C 285.81 274.17 285.73 277.96 285.86 281.74 C 283.66 281.58 280.04 283.02 279.30 280.02 C 277.78 276.72 280.85 273.05 284.35 274.34 M 280.87 276.09 C 280.10 277.60 280.66 279.30 280.80 280.88 C 281.66 280.87 283.37 280.84 284.22 280.83 C 284.32 279.06 284.42 277.29 284.52 275.53 C 283.32 275.56 281.75 274.92 280.87 276.09 Z" />
<path fill="#a8a8a8" opacity="1.00" d=" M 174.73 278.03 C 174.52 274.61 178.67 272.98 181.00 275.30 C 178.99 275.24 175.90 275.16 176.09 278.03 C 175.69 280.99 178.89 281.17 180.99 281.19 C 178.42 283.19 174.28 281.52 174.73 278.03 Z" />
<path fill="#a8a8a8" opacity="1.00" d=" M 182.52 278.88 C 181.63 275.51 186.03 272.37 188.50 275.32 C 187.13 275.56 185.30 274.90 184.32 276.23 C 183.30 277.81 184.29 279.50 184.84 281.04 C 185.81 281.01 187.75 280.95 188.72 280.92 C 186.67 283.21 182.71 281.98 182.52 278.88 Z" />
<path fill="#a8a8a8" opacity="1.00" d=" M 191.22 280.64 C 189.20 278.13 191.38 273.12 194.88 274.28 C 196.87 274.64 196.66 276.98 197.06 278.49 C 195.18 278.51 193.30 278.53 191.42 278.60 C 192.39 280.85 194.90 281.15 196.90 281.99 C 195.05 281.65 192.35 282.69 191.22 280.64 M 193.35 275.36 C 191.38 275.71 192.63 278.24 194.22 277.46 C 196.21 277.14 194.91 274.56 193.35 275.36 Z" />
<path fill="#a8a8a8" opacity="1.00" d=" M 199.09 275.18 C 200.44 273.42 202.68 274.28 204.20 275.28 C 202.94 275.72 199.69 274.30 200.27 276.59 C 201.54 277.75 203.95 278.08 204.19 280.06 C 203.69 282.74 199.85 282.76 198.56 280.67 C 200.14 280.73 201.71 280.82 203.29 280.90 C 202.59 278.31 197.90 278.22 199.09 275.18 Z" />
<path fill="#a8a8a8" opacity="1.00" d=" M 208.36 274.30 C 211.61 273.02 214.24 277.26 212.73 280.00 C 211.98 282.06 209.05 282.99 207.40 281.40 C 205.13 279.60 205.61 275.37 208.36 274.30 M 209.02 274.67 C 208.14 276.08 206.76 277.63 207.54 279.42 C 207.77 281.28 209.85 280.72 211.16 281.07 C 212.02 278.61 211.95 275.60 209.02 274.67 Z" />
<path fill="#a8a8a8" opacity="1.00" d=" M 226.30 281.52 C 223.62 279.66 224.49 274.45 227.94 274.10 C 229.81 273.89 231.00 275.54 231.38 277.16 C 230.62 279.53 227.42 278.17 225.59 278.79 C 226.79 280.93 229.27 281.13 231.40 281.76 C 229.72 281.82 227.83 282.59 226.30 281.52 M 227.28 275.44 C 224.78 276.71 228.46 278.70 229.59 277.00 C 230.37 275.67 228.24 274.81 227.28 275.44 Z" />
<path fill="#a8a8a8" opacity="1.00" d=" M 253.34 273.62 C 254.97 276.04 255.24 280.33 253.15 282.53 C 252.95 279.56 252.98 276.57 253.34 273.62 Z" />
<path fill="#a8a8a8" opacity="1.00" d=" M 266.53 275.61 C 267.82 273.44 270.79 274.47 272.86 274.11 C 272.18 276.16 271.72 278.42 269.96 279.87 C 270.21 278.46 271.73 274.83 268.99 275.14 C 266.78 275.03 267.83 277.93 268.59 279.01 C 268.32 279.48 267.79 280.40 267.53 280.86 C 269.31 281.39 273.01 280.27 273.09 283.10 C 272.12 286.09 268.00 286.08 265.90 284.29 C 266.99 281.48 266.46 278.51 266.53 275.61 M 268.24 282.27 C 265.50 283.50 269.84 285.55 270.99 283.86 C 272.07 282.32 269.22 281.79 268.24 282.27 Z" />
<path fill="#a8a8a8" opacity="1.00" d=" M 275.41 273.57 C 276.83 276.15 277.30 280.29 275.15 282.54 C 274.93 279.55 274.98 276.54 275.41 273.57 Z" />
<path fill="#a8a8a8" opacity="1.00" d=" M 290.38 274.52 C 295.25 271.92 297.85 280.74 292.98 282.05 C 288.66 283.33 286.77 276.43 290.38 274.52 M 291.42 275.34 C 288.69 276.35 289.61 282.09 292.91 280.99 C 295.23 279.65 294.46 274.47 291.42 275.34 Z" />
</g>
<g id="#f5ceabff">
<path fill="#f5ceab" opacity="1.00" d=" M 28.49 252.94 C 27.61 248.25 30.54 244.01 34.15 241.37 C 34.21 247.80 34.21 254.22 34.16 260.65 C 31.54 258.75 28.75 256.44 28.49 252.94 Z" />
</g>
<g id="#c8c8c8ff">
<path fill="#c8c8c8" opacity="1.00" d=" M 253.08 271.17 C 254.48 270.72 254.95 271.19 254.50 272.61 C 253.10 273.06 252.63 272.58 253.08 271.17 Z" />
<path fill="#c8c8c8" opacity="1.00" d=" M 275.07 271.17 C 276.47 270.71 276.94 271.19 276.50 272.61 C 275.10 273.06 274.62 272.58 275.07 271.17 Z" />
</g>
<g id="#d1d1d1ff">
<path fill="#d1d1d1" opacity="1.00" d=" M 298.21 271.50 C 298.64 271.32 299.51 270.96 299.94 270.77 C 300.03 273.60 300.01 276.44 299.89 279.27 C 296.79 278.27 298.20 273.97 298.21 271.50 Z" />
</g>
<g id="#c2c2c2ff">
<path fill="#c2c2c2" opacity="1.00" d=" M 241.65 272.20 C 242.80 272.25 243.17 273.57 243.93 274.25 C 242.74 276.94 241.87 280.69 245.30 282.10 C 244.42 282.12 242.65 282.14 241.76 282.16 C 241.13 279.53 240.72 276.87 240.32 274.21 C 240.65 273.71 241.32 272.70 241.65 272.20 Z" />
</g>
<g id="#c0c0c0ff">
<path fill="#c0c0c0" opacity="1.00" d=" M 161.21 274.21 C 162.85 273.73 163.39 274.29 162.84 275.91 C 161.19 276.39 160.65 275.82 161.21 274.21 Z" />
<path fill="#c0c0c0" opacity="1.00" d=" M 233.12 276.69 C 232.82 273.70 237.64 272.84 238.48 275.73 C 237.23 275.54 235.97 275.36 234.73 275.17 C 235.38 277.13 237.45 277.90 238.81 279.28 C 239.33 282.77 234.10 283.15 232.66 280.65 C 233.85 280.72 236.22 280.87 237.41 280.95 C 236.56 279.00 234.44 278.22 233.12 276.69 Z" />
</g>
<g id="#c7c7c7ff">
<path fill="#c7c7c7" opacity="1.00" d=" M 219.00 274.39 C 220.72 274.27 222.44 274.15 224.17 274.05 C 223.14 274.84 222.11 275.63 221.09 276.43 C 221.01 278.27 220.92 280.12 220.85 281.98 C 220.38 281.99 219.45 282.02 218.99 282.04 C 218.99 279.49 218.99 276.94 219.00 274.39 Z" />
</g>
<g id="#b4b4b4ff">
<path fill="#b4b4b4" opacity="1.00" d=" M 246.79 274.53 C 248.31 274.41 249.82 274.24 251.34 274.08 C 248.23 275.63 247.69 278.82 248.00 281.99 L 246.76 282.02 C 246.76 279.52 246.77 277.03 246.79 274.53 Z" />
</g>
<g id="#f5f5f5ff">
<path fill="#f5f5f5" opacity="1.00" d=" M 193.35 275.36 C 194.91 274.56 196.21 277.14 194.22 277.46 C 192.63 278.24 191.38 275.71 193.35 275.36 Z" />
</g>
<g id="#d0d0d0ff">
<path fill="#d0d0d0" opacity="1.00" d=" M 161.17 278.05 C 161.58 277.80 162.41 277.29 162.83 277.03 C 162.95 279.69 163.03 282.36 163.06 285.02 C 162.53 285.02 161.48 285.00 160.96 284.99 C 161.02 282.68 161.09 280.36 161.17 278.05 Z" />
</g>
<g id="#c1c1c1ff">
<path fill="#c1c1c1" opacity="1.00" d=" M 298.18 280.31 C 299.80 279.77 300.36 280.31 299.86 281.95 C 298.23 282.48 297.67 281.94 298.18 280.31 Z" />
</g>
<g id="#1d1f1dff">
<path fill="#1d1f1d" opacity="1.00" d=" M 95.66 321.73 C 115.77 321.82 135.89 321.75 156.00 321.76 C 158.16 321.75 160.17 322.60 162.20 323.21 C 161.82 323.53 161.05 324.16 160.67 324.48 C 168.99 325.11 177.34 324.68 185.68 324.79 C 185.57 324.35 185.36 323.47 185.26 323.04 C 187.46 322.36 189.68 321.62 192.02 321.73 C 213.08 321.79 234.14 321.79 255.19 321.74 C 254.70 322.84 254.26 323.99 253.69 325.07 C 250.82 326.31 247.75 327.03 244.64 327.32 C 198.25 327.27 151.85 327.17 105.46 327.37 C 102.61 326.97 99.84 326.17 97.21 325.02 C 96.61 323.96 96.17 322.82 95.66 321.73 Z" />
</g>
<g id="#000000ff">
<path fill="#000000" opacity="1.00" d=" M 162.20 323.21 C 169.89 323.19 177.59 323.54 185.26 323.04 C 185.36 323.47 185.57 324.35 185.68 324.79 C 177.34 324.68 168.99 325.11 160.67 324.48 C 161.05 324.16 161.82 323.53 162.20 323.21 Z" />
<path fill="#000000" opacity="1.00" d=" M 71.82 467.76 C 76.15 458.64 84.21 449.56 94.98 449.14 C 100.52 448.43 105.53 451.54 111.00 451.62 C 115.44 451.87 119.56 449.58 124.01 449.80 C 129.93 449.93 135.87 449.56 141.78 450.14 C 142.81 456.60 142.60 463.19 141.56 469.64 C 122.72 469.42 103.83 470.35 85.05 468.66 C 80.63 468.59 76.18 468.57 71.82 467.76 Z" />
<path fill="#000000" opacity="1.00" d=" M 240.01 451.00 C 246.33 449.00 253.66 447.80 259.70 451.31 C 266.67 454.61 271.01 461.28 274.87 467.66 C 269.98 468.71 264.98 468.52 260.02 468.69 C 241.79 470.32 223.45 469.43 205.18 469.65 C 203.96 463.34 203.23 456.42 205.22 450.25 C 210.04 449.18 215.08 450.07 219.98 449.75 C 226.76 449.12 233.26 453.16 240.01 451.00 Z" />
</g>
<g id="#302c35ff">
<path fill="#302c35" opacity="1.00" d=" M 97.21 325.02 C 99.84 326.17 102.61 326.97 105.46 327.37 C 116.09 339.99 132.42 345.74 148.15 348.80 C 173.50 353.52 200.17 350.54 224.06 340.97 C 231.56 337.58 239.23 333.71 244.64 327.32 C 247.75 327.03 250.82 326.31 253.69 325.07 C 248.88 334.85 239.01 340.79 229.52 345.34 C 229.82 353.89 229.49 362.46 230.20 370.99 C 230.43 395.36 230.67 419.74 230.68 444.11 C 220.74 443.92 210.80 444.14 200.86 443.99 C 200.21 445.62 199.54 447.26 198.90 448.91 C 198.44 433.72 196.43 418.64 195.38 403.49 C 194.22 393.87 193.86 384.19 192.65 374.58 C 192.49 368.44 191.14 362.39 191.33 356.23 C 184.88 356.53 178.43 356.79 171.99 357.26 C 166.47 356.83 160.94 356.66 155.41 356.30 C 153.31 377.56 151.66 398.84 149.54 420.10 C 148.99 429.99 147.09 439.82 147.44 449.75 C 146.52 447.88 145.78 445.93 145.10 443.97 C 138.06 443.95 131.02 444.32 123.99 443.95 C 121.06 443.75 118.13 444.07 115.34 444.96 C 115.45 429.32 115.64 413.69 115.76 398.05 C 116.84 380.29 116.00 362.48 116.63 344.70 C 108.77 339.80 100.99 333.75 97.21 325.02 M 122.40 347.99 C 122.42 379.66 122.37 411.36 121.31 443.01 C 127.89 443.63 134.51 443.44 141.11 443.18 C 142.20 437.52 142.26 431.73 142.93 426.02 C 144.75 402.41 147.12 378.85 149.02 355.26 C 144.30 354.24 139.52 353.44 134.88 352.08 C 130.65 350.91 126.68 348.97 122.40 347.99 M 217.88 349.85 C 211.19 352.36 204.11 353.52 197.19 355.21 C 199.53 384.53 202.79 413.78 205.08 443.11 C 211.65 443.54 218.25 443.45 224.83 443.16 C 224.66 441.12 224.50 439.08 224.44 437.05 C 224.20 407.47 224.32 377.88 223.49 348.31 C 221.59 348.71 219.70 349.18 217.88 349.85 Z" />
</g>
<g id="#433c49ff">
<path fill="#433c49" opacity="1.00" d=" M 105.46 327.37 C 151.85 327.17 198.25 327.27 244.64 327.32 C 239.23 333.71 231.56 337.58 224.06 340.97 C 200.17 350.54 173.50 353.52 148.15 348.80 C 132.42 345.74 116.09 339.99 105.46 327.37 Z" />
<path fill="#433c49" opacity="1.00" d=" M 122.40 347.99 C 126.68 348.97 130.65 350.91 134.88 352.08 C 139.52 353.44 144.30 354.24 149.02 355.26 C 147.12 378.85 144.75 402.41 142.93 426.02 C 142.26 431.73 142.20 437.52 141.11 443.18 C 134.51 443.44 127.89 443.63 121.31 443.01 C 122.37 411.36 122.42 379.66 122.40 347.99 Z" />
<path fill="#433c49" opacity="1.00" d=" M 217.88 349.85 C 219.70 349.18 221.59 348.71 223.49 348.31 C 224.32 377.88 224.20 407.47 224.44 437.05 C 224.50 439.08 224.66 441.12 224.83 443.16 C 218.25 443.45 211.65 443.54 205.08 443.11 C 202.79 413.78 199.53 384.53 197.19 355.21 C 204.11 353.52 211.19 352.36 217.88 349.85 Z" />
</g>
<g id="#202020ff">
<path fill="#202020" opacity="1.00" d=" M 83.78 445.74 C 86.89 443.90 90.52 443.45 94.00 442.76 C 98.06 442.64 102.17 443.16 106.00 444.55 C 108.97 445.63 112.31 446.00 115.34 444.96 C 118.13 444.07 121.06 443.75 123.99 443.95 C 131.02 444.32 138.06 443.95 145.10 443.97 C 145.78 445.93 146.52 447.88 147.44 449.75 C 147.64 450.28 148.04 451.34 148.24 451.86 C 149.00 459.91 148.64 468.16 146.18 475.91 C 118.17 476.35 90.14 475.91 62.24 473.40 C 66.47 462.42 72.91 451.25 83.78 445.74 M 71.82 467.76 C 76.18 468.57 80.63 468.59 85.05 468.66 C 103.83 470.35 122.72 469.42 141.56 469.64 C 142.60 463.19 142.81 456.60 141.78 450.14 C 135.87 449.56 129.93 449.93 124.01 449.80 C 119.56 449.58 115.44 451.87 111.00 451.62 C 105.53 451.54 100.52 448.43 94.98 449.14 C 84.21 449.56 76.15 458.64 71.82 467.76 Z" />
<path fill="#202020" opacity="1.00" d=" M 231.65 445.51 C 237.32 446.33 242.40 443.30 247.94 442.87 C 253.89 442.29 259.89 444.09 265.04 447.00 C 274.31 453.17 280.31 463.09 284.05 473.38 C 281.39 473.55 278.72 473.67 276.09 474.12 C 250.70 475.83 225.22 476.59 199.79 475.70 C 199.06 472.17 198.50 468.60 197.80 465.07 C 197.44 459.68 197.21 454.12 198.90 448.91 C 199.54 447.26 200.21 445.62 200.86 443.99 C 210.80 444.14 220.74 443.92 230.68 444.11 C 230.92 444.46 231.41 445.16 231.65 445.51 M 240.01 451.00 C 233.26 453.16 226.76 449.12 219.98 449.75 C 215.08 450.07 210.04 449.18 205.22 450.25 C 203.23 456.42 203.96 463.34 205.18 469.65 C 223.45 469.43 241.79 470.32 260.02 468.69 C 264.98 468.52 269.98 468.71 274.87 467.66 C 271.01 461.28 266.67 454.61 259.70 451.31 C 253.66 447.80 246.33 449.00 240.01 451.00 Z" />
</g>
</svg>
