<?xml version="1.0" encoding="UTF-8" ?>
<!DOCTYPE svg PUBLIC "-//W3C//DTD SVG 1.1//EN" "http://www.w3.org/Graphics/SVG/1.1/DTD/svg11.dtd">
<svg width="351pt" height="480pt" viewBox="0 0 351 480" version="1.1" xmlns="http://www.w3.org/2000/svg">
<g id="#ffffffff">
<path fill="#ffffff" opacity="1.00" d=" M 142.91 99.94 C 145.64 96.46 150.43 100.70 149.65 104.25 C 148.29 105.30 147.00 107.02 145.04 106.59 C 141.90 106.47 140.17 101.89 142.91 99.94 Z" />
<path fill="#ffffff" opacity="1.00" d=" M 207.61 104.05 C 206.64 101.44 208.86 99.42 210.90 98.29 C 213.37 98.96 216.36 101.24 214.96 104.14 C 213.97 107.48 208.46 107.44 207.61 104.05 Z" />
<path fill="#ffffff" opacity="1.00" d=" M 40.50 315.47 C 40.59 270.51 40.40 225.55 40.59 180.59 C 131.09 180.79 221.60 180.48 312.09 180.75 C 312.92 182.68 312.34 184.96 312.48 187.03 C 312.43 229.84 312.46 272.64 312.47 315.45 C 221.81 315.45 131.16 315.42 40.50 315.47 M 71.22 196.19 C 62.34 204.96 60.30 218.19 60.75 230.15 C 54.31 229.52 47.05 233.96 47.04 240.94 C 46.96 258.65 46.99 276.36 47.03 294.07 C 46.95 299.80 52.28 304.76 57.92 304.75 C 79.31 304.74 100.71 304.80 122.10 304.72 C 126.17 304.86 130.05 302.45 131.90 298.85 C 133.69 295.52 132.99 291.61 133.02 288.00 C 132.95 272.32 133.03 256.63 133.00 240.95 C 133.15 237.32 131.03 233.92 128.15 231.85 C 125.43 230.09 122.04 230.34 118.94 230.16 C 119.34 220.23 118.37 209.68 112.88 201.12 C 108.45 194.07 100.36 189.45 92.01 189.48 C 84.67 189.58 76.61 190.70 71.22 196.19 M 146.44 232.32 C 143.21 238.12 138.07 242.99 136.19 249.43 C 139.78 249.46 143.36 249.43 146.95 249.38 C 147.03 251.58 147.08 253.78 147.12 255.98 C 147.84 255.99 149.29 256.00 150.01 256.01 C 150.00 253.87 149.97 251.74 149.95 249.61 C 151.09 249.51 152.24 249.41 153.39 249.31 C 153.86 246.84 151.78 246.90 150.00 246.77 C 150.01 241.87 150.06 236.97 149.94 232.07 C 148.77 232.15 147.60 232.23 146.44 232.32 M 160.32 232.55 C 157.12 234.47 156.19 238.49 155.97 241.97 C 155.79 246.16 155.92 250.88 158.71 254.29 C 161.05 257.14 165.96 257.16 168.31 254.31 C 170.72 251.49 171.10 247.56 171.14 244.00 C 171.09 240.44 170.72 236.50 168.22 233.74 C 166.29 231.55 162.83 231.20 160.32 232.55 M 183.20 233.17 C 181.31 235.67 179.76 238.39 177.96 240.95 C 176.22 243.64 173.96 246.14 173.38 249.40 C 177.05 249.42 180.73 249.39 184.40 249.57 C 184.36 251.69 184.32 253.80 184.29 255.92 C 185.03 255.95 186.50 256.01 187.24 256.04 C 187.25 253.85 187.27 251.66 187.28 249.47 C 188.12 249.45 189.80 249.42 190.64 249.41 C 191.16 246.88 189.05 246.90 187.23 246.75 C 187.26 241.82 187.33 236.90 187.19 231.97 C 185.89 232.33 184.02 231.79 183.20 233.17 M 294.37 274.34 C 290.88 273.06 287.82 276.65 289.28 279.96 C 290.05 283.04 293.59 281.73 295.86 281.70 C 295.73 277.94 295.81 274.17 295.64 270.41 C 294.14 271.22 294.51 272.94 294.37 274.34 M 308.22 271.51 C 308.18 273.96 306.79 278.27 309.88 279.24 C 310.03 276.41 310.04 273.58 309.92 270.76 C 309.49 270.94 308.64 271.32 308.22 271.51 M 142.38 280.01 C 142.25 281.08 142.65 281.87 143.59 282.38 C 144.23 280.86 142.67 277.60 145.07 277.39 C 146.59 279.02 147.41 281.43 149.61 282.34 C 148.86 280.83 148.05 279.35 147.23 277.88 C 148.23 276.75 149.53 275.59 149.35 273.91 C 148.54 270.99 144.88 271.83 142.62 271.35 C 142.44 274.23 142.26 277.12 142.38 280.01 M 268.31 274.19 C 268.72 276.86 269.11 279.54 269.78 282.17 C 270.66 282.14 272.43 282.10 273.31 282.08 C 270.07 280.79 270.39 277.01 272.03 274.55 C 271.49 273.74 270.92 272.96 270.34 272.19 C 269.20 272.10 268.97 273.53 268.31 274.19 M 137.19 274.23 C 136.66 275.86 137.22 276.41 138.85 275.89 C 139.37 274.26 138.82 273.71 137.19 274.23 M 152.03 280.81 C 153.20 282.81 156.09 282.39 157.71 281.20 C 155.64 281.05 153.18 281.14 152.43 278.72 C 154.29 278.61 156.15 278.54 158.01 278.47 C 157.68 276.68 157.26 274.14 154.97 274.01 C 151.63 273.73 149.91 278.48 152.03 280.81 M 159.73 278.00 C 159.13 281.33 163.85 283.82 165.93 280.87 C 164.92 280.89 162.91 280.93 161.91 280.95 C 161.56 279.49 160.61 277.90 161.49 276.45 C 162.34 274.73 164.54 275.63 166.04 275.38 C 163.76 272.92 159.55 274.57 159.73 278.00 M 168.29 273.63 C 168.03 276.22 167.47 279.00 168.49 281.49 C 170.16 282.45 172.27 281.63 174.12 281.76 C 174.12 279.04 174.08 276.32 173.74 273.63 C 171.79 275.95 174.38 281.67 169.74 281.06 C 168.86 278.67 170.02 275.69 168.29 273.63 M 176.99 274.54 C 177.00 277.19 177.01 279.84 177.17 282.49 C 179.11 280.97 178.21 278.16 178.69 276.05 C 179.67 275.47 180.65 274.89 181.63 274.31 C 180.08 274.37 178.54 274.46 176.99 274.54 M 183.10 275.13 C 181.75 278.29 186.89 278.18 187.11 281.05 C 185.64 280.88 184.17 280.71 182.69 280.55 C 183.67 283.43 189.21 282.23 187.95 279.07 C 186.86 278.02 185.42 277.44 184.21 276.57 C 183.89 274.30 186.88 275.72 188.17 275.30 C 186.72 274.17 184.48 273.51 183.10 275.13 M 192.23 274.27 C 188.98 275.34 188.87 280.67 192.03 281.96 C 194.55 283.09 197.15 280.45 196.86 277.96 C 196.92 275.62 194.58 273.40 192.23 274.27 M 203.13 274.56 C 203.15 277.05 203.16 279.54 203.16 282.04 C 203.55 281.99 204.32 281.90 204.71 281.86 C 204.73 279.84 204.75 277.82 204.77 275.81 C 205.81 275.66 207.04 274.93 207.89 275.95 C 208.09 278.09 208.04 280.25 208.11 282.40 C 210.22 281.87 209.57 279.58 209.60 277.98 C 209.42 276.67 209.51 274.66 207.95 274.19 C 206.33 274.19 204.73 274.40 203.13 274.56 M 214.37 274.30 C 211.59 275.37 211.13 279.64 213.44 281.44 C 215.09 282.98 218.00 282.04 218.74 279.99 C 220.24 277.25 217.61 273.02 214.37 274.30 M 226.37 281.56 C 227.85 282.64 229.71 281.79 231.34 281.71 C 229.47 280.98 226.61 281.31 225.96 278.94 C 227.39 278.16 229.14 278.65 230.70 278.38 C 232.31 276.67 230.04 273.77 227.94 274.11 C 224.46 274.44 223.60 279.75 226.37 281.56 M 233.83 274.55 C 233.80 277.04 233.79 279.54 233.79 282.04 L 235.06 281.98 C 235.09 279.94 235.12 277.90 235.15 275.86 C 236.16 275.58 237.18 275.30 238.19 275.02 C 239.00 277.41 237.62 280.81 239.91 282.47 C 239.99 280.06 240.20 277.60 239.63 275.24 C 238.29 273.43 235.73 274.73 233.83 274.55 M 242.23 277.98 C 241.65 281.37 246.37 283.84 248.38 280.70 C 246.28 281.20 243.27 281.08 243.59 278.10 C 243.30 275.22 246.35 275.18 248.37 275.34 C 246.25 272.73 242.02 274.79 242.23 277.98 M 252.34 274.31 C 248.97 275.59 249.26 281.42 252.90 282.13 C 255.26 282.72 257.37 280.21 257.11 277.97 C 257.19 275.58 254.71 273.30 252.34 274.31 M 259.74 274.53 C 260.12 277.13 258.75 280.48 260.89 282.52 C 261.07 280.30 261.13 278.08 261.17 275.86 C 262.19 275.58 263.22 275.31 264.25 275.05 C 264.95 277.45 263.66 280.78 265.91 282.48 C 265.99 280.08 266.19 277.64 265.65 275.27 C 264.31 273.42 261.67 274.73 259.74 274.53 M 274.74 274.55 C 275.09 277.15 273.81 280.42 275.84 282.52 C 275.89 279.28 275.77 275.54 279.34 274.15 C 277.80 274.32 276.27 274.46 274.74 274.55 M 280.52 275.59 C 282.26 275.46 284.03 275.38 285.76 275.74 C 284.42 277.34 282.14 277.58 280.76 279.08 C 280.78 279.79 280.83 281.20 280.85 281.91 C 282.82 281.83 284.79 281.75 286.77 281.67 C 286.47 279.30 287.13 276.52 285.57 274.51 C 283.79 273.57 281.94 274.49 280.52 275.59 M 300.40 274.39 C 296.35 276.11 298.44 283.69 302.99 281.96 C 307.38 280.42 305.09 272.30 300.40 274.39 M 136.95 284.99 C 137.48 285.00 138.53 285.02 139.05 285.03 C 139.05 282.28 138.98 279.54 138.69 276.81 C 136.10 278.67 137.30 282.27 136.95 284.99 M 308.17 280.33 C 307.68 281.96 308.25 282.50 309.88 281.94 C 310.36 280.30 309.79 279.76 308.17 280.33 Z" />
<path fill="#ffffff" opacity="1.00" d=" M 74.79 207.71 C 80.15 197.76 96.09 195.79 103.27 204.76 C 108.71 211.95 108.93 221.50 108.82 230.13 C 96.21 230.38 83.59 230.19 70.97 230.24 C 70.67 222.60 71.19 214.60 74.79 207.71 Z" />
<path fill="#ffffff" opacity="1.00" d=" M 162.38 234.41 C 164.98 233.42 167.11 235.98 167.54 238.31 C 168.41 242.45 168.52 246.94 167.14 250.99 C 166.53 253.26 163.71 254.97 161.63 253.36 C 158.71 250.86 158.95 246.55 158.89 243.05 C 159.09 240.03 159.20 235.89 162.38 234.41 Z" />
<path fill="#ffffff" opacity="1.00" d=" M 139.69 246.96 C 142.10 243.36 144.44 239.71 147.03 236.25 C 147.13 239.82 147.10 243.39 147.06 246.96 C 144.60 246.97 142.15 246.97 139.69 246.96 Z" />
<path fill="#ffffff" opacity="1.00" d=" M 176.90 246.95 C 179.38 243.37 181.72 239.68 184.33 236.18 C 184.37 239.78 184.34 243.37 184.32 246.97 C 181.84 246.97 179.37 246.96 176.90 246.95 Z" />
<path fill="#ffffff" opacity="1.00" d=" M 79.77 259.99 C 79.79 253.48 86.91 248.37 93.10 250.14 C 99.05 251.48 102.43 258.72 100.20 264.27 C 99.48 266.70 97.53 268.40 95.62 269.92 C 96.42 275.53 97.36 281.13 98.18 286.75 C 93.25 286.75 88.32 286.76 83.39 286.73 C 84.19 281.37 84.86 275.99 85.79 270.65 C 82.46 268.11 79.25 264.51 79.77 259.99 Z" />
<path fill="#ffffff" opacity="1.00" d=" M 143.78 272.57 C 145.14 272.74 146.50 272.91 147.87 273.09 C 147.85 273.84 147.81 275.34 147.79 276.09 C 146.45 276.27 145.10 276.45 143.75 276.62 C 143.76 275.61 143.77 273.58 143.78 272.57 Z" />
<path fill="#ffffff" opacity="1.00" d=" M 193.07 275.11 C 195.99 275.20 196.38 280.09 193.89 280.98 C 190.50 281.78 190.08 275.85 193.07 275.11 Z" />
<path fill="#ffffff" opacity="1.00" d=" M 215.07 275.10 C 218.23 275.14 217.90 278.80 217.14 280.90 C 216.34 280.89 214.75 280.88 213.95 280.88 C 213.37 278.90 212.79 276.25 215.07 275.10 Z" />
<path fill="#ffffff" opacity="1.00" d=" M 227.28 275.44 C 228.25 274.82 230.38 275.69 229.59 277.01 C 228.45 278.69 224.76 276.68 227.28 275.44 Z" />
<path fill="#ffffff" opacity="1.00" d=" M 251.90 280.84 C 251.22 278.82 250.86 275.19 253.90 275.13 C 256.39 276.07 255.68 278.97 255.12 280.92 C 254.32 280.90 252.71 280.86 251.90 280.84 Z" />
<path fill="#ffffff" opacity="1.00" d=" M 291.55 275.42 C 292.54 275.37 293.52 275.41 294.51 275.53 C 294.42 277.30 294.33 279.07 294.23 280.84 C 293.38 280.85 291.70 280.89 290.85 280.91 C 290.61 279.06 289.80 276.81 291.55 275.42 Z" />
<path fill="#ffffff" opacity="1.00" d=" M 301.28 275.25 C 304.62 274.59 305.00 280.93 301.94 281.00 C 298.96 281.22 298.79 276.09 301.28 275.25 Z" />
<path fill="#ffffff" opacity="1.00" d=" M 284.37 278.14 C 286.82 278.87 283.85 282.24 282.31 280.67 C 281.34 279.42 283.12 277.93 284.37 278.14 Z" />
</g>
<g id="#8a5d3bff">
<path fill="#8a5d3b" opacity="1.00" d=" M 208.39 15.53 C 213.41 8.77 221.28 3.86 229.86 4.11 C 234.14 6.39 230.15 10.46 228.10 12.78 C 231.05 12.00 233.87 9.80 237.04 10.55 C 240.72 13.39 236.42 17.53 236.76 21.05 C 237.92 29.76 244.62 36.18 247.88 44.06 C 253.49 56.87 253.31 71.37 250.50 84.85 C 259.25 92.11 256.08 108.70 244.52 110.90 C 243.11 114.76 243.98 118.96 243.35 122.96 C 241.68 136.98 239.69 151.41 233.09 164.09 C 232.04 165.78 230.84 167.38 229.51 168.86 C 227.84 170.70 226.13 172.51 224.50 174.39 C 220.40 174.45 216.31 174.50 212.22 174.42 C 218.46 170.47 225.37 166.50 228.47 159.41 C 236.29 142.48 237.45 123.42 237.94 105.05 C 238.22 99.13 238.85 93.11 237.93 87.22 C 235.51 81.36 229.79 77.70 224.03 75.62 C 224.16 75.30 224.41 74.66 224.53 74.34 C 212.92 70.91 200.82 72.97 189.10 74.54 C 189.61 74.82 190.63 75.38 191.15 75.67 C 178.22 79.07 164.29 75.85 153.21 68.68 C 146.40 74.66 137.10 75.98 128.35 75.79 C 123.15 76.30 116.67 75.09 112.69 79.20 C 111.61 83.07 111.69 87.14 111.49 91.12 C 111.29 102.44 111.03 113.80 112.32 125.06 C 113.66 138.63 115.96 152.73 123.69 164.29 C 126.57 168.74 131.19 171.54 135.49 174.43 C 131.55 174.50 127.60 174.44 123.66 174.39 C 122.43 172.77 121.18 171.17 119.94 169.56 C 118.66 167.88 117.44 166.15 116.36 164.34 C 107.69 148.29 105.89 129.57 105.15 111.64 C 102.27 109.99 98.93 108.88 96.86 106.08 C 92.30 100.29 92.78 91.31 97.60 85.80 C 94.64 72.37 95.09 57.78 101.44 45.36 C 106.34 35.47 114.79 27.64 124.40 22.38 C 133.63 17.17 143.83 13.75 154.26 11.93 C 172.08 8.03 191.50 8.03 208.39 15.53 M 211.40 22.43 C 207.92 23.39 204.92 20.21 201.66 19.42 C 182.24 12.82 160.85 15.25 141.70 21.60 C 128.78 25.76 116.16 33.09 108.82 44.84 C 101.36 56.40 101.18 70.95 103.50 84.08 C 105.21 79.41 107.23 74.25 112.04 71.98 C 121.51 67.75 132.27 71.30 141.95 67.95 C 146.14 66.74 149.22 63.47 152.85 61.23 C 158.88 65.34 165.65 68.38 172.73 70.15 C 182.19 72.27 191.55 68.93 200.95 68.19 C 212.44 66.87 224.98 67.54 234.86 74.19 C 238.88 76.77 241.52 80.83 244.12 84.72 C 246.72 74.28 247.19 63.07 244.43 52.61 C 241.44 40.65 230.36 31.80 230.45 18.89 C 226.99 20.98 225.69 24.88 224.33 28.44 C 223.54 30.86 219.44 30.27 218.92 27.96 C 217.44 22.84 218.86 17.50 220.70 12.68 C 216.20 14.44 214.31 19.00 211.40 22.43 M 244.62 100.00 C 244.39 101.69 244.35 103.40 244.61 105.09 C 248.56 102.30 249.98 97.34 249.09 92.71 C 247.63 95.16 246.57 97.87 244.62 100.00 M 99.55 95.93 C 99.73 98.57 100.62 101.17 102.59 103.02 C 101.94 100.52 101.21 97.96 99.55 95.93 Z" />
<path fill="#8a5d3b" opacity="1.00" d=" M 147.44 136.40 C 166.50 136.82 185.57 136.50 204.64 136.56 C 205.61 144.07 204.28 153.06 197.66 157.71 C 191.36 162.84 182.82 163.46 175.03 163.83 C 166.49 164.04 156.87 163.08 150.43 156.84 C 148.75 153.02 146.60 149.23 146.40 144.97 C 146.16 142.07 146.84 139.21 147.44 136.40 M 153.13 150.98 C 166.54 145.62 182.14 144.97 195.34 151.29 C 197.20 148.76 198.54 145.86 198.73 142.68 C 182.97 142.63 167.21 142.83 151.45 142.58 C 151.00 145.52 151.75 148.39 153.13 150.98 M 159.77 155.36 C 165.46 157.99 171.96 157.87 178.08 157.49 C 181.58 157.06 185.33 157.09 188.44 155.21 C 179.15 152.13 169.05 152.34 159.77 155.36 Z" />
<path fill="#8a5d3b" opacity="1.00" d=" M 29.94 228.01 C 31.11 226.63 32.66 225.67 34.20 224.76 C 34.17 230.31 34.19 235.86 34.15 241.41 C 30.48 244.00 27.62 248.30 28.49 252.97 C 28.77 256.45 31.53 258.76 34.16 260.63 C 34.17 262.61 34.17 264.59 34.16 266.58 C 33.63 266.40 32.58 266.06 32.05 265.88 C 23.97 263.47 20.19 253.53 23.05 245.94 C 23.88 242.22 26.65 239.48 29.51 237.17 C 27.75 234.50 27.51 230.36 29.94 228.01 Z" />
<path fill="#8a5d3b" opacity="1.00" d=" M 319.33 243.37 C 318.22 237.70 318.71 231.81 319.19 226.09 C 320.62 227.52 322.41 228.86 322.93 230.93 C 323.89 233.16 322.18 235.33 322.28 237.58 C 328.19 241.92 330.52 250.17 328.06 257.03 C 326.76 261.46 322.87 264.53 318.75 266.24 C 318.78 263.75 318.56 261.17 319.44 258.79 C 324.06 254.84 323.61 247.40 319.33 243.37 Z" />
</g>
<g id="#603813ff">
<path fill="#603813" opacity="1.00" d=" M 211.40 22.43 C 214.31 19.00 216.20 14.44 220.70 12.68 C 218.86 17.50 217.44 22.84 218.92 27.96 C 219.44 30.27 223.54 30.86 224.33 28.44 C 225.69 24.88 226.99 20.98 230.45 18.89 C 230.36 31.80 241.44 40.65 244.43 52.61 C 247.19 63.07 246.72 74.28 244.12 84.72 C 241.52 80.83 238.88 76.77 234.86 74.19 C 224.98 67.54 212.44 66.87 200.95 68.19 C 191.55 68.93 182.19 72.27 172.73 70.15 C 165.65 68.38 158.88 65.34 152.85 61.23 C 149.22 63.47 146.14 66.74 141.95 67.95 C 132.27 71.30 121.51 67.75 112.04 71.98 C 107.23 74.25 105.21 79.41 103.50 84.08 C 101.18 70.95 101.36 56.40 108.82 44.84 C 116.16 33.09 128.78 25.76 141.70 21.60 C 160.85 15.25 182.24 12.82 201.66 19.42 C 204.92 20.21 207.92 23.39 211.40 22.43 Z" />
<path fill="#603813" opacity="1.00" d=" M 189.10 74.54 C 200.82 72.97 212.92 70.91 224.53 74.34 C 224.41 74.66 224.16 75.30 224.03 75.62 C 213.31 72.27 201.99 73.91 191.15 75.67 C 190.63 75.38 189.61 74.82 189.10 74.54 Z" />
<path fill="#603813" opacity="1.00" d=" M 145.33 140.93 C 145.57 139.24 145.03 136.54 147.44 136.40 C 146.84 139.21 146.16 142.07 146.40 144.97 C 146.60 149.23 148.75 153.02 150.43 156.84 C 145.64 153.20 144.89 146.52 145.33 140.93 Z" />
</g>
<g id="#f4ceabff">
<path fill="#f4ceab" opacity="1.00" d=" M 128.35 75.79 C 137.10 75.98 146.40 74.66 153.21 68.68 C 164.29 75.85 178.22 79.07 191.15 75.67 C 201.99 73.91 213.31 72.27 224.03 75.62 C 229.79 77.70 235.51 81.36 237.93 87.22 C 238.85 93.11 238.22 99.13 237.94 105.05 C 237.45 123.42 236.29 142.48 228.47 159.41 C 225.37 166.50 218.46 170.47 212.22 174.42 C 192.30 174.41 172.38 174.47 152.47 174.40 C 144.26 165.73 137.60 155.40 134.15 143.91 C 131.92 136.74 130.33 129.37 129.21 121.95 C 128.73 119.40 129.33 116.86 129.99 114.41 C 132.25 116.94 134.66 119.71 138.04 120.69 C 145.36 123.24 154.64 117.95 155.38 110.03 C 156.30 104.20 153.02 97.79 147.33 95.78 C 141.56 93.13 133.95 95.38 130.87 101.02 C 128.42 104.90 129.00 109.69 129.79 113.98 C 126.77 109.62 128.97 104.30 127.85 99.47 C 128.34 98.01 128.84 96.56 129.34 95.10 C 135.73 90.52 143.96 89.71 151.55 90.84 C 151.87 88.47 152.19 86.11 152.47 83.74 C 144.26 83.60 135.36 84.77 129.11 90.61 C 127.25 85.85 128.18 80.74 128.35 75.79 M 198.30 90.89 C 208.30 88.95 219.24 91.92 225.94 99.83 C 224.81 95.37 222.04 91.38 218.30 88.70 C 212.38 84.37 204.69 83.76 197.59 83.74 C 197.67 86.14 197.88 88.53 198.30 90.89 M 196.87 100.73 C 194.47 104.41 195.47 109.00 195.51 113.13 C 196.63 115.18 198.11 117.00 199.85 118.55 C 200.27 118.51 201.11 118.43 201.53 118.39 L 201.52 119.79 C 201.99 119.65 202.93 119.36 203.41 119.21 L 203.53 120.48 C 206.05 120.57 208.57 120.63 211.09 120.42 C 212.12 119.86 213.22 119.49 214.39 119.31 L 214.52 118.79 C 216.37 117.84 217.97 116.46 218.77 114.50 L 219.27 114.34 C 219.46 113.16 219.81 112.03 220.33 110.96 C 220.72 108.10 220.36 105.23 219.45 102.51 L 218.75 102.38 C 218.33 99.27 215.55 97.31 212.96 95.98 C 209.87 95.22 206.68 95.43 203.54 95.50 L 203.45 96.30 C 200.62 96.47 198.25 98.34 196.87 100.73 M 145.33 140.93 C 144.89 146.52 145.64 153.20 150.43 156.84 C 156.87 163.08 166.49 164.04 175.03 163.83 C 182.82 163.46 191.36 162.84 197.66 157.71 C 204.28 153.06 205.61 144.07 204.64 136.56 C 185.57 136.50 166.50 136.82 147.44 136.40 C 145.03 136.54 145.57 139.24 145.33 140.93 Z" />
<path fill="#f4ceab" opacity="1.00" d=" M 99.55 95.93 C 101.21 97.96 101.94 100.52 102.59 103.02 C 100.62 101.17 99.73 98.57 99.55 95.93 Z" />
</g>
<g id="#f8dec6ff">
<path fill="#f8dec6" opacity="1.00" d=" M 112.69 79.20 C 116.67 75.09 123.15 76.30 128.35 75.79 C 128.18 80.74 127.25 85.85 129.11 90.61 C 126.63 93.24 124.98 96.49 123.80 99.87 C 125.59 98.22 127.37 96.55 129.34 95.10 C 128.84 96.56 128.34 98.01 127.85 99.47 C 128.97 104.30 126.77 109.62 129.79 113.98 L 129.99 114.41 C 129.33 116.86 128.73 119.40 129.21 121.95 C 130.33 129.37 131.92 136.74 134.15 143.91 C 137.60 155.40 144.26 165.73 152.47 174.40 C 146.81 174.42 141.15 174.40 135.49 174.43 C 131.19 171.54 126.57 168.74 123.69 164.29 C 115.96 152.73 113.66 138.63 112.32 125.06 C 111.03 113.80 111.29 102.44 111.49 91.12 C 111.69 87.14 111.61 83.07 112.69 79.20 Z" />
</g>
<g id="#5e331bff">
<path fill="#5e331b" opacity="1.00" d=" M 129.11 90.61 C 135.36 84.77 144.26 83.60 152.47 83.74 C 152.19 86.11 151.87 88.47 151.55 90.84 C 143.96 89.71 135.73 90.52 129.34 95.10 C 127.37 96.55 125.59 98.22 123.80 99.87 C 124.98 96.49 126.63 93.24 129.11 90.61 Z" />
</g>
<g id="#5c3119ff">
<path fill="#5c3119" opacity="1.00" d=" M 198.30 90.89 C 197.88 88.53 197.67 86.14 197.59 83.74 C 204.69 83.76 212.38 84.37 218.30 88.70 C 222.04 91.38 224.81 95.37 225.94 99.83 C 219.24 91.92 208.30 88.95 198.30 90.89 Z" />
</g>
<g id="#8d5c39ff">
<path fill="#8d5c39" opacity="1.00" d=" M 130.87 101.02 C 133.95 95.38 141.56 93.13 147.33 95.78 C 153.02 97.79 156.30 104.20 155.38 110.03 C 154.64 117.95 145.36 123.24 138.04 120.69 C 134.66 119.71 132.25 116.94 129.99 114.41 L 129.79 113.98 C 129.00 109.69 128.42 104.90 130.87 101.02 M 134.41 99.44 C 129.67 102.57 128.98 110.22 132.29 114.70 C 135.73 119.87 143.18 121.48 148.40 118.04 L 148.56 117.71 C 154.21 115.23 154.50 108.26 153.08 103.12 C 150.34 95.97 139.48 93.73 134.41 99.44 Z" />
</g>
<g id="#f3cfacff">
<path fill="#f3cfac" opacity="1.00" d=" M 244.62 100.00 C 246.57 97.87 247.63 95.16 249.09 92.71 C 249.98 97.34 248.56 102.30 244.61 105.09 C 244.35 103.40 244.39 101.69 244.62 100.00 Z" />
</g>
<g id="#191818ff">
<path fill="#191818" opacity="1.00" d=" M 196.87 100.73 C 198.25 98.34 200.62 96.47 203.45 96.30 L 203.54 95.50 C 206.68 95.43 209.87 95.22 212.96 95.98 C 215.55 97.31 218.33 99.27 218.75 102.38 L 219.45 102.51 C 220.36 105.23 220.72 108.10 220.33 110.96 C 219.81 112.03 219.46 113.16 219.27 114.34 L 218.77 114.50 C 217.97 116.46 216.37 117.84 214.52 118.79 L 214.39 119.31 C 213.22 119.49 212.12 119.86 211.09 120.42 C 208.57 120.63 206.05 120.57 203.53 120.48 L 203.41 119.21 C 202.93 119.36 201.99 119.65 201.52 119.79 L 201.53 118.39 C 201.11 118.43 200.27 118.51 199.85 118.55 C 198.11 117.00 196.63 115.18 195.51 113.13 C 195.47 109.00 194.47 104.41 196.87 100.73 M 207.61 104.05 C 208.46 107.44 213.97 107.48 214.96 104.14 C 216.36 101.24 213.37 98.96 210.90 98.29 C 208.86 99.42 206.64 101.44 207.61 104.05 Z" />
<path fill="#191818" opacity="1.00" d=" M 134.41 99.44 C 136.74 98.80 139.08 98.16 141.45 97.68 C 140.91 99.45 140.01 101.08 139.40 102.82 C 139.68 105.77 142.44 108.02 145.18 108.72 C 147.97 108.28 150.09 106.11 152.43 104.69 C 153.12 109.50 150.76 113.66 148.56 117.71 L 148.40 118.04 C 143.18 121.48 135.73 119.87 132.29 114.70 C 128.98 110.22 129.67 102.57 134.41 99.44 Z" />
</g>
<g id="#010100ff">
<path fill="#010100" opacity="1.00" d=" M 134.41 99.44 C 139.48 93.73 150.34 95.97 153.08 103.12 C 154.50 108.26 154.21 115.23 148.56 117.71 C 150.76 113.66 153.12 109.50 152.43 104.69 C 150.09 106.11 147.97 108.28 145.18 108.72 C 142.44 108.02 139.68 105.77 139.40 102.82 C 140.01 101.08 140.91 99.45 141.45 97.68 C 139.08 98.16 136.74 98.80 134.41 99.44 M 142.91 99.94 C 140.17 101.89 141.90 106.47 145.04 106.59 C 147.00 107.02 148.29 105.30 149.65 104.25 C 150.43 100.70 145.64 96.46 142.91 99.94 Z" />
</g>
<g id="#f9d3b0ff">
<path fill="#f9d3b0" opacity="1.00" d=" M 153.13 150.98 C 151.75 148.39 151.00 145.52 151.45 142.58 C 167.21 142.83 182.97 142.63 198.73 142.68 C 198.54 145.86 197.20 148.76 195.34 151.29 C 182.14 144.97 166.54 145.62 153.13 150.98 Z" />
<path fill="#f9d3b0" opacity="1.00" d=" M 319.44 258.79 C 318.38 253.70 318.50 248.48 319.33 243.37 C 323.61 247.40 324.06 254.84 319.44 258.79 Z" />
</g>
<g id="#ff614eff">
<path fill="#ff614e" opacity="1.00" d=" M 159.77 155.36 C 169.05 152.34 179.15 152.13 188.44 155.21 C 185.33 157.09 181.58 157.06 178.08 157.49 C 171.96 157.87 165.46 157.99 159.77 155.36 Z" />
</g>
<g id="#72657cff">
<path fill="#72657c" opacity="1.00" d=" M 116.36 164.34 C 117.44 166.15 118.66 167.88 119.94 169.56 C 117.10 170.59 114.40 172.03 112.43 174.39 C 109.36 174.41 106.21 174.76 103.25 173.77 C 106.27 169.06 111.61 166.86 116.36 164.34 Z" />
<path fill="#72657c" opacity="1.00" d=" M 229.51 168.86 C 230.84 167.38 232.04 165.78 233.09 164.09 C 239.09 165.97 245.05 169.16 248.73 174.42 C 245.60 174.43 242.47 174.41 239.35 174.38 C 236.49 171.87 233.05 170.19 229.51 168.86 Z" />
</g>
<g id="#81728dff">
<path fill="#81728d" opacity="1.00" d=" M 224.50 174.39 C 226.13 172.51 227.84 170.70 229.51 168.86 C 233.05 170.19 236.49 171.87 239.35 174.38 C 234.40 174.43 229.45 174.41 224.50 174.39 Z" />
</g>
<g id="#82738eff">
<path fill="#82738e" opacity="1.00" d=" M 112.43 174.39 C 114.40 172.03 117.10 170.59 119.94 169.56 C 121.18 171.17 122.43 172.77 123.66 174.39 C 119.91 174.40 116.17 174.39 112.43 174.39 Z" />
</g>
<g id="#b5b5b5ff">
<path fill="#b5b5b5" opacity="1.00" d=" M 102.81 173.66 L 103.25 173.77 C 106.21 174.76 109.36 174.41 112.43 174.39 C 116.17 174.39 119.91 174.40 123.66 174.39 C 127.60 174.44 131.55 174.50 135.49 174.43 C 141.15 174.40 146.81 174.42 152.47 174.40 C 172.38 174.47 192.30 174.41 212.22 174.42 C 216.31 174.50 220.40 174.45 224.50 174.39 C 229.45 174.41 234.40 174.43 239.35 174.38 C 242.47 174.41 245.60 174.43 248.73 174.42 C 271.52 174.51 294.32 174.44 317.11 174.45 C 319.40 173.91 318.64 176.66 318.81 177.93 C 318.69 191.95 318.85 205.98 318.73 220.00 C 318.70 222.04 318.90 224.07 319.19 226.09 C 318.71 231.81 318.22 237.70 319.33 243.37 C 318.50 248.48 318.38 253.70 319.44 258.79 C 318.56 261.17 318.78 263.75 318.75 266.24 C 318.81 284.72 318.72 303.21 318.80 321.69 C 297.60 321.67 276.39 321.58 255.19 321.74 C 233.80 321.81 212.41 321.76 191.02 321.75 C 189.01 321.73 187.14 322.50 185.25 323.04 C 177.44 323.41 169.58 323.43 161.78 323.03 C 159.86 322.48 157.97 321.73 155.95 321.76 C 135.86 321.75 115.76 321.82 95.67 321.73 C 75.19 321.59 54.70 321.67 34.21 321.69 C 34.33 303.74 34.14 285.78 34.31 267.83 C 33.56 267.18 32.81 266.53 32.05 265.88 C 32.58 266.06 33.63 266.40 34.16 266.58 C 34.17 264.59 34.17 262.61 34.16 260.63 C 34.20 254.22 34.20 247.81 34.15 241.41 C 34.19 235.86 34.17 230.31 34.20 224.76 C 34.33 207.97 34.16 191.19 34.29 174.41 C 55.87 174.55 77.46 174.38 99.05 174.50 C 100.37 174.57 101.66 174.32 102.81 173.66 M 40.50 315.47 C 131.16 315.42 221.81 315.45 312.47 315.45 C 312.46 272.64 312.43 229.84 312.48 187.03 C 312.34 184.96 312.92 182.68 312.09 180.75 C 221.60 180.48 131.09 180.79 40.59 180.59 C 40.40 225.55 40.59 270.51 40.50 315.47 Z" />
<path fill="#b5b5b5" opacity="1.00" d=" M 152.03 280.81 C 149.91 278.48 151.63 273.73 154.97 274.01 C 157.26 274.14 157.68 276.68 158.01 278.47 C 156.15 278.54 154.29 278.61 152.43 278.72 C 153.18 281.14 155.64 281.05 157.71 281.20 C 156.09 282.39 153.20 282.81 152.03 280.81 M 154.19 275.37 C 153.95 275.63 153.48 276.13 153.24 276.38 C 154.08 279.41 157.72 274.95 154.19 275.37 Z" />
<path fill="#b5b5b5" opacity="1.00" d=" M 203.13 274.56 C 204.73 274.40 206.33 274.19 207.95 274.19 C 209.51 274.66 209.42 276.67 209.60 277.98 C 209.57 279.58 210.22 281.87 208.11 282.40 C 208.04 280.25 208.09 278.09 207.89 275.95 C 207.04 274.93 205.81 275.66 204.77 275.81 C 204.75 277.82 204.73 279.84 204.71 281.86 C 204.32 281.90 203.55 281.99 203.16 282.04 C 203.16 279.54 203.15 277.05 203.13 274.56 Z" />
</g>
<g id="#ff5757ff">
<path fill="#ff5757" opacity="1.00" d=" M 71.22 196.19 C 76.61 190.70 84.67 189.58 92.01 189.48 C 100.36 189.45 108.45 194.07 112.88 201.12 C 118.37 209.68 119.34 220.23 118.94 230.16 C 122.04 230.34 125.43 230.09 128.15 231.85 C 131.03 233.92 133.15 237.32 133.00 240.95 C 133.03 256.63 132.95 272.32 133.02 288.00 C 132.99 291.61 133.69 295.52 131.90 298.85 C 130.05 302.45 126.17 304.86 122.10 304.72 C 100.71 304.80 79.31 304.74 57.92 304.75 C 52.28 304.76 46.95 299.80 47.03 294.07 C 46.99 276.36 46.96 258.65 47.04 240.94 C 47.05 233.96 54.31 229.52 60.75 230.15 C 60.30 218.19 62.34 204.96 71.22 196.19 M 74.79 207.71 C 71.19 214.60 70.67 222.60 70.97 230.24 C 83.59 230.19 96.21 230.38 108.82 230.13 C 108.93 221.50 108.71 211.95 103.27 204.76 C 96.09 195.79 80.15 197.76 74.79 207.71 M 79.77 259.99 C 79.25 264.51 82.46 268.11 85.79 270.65 C 84.86 275.99 84.19 281.37 83.39 286.73 C 88.32 286.76 93.25 286.75 98.18 286.75 C 97.36 281.13 96.42 275.53 95.62 269.92 C 97.53 268.40 99.48 266.70 100.20 264.27 C 102.43 258.72 99.05 251.48 93.10 250.14 C 86.91 248.37 79.79 253.48 79.77 259.99 Z" />
</g>
<g id="#a8a8a8ff">
<path fill="#a8a8a8" opacity="1.00" d=" M 146.44 232.32 C 147.60 232.23 148.77 232.15 149.94 232.07 C 150.06 236.97 150.01 241.87 150.00 246.77 C 151.78 246.90 153.86 246.84 153.39 249.31 C 152.24 249.41 151.09 249.51 149.95 249.61 C 149.97 251.74 150.00 253.87 150.01 256.01 C 149.29 256.00 147.84 255.99 147.12 255.98 C 147.08 253.78 147.03 251.58 146.95 249.38 C 143.36 249.43 139.78 249.46 136.19 249.43 C 138.07 242.99 143.21 238.12 146.44 232.32 M 139.69 246.96 C 142.15 246.97 144.60 246.97 147.06 246.96 C 147.10 243.39 147.13 239.82 147.03 236.25 C 144.44 239.71 142.10 243.36 139.69 246.96 Z" />
<path fill="#a8a8a8" opacity="1.00" d=" M 160.32 232.55 C 162.83 231.20 166.29 231.55 168.22 233.74 C 170.72 236.50 171.09 240.44 171.14 244.00 C 171.10 247.56 170.72 251.49 168.31 254.31 C 165.96 257.16 161.05 257.14 158.71 254.29 C 155.92 250.88 155.79 246.16 155.97 241.97 C 156.19 238.49 157.12 234.47 160.32 232.55 M 162.38 234.41 C 159.20 235.89 159.09 240.03 158.89 243.05 C 158.95 246.55 158.71 250.86 161.63 253.36 C 163.71 254.97 166.53 253.26 167.14 250.99 C 168.52 246.94 168.41 242.45 167.54 238.31 C 167.11 235.98 164.98 233.42 162.38 234.41 Z" />
<path fill="#a8a8a8" opacity="1.00" d=" M 183.20 233.17 C 184.02 231.79 185.89 232.33 187.19 231.97 C 187.33 236.90 187.26 241.82 187.23 246.75 C 189.05 246.90 191.16 246.88 190.64 249.41 C 189.80 249.42 188.12 249.45 187.28 249.47 C 187.27 251.66 187.25 253.85 187.24 256.04 C 186.50 256.01 185.03 255.95 184.29 255.92 C 184.32 253.80 184.36 251.69 184.40 249.57 C 180.73 249.39 177.05 249.42 173.38 249.40 C 173.96 246.14 176.22 243.64 177.96 240.95 C 179.76 238.39 181.31 235.67 183.20 233.17 M 176.90 246.95 C 179.37 246.96 181.84 246.97 184.32 246.97 C 184.34 243.37 184.37 239.78 184.33 236.18 C 181.72 239.68 179.38 243.37 176.90 246.95 Z" />
<path fill="#a8a8a8" opacity="1.00" d=" M 294.37 274.34 C 294.51 272.94 294.14 271.22 295.64 270.41 C 295.81 274.17 295.73 277.94 295.86 281.70 C 293.59 281.73 290.05 283.04 289.28 279.96 C 287.82 276.65 290.88 273.06 294.37 274.34 M 291.55 275.42 C 289.80 276.81 290.61 279.06 290.85 280.91 C 291.70 280.89 293.38 280.85 294.23 280.84 C 294.33 279.07 294.42 277.30 294.51 275.53 C 293.52 275.41 292.54 275.37 291.55 275.42 Z" />
<path fill="#a8a8a8" opacity="1.00" d=" M 142.38 280.01 C 142.26 277.12 142.44 274.23 142.62 271.35 C 144.88 271.83 148.54 270.99 149.35 273.91 C 149.53 275.59 148.23 276.75 147.23 277.88 C 148.05 279.35 148.86 280.83 149.61 282.34 C 147.41 281.43 146.59 279.02 145.07 277.39 C 142.67 277.60 144.23 280.86 143.59 282.38 C 142.65 281.87 142.25 281.08 142.38 280.01 M 143.78 272.57 C 143.77 273.58 143.76 275.61 143.75 276.62 C 145.10 276.45 146.45 276.27 147.79 276.09 C 147.81 275.34 147.85 273.84 147.87 273.09 C 146.50 272.91 145.14 272.74 143.78 272.57 Z" />
<path fill="#a8a8a8" opacity="1.00" d=" M 159.73 278.00 C 159.55 274.57 163.76 272.92 166.04 275.38 C 164.54 275.63 162.34 274.73 161.49 276.45 C 160.61 277.90 161.56 279.49 161.91 280.95 C 162.91 280.93 164.92 280.89 165.93 280.87 C 163.85 283.82 159.13 281.33 159.73 278.00 Z" />
<path fill="#a8a8a8" opacity="1.00" d=" M 168.29 273.63 C 170.02 275.69 168.86 278.67 169.74 281.06 C 174.38 281.67 171.79 275.95 173.74 273.63 C 174.08 276.32 174.12 279.04 174.12 281.76 C 172.27 281.63 170.16 282.45 168.49 281.49 C 167.47 279.00 168.03 276.22 168.29 273.63 Z" />
<path fill="#a8a8a8" opacity="1.00" d=" M 176.99 274.54 C 178.54 274.46 180.08 274.37 181.63 274.31 C 180.65 274.89 179.67 275.47 178.69 276.05 C 178.21 278.16 179.11 280.97 177.17 282.49 C 177.01 279.84 177.00 277.19 176.99 274.54 Z" />
<path fill="#a8a8a8" opacity="1.00" d=" M 183.10 275.13 C 184.48 273.51 186.72 274.17 188.17 275.30 C 186.88 275.72 183.89 274.30 184.21 276.57 C 185.42 277.44 186.86 278.02 187.95 279.07 C 189.21 282.23 183.67 283.43 182.69 280.55 C 184.17 280.71 185.64 280.88 187.11 281.05 C 186.89 278.18 181.75 278.29 183.10 275.13 Z" />
<path fill="#a8a8a8" opacity="1.00" d=" M 192.23 274.27 C 194.58 273.40 196.92 275.62 196.86 277.96 C 197.15 280.45 194.55 283.09 192.03 281.96 C 188.87 280.67 188.98 275.34 192.23 274.27 M 193.07 275.11 C 190.08 275.85 190.50 281.78 193.89 280.98 C 196.38 280.09 195.99 275.20 193.07 275.11 Z" />
<path fill="#a8a8a8" opacity="1.00" d=" M 214.37 274.30 C 217.61 273.02 220.24 277.25 218.74 279.99 C 218.00 282.04 215.09 282.98 213.44 281.44 C 211.13 279.64 211.59 275.37 214.37 274.30 M 215.07 275.10 C 212.79 276.25 213.37 278.90 213.95 280.88 C 214.75 280.88 216.34 280.89 217.14 280.90 C 217.90 278.80 218.23 275.14 215.07 275.10 Z" />
<path fill="#a8a8a8" opacity="1.00" d=" M 226.37 281.56 C 223.60 279.75 224.46 274.44 227.94 274.11 C 230.04 273.77 232.31 276.67 230.70 278.38 C 229.14 278.65 227.39 278.16 225.96 278.94 C 226.61 281.31 229.47 280.98 231.34 281.71 C 229.71 281.79 227.85 282.64 226.37 281.56 M 227.28 275.44 C 224.76 276.68 228.45 278.69 229.59 277.01 C 230.38 275.69 228.25 274.82 227.28 275.44 Z" />
<path fill="#a8a8a8" opacity="1.00" d=" M 233.83 274.55 C 235.73 274.73 238.29 273.43 239.63 275.24 C 240.20 277.60 239.99 280.06 239.91 282.47 C 237.62 280.81 239.00 277.41 238.19 275.02 C 237.18 275.30 236.16 275.58 235.15 275.86 C 235.12 277.90 235.09 279.94 235.06 281.98 L 233.79 282.04 C 233.79 279.54 233.80 277.04 233.83 274.55 Z" />
<path fill="#a8a8a8" opacity="1.00" d=" M 242.23 277.98 C 242.02 274.79 246.25 272.73 248.37 275.34 C 246.35 275.18 243.30 275.22 243.59 278.10 C 243.27 281.08 246.28 281.20 248.38 280.70 C 246.37 283.84 241.65 281.37 242.23 277.98 Z" />
<path fill="#a8a8a8" opacity="1.00" d=" M 252.34 274.31 C 254.71 273.30 257.19 275.58 257.11 277.97 C 257.37 280.21 255.26 282.72 252.90 282.13 C 249.26 281.42 248.97 275.59 252.34 274.31 M 251.90 280.84 C 252.71 280.86 254.32 280.90 255.12 280.92 C 255.68 278.97 256.39 276.07 253.90 275.13 C 250.86 275.19 251.22 278.82 251.90 280.84 Z" />
<path fill="#a8a8a8" opacity="1.00" d=" M 259.74 274.53 C 261.67 274.73 264.31 273.42 265.65 275.27 C 266.19 277.64 265.99 280.08 265.91 282.48 C 263.66 280.78 264.95 277.45 264.25 275.05 C 263.22 275.31 262.19 275.58 261.17 275.86 C 261.13 278.08 261.07 280.30 260.89 282.52 C 258.75 280.48 260.12 277.13 259.74 274.53 Z" />
<path fill="#a8a8a8" opacity="1.00" d=" M 274.74 274.55 C 276.27 274.46 277.80 274.32 279.34 274.15 C 275.77 275.54 275.89 279.28 275.84 282.52 C 273.81 280.42 275.09 277.15 274.74 274.55 Z" />
<path fill="#a8a8a8" opacity="1.00" d=" M 280.52 275.59 C 281.94 274.49 283.79 273.57 285.57 274.51 C 287.13 276.52 286.47 279.30 286.77 281.67 C 284.79 281.75 282.82 281.83 280.85 281.91 C 280.83 281.20 280.78 279.79 280.76 279.08 C 282.14 277.58 284.42 277.34 285.76 275.74 C 284.03 275.38 282.26 275.46 280.52 275.59 M 284.37 278.14 C 283.12 277.93 281.34 279.42 282.31 280.67 C 283.85 282.24 286.82 278.87 284.37 278.14 Z" />
<path fill="#a8a8a8" opacity="1.00" d=" M 300.40 274.39 C 305.09 272.30 307.38 280.42 302.99 281.96 C 298.44 283.69 296.35 276.11 300.40 274.39 M 301.28 275.25 C 298.79 276.09 298.96 281.22 301.94 281.00 C 305.00 280.93 304.62 274.59 301.28 275.25 Z" />
</g>
<g id="#f5ceabff">
<path fill="#f5ceab" opacity="1.00" d=" M 28.49 252.97 C 27.62 248.30 30.48 244.00 34.15 241.41 C 34.20 247.81 34.20 254.22 34.16 260.63 C 31.53 258.76 28.77 256.45 28.49 252.97 Z" />
</g>
<g id="#d1d1d1ff">
<path fill="#d1d1d1" opacity="1.00" d=" M 308.22 271.51 C 308.64 271.32 309.49 270.94 309.92 270.76 C 310.04 273.58 310.03 276.41 309.88 279.24 C 306.79 278.27 308.18 273.96 308.22 271.51 Z" />
</g>
<g id="#c2c2c2ff">
<path fill="#c2c2c2" opacity="1.00" d=" M 268.31 274.19 C 268.97 273.53 269.20 272.10 270.34 272.19 C 270.92 272.96 271.49 273.74 272.03 274.55 C 270.39 277.01 270.07 280.79 273.31 282.08 C 272.43 282.10 270.66 282.14 269.78 282.17 C 269.11 279.54 268.72 276.86 268.31 274.19 Z" />
</g>
<g id="#c0c0c0ff">
<path fill="#c0c0c0" opacity="1.00" d=" M 137.19 274.23 C 138.82 273.71 139.37 274.26 138.85 275.89 C 137.22 276.41 136.66 275.86 137.19 274.23 Z" />
</g>
<g id="#fbfbfbff">
<path fill="#fbfbfb" opacity="1.00" d=" M 154.19 275.37 C 157.72 274.95 154.08 279.41 153.24 276.38 C 153.48 276.13 153.95 275.63 154.19 275.37 Z" />
</g>
<g id="#d0d0d0ff">
<path fill="#d0d0d0" opacity="1.00" d=" M 136.95 284.99 C 137.30 282.27 136.10 278.67 138.69 276.81 C 138.98 279.54 139.05 282.28 139.05 285.03 C 138.53 285.02 137.48 285.00 136.95 284.99 Z" />
</g>
<g id="#c1c1c1ff">
<path fill="#c1c1c1" opacity="1.00" d=" M 308.17 280.33 C 309.79 279.76 310.36 280.30 309.88 281.94 C 308.25 282.50 307.68 281.96 308.17 280.33 Z" />
</g>
<g id="#1d1f1dff">
<path fill="#1d1f1d" opacity="1.00" d=" M 95.67 321.73 C 115.76 321.82 135.86 321.75 155.95 321.76 C 157.97 321.73 159.86 322.48 161.78 323.03 C 161.66 323.47 161.44 324.34 161.32 324.78 C 169.48 324.78 177.63 324.76 185.78 324.81 C 185.65 324.37 185.38 323.49 185.25 323.04 C 187.14 322.50 189.01 321.73 191.02 321.75 C 212.41 321.76 233.80 321.81 255.19 321.74 C 254.70 322.81 254.28 323.93 253.71 324.97 C 250.87 326.32 247.80 327.15 244.66 327.35 C 198.25 327.23 151.84 327.20 105.43 327.36 C 102.63 326.93 99.88 326.18 97.25 325.15 C 96.65 324.04 96.19 322.87 95.67 321.73 Z" />
</g>
<g id="#000000ff">
<path fill="#000000" opacity="1.00" d=" M 161.78 323.03 C 169.58 323.43 177.44 323.41 185.25 323.04 C 185.38 323.49 185.65 324.37 185.78 324.81 C 177.63 324.76 169.48 324.78 161.32 324.78 C 161.44 324.34 161.66 323.47 161.78 323.03 Z" />
<path fill="#000000" opacity="1.00" d=" M 85.66 451.75 C 91.85 448.08 99.52 448.63 106.09 450.92 C 112.78 453.22 119.27 449.20 126.00 449.79 C 131.23 449.93 136.48 449.57 141.71 450.10 C 142.82 456.58 142.59 463.20 141.56 469.68 C 125.41 469.54 109.25 469.92 93.11 469.32 C 86.05 468.26 78.86 469.07 71.84 467.73 C 74.76 461.21 79.62 455.58 85.66 451.75 Z" />
<path fill="#000000" opacity="1.00" d=" M 235.92 451.57 C 240.74 451.45 245.15 448.85 250.02 449.09 C 255.86 448.72 261.29 451.66 265.63 455.32 C 269.40 458.85 272.16 463.29 274.90 467.64 C 269.99 468.78 264.94 468.55 259.94 468.70 C 241.73 470.30 223.43 469.45 205.17 469.65 C 203.73 463.23 203.70 456.50 204.95 450.05 C 210.62 449.59 216.31 449.88 222.00 449.76 C 226.74 449.57 231.16 452.00 235.92 451.57 Z" />
</g>
<g id="#302c35ff">
<path fill="#302c35" opacity="1.00" d=" M 97.25 325.15 C 99.88 326.18 102.63 326.93 105.43 327.36 C 110.14 332.82 116.02 337.22 122.39 340.56 C 148.30 352.68 178.35 353.51 205.87 346.90 C 219.84 343.13 234.58 338.27 244.66 327.35 C 247.80 327.15 250.87 326.32 253.71 324.97 C 248.96 334.59 239.34 340.93 229.70 344.99 C 229.45 352.69 229.88 360.41 229.79 368.12 L 230.23 368.83 C 230.34 393.93 230.71 419.03 230.67 444.12 C 220.73 443.82 210.78 444.28 200.83 443.94 C 200.20 445.59 199.56 447.25 198.92 448.90 C 197.86 426.52 195.10 404.27 193.46 381.93 C 192.72 373.36 191.47 364.83 191.35 356.22 C 184.90 356.54 178.44 356.77 172.01 357.27 C 166.49 356.75 160.94 356.71 155.41 356.29 C 153.31 377.54 151.67 398.82 149.54 420.07 C 149.02 429.90 147.10 439.66 147.44 449.53 C 147.10 449.11 146.42 448.27 146.07 447.85 C 145.85 446.55 145.64 445.25 145.43 443.96 C 137.95 443.94 130.46 444.38 122.98 443.92 C 120.38 443.71 117.81 444.18 115.34 444.96 C 115.56 428.31 115.46 411.64 115.95 394.99 C 116.65 378.32 116.21 361.61 116.51 344.93 C 113.94 342.28 110.31 340.88 107.58 338.35 C 103.42 334.61 99.49 330.35 97.25 325.15 M 122.38 357.04 C 122.38 374.34 122.43 391.64 122.02 408.94 C 121.74 420.30 122.11 431.68 121.29 443.02 C 127.88 443.58 134.53 443.53 141.13 443.12 C 142.29 437.15 142.28 431.05 142.99 425.03 C 144.84 401.74 147.16 378.50 149.02 355.22 C 139.98 353.74 131.17 351.22 122.69 347.75 C 122.35 350.83 122.31 353.94 122.38 357.04 M 197.15 355.19 C 199.60 384.52 202.75 413.80 205.04 443.15 C 211.62 443.43 218.23 443.58 224.80 443.08 C 224.25 437.72 224.45 432.33 224.40 426.96 C 224.18 406.32 224.30 385.69 223.82 365.06 C 223.57 359.40 224.27 353.66 223.15 348.07 C 214.71 351.24 205.97 353.40 197.15 355.19 Z" />
</g>
<g id="#433c49ff">
<path fill="#433c49" opacity="1.00" d=" M 105.43 327.36 C 151.84 327.20 198.25 327.23 244.66 327.35 C 234.58 338.27 219.84 343.13 205.87 346.90 C 178.35 353.51 148.30 352.68 122.39 340.56 C 116.02 337.22 110.14 332.82 105.43 327.36 Z" />
<path fill="#433c49" opacity="1.00" d=" M 122.38 357.04 C 122.31 353.94 122.35 350.83 122.69 347.75 C 131.17 351.22 139.98 353.74 149.02 355.22 C 147.16 378.50 144.84 401.74 142.99 425.03 C 142.28 431.05 142.29 437.15 141.13 443.12 C 134.53 443.53 127.88 443.58 121.29 443.02 C 122.11 431.68 121.74 420.30 122.02 408.94 C 122.43 391.64 122.38 374.34 122.38 357.04 Z" />
<path fill="#433c49" opacity="1.00" d=" M 197.15 355.19 C 205.97 353.40 214.71 351.24 223.15 348.07 C 224.27 353.66 223.57 359.40 223.82 365.06 C 224.30 385.69 224.18 406.32 224.40 426.96 C 224.45 432.33 224.25 437.72 224.80 443.08 C 218.23 443.58 211.62 443.43 205.04 443.15 C 202.75 413.80 199.60 384.52 197.15 355.19 Z" />
</g>
<g id="#202020ff">
<path fill="#202020" opacity="1.00" d=" M 81.86 446.83 C 88.94 442.33 98.15 441.64 105.96 444.54 C 108.93 445.67 112.30 445.98 115.34 444.96 C 117.81 444.18 120.38 443.71 122.98 443.92 C 130.46 444.38 137.95 443.94 145.43 443.96 C 145.64 445.25 145.85 446.55 146.07 447.85 C 146.42 448.27 147.10 449.11 147.44 449.53 C 149.46 455.00 148.35 461.32 148.21 467.11 C 147.44 470.00 147.39 473.12 146.01 475.82 C 118.07 476.48 90.09 475.83 62.25 473.42 C 66.22 463.09 72.07 452.63 81.86 446.83 M 85.66 451.75 C 79.62 455.58 74.76 461.21 71.84 467.73 C 78.86 469.07 86.05 468.26 93.11 469.32 C 109.25 469.92 125.41 469.54 141.56 469.68 C 142.59 463.20 142.82 456.58 141.71 450.10 C 136.48 449.57 131.23 449.93 126.00 449.79 C 119.27 449.20 112.78 453.22 106.09 450.92 C 99.52 448.63 91.85 448.08 85.66 451.75 Z" />
<path fill="#202020" opacity="1.00" d=" M 231.63 445.50 C 238.00 446.40 243.66 442.62 249.97 442.73 C 257.33 442.90 264.83 445.65 270.00 451.00 C 276.65 456.96 280.98 465.10 284.02 473.40 C 256.02 475.77 227.85 476.67 199.78 475.67 C 198.00 466.91 196.17 457.66 198.92 448.90 C 199.56 447.25 200.20 445.59 200.83 443.94 C 210.78 444.28 220.73 443.82 230.67 444.12 C 230.91 444.47 231.39 445.15 231.63 445.50 M 235.92 451.57 C 231.16 452.00 226.74 449.57 222.00 449.76 C 216.31 449.88 210.62 449.59 204.95 450.05 C 203.70 456.50 203.73 463.23 205.17 469.65 C 223.43 469.45 241.73 470.30 259.94 468.70 C 264.94 468.55 269.99 468.78 274.90 467.64 C 272.16 463.29 269.40 458.85 265.63 455.32 C 261.29 451.66 255.86 448.72 250.02 449.09 C 245.15 448.85 240.74 451.45 235.92 451.57 Z" />
</g>
</svg>
