<?xml version="1.0" encoding="UTF-8" ?>
<!DOCTYPE svg PUBLIC "-//W3C//DTD SVG 1.1//EN" "http://www.w3.org/Graphics/SVG/1.1/DTD/svg11.dtd">
<svg width="656pt" height="656pt" viewBox="0 0 656 656" version="1.1" xmlns="http://www.w3.org/2000/svg">
<g id="#ffffffff">
</g>
<g id="#a349a4ff">
<path fill="#a349a4" opacity="1.00" d=" M 146.44 0.00 L 220.00 0.00 L 219.58 0.90 C 219.70 75.21 219.63 149.52 219.61 223.83 C 218.20 224.56 216.49 223.99 214.97 224.16 C 192.32 224.13 169.67 224.23 147.03 224.11 L 146.41 223.84 C 146.42 149.23 146.41 74.61 146.44 0.00 Z" />
<path fill="#a349a4" opacity="1.00" d=" M 483.77 66.80 C 490.90 59.50 498.01 52.18 505.05 44.80 L 505.80 44.83 C 522.77 62.76 540.13 80.31 556.92 98.41 L 556.83 99.12 C 532.30 124.90 507.78 150.69 483.10 176.32 C 483.05 177.47 482.96 178.62 482.83 179.77 C 442.20 222.23 401.56 264.40 361.14 307.04 L 360.29 306.95 C 342.66 289.23 325.56 271.00 308.29 252.94 C 337.00 222.80 366.12 192.96 394.78 162.75 C 394.85 162.56 394.99 162.19 395.06 162.00 C 400.36 157.66 404.82 152.04 409.76 147.17 C 434.16 121.74 458.49 96.24 482.94 70.86 C 483.22 69.53 482.44 67.74 483.77 66.80 Z" />
<path fill="#a349a4" opacity="1.00" d=" M 117.50 303.66 C 139.00 295.79 162.29 294.07 185.00 295.42 C 212.04 296.27 238.48 305.33 261.28 319.71 C 281.74 332.64 299.49 349.80 313.27 369.68 C 337.29 403.85 347.97 446.49 345.57 487.99 C 343.25 530.07 327.29 572.21 297.44 602.49 C 273.57 629.58 240.90 648.80 205.48 656.00 L 139.51 656.00 C 129.60 653.51 119.65 650.90 110.28 646.75 C 72.37 630.63 41.44 600.32 21.51 564.57 C 0.59 524.88 -4.63 477.63 5.08 434.00 C 11.11 406.20 24.06 380.06 42.17 358.15 C 61.98 333.90 87.90 314.27 117.50 303.66 M 156.49 381.70 C 134.07 384.85 114.50 399.29 101.19 417.13 C 90.15 431.82 83.21 449.60 81.95 467.97 C 80.41 486.79 84.26 506.09 93.20 522.76 C 96.73 529.32 101.31 535.22 105.79 541.15 C 127.17 567.88 165.28 579.32 197.96 569.49 C 213.71 564.86 227.98 555.58 238.77 543.24 C 251.61 528.62 260.85 510.50 263.59 491.14 C 266.42 471.91 263.66 451.92 255.74 434.18 C 248.34 418.10 236.46 404.12 221.79 394.24 C 210.56 386.85 197.54 381.60 183.99 381.18 C 174.83 380.71 165.61 380.57 156.49 381.70 Z" />
<path fill="#a349a4" opacity="1.00" d=" M 397.28 395.36 C 483.52 395.27 569.76 395.41 656.00 395.42 L 656.00 471.95 L 655.19 471.46 C 569.25 471.59 483.29 471.51 397.35 471.54 C 397.14 446.15 397.35 420.75 397.28 395.36 Z" />
</g>
</svg>
