<?xml version="1.0" encoding="UTF-8" ?>
<!DOCTYPE svg PUBLIC "-//W3C//DTD SVG 1.1//EN" "http://www.w3.org/Graphics/SVG/1.1/DTD/svg11.dtd">
<svg width="656pt" height="656pt" viewBox="0 0 656 656" version="1.1" xmlns="http://www.w3.org/2000/svg">
<g id="#ffffffff">
</g>
<g id="#000000ff">
<path fill="#000000" opacity="1.00" d=" M 146.47 0.00 L 219.48 0.00 C 219.69 74.65 219.48 149.31 219.59 223.97 C 195.21 224.17 170.82 224.12 146.44 223.99 C 146.49 149.33 146.45 74.66 146.47 0.00 Z" />
<path fill="#000000" opacity="1.00" d=" M 483.01 67.99 C 490.61 60.38 497.72 52.16 505.61 44.91 C 522.57 62.89 539.98 80.46 556.78 98.58 C 554.72 101.48 552.02 103.84 549.59 106.43 C 527.69 129.38 505.88 152.43 483.81 175.23 C 482.43 176.33 483.43 178.31 482.69 179.69 C 441.93 222.05 401.28 264.52 360.73 307.09 C 343.03 289.31 325.89 270.98 308.46 252.93 C 366.82 192.48 424.82 131.68 482.99 71.05 C 482.99 70.28 483.00 68.75 483.01 67.99 Z" />
<path fill="#000000" opacity="1.00" d=" M 144.16 297.06 C 174.95 293.08 207.24 294.60 236.11 306.89 C 284.14 326.84 321.81 369.35 337.09 418.93 C 344.73 443.84 347.38 470.28 344.77 496.22 C 341.36 530.98 328.64 565.23 306.33 592.33 C 293.25 607.62 278.87 622.09 261.73 632.84 C 244.31 644.10 224.75 651.94 204.42 656.00 L 141.39 656.00 C 102.14 648.68 67.21 625.13 42.15 594.51 C 31.29 581.18 21.73 566.61 15.13 550.68 C -2.86 507.67 -4.20 458.09 10.91 414.03 C 21.52 383.07 41.14 355.51 65.86 334.20 C 88.05 315.21 115.17 301.51 144.16 297.06 M 154.65 381.77 C 139.73 384.20 126.08 391.96 114.82 401.85 C 99.46 415.73 88.05 434.25 83.71 454.57 C 79.25 475.81 81.43 498.58 90.73 518.27 C 94.44 526.47 99.91 533.67 105.25 540.86 C 121.80 561.69 148.52 573.68 175.03 572.99 C 195.14 573.08 214.96 565.21 230.11 552.10 C 242.72 541.21 252.19 526.97 258.44 511.58 C 266.58 490.40 266.81 466.50 260.04 444.91 C 255.22 429.26 246.02 415.11 234.17 403.86 C 220.11 390.66 201.63 381.12 182.04 380.94 C 172.91 380.37 163.72 380.56 154.65 381.77 Z" />
<path fill="#000000" opacity="1.00" d=" M 397.37 395.42 C 483.58 395.40 569.79 395.45 656.00 395.46 L 656.00 471.25 C 596.33 471.25 536.67 471.25 477.00 471.27 C 450.49 471.84 423.96 471.30 397.45 471.31 C 397.28 446.01 397.47 420.72 397.37 395.42 Z" />
</g>
</svg>
