<?xml version="1.0" encoding="UTF-8" ?>
<!DOCTYPE svg PUBLIC "-//W3C//DTD SVG 1.1//EN" "http://www.w3.org/Graphics/SVG/1.1/DTD/svg11.dtd">
<svg width="656pt" height="656pt" viewBox="0 0 656 656" version="1.1" xmlns="http://www.w3.org/2000/svg">
<g id="#ffffffff">
</g>
<g id="#ff8515ff">
<path fill="#ff8515" opacity="1.00" d=" M 146.45 0.00 L 218.90 0.00 C 219.08 0.76 219.45 2.27 219.64 3.02 C 219.59 76.72 219.68 150.42 219.59 224.12 C 195.21 224.18 170.82 224.14 146.43 224.14 C 146.41 149.43 146.42 74.71 146.45 0.00 Z" />
<path fill="#ff8515" opacity="1.00" d=" M 483.82 66.86 C 491.02 59.43 498.17 51.94 505.42 44.55 C 522.61 62.69 540.32 80.34 557.11 98.86 C 532.40 124.68 507.80 150.60 483.04 176.37 C 482.99 177.48 482.95 178.58 482.90 179.69 C 442.05 222.14 401.41 264.79 360.65 307.31 C 342.92 289.41 325.66 271.06 308.23 252.86 C 366.70 192.41 424.71 131.52 482.94 70.85 C 483.11 69.50 482.61 67.85 483.82 66.86 Z" />
<path fill="#ff8515" opacity="1.00" d=" M 155.07 295.78 C 177.06 294.03 199.59 295.02 220.85 301.31 C 272.99 316.88 315.48 359.09 334.20 409.84 C 352.44 460.03 349.41 517.97 324.46 565.36 C 317.07 579.37 307.59 592.24 296.46 603.50 C 272.62 630.14 240.16 649.10 205.01 656.00 L 140.39 656.00 C 108.86 649.82 79.93 633.25 57.02 610.93 C 42.96 597.28 30.95 581.54 21.47 564.39 C 11.84 546.24 5.61 526.36 2.56 506.06 C 1.16 497.72 0.98 489.25 0.00 480.86 L 0.00 470.71 C 0.17 469.53 0.52 467.18 0.69 466.00 C 2.15 439.65 8.84 413.48 21.01 390.02 C 36.70 360.51 60.03 334.89 88.64 317.49 C 108.73 305.33 131.54 297.27 155.07 295.78 M 156.52 381.67 C 145.72 382.93 135.53 387.49 126.41 393.26 C 108.13 405.14 94.10 423.36 86.86 443.89 C 78.81 467.44 80.03 494.03 90.20 516.75 C 94.65 526.78 101.28 535.66 108.22 544.09 C 132.66 571.89 175.73 581.05 209.27 565.27 C 227.72 557.03 242.46 541.86 252.18 524.33 C 271.83 490.25 268.03 444.33 243.17 413.87 C 230.18 397.70 211.79 385.26 191.12 381.78 C 179.64 380.63 168.00 380.35 156.52 381.67 Z" />
<path fill="#ff8515" opacity="1.00" d=" M 397.27 395.35 C 483.51 395.31 569.76 395.41 656.00 395.43 L 656.00 471.25 C 651.34 471.75 646.65 471.36 641.98 471.48 C 560.43 471.44 478.88 471.54 397.33 471.52 C 397.19 446.13 397.38 420.74 397.27 395.35 Z" />
</g>
</svg>
