<?xml version="1.0" encoding="UTF-8" ?>
<!DOCTYPE svg PUBLIC "-//W3C//DTD SVG 1.1//EN" "http://www.w3.org/Graphics/SVG/1.1/DTD/svg11.dtd">
<svg width="656pt" height="656pt" viewBox="0 0 656 656" version="1.1" xmlns="http://www.w3.org/2000/svg">
<g id="#ffffffff">
</g>
<g id="#22b14cff">
<path fill="#22b14c" opacity="1.00" d=" M 146.46 0.00 L 219.19 0.00 C 219.29 0.75 219.48 2.24 219.58 2.99 C 219.58 76.66 219.56 150.33 219.59 224.01 C 195.21 224.16 170.83 224.11 146.45 224.04 C 146.46 149.36 146.46 74.68 146.46 0.00 Z" />
<path fill="#22b14c" opacity="1.00" d=" M 483.00 67.95 C 490.54 60.26 497.81 52.30 505.50 44.77 C 522.52 62.78 539.98 80.39 556.81 98.57 C 554.93 101.37 552.29 103.55 550.03 106.03 C 527.74 129.39 505.50 152.82 483.09 176.08 C 483.11 177.28 482.99 178.47 482.74 179.64 C 442.04 222.08 401.29 264.47 360.80 307.11 C 342.97 289.42 325.89 270.97 308.42 252.92 C 366.80 192.46 424.80 131.65 482.99 71.01 C 482.99 70.24 483.00 68.72 483.00 67.95 Z" />
<path fill="#22b14c" opacity="1.00" d=" M 144.85 296.94 C 157.16 295.51 169.59 294.47 181.99 295.39 C 210.49 295.87 238.49 305.19 262.35 320.61 C 288.11 337.09 309.35 360.39 323.87 387.28 C 344.03 424.80 350.10 469.28 342.76 511.09 C 336.80 545.24 321.40 578.14 296.86 602.88 C 273.05 629.76 240.52 648.58 205.39 656.00 L 137.65 656.00 L 139.70 655.42 C 124.91 653.04 110.79 647.41 97.55 640.51 C 65.02 623.12 38.54 595.36 20.91 563.11 C 9.70 541.40 3.19 517.37 1.16 493.06 C 0.70 488.83 1.04 484.53 0.00 480.38 L 0.00 472.40 C 0.44 470.98 0.69 469.53 0.76 468.06 C 1.36 451.69 4.24 435.41 9.02 419.75 C 18.66 387.91 37.88 359.34 62.49 337.11 C 85.48 316.45 114.10 301.47 144.85 296.94 M 154.66 381.79 C 145.24 383.23 136.33 387.11 128.20 391.97 C 109.10 403.71 94.46 422.32 86.89 443.36 C 78.82 466.83 79.80 493.35 89.78 516.09 C 94.10 526.17 100.68 535.06 107.54 543.53 C 132.06 572.10 176.13 581.36 210.06 565.04 C 228.06 556.82 242.44 541.97 252.05 524.85 C 271.99 490.59 268.29 444.24 243.13 413.61 C 230.13 397.47 211.70 385.08 191.05 381.65 C 178.96 380.45 166.72 380.18 154.66 381.79 Z" />
<path fill="#22b14c" opacity="1.00" d=" M 397.36 395.41 C 483.57 395.38 569.79 395.45 656.00 395.45 L 656.00 471.12 C 651.01 471.50 646.00 471.20 641.00 471.30 C 585.99 471.27 530.98 471.30 475.98 471.32 C 449.80 471.80 423.62 471.31 397.44 471.36 C 397.25 446.04 397.46 420.72 397.36 395.41 Z" />
</g>
</svg>
