<?xml version="1.0" encoding="UTF-8" ?>
<!DOCTYPE svg PUBLIC "-//W3C//DTD SVG 1.1//EN" "http://www.w3.org/Graphics/SVG/1.1/DTD/svg11.dtd">
<svg width="656pt" height="656pt" viewBox="0 0 656 656" version="1.1" xmlns="http://www.w3.org/2000/svg">
<g id="#ffffffff">
</g>
<g id="#00a2e8ff">
<path fill="#00a2e8" opacity="1.00" d=" M 146.46 0.00 L 148.21 0.00 C 150.56 1.50 153.42 0.94 156.04 1.02 C 177.11 0.99 198.18 0.98 219.25 1.03 C 219.30 57.70 219.09 114.37 219.23 171.04 C 219.44 188.72 218.97 206.42 219.51 224.08 C 195.16 223.96 170.81 224.17 146.46 223.98 C 146.49 149.32 146.49 74.66 146.46 0.00 Z" />
<path fill="#00a2e8" opacity="1.00" d=" M 505.20 44.98 L 506.05 45.55 C 506.14 45.63 506.31 45.79 506.40 45.87 C 523.08 63.58 540.36 80.74 556.70 98.78 C 551.95 104.25 546.60 109.16 541.79 114.57 C 538.79 117.26 535.97 120.14 533.32 123.17 C 530.25 126.70 526.44 129.55 523.74 133.40 C 515.53 142.21 507.10 150.83 498.80 159.56 C 493.25 164.50 488.56 170.29 483.20 175.42 L 483.10 176.45 C 483.70 179.66 480.89 181.47 478.93 183.45 C 465.58 196.59 453.10 210.59 439.83 223.81 C 431.47 233.27 422.14 241.86 413.81 251.34 C 413.54 251.66 412.99 252.29 412.72 252.61 C 404.00 261.06 395.74 269.98 387.49 278.89 C 387.34 279.04 387.03 279.34 386.88 279.49 C 383.36 282.43 380.63 286.16 377.29 289.28 C 374.97 291.48 372.67 293.72 370.84 296.35 C 369.27 298.29 367.40 299.97 365.71 301.80 L 364.80 302.02 C 362.79 302.13 360.96 303.63 361.18 305.78 L 361.05 307.23 C 356.66 303.56 353.21 298.96 349.07 295.04 C 335.52 281.43 322.55 267.27 309.13 253.55 C 313.65 246.07 321.51 241.27 326.61 234.20 C 345.20 214.89 363.81 195.60 382.30 176.19 L 383.19 175.99 C 385.23 175.92 386.98 174.40 386.79 172.25 L 386.90 171.24 C 407.67 149.97 428.10 128.38 448.65 106.90 C 448.71 106.84 448.83 106.72 448.89 106.66 C 458.07 97.23 467.11 87.66 476.27 78.20 L 477.07 78.06 C 478.74 78.12 480.11 76.77 479.79 75.07 L 479.81 74.30 C 480.87 73.25 481.93 72.20 482.99 71.15 C 482.99 70.38 483.01 68.84 483.01 68.07 C 486.36 64.78 489.56 61.36 492.70 57.88 C 492.75 57.82 492.86 57.72 492.91 57.66 C 494.50 56.09 496.07 54.49 497.63 52.89 C 497.71 52.81 497.85 52.67 497.92 52.60 C 500.48 50.19 502.76 47.51 505.20 44.98 Z" />
<path fill="#00a2e8" opacity="1.00" d=" M 148.27 296.30 C 153.85 296.48 159.37 295.30 164.96 295.32 C 171.95 294.63 178.94 295.49 185.93 295.61 C 202.35 296.32 218.56 300.02 233.85 305.99 C 234.40 306.23 235.52 306.73 236.07 306.98 C 240.22 308.66 244.25 310.62 248.33 312.46 C 248.40 312.50 248.55 312.58 248.63 312.62 C 250.77 313.91 252.95 315.13 255.17 316.30 L 255.46 316.65 L 255.91 316.77 C 257.77 317.88 259.63 319.00 261.52 320.06 C 262.12 321.20 263.05 321.87 264.33 322.06 C 264.80 322.36 265.75 322.95 266.22 323.25 L 266.48 323.55 L 266.87 323.66 L 267.59 323.91 C 268.01 325.19 268.92 325.89 270.31 326.01 C 281.52 334.35 291.91 343.79 301.14 354.30 L 301.27 354.74 L 301.64 355.02 C 303.28 357.04 304.94 359.05 306.63 361.04 C 307.00 361.53 307.74 362.52 308.10 363.01 C 309.71 365.23 311.34 367.44 312.98 369.64 C 313.06 371.11 313.76 372.01 315.08 372.34 L 315.09 372.60 C 315.04 373.95 315.66 374.92 316.95 375.49 C 319.00 379.10 321.19 382.62 323.23 386.24 C 323.33 386.41 323.52 386.75 323.61 386.92 L 324.19 387.97 L 324.29 388.57 L 324.62 388.94 C 325.52 390.71 326.45 392.47 327.29 394.28 L 327.42 394.58 L 327.58 394.87 L 328.37 396.35 C 328.43 396.48 328.56 396.76 328.63 396.89 C 336.42 414.01 341.54 432.31 344.00 450.95 C 344.11 451.77 344.34 453.42 344.46 454.24 C 346.16 469.28 345.94 484.46 344.53 499.51 C 344.44 500.14 344.24 501.41 344.15 502.04 C 342.41 514.18 339.81 526.21 335.94 537.86 C 335.74 538.45 335.32 539.62 335.11 540.21 C 334.33 542.51 333.44 544.78 332.62 547.07 C 332.55 547.26 332.42 547.64 332.35 547.83 L 332.04 548.79 C 331.78 549.37 331.25 550.54 330.98 551.12 C 325.87 563.12 319.54 574.63 311.82 585.16 L 311.40 585.42 L 311.26 585.88 C 307.03 591.69 302.30 597.13 297.28 602.26 C 290.74 609.63 283.56 616.41 275.93 622.65 C 275.44 623.02 274.45 623.76 273.95 624.13 C 271.64 625.89 269.31 627.63 266.90 629.25 L 266.43 629.40 L 266.19 629.83 C 264.61 630.89 263.02 631.95 261.43 633.00 C 260.07 633.06 259.10 633.71 258.52 634.94 C 256.16 636.17 253.85 637.49 251.57 638.86 C 247.89 640.13 244.40 641.90 241.17 644.07 L 240.66 644.31 C 240.55 644.37 240.31 644.48 240.20 644.53 L 239.62 644.80 C 234.18 646.64 228.79 648.67 223.53 650.97 C 217.63 652.99 211.47 654.08 205.54 656.00 L 141.78 656.00 C 138.81 654.93 135.71 654.37 132.59 654.02 L 132.43 653.99 C 126.10 651.97 119.85 649.71 113.47 647.86 L 112.88 647.59 L 112.54 647.37 L 112.15 647.32 C 104.87 644.21 97.74 640.74 90.95 636.67 L 90.62 636.35 L 90.18 636.27 C 86.88 634.26 83.67 632.10 80.43 630.00 C 79.89 628.72 78.94 628.04 77.58 627.95 C 71.67 623.67 66.10 618.94 60.61 614.13 C 57.23 610.33 53.63 606.73 49.83 603.36 C 44.63 597.58 39.74 591.53 35.03 585.35 C 34.94 583.86 34.23 582.95 32.91 582.61 C 28.72 576.01 24.52 569.42 20.62 562.64 C 20.57 562.56 20.49 562.40 20.45 562.33 C 18.85 558.85 17.31 555.34 15.66 551.89 L 15.64 551.44 L 15.36 551.08 C 14.13 548.16 12.97 545.21 11.93 542.22 C 11.69 541.64 11.22 540.49 10.98 539.92 L 11.00 539.17 C 10.76 538.60 10.28 537.45 10.04 536.87 C 5.19 522.02 2.31 506.59 0.99 491.03 C 0.99 488.21 1.04 485.39 0.88 482.58 C 1.02 478.85 1.02 475.13 0.90 471.40 C 1.03 468.74 0.99 466.08 0.97 463.42 C 1.56 458.70 1.66 453.91 2.63 449.24 C 2.71 448.43 2.88 446.80 2.96 445.99 C 5.10 433.07 8.52 420.38 13.04 408.09 C 13.28 407.52 13.75 406.39 13.99 405.82 L 14.45 404.76 L 14.58 404.49 L 14.68 404.21 C 16.62 399.29 19.05 394.59 21.38 389.85 C 21.47 389.65 21.67 389.26 21.77 389.06 L 22.40 387.91 C 22.50 387.72 22.70 387.36 22.80 387.18 C 24.81 383.58 27.02 380.09 29.05 376.50 C 30.33 375.93 30.94 374.97 30.90 373.62 L 30.90 373.36 C 32.22 373.04 32.91 372.14 32.99 370.68 C 35.27 367.52 37.63 364.40 39.95 361.27 C 41.27 360.84 41.99 359.94 42.09 358.59 C 52.70 345.95 64.58 334.25 78.11 324.74 L 78.57 324.59 L 78.83 324.18 C 81.38 322.39 83.98 320.68 86.59 318.99 C 88.09 318.95 89.01 318.26 89.36 316.92 L 90.50 316.57 C 90.56 316.54 90.69 316.49 90.76 316.46 C 93.67 314.97 96.44 313.23 99.32 311.70 C 99.44 311.63 99.69 311.50 99.82 311.44 C 114.03 304.45 129.21 299.42 144.86 296.91 C 146.26 297.53 147.39 297.33 148.27 296.30 M 134.71 388.32 C 134.59 388.38 134.35 388.51 134.23 388.57 L 132.74 389.40 C 132.55 389.49 132.18 389.66 131.99 389.74 C 123.51 394.32 115.57 400.23 109.18 407.47 C 106.63 409.20 104.52 411.65 103.12 414.39 C 101.95 415.70 100.36 416.99 100.12 418.84 C 98.52 418.85 97.92 419.68 98.32 421.33 L 98.16 421.85 C 96.51 421.86 95.90 422.70 96.34 424.37 C 94.26 426.54 92.93 429.37 91.69 432.09 C 91.61 432.27 91.46 432.62 91.39 432.80 L 91.11 433.38 C 89.05 435.43 88.61 438.46 87.41 441.01 C 85.38 446.63 83.22 452.45 83.06 458.48 C 79.06 480.38 82.46 503.85 93.33 523.38 C 93.39 523.48 93.50 523.70 93.56 523.80 C 95.50 527.44 97.74 530.94 100.34 534.14 C 100.47 534.30 100.74 534.62 100.87 534.78 C 103.16 538.27 105.50 541.87 108.66 544.64 C 110.90 548.49 114.62 551.59 118.40 553.89 C 119.69 555.09 121.05 556.45 122.83 556.87 C 122.86 558.47 123.71 559.08 125.38 558.70 L 125.80 558.83 C 125.85 560.47 126.72 561.04 128.41 560.55 L 129.19 561.32 C 129.32 561.40 129.59 561.57 129.73 561.65 L 131.34 562.48 C 131.46 562.54 131.69 562.66 131.81 562.72 L 133.30 563.50 C 133.40 563.55 133.59 563.64 133.69 563.69 L 135.14 564.40 C 135.25 564.46 135.49 564.57 135.61 564.63 L 137.17 565.36 C 137.31 565.42 137.60 565.54 137.75 565.60 L 139.22 565.89 L 139.26 566.77 L 140.21 567.29 L 141.08 566.90 C 154.16 572.46 168.73 573.81 182.81 572.69 C 187.58 572.04 192.48 571.57 196.99 569.79 C 198.59 570.74 199.53 570.43 199.81 568.84 C 201.50 568.85 203.05 568.10 204.60 567.55 C 212.76 564.22 220.54 559.92 227.45 554.43 C 228.30 553.63 229.54 553.05 229.84 551.84 C 231.47 552.09 232.20 551.45 232.03 549.90 C 235.43 547.73 238.50 544.39 240.74 541.00 C 242.44 541.07 243.07 540.28 242.64 538.64 C 245.78 535.57 248.03 531.61 250.32 527.87 C 250.40 527.70 250.57 527.36 250.65 527.19 C 267.02 501.26 269.16 467.37 257.89 439.07 L 258.28 438.21 L 257.76 437.26 L 256.89 437.21 C 256.39 433.74 254.36 430.66 252.67 427.64 C 252.61 427.52 252.48 427.29 252.41 427.17 C 249.74 422.28 246.62 417.58 242.93 413.40 C 241.56 410.61 239.34 408.12 236.74 406.43 C 231.43 400.81 225.27 395.83 218.54 391.99 C 215.85 389.59 212.37 388.39 209.21 386.78 C 205.35 385.25 201.53 383.22 197.30 383.03 C 192.05 381.08 186.35 381.26 180.85 380.79 C 165.22 380.08 148.78 380.65 134.71 388.32 Z" />
<path fill="#00a2e8" opacity="1.00" d=" M 397.42 395.45 C 483.61 395.41 569.81 395.50 656.00 395.45 L 656.00 397.00 C 651.53 397.08 647.04 396.83 642.59 397.24 C 646.80 398.86 651.56 397.51 656.00 398.01 L 656.00 399.99 C 651.53 400.11 647.05 399.88 642.59 400.19 C 646.74 401.92 651.58 400.47 656.00 401.15 L 656.00 470.81 C 653.71 471.31 651.36 471.20 649.04 471.19 C 591.68 471.13 534.33 471.19 476.97 471.17 C 450.47 471.97 423.95 471.26 397.44 471.19 C 397.39 445.94 397.46 420.70 397.42 395.45 M 619.24 397.28 C 619.82 397.81 619.82 397.81 619.24 397.28 M 621.29 397.34 C 621.87 397.87 621.87 397.87 621.29 397.34 M 623.28 397.24 C 623.82 397.81 623.82 397.81 623.28 397.24 M 625.24 397.18 C 625.79 397.75 625.79 397.75 625.24 397.18 M 627.24 397.21 C 627.79 397.78 627.79 397.78 627.24 397.21 M 629.19 397.21 C 629.74 397.77 629.74 397.77 629.19 397.21 M 631.23 397.23 C 631.79 397.79 631.79 397.79 631.23 397.23 M 633.22 397.28 C 633.83 397.78 633.83 397.78 633.22 397.28 M 635.21 397.32 C 635.76 397.89 635.76 397.89 635.21 397.32 M 637.21 397.24 C 637.79 397.78 637.79 397.78 637.21 397.24 M 639.18 397.19 C 639.74 397.73 639.74 397.73 639.18 397.19 M 641.23 397.25 C 641.78 397.81 641.78 397.81 641.23 397.25 Z" />
</g>
<g id="#7da9ccff">
<path fill="#7da9cc" opacity="1.00" d=" M 148.21 0.00 L 219.45 0.00 C 219.97 3.99 219.64 8.01 219.72 12.02 C 219.77 57.34 219.89 102.66 219.79 147.98 C 219.63 173.35 220.01 198.73 219.51 224.08 C 218.97 206.42 219.44 188.72 219.23 171.04 C 219.09 114.37 219.30 57.70 219.25 1.03 C 198.18 0.98 177.11 0.99 156.04 1.02 C 153.42 0.94 150.56 1.50 148.21 0.00 Z" />
</g>
<g id="#fabebeff">
<path fill="#fabebe" opacity="1.00" d=" M 506.05 45.55 C 506.14 45.63 506.31 45.79 506.40 45.87 C 506.31 45.79 506.14 45.63 506.05 45.55 Z" />
</g>
<g id="#fac0c0ff">
<path fill="#fac0c0" opacity="1.00" d=" M 497.63 52.89 C 497.71 52.81 497.85 52.67 497.92 52.60 C 497.85 52.67 497.71 52.81 497.63 52.89 Z" />
</g>
<g id="#fcdadaff">
<path fill="#fcdada" opacity="1.00" d=" M 492.70 57.88 C 492.75 57.82 492.86 57.72 492.91 57.66 C 492.86 57.72 492.75 57.82 492.70 57.88 Z" />
</g>
<g id="#248fcbff">
<path fill="#248fcb" opacity="1.00" d=" M 479.41 74.90 L 479.79 75.07 C 480.11 76.77 478.74 78.12 477.07 78.06 C 476.62 76.72 478.46 75.60 479.41 74.90 Z" />
</g>
<g id="#fbcdcdff">
<path fill="#fbcdcd" opacity="1.00" d=" M 448.65 106.90 C 448.71 106.84 448.83 106.72 448.89 106.66 C 448.83 106.72 448.71 106.84 448.65 106.90 Z" />
</g>
<g id="#d1bcc8ff">
<path fill="#d1bcc8" opacity="1.00" d=" M 533.32 123.17 C 535.97 120.14 538.79 117.26 541.79 114.57 C 541.48 115.83 540.82 116.92 539.83 117.76 C 535.76 121.72 531.82 125.82 527.89 129.93 C 526.62 131.21 525.47 132.72 523.74 133.40 C 526.44 129.55 530.25 126.70 533.32 123.17 Z" />
</g>
<g id="#cabac7ff">
<path fill="#cabac7" opacity="1.00" d=" M 483.20 175.42 C 488.56 170.29 493.25 164.50 498.80 159.56 C 498.47 160.73 497.95 161.83 496.97 162.58 C 492.19 167.05 487.98 172.09 483.10 176.45 L 483.20 175.42 Z" />
</g>
<g id="#2291cdff">
<path fill="#2291cd" opacity="1.00" d=" M 383.19 175.99 C 383.12 174.48 385.30 172.32 386.79 172.25 C 386.98 174.40 385.23 175.92 383.19 175.99 Z" />
<path fill="#2291cd" opacity="1.00" d=" M 361.18 305.78 C 360.96 303.63 362.79 302.13 364.80 302.02 C 364.83 303.54 362.68 305.73 361.18 305.78 Z" />
</g>
<g id="#dec6cfff">
<path fill="#dec6cf" opacity="1.00" d=" M 439.83 223.81 C 453.10 210.59 465.58 196.59 478.93 183.45 C 478.54 186.13 475.95 187.44 474.33 189.31 C 469.47 194.49 464.15 199.24 459.69 204.78 C 451.89 213.28 443.16 220.91 435.78 229.79 C 429.90 235.90 423.79 241.79 417.96 247.94 C 416.70 249.21 415.54 250.69 413.81 251.34 C 422.14 241.86 431.47 233.27 439.83 223.81 Z" />
</g>
<g id="#ceb9c5ff">
<path fill="#ceb9c5" opacity="1.00" d=" M 324.02 236.10 C 324.77 235.33 325.64 234.69 326.61 234.20 C 321.51 241.27 313.65 246.07 309.13 253.55 L 308.87 254.33 C 308.64 253.86 308.19 252.92 307.97 252.46 C 313.41 247.10 318.70 241.58 324.02 236.10 Z" />
</g>
<g id="#ddc8d1ff">
<path fill="#ddc8d1" opacity="1.00" d=" M 387.49 278.89 C 395.74 269.98 404.00 261.06 412.72 252.61 C 412.21 255.60 409.24 257.10 407.40 259.23 C 401.86 265.08 395.84 270.50 390.85 276.85 C 390.06 278.00 388.84 278.63 387.49 278.89 Z" />
</g>
<g id="#c9b4c2ff">
<path fill="#c9b4c2" opacity="1.00" d=" M 377.29 289.28 C 380.63 286.16 383.36 282.43 386.88 279.49 C 385.55 282.96 382.13 285.02 379.80 287.79 C 376.75 290.57 374.41 294.20 370.84 296.35 C 372.67 293.72 374.97 291.48 377.29 289.28 Z" />
</g>
<g id="#f9b0b0ff">
<path fill="#f9b0b0" opacity="1.00" d=" M 144.86 296.91 C 145.84 295.85 146.98 295.64 148.27 296.30 C 147.39 297.33 146.26 297.53 144.86 296.91 Z" />
</g>
<g id="#9a95afff">
<path fill="#9a95af" opacity="1.00" d=" M 233.85 305.99 C 234.40 306.23 235.52 306.73 236.07 306.98 C 235.52 306.73 234.40 306.23 233.85 305.99 Z" />
</g>
<g id="#bbb1c3ff">
<path fill="#bbb1c3" opacity="1.00" d=" M 99.32 311.70 C 99.44 311.63 99.69 311.50 99.82 311.44 C 99.69 311.50 99.44 311.63 99.32 311.70 Z" />
</g>
<g id="#bbadbeff">
<path fill="#bbadbe" opacity="1.00" d=" M 248.33 312.46 C 248.40 312.50 248.55 312.58 248.63 312.62 C 248.55 312.58 248.40 312.50 248.33 312.46 Z" />
</g>
<g id="#baa3b5ff">
<path fill="#baa3b5" opacity="1.00" d=" M 90.50 316.57 C 90.56 316.54 90.69 316.49 90.76 316.46 C 90.69 316.49 90.56 316.54 90.50 316.57 Z" />
<path fill="#baa3b5" opacity="1.00" d=" M 240.20 644.53 C 240.31 644.48 240.55 644.37 240.66 644.31 C 240.55 644.37 240.31 644.48 240.20 644.53 Z" />
</g>
<g id="#b88697ff">
<path fill="#b88697" opacity="1.00" d=" M 255.17 316.30 L 255.62 316.41 L 255.91 316.77 L 255.46 316.65 L 255.17 316.30 Z" />
</g>
<g id="#e5b5bbff">
<path fill="#e5b5bb" opacity="1.00" d=" M 86.59 318.99 C 87.00 317.61 87.93 316.92 89.36 316.92 C 89.01 318.26 88.09 318.95 86.59 318.99 Z" />
</g>
<g id="#e5b3b9ff">
<path fill="#e5b3b9" opacity="1.00" d=" M 261.52 320.06 C 263.16 319.84 264.10 320.51 264.33 322.06 C 263.05 321.87 262.12 321.20 261.52 320.06 Z" />
<path fill="#e5b3b9" opacity="1.00" d=" M 258.52 634.94 C 259.10 633.71 260.07 633.06 261.43 633.00 C 261.02 634.48 260.05 635.12 258.52 634.94 Z" />
</g>
<g id="#b67486ff">
<path fill="#b67486" opacity="1.00" d=" M 266.22 323.25 C 266.38 323.35 266.71 323.56 266.87 323.66 L 266.48 323.55 L 266.22 323.25 Z" />
</g>
<g id="#b67284ff">
<path fill="#b67284" opacity="1.00" d=" M 78.37 324.34 L 78.83 324.18 L 78.57 324.59 L 78.11 324.74 L 78.37 324.34 Z" />
</g>
<g id="#e5bbc1ff">
<path fill="#e5bbc1" opacity="1.00" d=" M 267.59 323.91 C 269.09 323.83 269.99 324.53 270.31 326.01 C 268.92 325.89 268.01 325.19 267.59 323.91 Z" />
</g>
<g id="#f79d9dff">
<path fill="#f79d9d" opacity="1.00" d=" M 301.14 354.30 L 301.51 354.58 L 301.64 355.02 L 301.27 354.74 L 301.14 354.30 Z" />
</g>
<g id="#cfa9b5ff">
<path fill="#cfa9b5" opacity="1.00" d=" M 39.95 361.27 C 39.91 359.76 40.63 358.87 42.09 358.59 C 41.99 359.94 41.27 360.84 39.95 361.27 Z" />
</g>
<g id="#bbabbdff">
<path fill="#bbabbd" opacity="1.00" d=" M 306.63 361.04 C 307.00 361.53 307.74 362.52 308.10 363.01 C 307.74 362.52 307.00 361.53 306.63 361.04 Z" />
</g>
<g id="#e4b1b7ff">
<path fill="#e4b1b7" opacity="1.00" d=" M 312.98 369.64 C 314.41 370.01 315.11 370.91 315.08 372.34 C 313.76 372.01 313.06 371.11 312.98 369.64 Z" />
</g>
<g id="#e5b6bbff">
<path fill="#e5b6bb" opacity="1.00" d=" M 30.90 373.36 C 30.86 371.92 31.55 371.03 32.99 370.68 C 32.91 372.14 32.22 373.04 30.90 373.36 Z" />
</g>
<g id="#e5b4baff">
<path fill="#e5b4ba" opacity="1.00" d=" M 315.09 372.60 C 316.51 373.03 317.13 373.99 316.95 375.49 C 315.66 374.92 315.04 373.95 315.09 372.60 Z" />
</g>
<g id="#e5b6bcff">
<path fill="#e5b6bc" opacity="1.00" d=" M 29.05 376.50 C 28.86 375.00 29.47 374.04 30.90 373.62 C 30.94 374.97 30.33 375.93 29.05 376.50 Z" />
</g>
<g id="#bcb5c7ff">
<path fill="#bcb5c7" opacity="1.00" d=" M 197.30 383.03 C 201.53 383.22 205.35 385.25 209.21 386.78 C 212.37 388.39 215.85 389.59 218.54 391.99 C 211.62 388.61 204.62 385.46 197.30 383.03 Z" />
</g>
<g id="#baa6b8ff">
<path fill="#baa6b8" opacity="1.00" d=" M 323.23 386.24 C 323.33 386.41 323.52 386.75 323.61 386.92 C 323.52 386.75 323.33 386.41 323.23 386.24 Z" />
</g>
<g id="#ba9eafff">
<path fill="#ba9eaf" opacity="1.00" d=" M 22.40 387.91 C 22.50 387.72 22.70 387.36 22.80 387.18 C 22.70 387.36 22.50 387.72 22.40 387.91 Z" />
</g>
<g id="#b99caeff">
<path fill="#b99cae" opacity="1.00" d=" M 134.23 388.57 C 134.35 388.51 134.59 388.38 134.71 388.32 C 134.59 388.38 134.35 388.51 134.23 388.57 Z" />
</g>
<g id="#b993a5ff">
<path fill="#b993a5" opacity="1.00" d=" M 324.19 387.97 L 324.57 388.45 L 324.62 388.94 L 324.29 388.57 L 324.19 387.97 Z" />
</g>
<g id="#b88d9fff">
<path fill="#b88d9f" opacity="1.00" d=" M 21.49 389.49 L 21.77 389.06 C 21.67 389.26 21.47 389.65 21.38 389.85 L 21.49 389.49 Z" />
</g>
<g id="#b991a3ff">
<path fill="#b991a3" opacity="1.00" d=" M 131.99 389.74 C 132.18 389.66 132.55 389.49 132.74 389.40 L 132.41 389.66 L 131.99 389.74 Z" />
<path fill="#b991a3" opacity="1.00" d=" M 15.36 551.08 L 15.64 551.44 L 15.66 551.89 L 15.39 551.53 L 15.36 551.08 Z" />
</g>
<g id="#b98ea0ff">
<path fill="#b98ea0" opacity="1.00" d=" M 327.29 394.28 C 327.37 394.43 327.51 394.72 327.58 394.87 L 327.42 394.58 L 327.29 394.28 Z" />
</g>
<g id="#b997a8ff">
<path fill="#b997a8" opacity="1.00" d=" M 328.37 396.35 L 328.52 396.61 L 328.63 396.89 C 328.56 396.76 328.43 396.48 328.37 396.35 Z" />
</g>
<g id="#3c82b7ff">
<path fill="#3c82b7" opacity="1.00" d=" M 619.24 397.28 C 619.82 397.81 619.82 397.81 619.24 397.28 Z" />
<path fill="#3c82b7" opacity="1.00" d=" M 621.29 397.34 C 621.87 397.87 621.87 397.87 621.29 397.34 Z" />
<path fill="#3c82b7" opacity="1.00" d=" M 623.28 397.24 C 623.82 397.81 623.82 397.81 623.28 397.24 Z" />
<path fill="#3c82b7" opacity="1.00" d=" M 625.24 397.18 C 625.79 397.75 625.79 397.75 625.24 397.18 Z" />
<path fill="#3c82b7" opacity="1.00" d=" M 627.24 397.21 C 627.79 397.78 627.79 397.78 627.24 397.21 Z" />
<path fill="#3c82b7" opacity="1.00" d=" M 629.19 397.21 C 629.74 397.77 629.74 397.77 629.19 397.21 Z" />
<path fill="#3c82b7" opacity="1.00" d=" M 631.23 397.23 C 631.79 397.79 631.79 397.79 631.23 397.23 Z" />
<path fill="#3c82b7" opacity="1.00" d=" M 633.22 397.28 C 633.83 397.78 633.83 397.78 633.22 397.28 Z" />
<path fill="#3c82b7" opacity="1.00" d=" M 635.21 397.32 C 635.76 397.89 635.76 397.89 635.21 397.32 Z" />
<path fill="#3c82b7" opacity="1.00" d=" M 637.21 397.24 C 637.79 397.78 637.79 397.78 637.21 397.24 Z" />
<path fill="#3c82b7" opacity="1.00" d=" M 639.18 397.19 C 639.74 397.73 639.74 397.73 639.18 397.19 Z" />
<path fill="#3c82b7" opacity="1.00" d=" M 641.23 397.25 C 641.78 397.81 641.78 397.81 641.23 397.25 Z" />
</g>
<g id="#4180b3ff">
<path fill="#4180b3" opacity="1.00" d=" M 642.59 397.24 C 647.04 396.83 651.53 397.08 656.00 397.00 L 656.00 398.01 C 651.56 397.51 646.80 398.86 642.59 397.24 Z" />
<path fill="#4180b3" opacity="1.00" d=" M 642.59 400.19 C 647.05 399.88 651.53 400.11 656.00 399.99 L 656.00 401.15 C 651.58 400.47 646.74 401.92 642.59 400.19 Z" />
</g>
<g id="#b994a5ff">
<path fill="#b994a5" opacity="1.00" d=" M 14.45 404.76 C 14.51 404.62 14.63 404.34 14.68 404.21 L 14.58 404.49 L 14.45 404.76 Z" />
</g>
<g id="#b992a3ff">
<path fill="#b992a3" opacity="1.00" d=" M 13.04 408.09 C 13.28 407.52 13.75 406.39 13.99 405.82 C 13.75 406.39 13.28 407.52 13.04 408.09 Z" />
</g>
<g id="#b6b3c6ff">
<path fill="#b6b3c6" opacity="1.00" d=" M 236.74 406.43 C 239.34 408.12 241.56 410.61 242.93 413.40 C 240.58 411.35 238.41 409.08 236.74 406.43 Z" />
</g>
<g id="#cdc0cdff">
<path fill="#cdc0cd" opacity="1.00" d=" M 103.12 414.39 C 104.52 411.65 106.63 409.20 109.18 407.47 C 107.72 410.23 105.47 412.40 103.12 414.39 Z" />
</g>
<g id="#e5bac0ff">
<path fill="#e5bac0" opacity="1.00" d=" M 98.32 421.33 C 97.92 419.68 98.52 418.85 100.12 418.84 C 100.00 419.99 99.40 420.82 98.32 421.33 Z" />
</g>
<g id="#e5b8bdff">
<path fill="#e5b8bd" opacity="1.00" d=" M 96.34 424.37 C 95.90 422.70 96.51 421.86 98.16 421.85 C 97.96 422.97 97.36 423.82 96.34 424.37 Z" />
</g>
<g id="#baa2b4ff">
<path fill="#baa2b4" opacity="1.00" d=" M 252.41 427.17 C 252.48 427.29 252.61 427.52 252.67 427.64 C 252.61 427.52 252.48 427.29 252.41 427.17 Z" />
</g>
<g id="#b998a9ff">
<path fill="#b998a9" opacity="1.00" d=" M 91.39 432.80 C 91.46 432.62 91.61 432.27 91.69 432.09 L 91.60 432.48 L 91.39 432.80 Z" />
</g>
<g id="#afacc1ff">
<path fill="#afacc1" opacity="1.00" d=" M 87.41 441.01 C 88.61 438.46 89.05 435.43 91.11 433.38 C 87.68 441.50 84.99 449.88 83.06 458.48 C 83.22 452.45 85.38 446.63 87.41 441.01 Z" />
</g>
<g id="#ba9daeff">
<path fill="#ba9dae" opacity="1.00" d=" M 256.89 437.21 L 257.76 437.26 L 258.28 438.21 L 257.89 439.07 C 257.64 438.61 257.14 437.67 256.89 437.21 Z" />
<path fill="#ba9dae" opacity="1.00" d=" M 139.22 565.89 C 139.69 566.14 140.61 566.65 141.08 566.90 L 140.21 567.29 L 139.26 566.77 L 139.22 565.89 Z" />
</g>
<g id="#e5b7bcff">
<path fill="#e5b7bc" opacity="1.00" d=" M 2.63 449.24 C 0.93 448.77 1.79 446.55 2.96 445.99 C 2.88 446.80 2.71 448.43 2.63 449.24 Z" />
</g>
<g id="#e5b7bdff">
<path fill="#e5b7bd" opacity="1.00" d=" M 344.00 450.95 C 345.48 451.43 345.68 453.34 344.46 454.24 C 344.34 453.42 344.11 451.77 344.00 450.95 Z" />
</g>
<g id="#f2b2b5ff">
<path fill="#f2b2b5" opacity="1.00" d=" M 0.00 464.29 L 0.97 463.42 C 0.99 466.08 1.03 468.74 0.90 471.40 L 0.00 472.31 L 0.00 464.29 Z" />
</g>
<g id="#7fc5e8ff">
<path fill="#7fc5e8" opacity="1.00" d=" M 0.00 472.31 L 0.90 471.40 C 1.02 475.13 1.02 478.85 0.88 482.58 L 0.00 481.55 L 0.00 472.31 Z" />
</g>
<g id="#f3babcff">
<path fill="#f3babc" opacity="1.00" d=" M 0.00 481.55 L 0.88 482.58 C 1.04 485.39 0.99 488.21 0.99 491.03 L 0.00 489.52 L 0.00 481.55 Z" />
</g>
<g id="#f9b2b2ff">
<path fill="#f9b2b2" opacity="1.00" d=" M 344.15 502.04 C 344.24 501.41 344.44 500.14 344.53 499.51 C 344.44 500.14 344.24 501.41 344.15 502.04 Z" />
</g>
<g id="#baa7b8ff">
<path fill="#baa7b8" opacity="1.00" d=" M 93.33 523.38 C 93.39 523.48 93.50 523.70 93.56 523.80 C 93.50 523.70 93.39 523.48 93.33 523.38 Z" />
</g>
<g id="#b999aaff">
<path fill="#b999aa" opacity="1.00" d=" M 250.42 527.49 L 250.65 527.19 C 250.57 527.36 250.40 527.70 250.32 527.87 L 250.42 527.49 Z" />
</g>
<g id="#b77889ff">
<path fill="#b77889" opacity="1.00" d=" M 100.34 534.14 L 100.69 534.39 L 100.87 534.78 C 100.74 534.62 100.47 534.30 100.34 534.14 Z" />
</g>
<g id="#9987a1ff">
<path fill="#9987a1" opacity="1.00" d=" M 10.04 536.87 C 10.28 537.45 10.76 538.60 11.00 539.17 C 10.76 538.60 10.28 537.45 10.04 536.87 Z" />
</g>
<g id="#998ba6ff">
<path fill="#998ba6" opacity="1.00" d=" M 335.11 540.21 C 335.32 539.62 335.74 538.45 335.94 537.86 C 335.74 538.45 335.32 539.62 335.11 540.21 Z" />
</g>
<g id="#baa1b2ff">
<path fill="#baa1b2" opacity="1.00" d=" M 240.74 541.00 C 240.98 539.90 241.62 539.11 242.64 538.64 C 243.07 540.28 242.44 541.07 240.74 541.00 Z" />
</g>
<g id="#9990aaff">
<path fill="#9990aa" opacity="1.00" d=" M 10.98 539.92 C 11.22 540.49 11.69 541.64 11.93 542.22 C 11.69 541.64 11.22 540.49 10.98 539.92 Z" />
</g>
<g id="#cebcc8ff">
<path fill="#cebcc8" opacity="1.00" d=" M 108.66 544.64 C 112.31 547.27 115.32 550.64 118.40 553.89 C 114.62 551.59 110.90 548.49 108.66 544.64 Z" />
</g>
<g id="#b995a7ff">
<path fill="#b995a7" opacity="1.00" d=" M 332.35 547.83 C 332.42 547.64 332.55 547.26 332.62 547.07 C 332.55 547.26 332.42 547.64 332.35 547.83 Z" />
</g>
<g id="#b994a6ff">
<path fill="#b994a6" opacity="1.00" d=" M 330.98 551.12 C 331.25 550.54 331.78 549.37 332.04 548.79 C 331.78 549.37 331.25 550.54 330.98 551.12 Z" />
</g>
<g id="#fbc8c8ff">
<path fill="#fbc8c8" opacity="1.00" d=" M 229.84 551.84 C 230.13 550.68 230.86 550.04 232.03 549.90 C 232.20 551.45 231.47 552.09 229.84 551.84 Z" />
</g>
<g id="#e5b2b8ff">
<path fill="#e5b2b8" opacity="1.00" d=" M 122.83 556.87 C 123.98 557.02 124.83 557.63 125.38 558.70 C 123.71 559.08 122.86 558.47 122.83 556.87 Z" />
</g>
<g id="#d0b2beff">
<path fill="#d0b2be" opacity="1.00" d=" M 125.80 558.83 C 126.93 559.00 127.80 559.57 128.41 560.55 C 126.72 561.04 125.85 560.47 125.80 558.83 Z" />
</g>
<g id="#b88a9cff">
<path fill="#b88a9c" opacity="1.00" d=" M 129.19 561.32 C 129.32 561.40 129.59 561.57 129.73 561.65 C 129.59 561.57 129.32 561.40 129.19 561.32 Z" />
</g>
<g id="#bbafc1ff">
<path fill="#bbafc1" opacity="1.00" d=" M 20.45 562.33 C 20.49 562.40 20.57 562.56 20.62 562.64 C 20.57 562.56 20.49 562.40 20.45 562.33 Z" />
</g>
<g id="#b99eafff">
<path fill="#b99eaf" opacity="1.00" d=" M 131.34 562.48 C 131.46 562.54 131.69 562.66 131.81 562.72 C 131.69 562.66 131.46 562.54 131.34 562.48 Z" />
</g>
<g id="#bba9bbff">
<path fill="#bba9bb" opacity="1.00" d=" M 133.30 563.50 C 133.40 563.55 133.59 563.64 133.69 563.69 C 133.59 563.64 133.40 563.55 133.30 563.50 Z" />
</g>
<g id="#baa2b3ff">
<path fill="#baa2b3" opacity="1.00" d=" M 135.14 564.40 C 135.25 564.46 135.49 564.57 135.61 564.63 C 135.49 564.57 135.25 564.46 135.14 564.40 Z" />
</g>
<g id="#b88c9dff">
<path fill="#b88c9d" opacity="1.00" d=" M 137.17 565.36 C 137.31 565.42 137.60 565.54 137.75 565.60 C 137.60 565.54 137.31 565.42 137.17 565.36 Z" />
</g>
<g id="#b99aabff">
<path fill="#b99aab" opacity="1.00" d=" M 196.99 569.79 C 197.78 569.03 198.73 568.71 199.81 568.84 C 199.53 570.43 198.59 570.74 196.99 569.79 Z" />
</g>
<g id="#e4b2b7ff">
<path fill="#e4b2b7" opacity="1.00" d=" M 32.91 582.61 C 34.23 582.95 34.94 583.86 35.03 585.35 C 33.61 584.97 32.91 584.06 32.91 582.61 Z" />
</g>
<g id="#b67081ff">
<path fill="#b67081" opacity="1.00" d=" M 311.40 585.42 L 311.82 585.16 L 311.66 585.62 L 311.26 585.88 L 311.40 585.42 Z" />
</g>
<g id="#e7cacfff">
<path fill="#e7cacf" opacity="1.00" d=" M 49.83 603.36 C 53.63 606.73 57.23 610.33 60.61 614.13 C 57.40 612.96 55.46 610.06 53.04 607.85 C 51.62 606.62 50.60 605.05 49.83 603.36 Z" />
</g>
<g id="#bba8baff">
<path fill="#bba8ba" opacity="1.00" d=" M 273.95 624.13 C 274.45 623.76 275.44 623.02 275.93 622.65 C 275.44 623.02 274.45 623.76 273.95 624.13 Z" />
</g>
<g id="#d0b3bfff">
<path fill="#d0b3bf" opacity="1.00" d=" M 77.58 627.95 C 78.94 628.04 79.89 628.72 80.43 630.00 C 78.89 630.10 77.94 629.42 77.58 627.95 Z" />
</g>
<g id="#b66f80ff">
<path fill="#b66f80" opacity="1.00" d=" M 266.43 629.40 L 266.90 629.25 L 266.64 629.66 L 266.19 629.83 L 266.43 629.40 Z" />
</g>
<g id="#b98e9fff">
<path fill="#b98e9f" opacity="1.00" d=" M 90.18 636.27 L 90.62 636.35 L 90.95 636.67 L 90.50 636.59 L 90.18 636.27 Z" />
</g>
<g id="#9eabc5ff">
<path fill="#9eabc5" opacity="1.00" d=" M 241.17 644.07 C 244.40 641.90 247.89 640.13 251.57 638.86 C 248.46 641.23 244.90 642.92 241.17 644.07 Z" />
</g>
<g id="#98a7c2ff">
<path fill="#98a7c2" opacity="1.00" d=" M 223.53 650.97 C 228.79 648.67 234.18 646.64 239.62 644.80 C 234.60 647.60 229.14 649.70 223.53 650.97 Z" />
</g>
<g id="#b997a9ff">
<path fill="#b997a9" opacity="1.00" d=" M 112.15 647.32 L 112.54 647.37 L 112.88 647.59 L 112.49 647.52 L 112.15 647.32 Z" />
</g>
<g id="#adadc2ff">
<path fill="#adadc2" opacity="1.00" d=" M 113.47 647.86 C 119.85 649.71 126.10 651.97 132.43 653.99 C 125.88 652.92 119.38 650.89 113.47 647.86 Z" />
</g>
<g id="#a6a6bdff">
<path fill="#a6a6bd" opacity="1.00" d=" M 132.59 654.02 C 135.71 654.37 138.81 654.93 141.78 656.00 L 135.85 656.00 L 136.66 655.47 C 135.31 654.95 133.95 654.47 132.59 654.02 Z" />
</g>
</svg>
