<?xml version="1.0" encoding="UTF-8" ?>
<!DOCTYPE svg PUBLIC "-//W3C//DTD SVG 1.1//EN" "http://www.w3.org/Graphics/SVG/1.1/DTD/svg11.dtd">
<svg width="181pt" height="373pt" viewBox="0 0 181 373" version="1.1" xmlns="http://www.w3.org/2000/svg">
<g id="#ffffffff">
</g>
<g id="#ed1c24ff">
<path fill="#ed1c24" opacity="1.00" d=" M 54.44 6.44 C 55.78 3.11 60.22 3.10 61.56 6.45 C 62.54 12.58 61.75 18.84 62.00 25.03 C 61.82 29.87 62.47 34.77 61.56 39.56 C 60.22 42.89 55.77 42.90 54.45 39.55 C 53.48 34.10 54.22 28.52 54.00 23.02 C 54.22 17.50 53.49 11.91 54.44 6.44 Z" />
<path fill="#ed1c24" opacity="1.00" d=" M 95.45 15.95 C 97.51 16.05 100.27 15.39 101.11 17.94 C 102.55 19.60 100.86 21.49 99.75 22.75 C 92.44 30.10 85.06 37.39 77.77 44.77 C 76.50 46.09 74.94 47.06 73.40 48.03 C 72.28 47.24 71.10 46.53 70.09 45.59 C 69.96 44.21 69.98 42.83 69.95 41.45 C 78.53 33.03 87.04 24.53 95.45 15.95 Z" />
<path fill="#ed1c24" opacity="1.00" d=" M 79.44 55.44 C 84.91 54.49 90.49 55.22 96.01 55.00 C 101.52 55.22 107.10 54.49 112.55 55.45 C 115.91 56.77 115.89 61.23 112.55 62.56 C 107.08 63.51 101.49 62.77 95.97 63.00 C 90.47 62.77 84.89 63.52 79.45 62.55 C 76.09 61.23 76.11 56.77 79.44 55.44 Z" />
</g>
<g id="#f3c19eff">
<path fill="#f3c19e" opacity="1.00" d=" M 52.20 47.66 C 57.53 46.65 63.49 46.01 68.36 48.95 C 67.43 49.38 66.51 49.80 65.58 50.22 C 61.99 50.78 57.42 49.50 54.92 52.89 C 51.50 56.70 52.36 62.17 52.29 66.87 C 56.63 67.09 60.98 67.37 65.32 67.14 C 65.46 82.77 65.18 98.42 65.45 114.05 C 65.53 122.47 67.44 130.68 69.27 138.85 C 71.01 148.15 73.10 157.43 76.58 166.26 C 76.73 161.44 76.63 156.62 76.51 151.81 C 80.80 151.57 84.83 150.06 88.96 149.02 C 93.80 147.84 98.88 150.14 101.98 153.86 C 104.49 156.40 106.84 160.45 111.04 159.64 C 116.07 158.74 121.06 156.43 126.28 157.77 C 131.67 158.35 135.52 162.41 140.04 164.90 C 144.64 166.86 149.83 166.37 154.57 167.83 C 161.36 169.34 166.10 175.37 168.77 181.43 C 168.38 193.58 167.42 205.78 164.41 217.60 C 161.94 230.98 158.19 244.07 153.89 256.96 C 151.95 262.64 148.11 267.38 145.70 272.84 C 142.65 279.14 140.85 285.93 138.21 292.39 C 120.14 292.46 102.07 292.31 84.01 292.48 C 77.46 292.45 70.89 292.81 64.36 292.23 C 64.07 292.09 63.51 291.79 63.22 291.65 C 59.98 281.89 53.68 273.61 47.70 265.40 C 39.67 256.01 32.49 245.80 27.22 234.59 C 24.99 229.77 23.12 224.72 22.37 219.44 C 20.14 202.85 22.73 186.09 26.50 169.93 C 28.39 162.20 27.92 154.06 25.32 146.56 C 27.99 144.79 30.80 143.21 33.70 141.85 C 32.92 138.65 32.52 135.18 30.51 132.46 C 28.68 130.17 26.37 128.33 24.26 126.31 C 27.92 124.05 32.63 123.51 36.50 125.59 C 35.77 125.74 35.05 125.90 34.32 126.05 C 40.66 132.52 45.74 141.74 43.85 151.05 C 42.94 157.34 41.87 163.63 41.75 170.00 C 41.57 178.45 43.53 186.99 47.76 194.34 C 48.06 180.57 47.26 166.81 47.36 153.04 C 47.16 147.35 47.93 141.48 46.15 135.96 C 47.08 133.41 47.73 130.75 47.67 128.02 C 47.67 110.01 47.69 91.99 47.69 73.97 C 47.72 69.64 47.39 65.30 47.71 60.98 C 48.02 56.22 50.30 51.94 52.20 47.66 Z" />
</g>
<g id="#dedcd8ff">
<path fill="#dedcd8" opacity="1.00" d=" M 43.12 60.99 C 42.82 55.19 46.24 48.99 52.20 47.66 C 50.30 51.94 48.02 56.22 47.71 60.98 C 47.39 65.30 47.72 69.64 47.69 73.97 C 47.69 91.99 47.67 110.01 47.67 128.02 C 47.73 130.75 47.08 133.41 46.15 135.96 C 45.06 134.32 43.92 132.73 42.65 131.23 C 42.59 107.82 43.10 84.41 43.12 60.99 Z" />
</g>
<g id="#ddaa8fff">
<path fill="#ddaa8f" opacity="1.00" d=" M 65.58 50.22 C 66.51 49.80 67.43 49.38 68.36 48.95 C 71.99 52.28 73.38 57.18 73.39 61.98 C 73.44 70.78 73.70 79.58 73.72 88.38 C 70.94 81.26 72.55 73.56 70.95 66.24 C 70.13 61.06 69.39 55.66 65.99 51.45 L 65.58 50.22 Z" />
</g>
<g id="#fadcc8ff">
<path fill="#fadcc8" opacity="1.00" d=" M 54.92 52.89 C 57.42 49.50 61.99 50.78 65.58 50.22 L 65.99 51.45 C 65.88 56.64 65.84 61.84 66.37 67.02 L 65.32 67.14 C 60.98 67.37 56.63 67.09 52.29 66.87 C 52.36 62.17 51.50 56.70 54.92 52.89 Z" />
</g>
<g id="#f5cdafff">
<path fill="#f5cdaf" opacity="1.00" d=" M 65.99 51.45 C 69.39 55.66 70.13 61.06 70.95 66.24 C 69.42 66.51 67.90 66.79 66.37 67.02 C 65.84 61.84 65.88 56.64 65.99 51.45 Z" />
</g>
<g id="#e9a980ff">
<path fill="#e9a980" opacity="1.00" d=" M 70.95 66.24 C 72.55 73.56 70.94 81.26 73.72 88.38 C 74.22 94.58 74.37 100.80 74.49 107.01 C 74.96 121.96 76.50 136.85 76.51 151.81 C 76.63 156.62 76.73 161.44 76.58 166.26 C 73.10 157.43 71.01 148.15 69.27 138.85 C 67.44 130.68 65.53 122.47 65.45 114.05 C 65.18 98.42 65.46 82.77 65.32 67.14 L 66.37 67.02 C 67.90 66.79 69.42 66.51 70.95 66.24 Z" />
</g>
<g id="#fbdcc9ff">
<path fill="#fbdcc9" opacity="1.00" d=" M 25.32 146.56 C 23.57 140.04 20.76 132.75 24.26 126.31 C 26.37 128.33 28.68 130.17 30.51 132.46 C 32.52 135.18 32.92 138.65 33.70 141.85 C 30.80 143.21 27.99 144.79 25.32 146.56 Z" />
</g>
<g id="#c78f6cff">
<path fill="#c78f6c" opacity="1.00" d=" M 34.32 126.05 C 35.05 125.90 35.77 125.74 36.50 125.59 C 38.65 127.34 40.75 129.19 42.65 131.23 C 43.92 132.73 45.06 134.32 46.15 135.96 C 47.93 141.48 47.16 147.35 47.36 153.04 C 47.26 166.81 48.06 180.57 47.76 194.34 C 43.53 186.99 41.57 178.45 41.75 170.00 C 41.87 163.63 42.94 157.34 43.85 151.05 C 45.74 141.74 40.66 132.52 34.32 126.05 Z" />
</g>
<g id="#e8aa82ff">
<path fill="#e8aa82" opacity="1.00" d=" M 164.41 217.60 C 167.42 205.78 168.38 193.58 168.77 181.43 C 171.53 188.96 172.02 197.06 171.70 205.02 C 171.17 219.45 169.88 233.91 167.22 248.12 C 165.74 256.72 160.85 264.19 158.83 272.62 C 156.89 279.11 155.94 285.83 154.49 292.43 C 149.06 292.42 143.63 292.39 138.21 292.39 C 140.85 285.93 142.65 279.14 145.70 272.84 C 148.11 267.38 151.95 262.64 153.89 256.96 C 158.19 244.07 161.94 230.98 164.41 217.60 Z" />
</g>
<g id="#f1f0f0ff">
<path fill="#f1f0f0" opacity="1.00" d=" M 154.49 292.43 C 155.94 285.83 156.89 279.11 158.83 272.62 C 158.69 279.20 157.16 285.60 156.03 292.05 C 158.00 292.17 159.97 292.29 161.94 292.39 C 162.29 298.12 162.40 303.85 162.20 309.59 C 143.48 309.26 124.75 309.52 106.03 309.44 C 99.40 309.56 92.76 309.07 86.15 309.72 C 85.23 304.42 85.11 299.04 85.07 293.68 C 78.22 292.63 70.89 294.96 64.36 292.23 C 70.89 292.81 77.46 292.45 84.01 292.48 C 102.07 292.31 120.14 292.46 138.21 292.39 C 143.63 292.39 149.06 292.42 154.49 292.43 Z" />
</g>
<g id="#e2e2e2ff">
<path fill="#e2e2e2" opacity="1.00" d=" M 63.22 291.65 C 63.51 291.79 64.07 292.09 64.36 292.23 C 70.89 294.96 78.22 292.63 85.07 293.68 C 85.11 299.04 85.23 304.42 86.15 309.72 C 77.02 310.90 67.80 310.07 58.63 310.34 C 58.54 304.58 58.48 298.82 58.62 293.06 C 60.15 292.58 61.68 292.10 63.22 291.65 Z" />
</g>
<g id="#ecfeffff">
<path fill="#ecfeff" opacity="1.00" d=" M 162.20 309.59 C 164.24 309.38 166.25 308.82 168.30 308.87 C 169.58 309.58 170.68 310.58 171.82 311.50 C 141.94 311.57 112.05 311.55 82.17 311.48 C 71.24 311.41 60.32 311.55 49.39 311.59 L 49.44 310.95 C 52.49 310.58 55.56 310.40 58.63 310.34 C 67.80 310.07 77.02 310.90 86.15 309.72 C 92.76 309.07 99.40 309.56 106.03 309.44 C 124.75 309.52 143.48 309.26 162.20 309.59 Z" />
</g>
<g id="#407199ff">
<path fill="#407199" opacity="1.00" d=" M 49.39 311.59 C 60.32 311.55 71.24 311.41 82.17 311.48 C 82.03 331.99 82.00 352.50 82.20 373.00 L 49.60 373.00 C 49.28 370.34 49.19 367.67 49.25 365.00 C 49.42 347.20 49.12 329.39 49.39 311.59 Z" />
</g>
<g id="#4c82b0ff">
<path fill="#4c82b0" opacity="1.00" d=" M 82.17 311.48 C 112.05 311.55 141.94 311.57 171.82 311.50 C 171.57 332.00 171.76 352.50 171.72 373.00 L 82.20 373.00 C 82.00 352.50 82.03 331.99 82.17 311.48 Z" />
</g>
</svg>
