<?xml version="1.0" encoding="UTF-8" ?>
<!DOCTYPE svg PUBLIC "-//W3C//DTD SVG 1.1//EN" "http://www.w3.org/Graphics/SVG/1.1/DTD/svg11.dtd">
<svg width="286pt" height="83pt" viewBox="0 0 286 83" version="1.1" xmlns="http://www.w3.org/2000/svg">
<g id="#ffffffff">
</g>
<g id="#c0c0c0ff">
<path fill="#c0c0c0" opacity="1.00" d=" M 64.29 10.41 C 84.95 6.52 105.98 5.39 126.92 4.12 C 137.62 3.90 148.33 3.95 159.03 4.09 C 180.43 5.32 201.91 6.53 223.01 10.53 C 238.92 14.01 255.33 17.16 269.56 25.50 C 273.94 28.22 278.56 31.42 280.48 36.42 C 282.11 40.60 280.80 45.91 277.11 48.52 L 276.16 48.32 C 266.78 40.37 254.76 36.83 243.15 33.57 C 226.79 28.65 209.76 26.69 192.87 24.59 C 176.62 22.93 160.28 22.57 143.97 22.10 C 127.91 22.44 111.83 22.95 95.82 24.36 C 78.23 26.52 60.48 28.47 43.45 33.59 C 31.57 36.94 19.08 40.53 9.80 49.11 C 6.62 46.04 4.50 41.42 6.09 37.02 C 8.31 30.40 14.79 26.72 20.57 23.56 C 34.24 16.65 49.39 13.50 64.29 10.41 Z" />
</g>
<g id="#343434ff">
<path fill="#343434" opacity="1.00" d=" M 95.82 24.36 C 111.83 22.95 127.91 22.44 143.97 22.10 C 160.28 22.57 176.62 22.93 192.87 24.59 C 209.76 26.69 226.79 28.65 243.15 33.57 C 254.76 36.83 266.78 40.37 276.16 48.32 L 277.05 49.02 C 271.24 54.50 263.85 57.95 256.42 60.64 C 247.15 63.76 237.71 66.38 228.16 68.49 C 208.27 72.12 188.16 74.76 167.93 75.40 C 144.64 76.80 121.29 75.89 98.05 74.13 C 78.16 71.97 58.17 69.44 39.01 63.43 C 28.62 60.33 17.84 56.70 9.80 49.11 C 19.08 40.53 31.57 36.94 43.45 33.59 C 60.48 28.47 78.23 26.52 95.82 24.36 Z" />
</g>
</svg>
