<?xml version="1.0" encoding="UTF-8" ?>
<!DOCTYPE svg PUBLIC "-//W3C//DTD SVG 1.1//EN" "http://www.w3.org/Graphics/SVG/1.1/DTD/svg11.dtd">
<svg width="220pt" height="80pt" viewBox="0 0 220 80" version="1.1" xmlns="http://www.w3.org/2000/svg">
<g id="#fdfcfcff">
</g>
<g id="#520104ff">
<path fill="#520104" opacity="1.00" d=" M 10.16 11.23 C 12.26 9.23 20.94 8.62 22.00 11.02 C 22.03 15.41 22.14 19.80 22.20 24.19 C 20.05 26.55 15.18 24.41 12.05 25.01 C 7.48 23.08 10.54 15.44 10.16 11.23 M 13.08 13.01 C 12.78 18.18 11.51 25.39 19.92 21.99 C 20.22 16.82 21.49 9.61 13.08 13.01 Z" />
</g>
<g id="#9c787dff">
<path fill="#9c787d" opacity="1.00" d=" M 44.17 11.03 C 43.99 9.18 47.14 9.31 47.98 10.45 C 46.81 11.07 45.47 11.19 44.17 11.03 Z" />
</g>
<g id="#62070aff">
<path fill="#62070a" opacity="1.00" d=" M 47.98 10.45 C 56.21 9.25 65.76 8.30 70.82 16.18 C 72.86 20.98 73.83 26.12 74.41 31.29 C 75.35 30.03 76.13 28.66 76.80 27.23 C 82.77 18.90 97.90 16.61 105.84 23.07 C 108.62 24.94 111.95 33.95 110.92 26.16 C 111.08 20.79 119.10 21.33 123.18 20.98 C 124.79 21.21 126.44 21.09 127.95 20.48 C 133.00 20.36 140.50 17.76 144.05 22.90 C 145.69 24.22 147.97 29.87 150.08 26.45 C 152.04 24.51 154.12 21.87 157.17 22.00 C 158.50 22.18 159.88 22.06 161.08 21.40 L 162.07 21.09 C 163.40 21.19 164.76 21.05 165.98 20.44 C 172.06 19.86 178.74 19.16 184.66 21.34 C 188.61 23.23 185.05 14.56 186.01 12.21 C 192.96 10.83 202.24 7.85 209.03 11.19 C 209.13 18.15 208.32 25.07 207.93 32.01 C 207.17 32.01 205.67 32.01 204.92 32.02 C 204.99 25.74 205.10 19.46 205.96 13.23 C 200.39 14.27 194.72 12.23 189.19 14.22 C 187.12 20.26 190.21 26.98 188.09 33.15 C 187.60 33.11 186.61 33.03 186.12 32.98 C 186.22 28.41 185.11 28.60 184.30 32.71 C 184.05 33.11 183.56 33.92 183.31 34.33 C 181.87 34.63 180.36 34.96 178.92 34.46 C 181.57 31.96 182.43 28.27 183.86 25.04 C 176.94 21.52 168.14 22.23 161.19 25.22 C 155.97 24.29 151.90 28.70 149.59 32.89 C 149.23 32.95 148.52 33.05 148.16 33.11 C 145.42 29.43 142.27 26.00 138.60 23.25 C 130.53 23.07 121.51 22.92 114.17 26.27 C 114.21 27.65 114.30 30.41 114.35 31.80 C 114.14 35.74 111.34 36.84 108.23 35.59 C 107.28 16.38 76.32 19.95 75.88 37.84 C 74.91 38.26 73.95 38.69 72.98 39.12 C 72.30 38.18 71.62 37.25 70.99 36.28 C 72.56 28.48 69.36 19.01 63.30 13.71 C 49.42 9.45 29.49 16.37 30.91 34.05 L 30.82 35.12 C 29.88 34.74 28.96 34.34 28.04 33.94 C 28.06 33.24 28.10 31.85 28.12 31.15 C 29.01 30.01 29.19 28.56 29.00 27.17 C 30.19 19.78 36.04 11.63 44.17 11.03 C 45.47 11.19 46.81 11.07 47.98 10.45 Z" />
</g>
<g id="#6b3339ff">
<path fill="#6b3339" opacity="1.00" d=" M 22.00 11.02 L 22.96 10.82 C 23.06 11.28 23.25 12.19 23.35 12.65 C 23.32 16.56 22.94 20.41 22.20 24.19 C 22.14 19.80 22.03 15.41 22.00 11.02 Z" />
</g>
<g id="#d9d8d8ff">
<path fill="#d9d8d8" opacity="1.00" d=" M 22.96 10.82 C 31.08 14.79 21.35 26.47 28.12 31.15 C 28.10 31.85 28.06 33.24 28.04 33.94 C 27.98 38.60 27.99 43.26 28.14 47.92 C 27.61 49.64 27.49 51.64 28.79 53.07 C 28.78 53.49 28.78 54.32 28.78 54.73 C 27.04 56.79 24.05 58.34 26.07 62.01 C 30.03 71.67 12.61 74.43 11.02 66.90 L 11.70 67.36 C 16.16 70.77 27.67 70.49 24.99 62.00 C 23.53 51.57 27.99 39.10 23.19 29.64 C 23.14 29.20 23.04 28.32 22.99 27.88 C 25.06 23.25 26.86 16.88 23.35 12.65 C 23.25 12.19 23.06 11.28 22.96 10.82 Z" />
</g>
<g id="#8f8889ff">
<path fill="#8f8889" opacity="1.00" d=" M 209.03 11.19 C 209.30 11.37 209.84 11.73 210.11 11.91 C 212.06 22.57 209.10 33.29 210.02 44.03 C 210.40 46.66 207.94 48.17 206.61 50.06 C 205.32 48.72 204.08 47.34 202.89 45.92 C 212.02 48.69 208.28 36.89 207.93 32.01 C 208.32 25.07 209.13 18.15 209.03 11.19 Z" />
</g>
<g id="#9e6e74ff">
<path fill="#9e6e74" opacity="1.00" d=" M 184.66 21.34 C 185.55 19.08 183.64 12.64 186.01 12.21 C 185.05 14.56 188.61 23.23 184.66 21.34 Z" />
</g>
<g id="#cac9c9ff">
<path fill="#cac9c9" opacity="1.00" d=" M 210.11 11.91 C 213.64 11.44 212.54 17.55 212.96 19.02 C 211.07 29.55 213.52 40.82 210.17 50.90 C 216.40 59.73 210.76 71.86 199.90 71.77 C 194.97 72.28 191.07 69.21 187.02 67.04 C 175.44 73.72 155.60 74.64 149.16 61.79 C 151.72 63.56 154.15 65.51 156.82 67.12 C 166.67 72.16 178.67 69.75 188.14 64.80 C 189.62 66.04 191.15 67.25 192.85 68.18 C 202.02 75.25 216.85 64.06 209.25 53.85 C 208.43 52.55 207.53 51.29 206.61 50.06 C 207.94 48.17 210.40 46.66 210.02 44.03 C 209.10 33.29 212.06 22.57 210.11 11.91 Z" />
</g>
<g id="#942a26ff">
<path fill="#942a26" opacity="1.00" d=" M 13.08 13.01 C 21.49 9.61 20.22 16.82 19.92 21.99 C 11.51 25.39 12.78 18.18 13.08 13.01 Z" />
</g>
<g id="#9e9e9eff">
<path fill="#9e9e9e" opacity="1.00" d=" M 23.35 12.65 C 26.86 16.88 25.06 23.25 22.99 27.88 L 22.16 27.77 C 18.81 27.26 15.43 26.92 12.04 26.91 C 12.04 26.43 12.05 25.49 12.05 25.01 C 15.18 24.41 20.05 26.55 22.20 24.19 C 22.94 20.41 23.32 16.56 23.35 12.65 Z" />
</g>
<g id="#9d2a27ff">
<path fill="#9d2a27" opacity="1.00" d=" M 30.91 34.05 C 29.49 16.37 49.42 9.45 63.30 13.71 C 69.36 19.01 72.56 28.48 70.99 36.28 C 70.03 35.00 69.08 33.65 67.71 32.77 C 68.15 37.20 63.28 35.90 60.16 36.05 C 59.47 32.67 59.78 28.38 56.67 26.12 C 50.70 25.37 42.27 28.12 41.93 35.24 C 38.24 34.85 34.61 32.47 30.91 34.05 Z" />
</g>
<g id="#a22a26ff">
<path fill="#a22a26" opacity="1.00" d=" M 189.19 14.22 C 194.72 12.23 200.39 14.27 205.96 13.23 C 205.10 19.46 204.99 25.74 204.92 32.02 C 203.87 35.81 204.82 39.33 206.08 42.82 C 200.63 42.37 195.27 42.76 190.12 44.86 C 187.56 41.67 189.00 36.83 188.09 33.15 C 190.21 26.98 187.12 20.26 189.19 14.22 Z" />
<path fill="#a22a26" opacity="1.00" d=" M 114.17 26.27 C 121.51 22.92 130.53 23.07 138.60 23.25 C 142.27 26.00 145.42 29.43 148.16 33.11 C 145.22 33.21 142.65 31.85 140.00 30.82 C 142.72 33.59 139.81 35.69 138.16 38.01 C 138.26 34.70 136.57 31.84 135.29 28.91 C 136.14 34.94 129.89 33.79 126.09 32.98 C 126.09 34.76 126.09 38.32 126.09 40.11 C 123.38 42.37 122.28 38.38 124.77 37.05 C 121.51 34.83 119.62 33.05 115.30 35.05 C 114.98 33.96 114.67 32.88 114.35 31.80 C 114.30 30.41 114.21 27.65 114.17 26.27 Z" />
</g>
<g id="#a79d9eff">
<path fill="#a79d9e" opacity="1.00" d=" M 70.82 16.18 C 74.78 17.98 75.47 23.42 76.80 27.23 C 76.13 28.66 75.35 30.03 74.41 31.29 C 73.83 26.12 72.86 20.98 70.82 16.18 Z" />
</g>
<g id="#a6757bff">
<path fill="#a6757b" opacity="1.00" d=" M 123.18 20.98 C 123.35 19.01 126.81 19.43 127.95 20.48 C 126.44 21.09 124.79 21.21 123.18 20.98 Z" />
</g>
<g id="#ac7f84ff">
<path fill="#ac7f84" opacity="1.00" d=" M 162.07 21.09 C 161.98 19.23 165.07 19.33 165.98 20.44 C 164.76 21.05 163.40 21.19 162.07 21.09 Z" />
</g>
<g id="#a97378ff">
<path fill="#a97378" opacity="1.00" d=" M 157.17 22.00 C 157.07 20.17 160.17 20.37 161.08 21.40 C 159.88 22.06 158.50 22.18 157.17 22.00 Z" />
</g>
<g id="#a92b27ff">
<path fill="#a92b27" opacity="1.00" d=" M 75.88 37.84 C 76.32 19.95 107.28 16.38 108.23 35.59 C 108.80 39.14 109.60 42.66 109.92 46.24 C 107.35 46.13 102.91 41.12 107.93 41.67 C 107.49 37.63 101.77 39.45 99.04 40.13 C 99.33 30.05 84.72 33.75 84.69 41.95 C 81.29 43.73 79.01 40.53 75.91 40.75 C 75.91 40.02 75.89 38.57 75.88 37.84 Z" />
</g>
<g id="#b9b1b2ff">
<path fill="#b9b1b2" opacity="1.00" d=" M 105.84 23.07 C 108.08 22.86 109.42 24.86 110.92 26.16 C 111.95 33.95 108.62 24.94 105.84 23.07 Z" />
</g>
<g id="#b6a1a4ff">
<path fill="#b6a1a4" opacity="1.00" d=" M 144.05 22.90 C 146.36 23.50 147.99 25.39 150.08 26.45 C 147.97 29.87 145.69 24.22 144.05 22.90 Z" />
</g>
<g id="#a62a27ff">
<path fill="#a62a27" opacity="1.00" d=" M 161.19 25.22 C 168.14 22.23 176.94 21.52 183.86 25.04 C 182.43 28.27 181.57 31.96 178.92 34.46 C 173.30 33.50 164.30 28.38 161.63 35.96 C 160.15 37.82 159.67 39.45 162.73 39.17 C 159.94 41.83 164.42 44.21 159.75 45.47 C 156.60 43.90 151.79 43.24 151.14 39.14 C 154.72 36.41 148.26 36.99 149.59 32.89 C 151.90 28.70 155.97 24.29 161.19 25.22 Z" />
</g>
<g id="#7e0507ff">
<path fill="#7e0507" opacity="1.00" d=" M 41.93 35.24 C 42.27 28.12 50.70 25.37 56.67 26.12 C 59.78 28.38 59.47 32.67 60.16 36.05 C 60.72 41.92 61.36 53.09 51.96 51.07 C 43.59 52.07 40.92 41.81 41.93 35.24 M 45.84 41.99 C 45.81 47.01 53.35 50.91 55.75 47.11 C 58.49 43.29 57.65 36.71 55.79 32.80 C 55.89 32.28 56.10 31.24 56.20 30.72 C 49.79 25.43 40.67 36.83 45.84 41.99 Z" />
</g>
<g id="#770204ff">
<path fill="#770204" opacity="1.00" d=" M 10.07 41.00 C 11.28 36.94 7.15 29.11 12.04 26.91 C 15.43 26.92 18.81 27.26 22.16 27.77 C 22.03 33.85 22.03 39.93 21.97 46.01 C 21.48 46.00 20.49 45.99 19.99 45.98 C 16.93 40.08 24.46 26.53 13.08 30.04 C 13.05 32.78 12.99 38.26 12.96 41.00 C 12.24 41.00 10.80 41.00 10.07 41.00 Z" />
</g>
<g id="#ab6f75ff">
<path fill="#ab6f75" opacity="1.00" d=" M 28.12 31.15 C 27.37 30.08 27.24 27.14 29.00 27.17 C 29.19 28.56 29.01 30.01 28.12 31.15 Z" />
</g>
<g id="#8c2f35ff">
<path fill="#8c2f35" opacity="1.00" d=" M 22.16 27.77 L 22.99 27.88 C 23.04 28.32 23.14 29.20 23.19 29.64 C 22.48 41.80 23.95 54.15 22.27 66.20 C 22.07 59.47 22.02 52.74 21.97 46.01 C 22.03 39.93 22.03 33.85 22.16 27.77 Z" />
</g>
<g id="#826f71ff">
<path fill="#826f71" opacity="1.00" d=" M 45.84 41.99 C 40.67 36.83 49.79 25.43 56.20 30.72 C 49.89 30.40 45.05 35.76 45.84 41.99 Z" />
</g>
<g id="#780305ff">
<path fill="#780305" opacity="1.00" d=" M 135.29 28.91 C 136.57 31.84 138.26 34.70 138.16 38.01 C 134.92 40.35 129.74 37.92 126.09 40.11 C 126.09 38.32 126.09 34.76 126.09 32.98 C 129.89 33.79 136.14 34.94 135.29 28.91 Z" />
</g>
<g id="#84373cff">
<path fill="#84373c" opacity="1.00" d=" M 184.30 32.71 C 185.11 28.60 186.22 28.41 186.12 32.98 C 185.14 34.57 187.84 44.80 184.03 40.46 C 184.43 37.87 185.15 35.26 184.30 32.71 Z" />
</g>
<g id="#b92b27ff">
<path fill="#b92b27" opacity="1.00" d=" M 13.08 30.04 C 24.46 26.53 16.93 40.08 19.99 45.98 C 18.35 52.37 25.31 68.04 13.06 63.96 C 12.86 56.31 13.05 48.65 12.96 41.00 C 12.99 38.26 13.05 32.78 13.08 30.04 Z" />
</g>
<g id="#a0a0a0ff">
<path fill="#a0a0a0" opacity="1.00" d=" M 23.19 29.64 C 27.99 39.10 23.53 51.57 24.99 62.00 C 27.67 70.49 16.16 70.77 11.70 67.36 C 14.89 66.44 19.55 68.19 22.27 66.20 C 23.95 54.15 22.48 41.80 23.19 29.64 Z" />
</g>
<g id="#b1a8a9ff">
<path fill="#b1a8a9" opacity="1.00" d=" M 45.84 41.99 C 45.05 35.76 49.89 30.40 56.20 30.72 C 56.10 31.24 55.89 32.28 55.79 32.80 C 45.71 30.90 45.01 50.40 55.75 47.11 C 53.35 50.91 45.81 47.01 45.84 41.99 Z" />
</g>
<g id="#b82b27ff">
<path fill="#b82b27" opacity="1.00" d=" M 140.00 30.82 C 142.65 31.85 145.22 33.21 148.16 33.11 C 151.17 39.56 146.13 47.22 139.05 47.05 C 134.93 48.61 129.54 46.42 126.03 49.29 C 125.75 54.32 128.09 58.96 128.07 63.98 C 123.92 63.45 118.98 65.36 115.28 62.70 C 112.54 53.71 114.17 44.15 115.30 35.05 C 119.62 33.05 121.51 34.83 124.77 37.05 C 122.28 38.38 123.38 42.37 126.09 40.11 C 129.74 37.92 134.92 40.35 138.16 38.01 C 139.81 35.69 142.72 33.59 140.00 30.82 Z" />
</g>
<g id="#970508ff">
<path fill="#970508" opacity="1.00" d=" M 114.35 31.80 C 114.67 32.88 114.98 33.96 115.30 35.05 C 114.17 44.15 112.54 53.71 115.28 62.70 C 118.98 65.36 123.92 63.45 128.07 63.98 C 128.09 58.96 125.75 54.32 126.03 49.29 C 129.54 46.42 134.93 48.61 139.05 47.05 C 146.13 47.22 151.17 39.56 148.16 33.11 C 148.52 33.05 149.23 32.95 149.59 32.89 C 148.26 36.99 154.72 36.41 151.14 39.14 C 151.79 43.24 156.60 43.90 159.75 45.47 C 164.16 48.03 169.48 48.13 173.98 50.18 C 173.26 58.64 160.07 53.97 156.98 48.93 C 154.75 51.80 150.76 54.20 150.06 57.82 C 153.42 59.47 157.19 65.98 161.42 62.82 C 171.85 69.74 190.47 59.59 185.00 46.07 C 190.18 50.55 196.87 44.09 202.89 45.92 C 204.08 47.34 205.32 48.72 206.61 50.06 C 207.53 51.29 208.43 52.55 209.25 53.85 C 212.17 64.43 201.85 70.15 192.85 68.18 C 191.15 67.25 189.62 66.04 188.14 64.80 C 185.44 59.35 181.72 66.73 177.68 66.72 C 170.93 68.88 163.72 67.99 156.82 67.12 C 154.15 65.51 151.72 63.56 149.16 61.79 C 146.58 60.10 146.07 56.70 147.39 53.89 C 149.19 52.34 150.90 50.69 152.49 48.92 C 155.37 47.12 152.36 45.88 150.31 45.31 C 145.57 51.63 137.06 50.13 130.14 51.23 C 129.40 56.15 133.76 63.39 128.65 66.75 C 124.34 67.04 120.04 67.13 115.73 67.29 C 114.46 66.60 113.28 65.75 112.10 64.91 C 112.77 59.14 108.18 64.70 105.66 65.64 C 99.05 68.00 91.75 66.71 84.86 67.14 C 82.21 65.76 79.58 64.30 77.10 62.63 C 76.12 61.71 75.17 60.76 74.11 59.94 C 66.82 69.89 52.53 66.44 42.01 67.05 C 38.52 65.29 35.12 63.32 32.07 60.87 C 30.53 59.13 29.06 57.11 28.78 54.73 C 28.78 54.32 28.78 53.49 28.79 53.07 C 29.38 51.36 29.58 49.28 28.14 47.92 C 27.99 43.26 27.98 38.60 28.04 33.94 C 28.96 34.34 29.88 34.74 30.82 35.12 C 31.41 42.27 30.08 50.12 33.14 56.87 C 40.73 64.66 52.42 64.55 62.34 63.37 C 73.21 60.70 73.93 48.28 72.98 39.12 C 73.95 38.69 74.91 38.26 75.88 37.84 C 75.89 38.57 75.91 40.02 75.91 40.75 C 75.80 48.43 73.86 60.80 84.68 62.56 C 91.89 63.91 100.30 65.13 106.79 60.77 C 110.87 57.26 109.99 51.13 109.92 46.24 C 109.60 42.66 108.80 39.14 108.23 35.59 C 111.34 36.84 114.14 35.74 114.35 31.80 M 197.32 48.31 C 194.08 49.78 189.37 50.42 188.28 54.29 C 185.28 61.93 196.48 68.24 202.34 63.37 C 209.82 59.67 204.24 47.86 197.32 48.31 Z" />
</g>
<g id="#810306ff">
<path fill="#810306" opacity="1.00" d=" M 161.63 35.96 C 164.30 28.38 173.30 33.50 178.92 34.46 C 180.36 34.96 181.87 34.63 183.31 34.33 C 180.13 36.80 180.40 38.56 184.03 40.46 C 187.84 44.80 185.14 34.57 186.12 32.98 C 186.61 33.03 187.60 33.11 188.09 33.15 C 189.00 36.83 187.56 41.67 190.12 44.86 C 195.27 42.76 200.63 42.37 206.08 42.82 C 204.82 39.33 203.87 35.81 204.92 32.02 C 205.67 32.01 207.17 32.01 207.93 32.01 C 208.28 36.89 212.02 48.69 202.89 45.92 C 196.87 44.09 190.18 50.55 185.00 46.07 C 180.23 36.89 168.24 42.52 161.63 35.96 M 166.90 34.93 C 168.52 37.63 173.71 36.38 176.06 37.06 C 174.97 34.25 169.58 35.70 166.90 34.93 Z" />
</g>
<g id="#bb2a26ff">
<path fill="#bb2a26" opacity="1.00" d=" M 30.91 34.05 C 34.61 32.47 38.24 34.85 41.93 35.24 C 40.92 41.81 43.59 52.07 51.96 51.07 C 61.36 53.09 60.72 41.92 60.16 36.05 C 63.28 35.90 68.15 37.20 67.71 32.77 C 69.08 33.65 70.03 35.00 70.99 36.28 C 71.62 37.25 72.30 38.18 72.98 39.12 C 73.93 48.28 73.21 60.70 62.34 63.37 C 52.42 64.55 40.73 64.66 33.14 56.87 C 30.08 50.12 31.41 42.27 30.82 35.12 L 30.91 34.05 Z" />
</g>
<g id="#f0efefff">
</g>
<g id="#8a7b7cff">
<path fill="#8a7b7c" opacity="1.00" d=" M 184.30 32.71 C 185.15 35.26 184.43 37.87 184.03 40.46 C 180.40 38.56 180.13 36.80 183.31 34.33 C 183.56 33.92 184.05 33.11 184.30 32.71 Z" />
</g>
<g id="#8a0407ff">
<path fill="#8a0407" opacity="1.00" d=" M 84.69 41.95 C 84.72 33.75 99.33 30.05 99.04 40.13 C 97.96 44.46 101.41 51.05 96.66 53.84 C 88.60 57.24 83.82 48.79 84.69 41.95 M 88.87 47.00 C 88.30 50.12 94.16 52.63 94.89 50.23 C 96.79 49.13 97.19 46.75 96.07 43.08 C 95.99 41.53 95.96 39.88 94.71 38.77 C 92.77 33.82 82.75 44.27 88.87 47.00 Z" />
</g>
<g id="#7a484dff">
<path fill="#7a484d" opacity="1.00" d=" M 166.90 34.93 C 169.58 35.70 174.97 34.25 176.06 37.06 C 173.71 36.38 168.52 37.63 166.90 34.93 Z" />
</g>
<g id="#bd2a26ff">
<path fill="#bd2a26" opacity="1.00" d=" M 162.73 39.17 C 159.67 39.45 160.15 37.82 161.63 35.96 C 168.24 42.52 180.23 36.89 185.00 46.07 C 190.47 59.59 171.85 69.74 161.42 62.82 C 157.19 65.98 153.42 59.47 150.06 57.82 C 150.76 54.20 154.75 51.80 156.98 48.93 C 160.07 53.97 173.26 58.64 173.98 50.18 C 169.48 48.13 164.16 48.03 159.75 45.47 C 164.42 44.21 159.94 41.83 162.73 39.17 Z" />
</g>
<g id="#816668ff">
<path fill="#816668" opacity="1.00" d=" M 88.87 47.00 C 82.75 44.27 92.77 33.82 94.71 38.77 C 90.84 39.81 87.92 42.75 88.87 47.00 Z" />
</g>
<g id="#aca3a3ff">
<path fill="#aca3a3" opacity="1.00" d=" M 88.87 47.00 C 87.92 42.75 90.84 39.81 94.71 38.77 C 95.96 39.88 95.99 41.53 96.07 43.08 C 91.76 36.30 87.28 51.46 94.89 50.23 C 94.16 52.63 88.30 50.12 88.87 47.00 Z" />
</g>
<g id="#bf2b27ff">
<path fill="#bf2b27" opacity="1.00" d=" M 99.04 40.13 C 101.77 39.45 107.49 37.63 107.93 41.67 C 102.91 41.12 107.35 46.13 109.92 46.24 C 109.99 51.13 110.87 57.26 106.79 60.77 C 100.30 65.13 91.89 63.91 84.68 62.56 C 73.86 60.80 75.80 48.43 75.91 40.75 C 79.01 40.53 81.29 43.73 84.69 41.95 C 83.82 48.79 88.60 57.24 96.66 53.84 C 101.41 51.05 97.96 44.46 99.04 40.13 Z" />
</g>
<g id="#9a0003ff">
<path fill="#9a0003" opacity="1.00" d=" M 10.07 41.00 C 10.80 41.00 12.24 41.00 12.96 41.00 C 13.05 48.65 12.86 56.31 13.06 63.96 C 25.31 68.04 18.35 52.37 19.99 45.98 C 20.49 45.99 21.48 46.00 21.97 46.01 C 22.02 52.74 22.07 59.47 22.27 66.20 C 19.55 68.19 14.89 66.44 11.70 67.36 L 11.02 66.90 C 8.81 58.85 10.23 49.58 10.07 41.00 Z" />
</g>
<g id="#e5e4e4ff">
</g>
<g id="#93898aff">
<path fill="#93898a" opacity="1.00" d=" M 150.31 45.31 C 152.36 45.88 155.37 47.12 152.49 48.92 C 150.12 47.22 148.40 50.75 146.10 51.11 C 141.73 53.03 136.03 51.36 132.06 54.18 C 131.62 58.88 135.67 65.55 130.05 68.06 C 125.61 69.55 119.84 70.10 115.73 67.29 C 120.04 67.13 124.34 67.04 128.65 66.75 C 133.76 63.39 129.40 56.15 130.14 51.23 C 137.06 50.13 145.57 51.63 150.31 45.31 Z" />
</g>
<g id="#c17479ff">
<path fill="#c17479" opacity="1.00" d=" M 28.14 47.92 C 29.58 49.28 29.38 51.36 28.79 53.07 C 27.49 51.64 27.61 49.64 28.14 47.92 Z" />
</g>
<g id="#cac8c8ff">
<path fill="#cac8c8" opacity="1.00" d=" M 146.10 51.11 C 148.40 50.75 150.12 47.22 152.49 48.92 C 150.90 50.69 149.19 52.34 147.39 53.89 C 143.05 52.47 132.71 53.02 134.41 59.42 C 138.95 71.64 121.73 73.98 114.40 68.55 C 110.68 64.71 106.78 71.81 102.39 70.48 C 93.01 73.20 83.95 69.17 76.07 65.01 C 65.82 72.15 51.96 72.49 40.32 68.62 C 37.48 66.47 31.90 65.13 32.07 60.87 C 35.12 63.32 38.52 65.29 42.01 67.05 C 53.54 72.23 66.79 68.75 77.10 62.63 C 79.58 64.30 82.21 65.76 84.86 67.14 C 93.46 70.93 104.14 69.96 112.10 64.91 C 113.28 65.75 114.46 66.60 115.73 67.29 C 119.84 70.10 125.61 69.55 130.05 68.06 C 135.67 65.55 131.62 58.88 132.06 54.18 C 136.03 51.36 141.73 53.03 146.10 51.11 Z" />
</g>
<g id="#bf2825ff">
<path fill="#bf2825" opacity="1.00" d=" M 197.32 48.31 C 204.24 47.86 209.82 59.67 202.34 63.37 C 196.48 68.24 185.28 61.93 188.28 54.29 C 189.37 50.42 194.08 49.78 197.32 48.31 Z" />
</g>
<g id="#989696ff">
<path fill="#989696" opacity="1.00" d=" M 209.25 53.85 C 216.85 64.06 202.02 75.25 192.85 68.18 C 201.85 70.15 212.17 64.43 209.25 53.85 Z" />
</g>
<g id="#959292ff">
<path fill="#959292" opacity="1.00" d=" M 42.01 67.05 C 52.53 66.44 66.82 69.89 74.11 59.94 C 75.17 60.76 76.12 61.71 77.10 62.63 C 66.79 68.75 53.54 72.23 42.01 67.05 Z" />
</g>
<g id="#949091ff">
<path fill="#949091" opacity="1.00" d=" M 105.66 65.64 C 108.18 64.70 112.77 59.14 112.10 64.91 C 104.14 69.96 93.46 70.93 84.86 67.14 C 91.75 66.71 99.05 68.00 105.66 65.64 Z" />
</g>
<g id="#959090ff">
<path fill="#959090" opacity="1.00" d=" M 177.68 66.72 C 181.72 66.73 185.44 59.35 188.14 64.80 C 178.67 69.75 166.67 72.16 156.82 67.12 C 163.72 67.99 170.93 68.88 177.68 66.72 Z" />
</g>
</svg>
