<?xml version="1.0" encoding="UTF-8" ?>
<!DOCTYPE svg PUBLIC "-//W3C//DTD SVG 1.1//EN" "http://www.w3.org/Graphics/SVG/1.1/DTD/svg11.dtd">
<svg width="91pt" height="95pt" viewBox="0 0 91 95" version="1.1" xmlns="http://www.w3.org/2000/svg">
<g id="#f9fafaff">
<path fill="#f9fafa" opacity="1.00" d=" M 38.43 16.65 C 44.22 15.92 50.38 15.81 55.81 18.25 C 67.04 22.75 74.51 34.95 73.57 47.00 C 73.40 55.90 68.15 64.05 60.93 68.98 C 51.49 75.60 38.07 75.78 28.51 69.33 C 20.46 64.07 14.94 54.78 15.39 45.02 C 15.10 31.67 25.42 19.26 38.43 16.65 M 25.37 36.10 C 25.11 40.38 25.15 44.68 25.31 48.97 C 25.31 50.94 27.23 52.52 29.13 52.52 C 35.11 52.91 41.11 52.26 47.09 52.73 C 49.97 53.85 52.21 56.15 54.72 57.91 C 55.08 56.26 54.99 54.43 55.83 52.92 C 57.91 51.75 61.31 51.75 61.88 48.91 C 62.40 44.67 62.33 40.32 61.90 36.07 C 61.61 33.76 59.18 32.53 57.04 32.70 C 48.02 32.68 39.00 32.62 29.98 32.68 C 27.93 32.52 25.52 33.87 25.37 36.10 Z" />
<path fill="#f9fafa" opacity="1.00" d=" M 26.63 36.99 C 26.33 34.58 29.04 33.68 30.97 33.85 C 39.31 33.84 47.66 33.84 56.00 33.84 C 57.67 33.82 60.31 34.04 60.55 36.17 C 60.75 40.56 61.04 45.05 60.32 49.40 C 57.65 51.11 53.75 51.31 53.28 55.22 C 51.08 53.64 49.04 51.15 46.08 51.30 C 40.10 51.04 34.08 51.71 28.12 51.05 C 27.80 50.76 27.15 50.16 26.82 49.87 C 26.25 45.61 26.52 41.27 26.63 36.99 M 29.81 39.16 L 29.75 40.45 C 38.90 40.47 48.05 40.49 57.20 40.45 L 57.22 39.17 C 48.08 39.08 38.95 39.10 29.81 39.16 M 30.01 42.20 L 30.08 43.19 C 35.38 43.07 40.69 42.66 46.00 43.06 C 49.95 43.05 54.14 43.83 57.85 42.11 C 48.58 42.00 39.29 41.85 30.01 42.20 M 29.12 45.44 C 38.67 46.01 48.31 46.01 57.87 45.45 C 56.66 44.86 55.44 44.29 54.05 44.45 C 48.06 44.42 42.07 44.54 36.09 44.44 C 33.72 44.46 31.22 44.13 29.12 45.44 Z" />
</g>
<g id="#ee5b56ff">
<path fill="#ee5b56" opacity="1.00" d=" M 36.50 6.80 C 45.02 4.92 54.19 6.08 61.95 10.08 C 73.05 16.05 81.47 27.28 82.95 39.93 C 85.28 56.23 75.75 72.91 61.26 80.26 C 50.68 85.48 37.66 85.33 27.21 79.85 C 12.00 72.14 2.81 53.88 6.51 37.09 C 9.47 22.30 21.76 9.94 36.50 6.80 M 38.43 16.65 C 25.42 19.26 15.10 31.67 15.39 45.02 C 14.94 54.78 20.46 64.07 28.51 69.33 C 38.07 75.78 51.49 75.60 60.93 68.98 C 68.15 64.05 73.40 55.90 73.57 47.00 C 74.51 34.95 67.04 22.75 55.81 18.25 C 50.38 15.81 44.22 15.92 38.43 16.65 Z" />
<path fill="#ee5b56" opacity="1.00" d=" M 25.37 36.10 C 25.52 33.87 27.93 32.52 29.98 32.68 C 39.00 32.62 48.02 32.68 57.04 32.70 C 59.18 32.53 61.61 33.76 61.90 36.07 C 62.33 40.32 62.40 44.67 61.88 48.91 C 61.31 51.75 57.91 51.75 55.83 52.92 C 54.99 54.43 55.08 56.26 54.72 57.91 C 52.21 56.15 49.97 53.85 47.09 52.73 C 41.11 52.26 35.11 52.91 29.13 52.52 C 27.23 52.52 25.31 50.94 25.31 48.97 C 25.15 44.68 25.11 40.38 25.37 36.10 M 26.63 36.99 C 26.52 41.27 26.25 45.61 26.82 49.87 C 27.15 50.16 27.80 50.76 28.12 51.05 C 34.08 51.71 40.10 51.04 46.08 51.30 C 49.04 51.15 51.08 53.64 53.28 55.22 C 53.75 51.31 57.65 51.11 60.32 49.40 C 61.04 45.05 60.75 40.56 60.55 36.17 C 60.31 34.04 57.67 33.82 56.00 33.84 C 47.66 33.84 39.31 33.84 30.97 33.85 C 29.04 33.68 26.33 34.58 26.63 36.99 Z" />
<path fill="#ee5b56" opacity="1.00" d=" M 29.81 39.16 C 38.95 39.10 48.08 39.08 57.22 39.17 L 57.20 40.45 C 48.05 40.49 38.90 40.47 29.75 40.45 L 29.81 39.16 Z" />
<path fill="#ee5b56" opacity="1.00" d=" M 30.01 42.20 C 39.29 41.85 48.58 42.00 57.85 42.11 C 54.14 43.83 49.95 43.05 46.00 43.06 C 40.69 42.66 35.38 43.07 30.08 43.19 L 30.01 42.20 Z" />
<path fill="#ee5b56" opacity="1.00" d=" M 29.12 45.44 C 31.22 44.13 33.72 44.46 36.09 44.44 C 42.07 44.54 48.06 44.42 54.05 44.45 C 55.44 44.29 56.66 44.86 57.87 45.45 C 48.31 46.01 38.67 46.01 29.12 45.44 Z" />
</g>
</svg>
